<svg width="264" height="90" viewBox="0 0 264 90" fill="none" xmlns="http://www.w3.org/2000/svg">
<path d="M6.7687 65.3036C5.54022 65.3036 4.40296 65.0056 3.35692 64.4096C2.32305 63.8136 1.50203 62.9926 0.893873 61.9466C0.297876 60.9005 -0.00012207 59.745 -0.00012207 58.48C-0.00012207 57.2151 0.297876 56.0596 0.893873 55.0135C1.50203 53.9675 2.32305 53.1465 3.35692 52.5505C4.40296 51.9545 5.54022 51.6565 6.7687 51.6565C7.72959 51.6565 8.62967 51.8268 9.46893 52.1673C10.3204 52.5079 11.0197 52.9884 11.5671 53.6087L10.4541 54.7216C10.0406 54.2108 9.50542 53.8215 8.84861 53.554C8.20396 53.2742 7.51065 53.1343 6.7687 53.1343C5.85646 53.1343 4.99895 53.3593 4.19618 53.8094C3.40557 54.2473 2.76701 54.8737 2.28048 55.6886C1.80611 56.4914 1.56893 57.4219 1.56893 58.48C1.56893 59.5382 1.80611 60.4748 2.28048 61.2897C2.76701 62.0925 3.40557 62.7189 4.19618 63.169C4.99895 63.6068 5.85646 63.8258 6.7687 63.8258C7.64445 63.8258 8.37424 63.692 8.95807 63.4244C9.55407 63.1446 10.071 62.7797 10.5089 62.3297C10.8251 61.9891 11.0806 61.5756 11.2752 61.0891C11.4698 60.6025 11.5853 60.0734 11.6218 59.5018H6.80519V58.0604H13.0814C13.1422 58.401 13.1726 58.7172 13.1726 59.0091C13.1726 59.8119 13.0449 60.5964 12.7895 61.3627C12.5341 62.1168 12.1266 62.7797 11.5671 63.3514C10.3386 64.6529 8.73914 65.3036 6.7687 65.3036Z" fill="#656C73"/>
<path d="M19.1508 65.3036C18.2629 65.3036 17.4662 65.0968 16.7607 64.6833C16.0553 64.2576 15.5018 63.6798 15.1004 62.95C14.7112 62.2081 14.5166 61.3871 14.5166 60.487C14.5166 59.5869 14.7112 58.772 15.1004 58.0422C15.5018 57.3002 16.0553 56.7225 16.7607 56.3089C17.4662 55.8832 18.2629 55.6704 19.1508 55.6704C20.0387 55.6704 20.8354 55.8832 21.5409 56.3089C22.2585 56.7225 22.8119 57.3002 23.2011 58.0422C23.6025 58.772 23.8032 59.5869 23.8032 60.487C23.8032 61.3871 23.6025 62.2081 23.2011 62.95C22.8119 63.6798 22.2585 64.2576 21.5409 64.6833C20.8354 65.0968 20.0387 65.3036 19.1508 65.3036ZM19.1508 63.8988C19.6981 63.8988 20.209 63.7589 20.6833 63.4791C21.1577 63.1994 21.5348 62.8041 21.8145 62.2932C22.1064 61.7702 22.2524 61.1681 22.2524 60.487C22.2524 59.8058 22.1064 59.2098 21.8145 58.699C21.5348 58.176 21.1577 57.7746 20.6833 57.4948C20.209 57.2151 19.6981 57.0752 19.1508 57.0752C18.6156 57.0752 18.1108 57.2151 17.6365 57.4948C17.1621 57.7746 16.779 58.176 16.487 58.699C16.2073 59.2098 16.0674 59.8058 16.0674 60.487C16.0674 61.1681 16.2073 61.7702 16.487 62.2932C16.779 62.8041 17.1621 63.1994 17.6365 63.4791C18.1108 63.7589 18.6156 63.8988 19.1508 63.8988Z" fill="#656C73"/>
<path d="M29.6807 65.3036C28.7928 65.3036 27.9961 65.0968 27.2907 64.6833C26.5852 64.2576 26.0318 63.6798 25.6304 62.95C25.2412 62.2081 25.0466 61.3871 25.0466 60.487C25.0466 59.5869 25.2412 58.772 25.6304 58.0422C26.0318 57.3002 26.5852 56.7225 27.2907 56.3089C27.9961 55.8832 28.7928 55.6704 29.6807 55.6704C30.5687 55.6704 31.3653 55.8832 32.0708 56.3089C32.7884 56.7225 33.3419 57.3002 33.7311 58.0422C34.1325 58.772 34.3332 59.5869 34.3332 60.487C34.3332 61.3871 34.1325 62.2081 33.7311 62.95C33.3419 63.6798 32.7884 64.2576 32.0708 64.6833C31.3653 65.0968 30.5687 65.3036 29.6807 65.3036ZM29.6807 63.8988C30.2281 63.8988 30.7389 63.7589 31.2133 63.4791C31.6877 63.1994 32.0647 62.8041 32.3445 62.2932C32.6364 61.7702 32.7824 61.1681 32.7824 60.487C32.7824 59.8058 32.6364 59.2098 32.3445 58.699C32.0647 58.176 31.6877 57.7746 31.2133 57.4948C30.7389 57.2151 30.2281 57.0752 29.6807 57.0752C29.1456 57.0752 28.6408 57.2151 28.1664 57.4948C27.6921 57.7746 27.3089 58.176 27.017 58.699C26.7372 59.2098 26.5974 59.8058 26.5974 60.487C26.5974 61.1681 26.7372 61.7702 27.017 62.2932C27.3089 62.8041 27.6921 63.1994 28.1664 63.4791C28.6408 63.7589 29.1456 63.8988 29.6807 63.8988Z" fill="#656C73"/>
<path d="M40.0647 69.2445C38.9701 69.2445 38.0761 68.983 37.3828 68.46C36.6895 67.9369 36.2212 67.3288 35.9779 66.6355L37.4192 66.0334C37.6017 66.5686 37.924 67.0004 38.3862 67.3288C38.8606 67.6693 39.4201 67.8396 40.0647 67.8396C41.0256 67.8396 41.7615 67.5538 42.2724 66.9821C42.7954 66.4226 43.0569 65.6381 43.0569 64.6285V63.6616H42.9839C42.692 64.1238 42.2724 64.5069 41.725 64.811C41.1777 65.1151 40.5574 65.2671 39.864 65.2671C39.0978 65.2671 38.3862 65.0603 37.7294 64.6468C37.0726 64.2332 36.5496 63.6616 36.1604 62.9318C35.7711 62.202 35.5765 61.381 35.5765 60.4687C35.5765 59.5565 35.7711 58.7355 36.1604 58.0057C36.5496 57.2759 37.0726 56.7042 37.7294 56.2907C38.3862 55.8771 39.0978 55.6704 39.864 55.6704C40.5574 55.6704 41.1777 55.8224 41.725 56.1265C42.2724 56.4306 42.692 56.8137 42.9839 57.2759H43.0569V55.9623H44.5347V64.6468C44.5347 65.6442 44.3401 66.4895 43.9509 67.1828C43.5617 67.8761 43.0265 68.3931 42.3453 68.7336C41.6764 69.0742 40.9162 69.2445 40.0647 69.2445ZM40.1012 63.8623C40.6364 63.8623 41.129 63.7285 41.5791 63.4609C42.0291 63.1811 42.3879 62.7858 42.6555 62.275C42.9353 61.7641 43.0751 61.162 43.0751 60.4687C43.0751 59.7754 42.9353 59.1734 42.6555 58.6625C42.3879 58.1395 42.0291 57.7442 41.5791 57.4766C41.129 57.209 40.6364 57.0752 40.1012 57.0752C39.566 57.0752 39.0734 57.2151 38.6234 57.4948C38.1734 57.7624 37.8085 58.1516 37.5287 58.6625C37.2611 59.1734 37.1273 59.7754 37.1273 60.4687C37.1273 61.162 37.2611 61.7641 37.5287 62.275C37.8085 62.7858 38.1734 63.1811 38.6234 63.4609C39.0734 63.7285 39.566 63.8623 40.1012 63.8623Z" fill="#656C73"/>
<path d="M46.8133 51.9484H48.3641V65.0117H46.8133V51.9484Z" fill="#656C73"/>
<path d="M54.5692 65.3036C53.6935 65.3036 52.9089 65.0968 52.2156 64.6833C51.5345 64.2697 50.9993 63.6981 50.6101 62.9683C50.2209 62.2385 50.0263 61.4114 50.0263 60.487C50.0263 59.6112 50.2087 58.8085 50.5736 58.0787C50.9385 57.3367 51.4554 56.7529 52.1244 56.3272C52.8055 55.8893 53.584 55.6704 54.4597 55.6704C55.3355 55.6704 56.1018 55.871 56.7586 56.2724C57.4276 56.6617 57.9384 57.2151 58.2912 57.9327C58.6439 58.6503 58.8203 59.4774 58.8203 60.414C58.8203 60.5843 58.8081 60.7059 58.7838 60.7789H51.5953C51.6196 61.46 51.7838 62.0378 52.0879 62.5121C52.392 62.9744 52.7691 63.321 53.2191 63.5521C53.6813 63.7832 54.1557 63.8988 54.6422 63.8988C55.7855 63.8988 56.6674 63.3392 57.2877 62.2202L58.6561 62.877C58.2668 63.6068 57.7256 64.1968 57.0323 64.6468C56.3511 65.0847 55.5301 65.3036 54.5692 65.3036ZM57.1782 59.4835C57.1539 59.1186 57.0505 58.7537 56.8681 58.3888C56.6856 58.0239 56.3876 57.7138 55.9741 57.4583C55.5727 57.2029 55.0557 57.0752 54.4233 57.0752C53.7421 57.0752 53.1522 57.2941 52.6535 57.732C52.1548 58.1699 51.8386 58.7537 51.7048 59.4835H57.1782Z" fill="#656C73"/>
<path d="M65.1188 51.9484H69.078C70.4159 51.9484 71.5836 52.2282 72.581 52.7877C73.5783 53.335 74.3446 54.1013 74.8798 55.0865C75.415 56.0717 75.6826 57.2029 75.6826 58.48C75.6826 59.7572 75.415 60.8884 74.8798 61.8736C74.3446 62.8588 73.5783 63.6312 72.581 64.1907C71.5836 64.738 70.4159 65.0117 69.078 65.0117H65.1188V51.9484ZM69.078 63.5339C70.6227 63.5339 71.8451 63.0899 72.7452 62.202C73.6452 61.3141 74.0953 60.0734 74.0953 58.48C74.0953 56.8867 73.6452 55.646 72.7452 54.7581C71.8451 53.8702 70.6227 53.4262 69.078 53.4262H66.6696V63.5339H69.078Z" fill="#656C73"/>
<path d="M81.3663 65.3036C80.4905 65.3036 79.706 65.0968 79.0127 64.6833C78.3315 64.2697 77.7964 63.6981 77.4071 62.9683C77.0179 62.2385 76.8233 61.4114 76.8233 60.487C76.8233 59.6112 77.0058 58.8085 77.3707 58.0787C77.7355 57.3367 78.2525 56.7529 78.9215 56.3272C79.6026 55.8893 80.381 55.6704 81.2568 55.6704C82.1325 55.6704 82.8988 55.871 83.5556 56.2724C84.2246 56.6617 84.7355 57.2151 85.0882 57.9327C85.4409 58.6503 85.6173 59.4774 85.6173 60.414C85.6173 60.5843 85.6051 60.7059 85.5808 60.7789H78.3924C78.4167 61.46 78.5809 62.0378 78.885 62.5121C79.189 62.9744 79.5661 63.321 80.0161 63.5521C80.4783 63.7832 80.9527 63.8988 81.4392 63.8988C82.5826 63.8988 83.4644 63.3392 84.0847 62.2202L85.4531 62.877C85.0639 63.6068 84.5226 64.1968 83.8293 64.6468C83.1482 65.0847 82.3272 65.3036 81.3663 65.3036ZM83.9753 59.4835C83.9509 59.1186 83.8476 58.7537 83.6651 58.3888C83.4827 58.0239 83.1847 57.7138 82.7711 57.4583C82.3697 57.2029 81.8528 57.0752 81.2203 57.0752C80.5392 57.0752 79.9492 57.2941 79.4506 57.732C78.9519 58.1699 78.6356 58.7537 78.5018 59.4835H83.9753Z" fill="#656C73"/>
<path d="M86.1654 55.9623H87.8439L90.6171 63.1872H90.6536L93.4633 55.9623H95.1053L91.4016 65.0117H89.8326L86.1654 55.9623Z" fill="#656C73"/>
<path d="M100.11 65.3036C99.2342 65.3036 98.4497 65.0968 97.7564 64.6833C97.0752 64.2697 96.54 63.6981 96.1508 62.9683C95.7616 62.2385 95.567 61.4114 95.567 60.487C95.567 59.6112 95.7494 58.8085 96.1143 58.0787C96.4792 57.3367 96.9962 56.7529 97.6651 56.3272C98.3463 55.8893 99.1247 55.6704 100 55.6704C100.876 55.6704 101.643 55.871 102.299 56.2724C102.968 56.6617 103.479 57.2151 103.832 57.9327C104.185 58.6503 104.361 59.4774 104.361 60.414C104.361 60.5843 104.349 60.7059 104.324 60.7789H97.136C97.1604 61.46 97.3246 62.0378 97.6287 62.5121C97.9327 62.9744 98.3098 63.321 98.7598 63.5521C99.222 63.7832 99.6964 63.8988 100.183 63.8988C101.326 63.8988 102.208 63.3392 102.828 62.2202L104.197 62.877C103.808 63.6068 103.266 64.1968 102.573 64.6468C101.892 65.0847 101.071 65.3036 100.11 65.3036ZM102.719 59.4835C102.695 59.1186 102.591 58.7537 102.409 58.3888C102.226 58.0239 101.928 57.7138 101.515 57.4583C101.113 57.2029 100.596 57.0752 99.964 57.0752C99.2828 57.0752 98.6929 57.2941 98.1942 57.732C97.6955 58.1699 97.3793 58.7537 97.2455 59.4835H102.719Z" fill="#656C73"/>
<path d="M106.109 51.9484H107.66V65.0117H106.109V51.9484Z" fill="#656C73"/>
<path d="M113.956 65.3036C113.068 65.3036 112.271 65.0968 111.566 64.6833C110.86 64.2576 110.307 63.6798 109.906 62.95C109.516 62.2081 109.322 61.3871 109.322 60.487C109.322 59.5869 109.516 58.772 109.906 58.0422C110.307 57.3002 110.86 56.7225 111.566 56.3089C112.271 55.8832 113.068 55.6704 113.956 55.6704C114.844 55.6704 115.641 55.8832 116.346 56.3089C117.064 56.7225 117.617 57.3002 118.006 58.0422C118.408 58.772 118.608 59.5869 118.608 60.487C118.608 61.3871 118.408 62.2081 118.006 62.95C117.617 63.6798 117.064 64.2576 116.346 64.6833C115.641 65.0968 114.844 65.3036 113.956 65.3036ZM113.956 63.8988C114.503 63.8988 115.014 63.7589 115.489 63.4791C115.963 63.1994 116.34 62.8041 116.62 62.2932C116.912 61.7702 117.058 61.1681 117.058 60.487C117.058 59.8058 116.912 59.2098 116.62 58.699C116.34 58.176 115.963 57.7746 115.489 57.4948C115.014 57.2151 114.503 57.0752 113.956 57.0752C113.421 57.0752 112.916 57.2151 112.442 57.4948C111.967 57.7746 111.584 58.176 111.292 58.699C111.013 59.2098 110.873 59.8058 110.873 60.487C110.873 61.1681 111.013 61.7702 111.292 62.2932C111.584 62.8041 111.967 63.1994 112.442 63.4791C112.916 63.7589 113.421 63.8988 113.956 63.8988Z" fill="#656C73"/>
<path d="M120.201 55.9623H121.678V57.2941H121.751C122.043 56.8319 122.463 56.4488 123.01 56.1447C123.558 55.8285 124.19 55.6704 124.908 55.6704C125.686 55.6704 126.404 55.8832 127.061 56.3089C127.717 56.7225 128.24 57.2941 128.63 58.0239C129.019 58.7537 129.214 59.5747 129.214 60.487C129.214 61.3992 129.019 62.2202 128.63 62.95C128.24 63.6798 127.717 64.2576 127.061 64.6833C126.404 65.0968 125.686 65.3036 124.908 65.3036C124.19 65.3036 123.552 65.1516 122.992 64.8475C122.445 64.5312 122.031 64.1359 121.751 63.6616H121.678L121.751 64.9205V68.9526H120.201V55.9623ZM124.671 63.8988C125.206 63.8988 125.698 63.7589 126.148 63.4791C126.611 63.1994 126.976 62.8041 127.243 62.2932C127.523 61.7702 127.663 61.1681 127.663 60.487C127.663 59.8058 127.523 59.2098 127.243 58.699C126.976 58.176 126.611 57.7746 126.148 57.4948C125.698 57.2151 125.206 57.0752 124.671 57.0752C124.135 57.0752 123.637 57.2151 123.175 57.4948C122.724 57.7624 122.36 58.1577 122.08 58.6807C121.812 59.1916 121.678 59.7937 121.678 60.487C121.678 61.1681 121.812 61.7702 122.08 62.2932C122.36 62.8162 122.724 63.2176 123.175 63.4974C123.637 63.765 124.135 63.8988 124.671 63.8988Z" fill="#656C73"/>
<path d="M134.996 65.3036C134.12 65.3036 133.336 65.0968 132.642 64.6833C131.961 64.2697 131.426 63.6981 131.037 62.9683C130.648 62.2385 130.453 61.4114 130.453 60.487C130.453 59.6112 130.635 58.8085 131 58.0787C131.365 57.3367 131.882 56.7529 132.551 56.3272C133.232 55.8893 134.011 55.6704 134.887 55.6704C135.762 55.6704 136.529 55.871 137.185 56.2724C137.854 56.6617 138.365 57.2151 138.718 57.9327C139.071 58.6503 139.247 59.4774 139.247 60.414C139.247 60.5843 139.235 60.7059 139.211 60.7789H132.022C132.046 61.46 132.211 62.0378 132.515 62.5121C132.819 62.9744 133.196 63.321 133.646 63.5521C134.108 63.7832 134.582 63.8988 135.069 63.8988C136.212 63.8988 137.094 63.3392 137.714 62.2202L139.083 62.877C138.694 63.6068 138.152 64.1968 137.459 64.6468C136.778 65.0847 135.957 65.3036 134.996 65.3036ZM137.605 59.4835C137.581 59.1186 137.477 58.7537 137.295 58.3888C137.112 58.0239 136.814 57.7138 136.401 57.4583C135.999 57.2029 135.483 57.0752 134.85 57.0752C134.169 57.0752 133.579 57.2941 133.08 57.732C132.582 58.1699 132.265 58.7537 132.132 59.4835H137.605Z" fill="#656C73"/>
<path d="M140.995 55.9623H142.473V57.4401H142.546C142.716 56.9414 143.063 56.5279 143.586 56.1994C144.121 55.8589 144.65 55.6886 145.173 55.6886C145.55 55.6886 145.903 55.7433 146.231 55.8528V57.5313C145.903 57.3489 145.477 57.2576 144.954 57.2576C144.528 57.2576 144.127 57.3854 143.75 57.6408C143.385 57.8841 143.093 58.2125 142.874 58.626C142.655 59.0396 142.546 59.4896 142.546 59.9761V65.0117H140.995V55.9623Z" fill="#656C73"/>
<path d="M155.305 65.3036C154.649 65.3036 154.01 65.1698 153.39 64.9022C152.782 64.6225 152.24 64.2211 151.766 63.6981C151.304 63.1629 150.969 62.5182 150.762 61.7641L152.24 61.162C152.447 61.9405 152.83 62.579 153.39 63.0777C153.949 63.5764 154.6 63.8258 155.342 63.8258C156.108 63.8258 156.753 63.6251 157.276 63.2237C157.799 62.8101 158.06 62.2506 158.06 61.5452C158.06 60.937 157.835 60.4383 157.385 60.0491C156.947 59.6477 156.224 59.2767 155.214 58.9362L154.393 58.6443C153.469 58.3158 152.715 57.8841 152.131 57.3489C151.547 56.8137 151.255 56.0717 151.255 55.123C151.255 54.5027 151.425 53.931 151.766 53.408C152.107 52.8728 152.575 52.4471 153.171 52.1309C153.779 51.8146 154.46 51.6565 155.214 51.6565C155.968 51.6565 156.625 51.7964 157.185 52.0761C157.756 52.3559 158.206 52.6964 158.535 53.0978C158.875 53.4992 159.106 53.8945 159.228 54.2837L157.787 54.9041C157.653 54.4419 157.373 54.0344 156.947 53.6817C156.522 53.3168 155.956 53.1343 155.251 53.1343C154.582 53.1343 154.01 53.3229 153.536 53.6999C153.061 54.077 152.824 54.5513 152.824 55.123C152.824 55.6339 153.025 56.0535 153.426 56.3819C153.828 56.6981 154.436 56.9961 155.251 57.2759L156.09 57.5678C157.197 57.9692 158.06 58.474 158.681 59.0821C159.313 59.6781 159.629 60.4931 159.629 61.5269C159.629 62.3662 159.411 63.0717 158.973 63.6433C158.547 64.215 158.006 64.6346 157.349 64.9022C156.692 65.1698 156.011 65.3036 155.305 65.3036Z" fill="#656C73"/>
<path d="M164.577 65.1576C164.213 65.1576 163.872 65.0968 163.556 64.9752C163.252 64.8536 162.99 64.6894 162.771 64.4826C162.528 64.2515 162.346 63.9839 162.224 63.6798C162.114 63.3636 162.06 62.9926 162.06 62.5669V57.3671H160.454V55.9623H162.06V53.262H163.592V55.9623H165.818V57.3671H163.592V62.1837C163.592 62.6946 163.696 63.0717 163.902 63.3149C164.109 63.5825 164.425 63.7163 164.851 63.7163C165.228 63.7163 165.557 63.6312 165.836 63.4609V64.957C165.642 65.0299 165.453 65.0786 165.271 65.1029C165.101 65.1394 164.869 65.1576 164.577 65.1576Z" fill="#656C73"/>
<path d="M170.97 65.3036C169.851 65.3036 169 64.9813 168.416 64.3366C167.844 63.692 167.559 62.798 167.559 61.6546V55.9623H169.109V61.3992C169.109 63.0656 169.858 63.8988 171.354 63.8988C171.852 63.8988 172.296 63.7589 172.685 63.4791C173.087 63.1994 173.391 62.8345 173.598 62.3844C173.817 61.9344 173.926 61.46 173.926 60.9613V55.9623H175.459V65.0117H173.999V63.6616H173.926C173.659 64.1238 173.251 64.513 172.704 64.8292C172.169 65.1455 171.591 65.3036 170.97 65.3036Z" fill="#656C73"/>
<path d="M181.44 65.3036C180.661 65.3036 179.944 65.0968 179.287 64.6833C178.63 64.2697 178.107 63.6981 177.718 62.9683C177.329 62.2263 177.134 61.3992 177.134 60.487C177.134 59.5747 177.329 58.7537 177.718 58.0239C178.107 57.282 178.63 56.7042 179.287 56.2907C179.944 55.8771 180.661 55.6704 181.44 55.6704C182.145 55.6704 182.778 55.8285 183.337 56.1447C183.897 56.4488 184.316 56.8319 184.596 57.2941H184.669L184.596 56.0535V51.9484H186.129V65.0117H184.669V63.6616H184.596C184.316 64.1359 183.897 64.5312 183.337 64.8475C182.778 65.1516 182.145 65.3036 181.44 65.3036ZM181.677 63.8988C182.212 63.8988 182.705 63.765 183.155 63.4974C183.617 63.2176 183.982 62.8162 184.25 62.2932C184.529 61.7702 184.669 61.1681 184.669 60.487C184.669 59.7937 184.529 59.1916 184.25 58.6807C183.982 58.1577 183.617 57.7624 183.155 57.4948C182.705 57.2151 182.212 57.0752 181.677 57.0752C181.142 57.0752 180.643 57.2151 180.181 57.4948C179.731 57.7746 179.366 58.176 179.086 58.699C178.819 59.2098 178.685 59.8058 178.685 60.487C178.685 61.1681 178.819 61.7702 179.086 62.2932C179.366 62.8041 179.731 63.1994 180.181 63.4791C180.643 63.7589 181.142 63.8988 181.677 63.8988Z" fill="#656C73"/>
<path d="M192.35 65.3036C191.474 65.3036 190.689 65.0968 189.996 64.6833C189.315 64.2697 188.78 63.6981 188.39 62.9683C188.001 62.2385 187.807 61.4114 187.807 60.487C187.807 59.6112 187.989 58.8085 188.354 58.0787C188.719 57.3367 189.236 56.7529 189.905 56.3272C190.586 55.8893 191.364 55.6704 192.24 55.6704C193.116 55.6704 193.882 55.871 194.539 56.2724C195.208 56.6617 195.719 57.2151 196.071 57.9327C196.424 58.6503 196.601 59.4774 196.601 60.414C196.601 60.5843 196.588 60.7059 196.564 60.7789H189.376C189.4 61.46 189.564 62.0378 189.868 62.5121C190.172 62.9744 190.549 63.321 190.999 63.5521C191.462 63.7832 191.936 63.8988 192.422 63.8988C193.566 63.8988 194.448 63.3392 195.068 62.2202L196.436 62.877C196.047 63.6068 195.506 64.1968 194.813 64.6468C194.131 65.0847 193.31 65.3036 192.35 65.3036ZM194.959 59.4835C194.934 59.1186 194.831 58.7537 194.648 58.3888C194.466 58.0239 194.168 57.7138 193.754 57.4583C193.353 57.2029 192.836 57.0752 192.204 57.0752C191.522 57.0752 190.932 57.2941 190.434 57.732C189.935 58.1699 189.619 58.7537 189.485 59.4835H194.959Z" fill="#656C73"/>
<path d="M198.348 55.9623H199.826V57.3124H199.899C200.155 56.8502 200.556 56.461 201.103 56.1447C201.651 55.8285 202.235 55.6704 202.855 55.6704C203.962 55.6704 204.801 55.9927 205.373 56.6373C205.957 57.282 206.248 58.1638 206.248 59.2828V65.0117H204.716V59.52C204.716 57.8901 203.956 57.0752 202.435 57.0752C201.949 57.0752 201.511 57.2151 201.122 57.4948C200.732 57.7746 200.428 58.1395 200.209 58.5895C200.003 59.0396 199.899 59.5139 199.899 60.0126V65.0117H198.348V55.9623Z" fill="#656C73"/>
<path d="M211.472 65.1576C211.107 65.1576 210.767 65.0968 210.451 64.9752C210.147 64.8536 209.885 64.6894 209.666 64.4826C209.423 64.2515 209.24 63.9839 209.119 63.6798C209.009 63.3636 208.955 62.9926 208.955 62.5669V57.3671H207.349V55.9623H208.955V53.262H210.487V55.9623H212.713V57.3671H210.487V62.1837C210.487 62.6946 210.59 63.0717 210.797 63.3149C211.004 63.5825 211.32 63.7163 211.746 63.7163C212.123 63.7163 212.451 63.6312 212.731 63.4609V64.957C212.537 65.0299 212.348 65.0786 212.166 65.1029C211.995 65.1394 211.764 65.1576 211.472 65.1576Z" fill="#656C73"/>
<path d="M224.833 65.3036C223.58 65.3036 222.437 65.0056 221.403 64.4096C220.369 63.8136 219.554 62.9926 218.958 61.9466C218.374 60.9005 218.082 59.745 218.082 58.48C218.082 57.2151 218.374 56.0596 218.958 55.0135C219.554 53.9675 220.369 53.1465 221.403 52.5505C222.437 51.9545 223.58 51.6565 224.833 51.6565C225.818 51.6565 226.712 51.845 227.515 52.2221C228.33 52.587 229.029 53.11 229.613 53.7911L228.518 54.8676C228.032 54.2716 227.484 53.8337 226.876 53.554C226.28 53.2742 225.599 53.1343 224.833 53.1343C223.896 53.1343 223.033 53.3593 222.242 53.8094C221.451 54.2473 220.819 54.8737 220.345 55.6886C219.882 56.4914 219.651 57.4219 219.651 58.48C219.651 59.5382 219.882 60.4748 220.345 61.2897C220.819 62.0925 221.451 62.7189 222.242 63.169C223.033 63.6068 223.896 63.8258 224.833 63.8258C226.426 63.8258 227.776 63.175 228.883 61.8736L229.996 62.9683C229.4 63.6859 228.658 64.2576 227.77 64.6833C226.882 65.0968 225.903 65.3036 224.833 65.3036Z" fill="#656C73"/>
<path d="M231.702 51.9484H233.253V65.0117H231.702V51.9484Z" fill="#656C73"/>
<path d="M238.854 65.3036C237.735 65.3036 236.883 64.9813 236.3 64.3366C235.728 63.692 235.442 62.798 235.442 61.6546V55.9623H236.993V61.3992C236.993 63.0656 237.741 63.8988 239.237 63.8988C239.736 63.8988 240.18 63.7589 240.569 63.4791C240.97 63.1994 241.274 62.8345 241.481 62.3844C241.7 61.9344 241.81 61.46 241.81 60.9613V55.9623H243.342V65.0117H241.883V63.6616H241.81C241.542 64.1238 241.135 64.513 240.587 64.8292C240.052 65.1455 239.474 65.3036 238.854 65.3036Z" fill="#656C73"/>
<path d="M250.325 65.3036C249.607 65.3036 248.968 65.1516 248.409 64.8475C247.862 64.5312 247.448 64.1359 247.168 63.6616H247.095V65.0117H245.617V51.9484H247.168V56.0535L247.095 57.2941H247.168C247.46 56.8319 247.88 56.4488 248.427 56.1447C248.975 55.8285 249.607 55.6704 250.325 55.6704C251.103 55.6704 251.821 55.8832 252.478 56.3089C253.134 56.7225 253.657 57.2941 254.047 58.0239C254.436 58.7537 254.63 59.5747 254.63 60.487C254.63 61.3992 254.436 62.2202 254.047 62.95C253.657 63.6798 253.134 64.2576 252.478 64.6833C251.821 65.0968 251.103 65.3036 250.325 65.3036ZM250.087 63.8988C250.623 63.8988 251.115 63.7589 251.565 63.4791C252.027 63.1994 252.392 62.8041 252.66 62.2932C252.94 61.7702 253.08 61.1681 253.08 60.487C253.08 59.8058 252.94 59.2098 252.66 58.699C252.392 58.176 252.027 57.7746 251.565 57.4948C251.115 57.2151 250.623 57.0752 250.087 57.0752C249.552 57.0752 249.054 57.2151 248.591 57.4948C248.141 57.7624 247.776 58.1577 247.497 58.6807C247.229 59.1916 247.095 59.7937 247.095 60.487C247.095 61.1681 247.229 61.7702 247.497 62.2932C247.776 62.8162 248.141 63.2176 248.591 63.4974C249.054 63.765 249.552 63.8988 250.087 63.8988Z" fill="#656C73"/>
<path d="M259.483 65.3036C258.522 65.3036 257.707 65.0603 257.038 64.5738C256.369 64.0873 255.901 63.4852 255.633 62.7676L257.002 62.1655C257.245 62.7372 257.585 63.175 258.023 63.4791C258.473 63.7832 258.96 63.9352 259.483 63.9352C260.067 63.9352 260.547 63.8075 260.924 63.5521C261.313 63.2967 261.508 62.9865 261.508 62.6216C261.508 62.2689 261.362 61.977 261.07 61.7459C260.79 61.5148 260.304 61.3141 259.611 61.1438L258.37 60.8336C257.689 60.6755 257.105 60.3897 256.618 59.9761C256.144 59.5626 255.907 59.0152 255.907 58.3341C255.907 57.7746 256.065 57.2941 256.381 56.8928C256.71 56.4914 257.141 56.1873 257.677 55.9805C258.212 55.7737 258.796 55.6704 259.428 55.6704C260.207 55.6704 260.912 55.8528 261.544 56.2177C262.189 56.5704 262.645 57.0752 262.913 57.732L261.544 58.3158C261.35 57.878 261.052 57.5556 260.65 57.3489C260.261 57.1421 259.823 57.0387 259.337 57.0387C258.862 57.0387 258.431 57.1543 258.041 57.3854C257.664 57.6165 257.476 57.9145 257.476 58.2794C257.476 58.5956 257.598 58.8449 257.841 59.0274C258.096 59.2098 258.498 59.374 259.045 59.52L260.395 59.8484C261.295 60.0795 261.964 60.4262 262.402 60.8884C262.852 61.3384 263.077 61.8797 263.077 62.5121C263.077 63.0352 262.925 63.5095 262.621 63.9352C262.317 64.361 261.891 64.6954 261.344 64.9387C260.796 65.182 260.176 65.3036 259.483 65.3036Z" fill="#656C73"/>
<path d="M110.333 17.524L122.03 10.7709C123.334 9.99884 124.282 8.74343 124.666 7.27721C125.05 5.811 124.841 4.25235 124.083 2.93968C123.325 1.62702 122.08 0.666319 120.618 0.266188C119.156 -0.133944 117.595 0.0587952 116.274 0.802552L96.0628 12.4716L110.333 17.524Z" fill="#EA4335"/>
<path d="M119.147 34.8809C120.414 34.8822 121.647 34.465 122.653 33.6941C123.659 32.9232 124.383 31.8417 124.711 30.6175C125.04 29.3933 124.955 28.0949 124.471 26.9237C123.986 25.7526 123.128 24.7742 122.03 24.1405L101.818 12.4715C100.497 11.7235 98.9341 11.5277 97.4694 11.9268C96.0047 12.3258 94.7569 13.2874 93.9978 14.6021C93.2388 15.9168 93.0298 17.4781 93.4165 18.9462C93.8032 20.4142 94.7543 21.67 96.0625 22.4401L116.275 34.11C117.147 34.6155 118.138 34.8814 119.147 34.8809Z" fill="#4285F4"/>
<path d="M139.252 34.881C140.261 34.8812 141.251 34.6149 142.124 34.1092L162.336 22.4401L148.247 17.2827L136.369 24.1418C135.271 24.7755 134.413 25.7538 133.929 26.9249C133.444 28.096 133.359 29.3944 133.688 30.6186C134.016 31.8428 134.74 32.9243 135.746 33.6952C136.752 34.4661 137.984 34.8834 139.252 34.8822V34.881Z" fill="#FBBC04"/>
<path d="M159.452 23.2122C160.72 23.2136 161.953 22.7964 162.959 22.0255C163.965 21.2546 164.689 20.173 165.018 18.9488C165.346 17.7245 165.261 16.4259 164.777 15.2547C164.292 14.0835 163.434 13.1051 162.336 12.4715L142.124 0.802468C141.469 0.414849 140.744 0.160965 139.99 0.0555163C139.236 -0.0499327 138.469 -0.00485719 137.733 0.188135C136.997 0.381128 136.306 0.718203 135.701 1.17986C135.096 1.64151 134.589 2.21858 134.208 2.87766C133.828 3.53674 133.582 4.26474 133.484 5.01955C133.387 5.77435 133.44 6.54096 133.641 7.27502C133.842 8.00908 134.187 8.69601 134.655 9.29605C135.123 9.89609 135.705 10.3973 136.368 10.7708L156.58 22.4401C157.453 22.9458 158.444 23.2122 159.452 23.2122Z" fill="#0F9D58"/>
<path d="M23.2034 77.8406H24.5501L29.1547 85.1515H29.206L29.1547 83.3815V77.8406H30.2321V87.0242H29.1034L24.2936 79.367H24.2423L24.2936 81.137V87.0242H23.2034V77.8406Z" fill="#656C73"/>
<path d="M33.9309 87.2294C33.4692 87.2294 33.0502 87.1396 32.674 86.96C32.3063 86.7719 32.0156 86.5154 31.8018 86.1905C31.5966 85.857 31.494 85.485 31.494 85.0746C31.494 84.3991 31.7462 83.8732 32.2507 83.497C32.7638 83.1207 33.4179 82.9326 34.2131 82.9326C34.6064 82.9326 34.9613 82.9754 35.2777 83.0609C35.5941 83.1464 35.8463 83.2405 36.0344 83.3431V83.0096C36.0344 82.7018 35.9532 82.4281 35.7907 82.1887C35.6368 81.9407 35.4273 81.7526 35.1622 81.6244C34.8972 81.4875 34.6107 81.4191 34.3029 81.4191C33.5761 81.4191 33.0203 81.7141 32.6355 82.3041L31.7248 81.7013C31.9899 81.308 32.3405 81.0044 32.7766 80.7907C33.2127 80.5683 33.7043 80.4572 34.2516 80.4572C35.1238 80.4572 35.8121 80.6923 36.3166 81.1626C36.8211 81.6329 37.0733 82.2657 37.0733 83.0609V87.0242H36.0344V86.0879H35.9831C35.7779 86.4128 35.5 86.6864 35.1494 86.9087C34.7988 87.1225 34.3927 87.2294 33.9309 87.2294ZM34.0207 86.2674C34.3627 86.2674 34.6877 86.1776 34.9955 85.9981C35.3033 85.8185 35.5513 85.5748 35.7394 85.267C35.9361 84.9592 36.0344 84.6257 36.0344 84.2665C35.5556 83.9587 35.0041 83.8048 34.3798 83.8048C33.8411 83.8048 33.4093 83.9288 33.0844 84.1768C32.768 84.4162 32.6098 84.724 32.6098 85.1002C32.6098 85.4423 32.7509 85.7244 33.0331 85.9468C33.3153 86.1605 33.6445 86.2674 34.0207 86.2674Z" fill="#656C73"/>
<path d="M40.8916 87.1268C40.6351 87.1268 40.3957 87.084 40.1734 86.9985C39.9596 86.913 39.7757 86.7976 39.6218 86.6522C39.4508 86.4897 39.3226 86.3016 39.237 86.0879C39.1601 85.8655 39.1216 85.6047 39.1216 85.3055V81.65H37.9929V80.6624H39.1216V78.7641H40.199V80.6624H41.7638V81.65H40.199V85.0361C40.199 85.3952 40.2717 85.6603 40.4171 85.8313C40.5624 86.0194 40.7847 86.1135 41.084 86.1135C41.3491 86.1135 41.58 86.0537 41.7766 85.9339V86.9857C41.6398 87.037 41.5073 87.0712 41.379 87.0883C41.2593 87.1139 41.0968 87.1268 40.8916 87.1268Z" fill="#656C73"/>
<path d="M43.7426 79.3285C43.5289 79.3285 43.345 79.2515 43.1911 79.0976C43.0372 78.9437 42.9602 78.7599 42.9602 78.5461C42.9602 78.3323 43.0372 78.1485 43.1911 77.9946C43.345 77.8406 43.5289 77.7637 43.7426 77.7637C43.9564 77.7637 44.1402 77.8406 44.2942 77.9946C44.4481 78.1485 44.525 78.3323 44.525 78.5461C44.525 78.7599 44.4481 78.9437 44.2942 79.0976C44.1488 79.2515 43.9649 79.3285 43.7426 79.3285ZM43.2039 80.6624H44.2813V87.0242H43.2039V80.6624Z" fill="#656C73"/>
<path d="M48.8057 87.2294C48.1815 87.2294 47.6215 87.084 47.1255 86.7933C46.6296 86.494 46.2405 86.0879 45.9583 85.5748C45.6847 85.0532 45.5479 84.476 45.5479 83.8433C45.5479 83.2105 45.6847 82.6376 45.9583 82.1246C46.2405 81.603 46.6296 81.1968 47.1255 80.9061C47.6215 80.6068 48.1815 80.4572 48.8057 80.4572C49.43 80.4572 49.99 80.6068 50.486 80.9061C50.9905 81.1968 51.3795 81.603 51.6532 82.1246C51.9353 82.6376 52.0764 83.2105 52.0764 83.8433C52.0764 84.476 51.9353 85.0532 51.6532 85.5748C51.3795 86.0879 50.9905 86.494 50.486 86.7933C49.99 87.084 49.43 87.2294 48.8057 87.2294ZM48.8057 86.2418C49.1905 86.2418 49.5497 86.1434 49.8831 85.9468C50.2166 85.7501 50.4817 85.4722 50.6784 85.1131C50.8836 84.7454 50.9862 84.3221 50.9862 83.8433C50.9862 83.3644 50.8836 82.9454 50.6784 82.5863C50.4817 82.2186 50.2166 81.9365 49.8831 81.7398C49.5497 81.5431 49.1905 81.4448 48.8057 81.4448C48.4295 81.4448 48.0747 81.5431 47.7412 81.7398C47.4077 81.9365 47.1383 82.2186 46.9331 82.5863C46.7365 82.9454 46.6381 83.3644 46.6381 83.8433C46.6381 84.3221 46.7365 84.7454 46.9331 85.1131C47.1383 85.4722 47.4077 85.7501 47.7412 85.9468C48.0747 86.1434 48.4295 86.2418 48.8057 86.2418Z" fill="#656C73"/>
<path d="M53.1844 80.6624H54.2233V81.6115H54.2746C54.4542 81.2866 54.7363 81.013 55.1211 80.7907C55.5059 80.5683 55.9163 80.4572 56.3524 80.4572C57.1305 80.4572 57.7205 80.6838 58.1224 81.137C58.5329 81.5902 58.7381 82.2101 58.7381 82.9968V87.0242H57.6607V83.1635C57.6607 82.0177 57.1263 81.4448 56.0574 81.4448C55.7154 81.4448 55.4076 81.5431 55.1339 81.7398C54.8603 81.9365 54.6466 82.193 54.4926 82.5094C54.3473 82.8257 54.2746 83.1592 54.2746 83.5098V87.0242H53.1844V80.6624Z" fill="#656C73"/>
<path d="M62.2887 87.2294C61.827 87.2294 61.408 87.1396 61.0318 86.96C60.6641 86.7719 60.3734 86.5154 60.1596 86.1905C59.9544 85.857 59.8518 85.485 59.8518 85.0746C59.8518 84.3991 60.104 83.8732 60.6085 83.497C61.1215 83.1207 61.7757 82.9326 62.5709 82.9326C62.9642 82.9326 63.3191 82.9754 63.6355 83.0609C63.9519 83.1464 64.2041 83.2405 64.3922 83.3431V83.0096C64.3922 82.7018 64.311 82.4281 64.1485 82.1887C63.9946 81.9407 63.7851 81.7526 63.52 81.6244C63.255 81.4875 62.9685 81.4191 62.6607 81.4191C61.9339 81.4191 61.3781 81.7141 60.9933 82.3041L60.0826 81.7013C60.3477 81.308 60.6983 81.0044 61.1344 80.7907C61.5705 80.5683 62.0621 80.4572 62.6094 80.4572C63.4816 80.4572 64.1699 80.6923 64.6744 81.1626C65.1789 81.6329 65.4311 82.2657 65.4311 83.0609V87.0242H64.3922V86.0879H64.3409C64.1357 86.4128 63.8578 86.6864 63.5072 86.9087C63.1566 87.1225 62.7505 87.2294 62.2887 87.2294ZM62.3785 86.2674C62.7205 86.2674 63.0455 86.1776 63.3533 85.9981C63.6611 85.8185 63.9091 85.5748 64.0972 85.267C64.2939 84.9592 64.3922 84.6257 64.3922 84.2665C63.9134 83.9587 63.3619 83.8048 62.7376 83.8048C62.1989 83.8048 61.7671 83.9288 61.4422 84.1768C61.1258 84.4162 60.9676 84.724 60.9676 85.1002C60.9676 85.4423 61.1087 85.7244 61.3909 85.9468C61.6731 86.1605 62.0023 86.2674 62.3785 86.2674Z" fill="#656C73"/>
<path d="M66.9249 77.8406H68.0151V87.0242H66.9249V77.8406Z" fill="#656C73"/>
<path d="M72.8045 77.8406H73.8947V87.0242H72.8045V77.8406Z" fill="#656C73"/>
<path d="M75.7053 80.6624H76.7442V81.6115H76.7955C76.9751 81.2866 77.2572 81.013 77.642 80.7907C78.0268 80.5683 78.4372 80.4572 78.8733 80.4572C79.6514 80.4572 80.2414 80.6838 80.6433 81.137C81.0538 81.5902 81.259 82.2101 81.259 82.9968V87.0242H80.1816V83.1635C80.1816 82.0177 79.6472 81.4448 78.5783 81.4448C78.2363 81.4448 77.9285 81.5431 77.6548 81.7398C77.3812 81.9365 77.1675 82.193 77.0135 82.5094C76.8682 82.8257 76.7955 83.1592 76.7955 83.5098V87.0242H75.7053V80.6624Z" fill="#656C73"/>
<path d="M84.9892 87.2294C84.3137 87.2294 83.7408 87.0584 83.2705 86.7163C82.8002 86.3743 82.471 85.951 82.2829 85.4465L83.2448 85.0233C83.4159 85.4252 83.6553 85.733 83.9631 85.9468C84.2795 86.1605 84.6215 86.2674 84.9892 86.2674C85.3996 86.2674 85.7374 86.1776 86.0025 85.9981C86.2761 85.8185 86.4129 85.6005 86.4129 85.3439C86.4129 85.096 86.3103 84.8907 86.1051 84.7283C85.9084 84.5658 85.5664 84.4247 85.079 84.305L84.2068 84.087C83.728 83.9758 83.3175 83.7749 82.9755 83.4841C82.642 83.1934 82.4753 82.8086 82.4753 82.3298C82.4753 81.9365 82.5864 81.5987 82.8088 81.3165C83.0396 81.0344 83.3432 80.8206 83.7194 80.6752C84.0956 80.5299 84.5061 80.4572 84.9507 80.4572C85.498 80.4572 85.9939 80.5854 86.4385 80.842C86.8917 81.0899 87.2124 81.4448 87.4005 81.9065L86.4385 82.317C86.3017 82.0091 86.0922 81.7825 85.8101 81.6372C85.5364 81.4918 85.2286 81.4191 84.8866 81.4191C84.5531 81.4191 84.2496 81.5004 83.9759 81.6628C83.7109 81.8253 83.5783 82.0348 83.5783 82.2913C83.5783 82.5136 83.6638 82.6889 83.8348 82.8172C84.0144 82.9454 84.2966 83.0609 84.6814 83.1635L85.6305 83.3944C86.2633 83.5568 86.7335 83.8005 87.0414 84.1255C87.3577 84.4418 87.5159 84.8223 87.5159 85.267C87.5159 85.6347 87.4091 85.9681 87.1953 86.2674C86.9815 86.5667 86.6822 86.8018 86.2975 86.9729C85.9127 87.1439 85.4766 87.2294 84.9892 87.2294Z" fill="#656C73"/>
<path d="M91.0689 87.1268C90.8124 87.1268 90.5729 87.084 90.3506 86.9985C90.1369 86.913 89.953 86.7976 89.7991 86.6522C89.6281 86.4897 89.4998 86.3016 89.4143 86.0879C89.3374 85.8655 89.2989 85.6047 89.2989 85.3055V81.65H88.1702V80.6624H89.2989V78.7641H90.3763V80.6624H91.9411V81.65H90.3763V85.0361C90.3763 85.3952 90.449 85.6603 90.5943 85.8313C90.7397 86.0194 90.962 86.1135 91.2613 86.1135C91.5264 86.1135 91.7572 86.0537 91.9539 85.9339V86.9857C91.8171 87.037 91.6845 87.0712 91.5563 87.0883C91.4366 87.1139 91.2741 87.1268 91.0689 87.1268Z" fill="#656C73"/>
<path d="M93.9199 79.3285C93.7061 79.3285 93.5223 79.2515 93.3684 79.0976C93.2145 78.9437 93.1375 78.7599 93.1375 78.5461C93.1375 78.3323 93.2145 78.1485 93.3684 77.9946C93.5223 77.8406 93.7061 77.7637 93.9199 77.7637C94.1337 77.7637 94.3175 77.8406 94.4714 77.9946C94.6253 78.1485 94.7023 78.3323 94.7023 78.5461C94.7023 78.7599 94.6253 78.9437 94.4714 79.0976C94.3261 79.2515 94.1422 79.3285 93.9199 79.3285ZM93.3812 80.6624H94.4586V87.0242H93.3812V80.6624Z" fill="#656C73"/>
<path d="M98.5341 87.1268C98.2776 87.1268 98.0382 87.084 97.8158 86.9985C97.6021 86.913 97.4182 86.7976 97.2643 86.6522C97.0933 86.4897 96.965 86.3016 96.8795 86.0879C96.8026 85.8655 96.7641 85.6047 96.7641 85.3055V81.65H95.6354V80.6624H96.7641V78.7641H97.8415V80.6624H99.4063V81.65H97.8415V85.0361C97.8415 85.3952 97.9142 85.6603 98.0595 85.8313C98.2049 86.0194 98.4272 86.1135 98.7265 86.1135C98.9916 86.1135 99.2224 86.0537 99.4191 85.9339V86.9857C99.2823 87.037 99.1497 87.0712 99.0215 87.0883C98.9018 87.1139 98.7393 87.1268 98.5341 87.1268Z" fill="#656C73"/>
<path d="M103.028 87.2294C102.242 87.2294 101.643 87.0028 101.233 86.5496C100.831 86.0964 100.63 85.4679 100.63 84.6642V80.6624H101.72V84.4846C101.72 85.656 102.246 86.2418 103.298 86.2418C103.648 86.2418 103.96 86.1434 104.234 85.9468C104.516 85.7501 104.73 85.4936 104.875 85.1772C105.029 84.8608 105.106 84.5273 105.106 84.1768V80.6624H106.184V87.0242H105.157V86.075H105.106C104.918 86.4 104.632 86.6736 104.247 86.8959C103.871 87.1182 103.464 87.2294 103.028 87.2294Z" fill="#656C73"/>
<path d="M110.296 87.1268C110.039 87.1268 109.8 87.084 109.577 86.9985C109.364 86.913 109.18 86.7976 109.026 86.6522C108.855 86.4897 108.727 86.3016 108.641 86.0879C108.564 85.8655 108.526 85.6047 108.526 85.3055V81.65H107.397V80.6624H108.526V78.7641H109.603V80.6624H111.168V81.65H109.603V85.0361C109.603 85.3952 109.676 85.6603 109.821 85.8313C109.966 86.0194 110.189 86.1135 110.488 86.1135C110.753 86.1135 110.984 86.0537 111.181 85.9339V86.9857C111.044 87.037 110.911 87.0712 110.783 87.0883C110.663 87.1139 110.501 87.1268 110.296 87.1268Z" fill="#656C73"/>
<path d="M114.989 87.2294C114.373 87.2294 113.822 87.084 113.335 86.7933C112.856 86.5026 112.479 86.1007 112.206 85.5876C111.932 85.0746 111.795 84.4931 111.795 83.8433C111.795 83.2276 111.924 82.6633 112.18 82.1502C112.437 81.6286 112.8 81.2182 113.27 80.9189C113.749 80.6111 114.297 80.4572 114.912 80.4572C115.528 80.4572 116.067 80.5983 116.528 80.8804C116.999 81.1541 117.358 81.5431 117.606 82.0476C117.854 82.5521 117.978 83.1336 117.978 83.792C117.978 83.9117 117.969 83.9972 117.952 84.0485H112.898C112.916 84.5273 113.031 84.9335 113.245 85.267C113.459 85.5919 113.724 85.8356 114.04 85.9981C114.365 86.1605 114.698 86.2418 115.04 86.2418C115.844 86.2418 116.464 85.8484 116.9 85.0618L117.862 85.5235C117.589 86.0365 117.208 86.4513 116.721 86.7676C116.242 87.0755 115.665 87.2294 114.989 87.2294ZM116.823 83.1378C116.806 82.8813 116.733 82.6248 116.605 82.3683C116.477 82.1118 116.267 81.8937 115.977 81.7141C115.695 81.5346 115.331 81.4448 114.887 81.4448C114.408 81.4448 113.993 81.5987 113.642 81.9065C113.292 82.2144 113.069 82.6248 112.975 83.1378H116.823Z" fill="#656C73"/>
<path d="M125.086 87.2294C124.462 87.2294 123.902 87.084 123.406 86.7933C122.91 86.494 122.521 86.0879 122.239 85.5748C121.965 85.0532 121.828 84.476 121.828 83.8433C121.828 83.2105 121.965 82.6376 122.239 82.1246C122.521 81.603 122.91 81.1968 123.406 80.9061C123.902 80.6068 124.462 80.4572 125.086 80.4572C125.71 80.4572 126.271 80.6068 126.766 80.9061C127.271 81.1968 127.66 81.603 127.934 82.1246C128.216 82.6376 128.357 83.2105 128.357 83.8433C128.357 84.476 128.216 85.0532 127.934 85.5748C127.66 86.0879 127.271 86.494 126.766 86.7933C126.271 87.084 125.71 87.2294 125.086 87.2294ZM125.086 86.2418C125.471 86.2418 125.83 86.1434 126.164 85.9468C126.497 85.7501 126.762 85.4722 126.959 85.1131C127.164 84.7454 127.267 84.3221 127.267 83.8433C127.267 83.3644 127.164 82.9454 126.959 82.5863C126.762 82.2186 126.497 81.9365 126.164 81.7398C125.83 81.5431 125.471 81.4448 125.086 81.4448C124.71 81.4448 124.355 81.5431 124.022 81.7398C123.688 81.9365 123.419 82.2186 123.214 82.5863C123.017 82.9454 122.919 83.3644 122.919 83.8433C122.919 84.3221 123.017 84.7454 123.214 85.1131C123.419 85.4722 123.688 85.7501 124.022 85.9468C124.355 86.1434 124.71 86.2418 125.086 86.2418Z" fill="#656C73"/>
<path d="M130.146 81.65H128.953V80.6624H130.146V79.7774C130.146 79.367 130.236 79.0078 130.415 78.7C130.604 78.3922 130.852 78.157 131.159 77.9946C131.476 77.8235 131.826 77.738 132.211 77.738C132.425 77.738 132.596 77.7509 132.724 77.7765C132.861 77.8022 133.002 77.8406 133.147 77.892V78.9565C132.874 78.8197 132.575 78.7513 132.25 78.7513C131.967 78.7513 131.728 78.8539 131.531 79.0591C131.335 79.2558 131.236 79.5337 131.236 79.8928V80.6624H132.878V81.65H131.236V87.0242H130.146V81.65Z" fill="#656C73"/>
<path d="M138.733 78.8796H136.155V77.8406H142.389V78.8796H139.811V87.0242H138.733V78.8796Z" fill="#656C73"/>
<path d="M145.326 87.2294C144.71 87.2294 144.159 87.084 143.671 86.7933C143.193 86.5026 142.816 86.1007 142.543 85.5876C142.269 85.0746 142.132 84.4931 142.132 83.8433C142.132 83.2276 142.261 82.6633 142.517 82.1502C142.774 81.6286 143.137 81.2182 143.607 80.9189C144.086 80.6111 144.633 80.4572 145.249 80.4572C145.865 80.4572 146.403 80.5983 146.865 80.8804C147.335 81.1541 147.695 81.5431 147.942 82.0476C148.19 82.5521 148.314 83.1336 148.314 83.792C148.314 83.9117 148.306 83.9972 148.289 84.0485H143.235C143.252 84.5273 143.368 84.9335 143.582 85.267C143.795 85.5919 144.06 85.8356 144.377 85.9981C144.702 86.1605 145.035 86.2418 145.377 86.2418C146.181 86.2418 146.801 85.8484 147.237 85.0618L148.199 85.5235C147.925 86.0365 147.545 86.4513 147.057 86.7676C146.579 87.0755 146.001 87.2294 145.326 87.2294ZM147.16 83.1378C147.143 82.8813 147.07 82.6248 146.942 82.3683C146.814 82.1118 146.604 81.8937 146.314 81.7141C146.031 81.5346 145.668 81.4448 145.223 81.4448C144.745 81.4448 144.33 81.5987 143.979 81.9065C143.629 82.2144 143.406 82.6248 143.312 83.1378H147.16Z" fill="#656C73"/>
<path d="M152.492 87.2294C151.876 87.2294 151.32 87.084 150.824 86.7933C150.328 86.494 149.939 86.0879 149.657 85.5748C149.384 85.0532 149.247 84.476 149.247 83.8433C149.247 83.202 149.384 82.6248 149.657 82.1118C149.939 81.5987 150.328 81.1968 150.824 80.9061C151.32 80.6068 151.876 80.4572 152.492 80.4572C153.184 80.4572 153.766 80.6239 154.236 80.9574C154.706 81.2909 155.048 81.7227 155.262 82.2528L154.275 82.6761C153.933 81.8552 153.317 81.4448 152.428 81.4448C152.068 81.4448 151.726 81.5474 151.402 81.7526C151.085 81.9493 150.829 82.2315 150.632 82.5991C150.435 82.9583 150.337 83.373 150.337 83.8433C150.337 84.305 150.435 84.7197 150.632 85.0874C150.829 85.4551 151.085 85.7415 151.402 85.9468C151.726 86.1434 152.068 86.2418 152.428 86.2418C152.881 86.2418 153.27 86.1349 153.595 85.9211C153.92 85.7073 154.163 85.4038 154.326 85.0105L155.288 85.4209C155.074 85.951 154.728 86.3871 154.249 86.7292C153.77 87.0626 153.184 87.2294 152.492 87.2294Z" fill="#656C73"/>
<path d="M156.445 77.8406H157.535V80.7137L157.484 81.6244H157.535C157.715 81.2909 157.993 81.013 158.369 80.7907C158.754 80.5683 159.168 80.4572 159.613 80.4572C160.408 80.4572 161.007 80.688 161.409 81.1498C161.81 81.6115 162.011 82.2272 162.011 82.9968V87.0242H160.934V83.1635C160.934 82.5735 160.789 82.1417 160.498 81.8681C160.216 81.5859 159.835 81.4448 159.356 81.4448C159.014 81.4448 158.702 81.5474 158.42 81.7526C158.146 81.9493 157.928 82.2144 157.766 82.5478C157.612 82.8728 157.535 83.2105 157.535 83.5611V87.0242H156.445V77.8406Z" fill="#656C73"/>
<path d="M163.547 80.6624H164.586V81.6115H164.637C164.817 81.2866 165.099 81.013 165.484 80.7907C165.868 80.5683 166.279 80.4572 166.715 80.4572C167.493 80.4572 168.083 80.6838 168.485 81.137C168.895 81.5902 169.101 82.2101 169.101 82.9968V87.0242H168.023V83.1635C168.023 82.0177 167.489 81.4448 166.42 81.4448C166.078 81.4448 165.77 81.5431 165.496 81.7398C165.223 81.9365 165.009 82.193 164.855 82.5094C164.71 82.8257 164.637 83.1592 164.637 83.5098V87.0242H163.547V80.6624Z" fill="#656C73"/>
<path d="M173.547 87.2294C172.923 87.2294 172.363 87.084 171.867 86.7933C171.371 86.494 170.982 86.0879 170.7 85.5748C170.426 85.0532 170.29 84.476 170.29 83.8433C170.29 83.2105 170.426 82.6376 170.7 82.1246C170.982 81.603 171.371 81.1968 171.867 80.9061C172.363 80.6068 172.923 80.4572 173.547 80.4572C174.172 80.4572 174.732 80.6068 175.228 80.9061C175.732 81.1968 176.121 81.603 176.395 82.1246C176.677 82.6376 176.818 83.2105 176.818 83.8433C176.818 84.476 176.677 85.0532 176.395 85.5748C176.121 86.0879 175.732 86.494 175.228 86.7933C174.732 87.084 174.172 87.2294 173.547 87.2294ZM173.547 86.2418C173.932 86.2418 174.291 86.1434 174.625 85.9468C174.958 85.7501 175.223 85.4722 175.42 85.1131C175.625 84.7454 175.728 84.3221 175.728 83.8433C175.728 83.3644 175.625 82.9454 175.42 82.5863C175.223 82.2186 174.958 81.9365 174.625 81.7398C174.291 81.5431 173.932 81.4448 173.547 81.4448C173.171 81.4448 172.816 81.5431 172.483 81.7398C172.149 81.9365 171.88 82.2186 171.675 82.5863C171.478 82.9454 171.38 83.3644 171.38 83.8433C171.38 84.3221 171.478 84.7454 171.675 85.1131C171.88 85.4722 172.149 85.7501 172.483 85.9468C172.816 86.1434 173.171 86.2418 173.547 86.2418Z" fill="#656C73"/>
<path d="M177.989 77.8406H179.079V87.0242H177.989V77.8406Z" fill="#656C73"/>
<path d="M183.505 87.2294C182.881 87.2294 182.321 87.084 181.825 86.7933C181.329 86.494 180.94 86.0879 180.658 85.5748C180.384 85.0532 180.247 84.476 180.247 83.8433C180.247 83.2105 180.384 82.6376 180.658 82.1246C180.94 81.603 181.329 81.1968 181.825 80.9061C182.321 80.6068 182.881 80.4572 183.505 80.4572C184.129 80.4572 184.69 80.6068 185.186 80.9061C185.69 81.1968 186.079 81.603 186.353 82.1246C186.635 82.6376 186.776 83.2105 186.776 83.8433C186.776 84.476 186.635 85.0532 186.353 85.5748C186.079 86.0879 185.69 86.494 185.186 86.7933C184.69 87.084 184.129 87.2294 183.505 87.2294ZM183.505 86.2418C183.89 86.2418 184.249 86.1434 184.583 85.9468C184.916 85.7501 185.181 85.4722 185.378 85.1131C185.583 84.7454 185.686 84.3221 185.686 83.8433C185.686 83.3644 185.583 82.9454 185.378 82.5863C185.181 82.2186 184.916 81.9365 184.583 81.7398C184.249 81.5431 183.89 81.4448 183.505 81.4448C183.129 81.4448 182.774 81.5431 182.441 81.7398C182.107 81.9365 181.838 82.2186 181.633 82.5863C181.436 82.9454 181.338 83.3644 181.338 83.8433C181.338 84.3221 181.436 84.7454 181.633 85.1131C181.838 85.4722 182.107 85.7501 182.441 85.9468C182.774 86.1434 183.129 86.2418 183.505 86.2418Z" fill="#656C73"/>
<path d="M190.805 89.9998C190.036 89.9998 189.407 89.816 188.92 89.4483C188.432 89.0806 188.103 88.6531 187.932 88.1657L188.945 87.7424C189.074 88.1187 189.3 88.4222 189.625 88.6531C189.959 88.8925 190.352 89.0122 190.805 89.0122C191.481 89.0122 191.998 88.8113 192.357 88.4094C192.725 88.0161 192.909 87.4645 192.909 86.7548V86.075H192.857C192.652 86.4 192.357 86.6693 191.972 86.8831C191.588 87.0968 191.152 87.2037 190.664 87.2037C190.125 87.2037 189.625 87.0584 189.163 86.7676C188.702 86.4769 188.334 86.075 188.06 85.562C187.787 85.0489 187.65 84.4718 187.65 83.8305C187.65 83.1891 187.787 82.612 188.06 82.0989C188.334 81.5859 188.702 81.184 189.163 80.8933C189.625 80.6025 190.125 80.4572 190.664 80.4572C191.152 80.4572 191.588 80.5641 191.972 80.7778C192.357 80.9916 192.652 81.261 192.857 81.5859H192.909V80.6624H193.948V86.7676C193.948 87.4688 193.811 88.0631 193.537 88.5505C193.264 89.0379 192.887 89.4013 192.409 89.6407C191.938 89.8801 191.404 89.9998 190.805 89.9998ZM190.831 86.2161C191.207 86.2161 191.553 86.1221 191.87 85.9339C192.186 85.7373 192.438 85.4594 192.627 85.1002C192.823 84.7411 192.922 84.3178 192.922 83.8305C192.922 83.3431 192.823 82.9198 192.627 82.5607C192.438 82.193 192.186 81.9151 191.87 81.727C191.553 81.5388 191.207 81.4448 190.831 81.4448C190.455 81.4448 190.108 81.5431 189.792 81.7398C189.476 81.9279 189.219 82.2015 189.022 82.5607C188.834 82.9198 188.74 83.3431 188.74 83.8305C188.74 84.3178 188.834 84.7411 189.022 85.1002C189.219 85.4594 189.476 85.7373 189.792 85.9339C190.108 86.1221 190.455 86.2161 190.831 86.2161Z" fill="#656C73"/>
<path d="M197.486 86.6137L194.844 80.6624H196.024L197.999 85.3439H198.025L199.936 80.6624H201.116L197.14 89.7946H196.024L197.486 86.6137Z" fill="#656C73"/>
<path d="M205.199 77.8406H208.29C208.803 77.8406 209.278 77.9561 209.714 78.187C210.159 78.4178 210.509 78.7428 210.766 79.1617C211.031 79.5722 211.163 80.0382 211.163 80.5598C211.163 81.0814 211.031 81.5517 210.766 81.9707C210.509 82.3811 210.159 82.7018 209.714 82.9326C209.278 83.1635 208.803 83.2789 208.29 83.2789H206.29V87.0242H205.199V77.8406ZM208.329 82.24C208.671 82.24 208.97 82.1588 209.227 81.9963C209.492 81.8339 209.693 81.6244 209.83 81.3678C209.975 81.1113 210.048 80.842 210.048 80.5598C210.048 80.2776 209.975 80.0083 209.83 79.7517C209.693 79.4952 209.492 79.2857 209.227 79.1233C208.97 78.9608 208.671 78.8796 208.329 78.8796H206.29V82.24H208.329Z" fill="#656C73"/>
<path d="M214.161 87.2294C213.699 87.2294 213.28 87.1396 212.904 86.96C212.536 86.7719 212.245 86.5154 212.032 86.1905C211.826 85.857 211.724 85.485 211.724 85.0746C211.724 84.3991 211.976 83.8732 212.481 83.497C212.994 83.1207 213.648 82.9326 214.443 82.9326C214.836 82.9326 215.191 82.9754 215.507 83.0609C215.824 83.1464 216.076 83.2405 216.264 83.3431V83.0096C216.264 82.7018 216.183 82.4281 216.021 82.1887C215.867 81.9407 215.657 81.7526 215.392 81.6244C215.127 81.4875 214.841 81.4191 214.533 81.4191C213.806 81.4191 213.25 81.7141 212.865 82.3041L211.955 81.7013C212.22 81.308 212.57 81.0044 213.006 80.7907C213.442 80.5683 213.934 80.4572 214.481 80.4572C215.354 80.4572 216.042 80.6923 216.546 81.1626C217.051 81.6329 217.303 82.2657 217.303 83.0609V87.0242H216.264V86.0879H216.213C216.008 86.4128 215.73 86.6864 215.379 86.9087C215.029 87.1225 214.622 87.2294 214.161 87.2294ZM214.251 86.2674C214.593 86.2674 214.917 86.1776 215.225 85.9981C215.533 85.8185 215.781 85.5748 215.969 85.267C216.166 84.9592 216.264 84.6257 216.264 84.2665C215.785 83.9587 215.234 83.8048 214.61 83.8048C214.071 83.8048 213.639 83.9288 213.314 84.1768C212.998 84.4162 212.84 84.724 212.84 85.1002C212.84 85.4423 212.981 85.7244 213.263 85.9468C213.545 86.1605 213.874 86.2674 214.251 86.2674Z" fill="#656C73"/>
<path d="M221.121 87.1268C220.865 87.1268 220.625 87.084 220.403 86.9985C220.189 86.913 220.006 86.7976 219.852 86.6522C219.681 86.4897 219.552 86.3016 219.467 86.0879C219.39 85.8655 219.351 85.6047 219.351 85.3055V81.65H218.223V80.6624H219.351V78.7641H220.429V80.6624H221.994V81.65H220.429V85.0361C220.429 85.3952 220.501 85.6603 220.647 85.8313C220.792 86.0194 221.015 86.1135 221.314 86.1135C221.579 86.1135 221.81 86.0537 222.006 85.9339V86.9857C221.87 87.037 221.737 87.0712 221.609 87.0883C221.489 87.1139 221.327 87.1268 221.121 87.1268Z" fill="#656C73"/>
<path d="M223.331 80.6624H224.37V81.6115H224.421C224.601 81.2866 224.883 81.013 225.268 80.7907C225.653 80.5683 226.063 80.4572 226.499 80.4572C227.277 80.4572 227.867 80.6838 228.269 81.137C228.68 81.5902 228.885 82.2101 228.885 82.9968V87.0242H227.807V83.1635C227.807 82.0177 227.273 81.4448 226.204 81.4448C225.862 81.4448 225.554 81.5431 225.281 81.7398C225.007 81.9365 224.793 82.193 224.639 82.5094C224.494 82.8257 224.421 83.1592 224.421 83.5098V87.0242H223.331V80.6624Z" fill="#656C73"/>
<path d="M232.436 87.2294C231.974 87.2294 231.555 87.1396 231.179 86.96C230.811 86.7719 230.52 86.5154 230.306 86.1905C230.101 85.857 229.999 85.485 229.999 85.0746C229.999 84.3991 230.251 83.8732 230.755 83.497C231.268 83.1207 231.922 82.9326 232.718 82.9326C233.111 82.9326 233.466 82.9754 233.782 83.0609C234.099 83.1464 234.351 83.2405 234.539 83.3431V83.0096C234.539 82.7018 234.458 82.4281 234.295 82.1887C234.141 81.9407 233.932 81.7526 233.667 81.6244C233.402 81.4875 233.115 81.4191 232.807 81.4191C232.081 81.4191 231.525 81.7141 231.14 82.3041L230.229 81.7013C230.494 81.308 230.845 81.0044 231.281 80.7907C231.717 80.5683 232.209 80.4572 232.756 80.4572C233.628 80.4572 234.317 80.6923 234.821 81.1626C235.326 81.6329 235.578 82.2657 235.578 83.0609V87.0242H234.539V86.0879H234.488C234.282 86.4128 234.005 86.6864 233.654 86.9087C233.303 87.1225 232.897 87.2294 232.436 87.2294ZM232.525 86.2674C232.867 86.2674 233.192 86.1776 233.5 85.9981C233.808 85.8185 234.056 85.5748 234.244 85.267C234.441 84.9592 234.539 84.6257 234.539 84.2665C234.06 83.9587 233.509 83.8048 232.884 83.8048C232.346 83.8048 231.914 83.9288 231.589 84.1768C231.273 84.4162 231.114 84.724 231.114 85.1002C231.114 85.4423 231.255 85.7244 231.538 85.9468C231.82 86.1605 232.149 86.2674 232.525 86.2674Z" fill="#656C73"/>
</svg>
