<svg viewBox="0 0 388 484" fill="none" xmlns="http://www.w3.org/2000/svg">
<g clip-path="url(#clip0_399:11223)">
<path d="M388 0H0V484H388V0Z" fill="#F44336"/>
<g clip-path="url(#clip1_399:11223)">
<path d="M34.3632 316.454C37.2492 316.454 39.5888 314.445 39.5888 311.966C39.5888 309.487 37.2492 307.477 34.3632 307.477C31.4772 307.477 29.1377 309.487 29.1377 311.966C29.1377 314.445 31.4772 316.454 34.3632 316.454Z" fill="#F19A99"/>
<path d="M88.7558 316.25C91.6418 316.25 93.9813 314.241 93.9813 311.762C93.9813 309.283 91.6418 307.273 88.7558 307.273C85.8698 307.273 83.5303 309.283 83.5303 311.762C83.5303 314.241 85.8698 316.25 88.7558 316.25Z" fill="#F19A99"/>
<path d="M143.387 316.046C146.273 316.046 148.612 314.037 148.612 311.558C148.612 309.079 146.273 307.069 143.387 307.069C140.501 307.069 138.161 309.079 138.161 311.558C138.161 314.037 140.501 316.046 143.387 316.046Z" fill="#F19A99"/>
<path d="M197.78 315.638C200.666 315.638 203.006 313.628 203.006 311.15C203.006 308.671 200.666 306.661 197.78 306.661C194.894 306.661 192.555 308.671 192.555 311.15C192.555 313.628 194.894 315.638 197.78 315.638Z" fill="#F19A99"/>
<path d="M252.173 315.434C255.059 315.434 257.398 313.424 257.398 310.946C257.398 308.467 255.059 306.457 252.173 306.457C249.287 306.457 246.947 308.467 246.947 310.946C246.947 313.424 249.287 315.434 252.173 315.434Z" fill="#F19A99"/>
<path d="M306.566 315.23C309.452 315.23 311.792 313.22 311.792 310.742C311.792 308.263 309.452 306.253 306.566 306.253C303.68 306.253 301.341 308.263 301.341 310.742C301.341 313.22 303.68 315.23 306.566 315.23Z" fill="#F19A99"/>
<path d="M360.959 315.026C363.845 315.026 366.185 313.016 366.185 310.538C366.185 308.059 363.845 306.049 360.959 306.049C358.073 306.049 355.733 308.059 355.733 310.538C355.733 313.016 358.073 315.026 360.959 315.026Z" fill="#F19A99"/>
<path d="M34.1259 266.877C37.0119 266.877 39.3515 264.867 39.3515 262.388C39.3515 259.909 37.0119 257.9 34.1259 257.9C31.2399 257.9 28.9004 259.909 28.9004 262.388C28.9004 264.867 31.2399 266.877 34.1259 266.877Z" fill="#F19A99"/>
<path d="M88.5185 266.673C91.4045 266.673 93.744 264.663 93.744 262.184C93.744 259.705 91.4045 257.696 88.5185 257.696C85.6325 257.696 83.293 259.705 83.293 262.184C83.293 264.663 85.6325 266.673 88.5185 266.673Z" fill="#F19A99"/>
<path d="M142.912 266.265C145.798 266.265 148.138 264.255 148.138 261.776C148.138 259.298 145.798 257.288 142.912 257.288C140.026 257.288 137.687 259.298 137.687 261.776C137.687 264.255 140.026 266.265 142.912 266.265Z" fill="#F19A99"/>
<path d="M197.543 266.061C200.429 266.061 202.768 264.051 202.768 261.572C202.768 259.093 200.429 257.084 197.543 257.084C194.657 257.084 192.317 259.093 192.317 261.572C192.317 264.051 194.657 266.061 197.543 266.061Z" fill="#F19A99"/>
<path d="M251.935 265.857C254.821 265.857 257.161 263.847 257.161 261.368C257.161 258.889 254.821 256.88 251.935 256.88C249.05 256.88 246.71 258.889 246.71 261.368C246.71 263.847 249.05 265.857 251.935 265.857Z" fill="#F19A99"/>
<path d="M306.328 265.653C309.214 265.653 311.554 263.643 311.554 261.164C311.554 258.685 309.214 256.676 306.328 256.676C303.442 256.676 301.103 258.685 301.103 261.164C301.103 263.643 303.442 265.653 306.328 265.653Z" fill="#F19A99"/>
<path d="M360.722 265.245C363.608 265.245 365.947 263.235 365.947 260.756C365.947 258.277 363.608 256.268 360.722 256.268C357.836 256.268 355.496 258.277 355.496 260.756C355.496 263.235 357.836 265.245 360.722 265.245Z" fill="#F19A99"/>
<path d="M33.8886 218.728C36.7746 218.728 39.1141 216.718 39.1141 214.239C39.1141 211.76 36.7746 209.751 33.8886 209.751C31.0026 209.751 28.6631 211.76 28.6631 214.239C28.6631 216.718 31.0026 218.728 33.8886 218.728Z" fill="#F19A99"/>
<path d="M88.2812 218.32C91.1672 218.32 93.5067 216.31 93.5067 213.831C93.5067 211.352 91.1672 209.343 88.2812 209.343C85.3952 209.343 83.0557 211.352 83.0557 213.831C83.0557 216.31 85.3952 218.32 88.2812 218.32Z" fill="#F19A99"/>
<path d="M142.674 218.116C145.56 218.116 147.899 216.106 147.899 213.627C147.899 211.148 145.56 209.139 142.674 209.139C139.788 209.139 137.448 211.148 137.448 213.627C137.448 216.106 139.788 218.116 142.674 218.116Z" fill="#F19A99"/>
<path d="M197.067 217.912C199.953 217.912 202.293 215.902 202.293 213.423C202.293 210.944 199.953 208.935 197.067 208.935C194.181 208.935 191.842 210.944 191.842 213.423C191.842 215.902 194.181 217.912 197.067 217.912Z" fill="#F19A99"/>
<path d="M251.698 217.708C254.584 217.708 256.924 215.698 256.924 213.219C256.924 210.74 254.584 208.731 251.698 208.731C248.812 208.731 246.473 210.74 246.473 213.219C246.473 215.698 248.812 217.708 251.698 217.708Z" fill="#F19A99"/>
<path d="M306.091 217.3C308.977 217.3 311.316 215.29 311.316 212.811C311.316 210.332 308.977 208.323 306.091 208.323C303.205 208.323 300.865 210.332 300.865 212.811C300.865 215.29 303.205 217.3 306.091 217.3Z" fill="#F19A99"/>
<path d="M360.484 217.096C363.37 217.096 365.71 215.086 365.71 212.607C365.71 210.128 363.37 208.119 360.484 208.119C357.598 208.119 355.259 210.128 355.259 212.607C355.259 215.086 357.598 217.096 360.484 217.096Z" fill="#F19A99"/>
<path d="M33.6503 168.947C36.5363 168.947 38.8759 166.937 38.8759 164.458C38.8759 161.979 36.5363 159.97 33.6503 159.97C30.7644 159.97 28.4248 161.979 28.4248 164.458C28.4248 166.937 30.7644 168.947 33.6503 168.947Z" fill="#F19A99"/>
<path d="M88.0439 168.743C90.9299 168.743 93.2694 166.733 93.2694 164.254C93.2694 161.775 90.9299 159.766 88.0439 159.766C85.1579 159.766 82.8184 161.775 82.8184 164.254C82.8184 166.733 85.1579 168.743 88.0439 168.743Z" fill="#F19A99"/>
<path d="M142.436 168.538C145.322 168.538 147.662 166.529 147.662 164.05C147.662 161.571 145.322 159.562 142.436 159.562C139.55 159.562 137.211 161.571 137.211 164.05C137.211 166.529 139.55 168.538 142.436 168.538Z" fill="#F19A99"/>
<path d="M196.83 168.335C199.716 168.335 202.056 166.325 202.056 163.846C202.056 161.367 199.716 159.358 196.83 159.358C193.944 159.358 191.604 161.367 191.604 163.846C191.604 166.325 193.944 168.335 196.83 168.335Z" fill="#F19A99"/>
<path d="M251.223 167.926C254.109 167.926 256.448 165.917 256.448 163.438C256.448 160.959 254.109 158.949 251.223 158.949C248.337 158.949 245.997 160.959 245.997 163.438C245.997 165.917 248.337 167.926 251.223 167.926Z" fill="#F19A99"/>
<path d="M305.853 167.722C308.739 167.722 311.079 165.713 311.079 163.234C311.079 160.755 308.739 158.745 305.853 158.745C302.967 158.745 300.628 160.755 300.628 163.234C300.628 165.713 302.967 167.722 305.853 167.722Z" fill="#F19A99"/>
<path d="M360.247 167.518C363.133 167.518 365.473 165.509 365.473 163.03C365.473 160.551 363.133 158.541 360.247 158.541C357.361 158.541 355.021 160.551 355.021 163.03C355.021 165.509 357.361 167.518 360.247 167.518Z" fill="#F19A99"/>
<path d="M33.1757 120.797C36.0617 120.797 38.4013 118.788 38.4013 116.309C38.4013 113.83 36.0617 111.82 33.1757 111.82C30.2897 111.82 27.9502 113.83 27.9502 116.309C27.9502 118.788 30.2897 120.797 33.1757 120.797Z" fill="#F19A99"/>
<path d="M87.8056 120.593C90.6916 120.593 93.0312 118.584 93.0312 116.105C93.0312 113.626 90.6916 111.616 87.8056 111.616C84.9196 111.616 82.5801 113.626 82.5801 116.105C82.5801 118.584 84.9196 120.593 87.8056 120.593Z" fill="#F19A99"/>
<path d="M142.199 120.389C145.085 120.389 147.425 118.38 147.425 115.901C147.425 113.422 145.085 111.412 142.199 111.412C139.313 111.412 136.974 113.422 136.974 115.901C136.974 118.38 139.313 120.389 142.199 120.389Z" fill="#F19A99"/>
<path d="M196.592 120.185C199.478 120.185 201.817 118.176 201.817 115.697C201.817 113.218 199.478 111.208 196.592 111.208C193.706 111.208 191.366 113.218 191.366 115.697C191.366 118.176 193.706 120.185 196.592 120.185Z" fill="#F19A99"/>
<path d="M250.985 119.777C253.871 119.777 256.211 117.768 256.211 115.289C256.211 112.81 253.871 110.8 250.985 110.8C248.099 110.8 245.76 112.81 245.76 115.289C245.76 117.768 248.099 119.777 250.985 119.777Z" fill="#F19A99"/>
<path d="M305.378 119.573C308.264 119.573 310.603 117.564 310.603 115.085C310.603 112.606 308.264 110.596 305.378 110.596C302.492 110.596 300.152 112.606 300.152 115.085C300.152 117.564 302.492 119.573 305.378 119.573Z" fill="#F19A99"/>
<path d="M360.009 119.369C362.895 119.369 365.234 117.36 365.234 114.881C365.234 112.402 362.895 110.392 360.009 110.392C357.123 110.392 354.783 112.402 354.783 114.881C354.783 117.36 357.123 119.369 360.009 119.369Z" fill="#F19A99"/>
<path d="M32.9384 75.7087C35.8244 75.7087 38.164 73.6991 38.164 71.2202C38.164 68.7413 35.8244 66.7318 32.9384 66.7318C30.0524 66.7318 27.7129 68.7413 27.7129 71.2202C27.7129 73.6991 30.0524 75.7087 32.9384 75.7087Z" fill="#F19A99"/>
<path d="M87.331 75.5047C90.217 75.5047 92.5565 73.4952 92.5565 71.0162C92.5565 68.5373 90.217 66.5278 87.331 66.5278C84.445 66.5278 82.1055 68.5373 82.1055 71.0162C82.1055 73.4952 84.445 75.5047 87.331 75.5047Z" fill="#F19A99"/>
<path d="M141.962 75.3007C144.848 75.3007 147.187 73.2911 147.187 70.8122C147.187 68.3332 144.848 66.3237 141.962 66.3237C139.076 66.3237 136.736 68.3332 136.736 70.8122C136.736 73.2911 139.076 75.3007 141.962 75.3007Z" fill="#F19A99"/>
<path d="M196.354 75.0966C199.24 75.0966 201.58 73.0871 201.58 70.6082C201.58 68.1293 199.24 66.1197 196.354 66.1197C193.468 66.1197 191.129 68.1293 191.129 70.6082C191.129 73.0871 193.468 75.0966 196.354 75.0966Z" fill="#F19A99"/>
<path d="M250.748 74.6886C253.634 74.6886 255.974 72.679 255.974 70.2001C255.974 67.7212 253.634 65.7116 250.748 65.7116C247.862 65.7116 245.522 67.7212 245.522 70.2001C245.522 72.679 247.862 74.6886 250.748 74.6886Z" fill="#F19A99"/>
<path d="M305.141 74.4845C308.027 74.4845 310.366 72.475 310.366 69.9961C310.366 67.5172 308.027 65.5076 305.141 65.5076C302.255 65.5076 299.915 67.5172 299.915 69.9961C299.915 72.475 302.255 74.4845 305.141 74.4845Z" fill="#F19A99"/>
<path d="M359.533 74.2805C362.419 74.2805 364.759 72.271 364.759 69.7921C364.759 67.3132 362.419 65.3036 359.533 65.3036C356.647 65.3036 354.308 67.3132 354.308 69.7921C354.308 72.271 356.647 74.2805 359.533 74.2805Z" fill="#F19A99"/>
<path d="M32.7011 27.5596C35.5871 27.5596 37.9267 25.5501 37.9267 23.0711C37.9267 20.5922 35.5871 18.5826 32.7011 18.5826C29.8151 18.5826 27.4756 20.5922 27.4756 23.0711C27.4756 25.5501 29.8151 27.5596 32.7011 27.5596Z" fill="#F19A99"/>
<path d="M87.0937 27.3555C89.9797 27.3555 92.3192 25.346 92.3192 22.8671C92.3192 20.3882 89.9797 18.3786 87.0937 18.3786C84.2077 18.3786 81.8682 20.3882 81.8682 22.8671C81.8682 25.346 84.2077 27.3555 87.0937 27.3555Z" fill="#F19A99"/>
<path d="M141.487 27.1516C144.373 27.1516 146.713 25.142 146.713 22.6631C146.713 20.1842 144.373 18.1746 141.487 18.1746C138.601 18.1746 136.262 20.1842 136.262 22.6631C136.262 25.142 138.601 27.1516 141.487 27.1516Z" fill="#F19A99"/>
<path d="M196.117 26.9475C199.003 26.9475 201.343 24.938 201.343 22.459C201.343 19.9801 199.003 17.9706 196.117 17.9706C193.231 17.9706 190.892 19.9801 190.892 22.459C190.892 24.938 193.231 26.9475 196.117 26.9475Z" fill="#F19A99"/>
<path d="M250.511 26.5395C253.397 26.5395 255.736 24.5299 255.736 22.051C255.736 19.5721 253.397 17.5626 250.511 17.5626C247.625 17.5626 245.285 19.5721 245.285 22.051C245.285 24.5299 247.625 26.5395 250.511 26.5395Z" fill="#F19A99"/>
<path d="M304.903 26.3355C307.789 26.3355 310.129 24.3259 310.129 21.847C310.129 19.3681 307.789 17.3585 304.903 17.3585C302.017 17.3585 299.678 19.3681 299.678 21.847C299.678 24.3259 302.017 26.3355 304.903 26.3355Z" fill="#F19A99"/>
<path d="M359.296 26.1314C362.182 26.1314 364.521 24.1219 364.521 21.643C364.521 19.164 362.182 17.1545 359.296 17.1545C356.41 17.1545 354.07 19.164 354.07 21.643C354.07 24.1219 356.41 26.1314 359.296 26.1314Z" fill="#F19A99"/>
<path d="M35.3144 461.105C38.2004 461.105 40.5399 459.096 40.5399 456.617C40.5399 454.138 38.2004 452.129 35.3144 452.129C32.4284 452.129 30.0889 454.138 30.0889 456.617C30.0889 459.096 32.4284 461.105 35.3144 461.105Z" fill="#F19A99"/>
<path d="M89.9443 460.902C92.8303 460.902 95.1698 458.892 95.1698 456.413C95.1698 453.934 92.8303 451.925 89.9443 451.925C87.0583 451.925 84.7188 453.934 84.7188 456.413C84.7188 458.892 87.0583 460.902 89.9443 460.902Z" fill="#F19A99"/>
<path d="M144.338 460.698C147.224 460.698 149.563 458.688 149.563 456.209C149.563 453.73 147.224 451.721 144.338 451.721C141.452 451.721 139.112 453.73 139.112 456.209C139.112 458.688 141.452 460.698 144.338 460.698Z" fill="#F19A99"/>
<path d="M198.73 460.493C201.616 460.493 203.956 458.484 203.956 456.005C203.956 453.526 201.616 451.517 198.73 451.517C195.844 451.517 193.505 453.526 193.505 456.005C193.505 458.484 195.844 460.493 198.73 460.493Z" fill="#F19A99"/>
<path d="M253.124 460.085C256.01 460.085 258.35 458.076 258.35 455.597C258.35 453.118 256.01 451.108 253.124 451.108C250.238 451.108 247.898 453.118 247.898 455.597C247.898 458.076 250.238 460.085 253.124 460.085Z" fill="#F19A99"/>
<path d="M307.517 459.881C310.403 459.881 312.742 457.872 312.742 455.393C312.742 452.914 310.403 450.904 307.517 450.904C304.631 450.904 302.291 452.914 302.291 455.393C302.291 457.872 304.631 459.881 307.517 459.881Z" fill="#F19A99"/>
<path d="M362.146 459.677C365.032 459.677 367.372 457.668 367.372 455.189C367.372 452.71 365.032 450.7 362.146 450.7C359.26 450.7 356.921 452.71 356.921 455.189C356.921 457.668 359.26 459.677 362.146 459.677Z" fill="#F19A99"/>
<path d="M35.0751 411.528C37.9611 411.528 40.3007 409.519 40.3007 407.04C40.3007 404.561 37.9611 402.551 35.0751 402.551C32.1892 402.551 29.8496 404.561 29.8496 407.04C29.8496 409.519 32.1892 411.528 35.0751 411.528Z" fill="#F19A99"/>
<path d="M89.4697 411.324C92.3556 411.324 94.6952 409.315 94.6952 406.836C94.6952 404.357 92.3556 402.347 89.4697 402.347C86.5837 402.347 84.2441 404.357 84.2441 406.836C84.2441 409.315 86.5837 411.324 89.4697 411.324Z" fill="#F19A99"/>
<path d="M144.101 411.12C146.987 411.12 149.326 409.111 149.326 406.632C149.326 404.153 146.987 402.143 144.101 402.143C141.215 402.143 138.875 404.153 138.875 406.632C138.875 409.111 141.215 411.12 144.101 411.12Z" fill="#F19A99"/>
<path d="M198.493 410.712C201.379 410.712 203.719 408.703 203.719 406.224C203.719 403.745 201.379 401.735 198.493 401.735C195.607 401.735 193.268 403.745 193.268 406.224C193.268 408.703 195.607 410.712 198.493 410.712Z" fill="#F19A99"/>
<path d="M252.886 410.508C255.772 410.508 258.111 408.499 258.111 406.02C258.111 403.541 255.772 401.531 252.886 401.531C250 401.531 247.66 403.541 247.66 406.02C247.66 408.499 250 410.508 252.886 410.508Z" fill="#F19A99"/>
<path d="M307.279 410.304C310.165 410.304 312.505 408.295 312.505 405.816C312.505 403.337 310.165 401.327 307.279 401.327C304.393 401.327 302.054 403.337 302.054 405.816C302.054 408.295 304.393 410.304 307.279 410.304Z" fill="#F19A99"/>
<path d="M361.672 410.1C364.558 410.1 366.897 408.091 366.897 405.612C366.897 403.133 364.558 401.123 361.672 401.123C358.786 401.123 356.446 403.133 356.446 405.612C356.446 408.091 358.786 410.1 361.672 410.1Z" fill="#F19A99"/>
<path d="M34.8388 363.379C37.7248 363.379 40.0643 361.37 40.0643 358.891C40.0643 356.412 37.7248 354.402 34.8388 354.402C31.9528 354.402 29.6133 356.412 29.6133 358.891C29.6133 361.37 31.9528 363.379 34.8388 363.379Z" fill="#F19A99"/>
<path d="M89.2314 363.175C92.1174 363.175 94.4569 361.166 94.4569 358.687C94.4569 356.208 92.1174 354.198 89.2314 354.198C86.3454 354.198 84.0059 356.208 84.0059 358.687C84.0059 361.166 86.3454 363.175 89.2314 363.175Z" fill="#F19A99"/>
<path d="M143.625 362.767C146.511 362.767 148.85 360.758 148.85 358.279C148.85 355.8 146.511 353.79 143.625 353.79C140.739 353.79 138.399 355.8 138.399 358.279C138.399 360.758 140.739 362.767 143.625 362.767Z" fill="#F19A99"/>
<path d="M198.256 362.563C201.142 362.563 203.481 360.554 203.481 358.075C203.481 355.596 201.142 353.586 198.256 353.586C195.37 353.586 193.03 355.596 193.03 358.075C193.03 360.554 195.37 362.563 198.256 362.563Z" fill="#F19A99"/>
<path d="M252.648 362.359C255.534 362.359 257.874 360.35 257.874 357.871C257.874 355.392 255.534 353.382 252.648 353.382C249.762 353.382 247.423 355.392 247.423 357.871C247.423 360.35 249.762 362.359 252.648 362.359Z" fill="#F19A99"/>
<path d="M307.042 362.155C309.928 362.155 312.267 360.145 312.267 357.667C312.267 355.188 309.928 353.178 307.042 353.178C304.156 353.178 301.816 355.188 301.816 357.667C301.816 360.145 304.156 362.155 307.042 362.155Z" fill="#F19A99"/>
<path d="M361.435 361.951C364.32 361.951 366.66 359.941 366.66 357.462C366.66 354.984 364.32 352.974 361.435 352.974C358.549 352.974 356.209 354.984 356.209 357.462C356.209 359.941 358.549 361.951 361.435 361.951Z" fill="#F19A99"/>
</g>
</g>
<defs>
<clipPath id="clip0_399:11223">
<rect width="388" height="484" fill="white"/>
</clipPath>
<clipPath id="clip1_399:11223">
<rect width="614" height="832" fill="white" transform="translate(27 -82)"/>
</clipPath>
</defs>
</svg>
