<svg width="388" height="484" viewBox="0 0 388 484" fill="none" xmlns="http://www.w3.org/2000/svg">
<path d="M368 22H75V472H368V22Z" fill="#4285F4"/>
<path d="M93.1639 377.279C94.4438 377.279 95.4812 376.663 95.4812 375.902C95.4812 375.141 94.4438 374.524 93.1639 374.524C91.8841 374.524 90.8467 375.141 90.8467 375.902C90.8467 376.663 91.8841 377.279 93.1639 377.279Z" fill="#BBDEFB"/>
<path d="M117.285 377.217C118.565 377.217 119.602 376.6 119.602 375.84C119.602 375.078 118.565 374.462 117.285 374.462C116.005 374.462 114.968 375.078 114.968 375.84C114.968 376.6 116.005 377.217 117.285 377.217Z" fill="#BBDEFB"/>
<path d="M141.511 377.154C142.79 377.154 143.828 376.537 143.828 375.777C143.828 375.016 142.79 374.399 141.511 374.399C140.231 374.399 139.193 375.016 139.193 375.777C139.193 376.537 140.231 377.154 141.511 377.154Z" fill="#BBDEFB"/>
<path d="M165.632 377.029C166.911 377.029 167.949 376.412 167.949 375.651C167.949 374.891 166.911 374.274 165.632 374.274C164.352 374.274 163.314 374.891 163.314 375.651C163.314 376.412 164.352 377.029 165.632 377.029Z" fill="#BBDEFB"/>
<path d="M189.753 376.967C191.033 376.967 192.07 376.35 192.07 375.589C192.07 374.828 191.033 374.212 189.753 374.212C188.473 374.212 187.436 374.828 187.436 375.589C187.436 376.35 188.473 376.967 189.753 376.967Z" fill="#BBDEFB"/>
<path d="M213.874 376.904C215.153 376.904 216.191 376.287 216.191 375.526C216.191 374.766 215.153 374.149 213.874 374.149C212.594 374.149 211.557 374.766 211.557 375.526C211.557 376.287 212.594 376.904 213.874 376.904Z" fill="#BBDEFB"/>
<path d="M237.994 376.841C239.274 376.841 240.311 376.224 240.311 375.464C240.311 374.703 239.274 374.086 237.994 374.086C236.715 374.086 235.677 374.703 235.677 375.464C235.677 376.224 236.715 376.841 237.994 376.841Z" fill="#BBDEFB"/>
<path d="M262.22 376.716C263.5 376.716 264.538 376.099 264.538 375.339C264.538 374.578 263.5 373.961 262.22 373.961C260.94 373.961 259.902 374.578 259.902 375.339C259.902 376.099 260.94 376.716 262.22 376.716Z" fill="#BBDEFB"/>
<path d="M286.342 376.653C287.622 376.653 288.659 376.036 288.659 375.276C288.659 374.515 287.622 373.898 286.342 373.898C285.062 373.898 284.024 374.515 284.024 375.276C284.024 376.036 285.062 376.653 286.342 376.653Z" fill="#BBDEFB"/>
<path d="M310.464 376.591C311.744 376.591 312.781 375.974 312.781 375.213C312.781 374.452 311.744 373.836 310.464 373.836C309.184 373.836 308.146 374.452 308.146 375.213C308.146 375.974 309.184 376.591 310.464 376.591Z" fill="#BBDEFB"/>
<path d="M334.584 376.528C335.863 376.528 336.901 375.911 336.901 375.151C336.901 374.39 335.863 373.773 334.584 373.773C333.304 373.773 332.267 374.39 332.267 375.151C332.267 375.911 333.304 376.528 334.584 376.528Z" fill="#BBDEFB"/>
<path d="M358.705 376.403C359.984 376.403 361.022 375.786 361.022 375.025C361.022 374.265 359.984 373.648 358.705 373.648C357.425 373.648 356.387 374.265 356.387 375.025C356.387 375.786 357.425 376.403 358.705 376.403Z" fill="#BBDEFB"/>
<path d="M93.0585 362.065C94.3383 362.065 95.3757 361.448 95.3757 360.687C95.3757 359.927 94.3383 359.31 93.0585 359.31C91.7787 359.31 90.7412 359.927 90.7412 360.687C90.7412 361.448 91.7787 362.065 93.0585 362.065Z" fill="#BBDEFB"/>
<path d="M117.18 362.003C118.459 362.003 119.497 361.386 119.497 360.625C119.497 359.864 118.459 359.248 117.18 359.248C115.9 359.248 114.862 359.864 114.862 360.625C114.862 361.386 115.9 362.003 117.18 362.003Z" fill="#BBDEFB"/>
<path d="M141.301 361.877C142.58 361.877 143.618 361.26 143.618 360.5C143.618 359.739 142.58 359.122 141.301 359.122C140.021 359.122 138.983 359.739 138.983 360.5C138.983 361.26 140.021 361.877 141.301 361.877Z" fill="#BBDEFB"/>
<path d="M165.527 361.814C166.807 361.814 167.844 361.198 167.844 360.437C167.844 359.676 166.807 359.06 165.527 359.06C164.247 359.06 163.21 359.676 163.21 360.437C163.21 361.198 164.247 361.814 165.527 361.814Z" fill="#BBDEFB"/>
<path d="M189.647 361.752C190.927 361.752 191.965 361.135 191.965 360.375C191.965 359.614 190.927 358.997 189.647 358.997C188.368 358.997 187.33 359.614 187.33 360.375C187.33 361.135 188.368 361.752 189.647 361.752Z" fill="#BBDEFB"/>
<path d="M213.767 361.689C215.048 361.689 216.085 361.072 216.085 360.312C216.085 359.551 215.048 358.934 213.767 358.934C212.488 358.934 211.45 359.551 211.45 360.312C211.45 361.072 212.488 361.689 213.767 361.689Z" fill="#BBDEFB"/>
<path d="M237.89 361.564C239.17 361.564 240.207 360.947 240.207 360.187C240.207 359.426 239.17 358.809 237.89 358.809C236.609 358.809 235.572 359.426 235.572 360.187C235.572 360.947 236.609 361.564 237.89 361.564Z" fill="#BBDEFB"/>
<path d="M262.011 361.502C263.29 361.502 264.328 360.885 264.328 360.124C264.328 359.363 263.29 358.747 262.011 358.747C260.73 358.747 259.693 359.363 259.693 360.124C259.693 360.885 260.73 361.502 262.011 361.502Z" fill="#BBDEFB"/>
<path d="M286.237 361.439C287.517 361.439 288.554 360.822 288.554 360.061C288.554 359.301 287.517 358.684 286.237 358.684C284.957 358.684 283.92 359.301 283.92 360.061C283.92 360.822 284.957 361.439 286.237 361.439Z" fill="#BBDEFB"/>
<path d="M310.358 361.376C311.638 361.376 312.676 360.76 312.676 359.999C312.676 359.238 311.638 358.622 310.358 358.622C309.078 358.622 308.041 359.238 308.041 359.999C308.041 360.76 309.078 361.376 310.358 361.376Z" fill="#BBDEFB"/>
<path d="M334.478 361.251C335.759 361.251 336.796 360.634 336.796 359.874C336.796 359.113 335.759 358.496 334.478 358.496C333.199 358.496 332.161 359.113 332.161 359.874C332.161 360.634 333.199 361.251 334.478 361.251Z" fill="#BBDEFB"/>
<path d="M358.599 361.188C359.879 361.188 360.917 360.571 360.917 359.811C360.917 359.05 359.879 358.433 358.599 358.433C357.319 358.433 356.282 359.05 356.282 359.811C356.282 360.571 357.319 361.188 358.599 361.188Z" fill="#BBDEFB"/>
<path d="M92.954 347.289C94.2338 347.289 95.2713 346.672 95.2713 345.911C95.2713 345.151 94.2338 344.534 92.954 344.534C91.6742 344.534 90.6367 345.151 90.6367 345.911C90.6367 346.672 91.6742 347.289 92.954 347.289Z" fill="#BBDEFB"/>
<path d="M117.074 347.163C118.354 347.163 119.391 346.547 119.391 345.786C119.391 345.025 118.354 344.409 117.074 344.409C115.794 344.409 114.757 345.025 114.757 345.786C114.757 346.547 115.794 347.163 117.074 347.163Z" fill="#BBDEFB"/>
<path d="M141.195 347.101C142.475 347.101 143.513 346.484 143.513 345.723C143.513 344.963 142.475 344.346 141.195 344.346C139.915 344.346 138.878 344.963 138.878 345.723C138.878 346.484 139.915 347.101 141.195 347.101Z" fill="#BBDEFB"/>
<path d="M165.315 347.038C166.595 347.038 167.633 346.422 167.633 345.661C167.633 344.9 166.595 344.284 165.315 344.284C164.036 344.284 162.998 344.9 162.998 345.661C162.998 346.422 164.036 347.038 165.315 347.038Z" fill="#BBDEFB"/>
<path d="M189.542 346.976C190.822 346.976 191.859 346.359 191.859 345.598C191.859 344.838 190.822 344.221 189.542 344.221C188.262 344.221 187.225 344.838 187.225 345.598C187.225 346.359 188.262 346.976 189.542 346.976Z" fill="#BBDEFB"/>
<path d="M213.663 346.85C214.943 346.85 215.98 346.234 215.98 345.473C215.98 344.712 214.943 344.096 213.663 344.096C212.384 344.096 211.346 344.712 211.346 345.473C211.346 346.234 212.384 346.85 213.663 346.85Z" fill="#BBDEFB"/>
<path d="M237.785 346.788C239.064 346.788 240.102 346.171 240.102 345.411C240.102 344.65 239.064 344.033 237.785 344.033C236.505 344.033 235.468 344.65 235.468 345.411C235.468 346.171 236.505 346.788 237.785 346.788Z" fill="#BBDEFB"/>
<path d="M261.905 346.725C263.184 346.725 264.222 346.108 264.222 345.348C264.222 344.587 263.184 343.97 261.905 343.97C260.625 343.97 259.588 344.587 259.588 345.348C259.588 346.108 260.625 346.725 261.905 346.725Z" fill="#BBDEFB"/>
<path d="M286.026 346.662C287.306 346.662 288.344 346.046 288.344 345.285C288.344 344.524 287.306 343.908 286.026 343.908C284.746 343.908 283.709 344.524 283.709 345.285C283.709 346.046 284.746 346.662 286.026 346.662Z" fill="#BBDEFB"/>
<path d="M310.253 346.6C311.532 346.6 312.57 345.983 312.57 345.223C312.57 344.462 311.532 343.845 310.253 343.845C308.973 343.845 307.936 344.462 307.936 345.223C307.936 345.983 308.973 346.6 310.253 346.6Z" fill="#BBDEFB"/>
<path d="M334.374 346.475C335.653 346.475 336.691 345.858 336.691 345.097C336.691 344.337 335.653 343.72 334.374 343.72C333.094 343.72 332.056 344.337 332.056 345.097C332.056 345.858 333.094 346.475 334.374 346.475Z" fill="#BBDEFB"/>
<path d="M358.494 346.412C359.774 346.412 360.811 345.796 360.811 345.035C360.811 344.274 359.774 343.658 358.494 343.658C357.215 343.658 356.177 344.274 356.177 345.035C356.177 345.796 357.215 346.412 358.494 346.412Z" fill="#BBDEFB"/>
<path d="M92.8485 332.012C94.1283 332.012 95.1659 331.395 95.1659 330.634C95.1659 329.874 94.1283 329.257 92.8485 329.257C91.5688 329.257 90.5312 329.874 90.5312 330.634C90.5312 331.395 91.5688 332.012 92.8485 332.012Z" fill="#BBDEFB"/>
<path d="M116.968 331.949C118.247 331.949 119.285 331.332 119.285 330.571C119.285 329.811 118.247 329.194 116.968 329.194C115.688 329.194 114.65 329.811 114.65 330.571C114.65 331.332 115.688 331.949 116.968 331.949Z" fill="#BBDEFB"/>
<path d="M141.09 331.887C142.37 331.887 143.407 331.27 143.407 330.509C143.407 329.748 142.37 329.132 141.09 329.132C139.81 329.132 138.772 329.748 138.772 330.509C138.772 331.27 139.81 331.887 141.09 331.887Z" fill="#BBDEFB"/>
<path d="M165.211 331.824C166.491 331.824 167.528 331.207 167.528 330.446C167.528 329.686 166.491 329.069 165.211 329.069C163.931 329.069 162.894 329.686 162.894 330.446C162.894 331.207 163.931 331.824 165.211 331.824Z" fill="#BBDEFB"/>
<path d="M189.332 331.698C190.611 331.698 191.649 331.082 191.649 330.321C191.649 329.56 190.611 328.944 189.332 328.944C188.052 328.944 187.015 329.56 187.015 330.321C187.015 331.082 188.052 331.698 189.332 331.698Z" fill="#BBDEFB"/>
<path d="M213.558 331.636C214.838 331.636 215.876 331.019 215.876 330.259C215.876 329.498 214.838 328.881 213.558 328.881C212.278 328.881 211.241 329.498 211.241 330.259C211.241 331.019 212.278 331.636 213.558 331.636Z" fill="#BBDEFB"/>
<path d="M237.679 331.573C238.958 331.573 239.996 330.957 239.996 330.196C239.996 329.435 238.958 328.818 237.679 328.818C236.398 328.818 235.361 329.435 235.361 330.196C235.361 330.957 236.398 331.573 237.679 331.573Z" fill="#BBDEFB"/>
<path d="M261.801 331.511C263.081 331.511 264.118 330.894 264.118 330.133C264.118 329.373 263.081 328.756 261.801 328.756C260.521 328.756 259.483 329.373 259.483 330.133C259.483 330.894 260.521 331.511 261.801 331.511Z" fill="#BBDEFB"/>
<path d="M285.921 331.448C287.201 331.448 288.238 330.832 288.238 330.07C288.238 329.31 287.201 328.693 285.921 328.693C284.641 328.693 283.604 329.31 283.604 330.07C283.604 330.832 284.641 331.448 285.921 331.448Z" fill="#BBDEFB"/>
<path d="M310.041 331.323C311.321 331.323 312.359 330.706 312.359 329.945C312.359 329.185 311.321 328.568 310.041 328.568C308.762 328.568 307.724 329.185 307.724 329.945C307.724 330.706 308.762 331.323 310.041 331.323Z" fill="#BBDEFB"/>
<path d="M334.268 331.26C335.549 331.26 336.586 330.643 336.586 329.883C336.586 329.122 335.549 328.505 334.268 328.505C332.989 328.505 331.951 329.122 331.951 329.883C331.951 330.643 332.989 331.26 334.268 331.26Z" fill="#BBDEFB"/>
<path d="M358.39 331.198C359.669 331.198 360.707 330.581 360.707 329.82C360.707 329.059 359.669 328.443 358.39 328.443C357.109 328.443 356.072 329.059 356.072 329.82C356.072 330.581 357.109 331.198 358.39 331.198Z" fill="#BBDEFB"/>
<path d="M92.6366 317.235C93.9164 317.235 94.954 316.619 94.954 315.858C94.954 315.097 93.9164 314.48 92.6366 314.48C91.3569 314.48 90.3193 315.097 90.3193 315.858C90.3193 316.619 91.3569 317.235 92.6366 317.235Z" fill="#BBDEFB"/>
<path d="M116.863 317.173C118.143 317.173 119.18 316.556 119.18 315.795C119.18 315.035 118.143 314.418 116.863 314.418C115.583 314.418 114.546 315.035 114.546 315.795C114.546 316.556 115.583 317.173 116.863 317.173Z" fill="#BBDEFB"/>
<path d="M140.983 317.11C142.263 317.11 143.301 316.494 143.301 315.733C143.301 314.972 142.263 314.355 140.983 314.355C139.704 314.355 138.666 314.972 138.666 315.733C138.666 316.494 139.704 317.11 140.983 317.11Z" fill="#BBDEFB"/>
<path d="M165.106 317.048C166.386 317.048 167.424 316.431 167.424 315.67C167.424 314.91 166.386 314.293 165.106 314.293C163.826 314.293 162.789 314.91 162.789 315.67C162.789 316.431 163.826 317.048 165.106 317.048Z" fill="#BBDEFB"/>
<path d="M189.226 316.922C190.507 316.922 191.544 316.306 191.544 315.545C191.544 314.784 190.507 314.168 189.226 314.168C187.947 314.168 186.909 314.784 186.909 315.545C186.909 316.306 187.947 316.922 189.226 316.922Z" fill="#BBDEFB"/>
<path d="M213.347 316.86C214.626 316.86 215.664 316.243 215.664 315.482C215.664 314.722 214.626 314.105 213.347 314.105C212.066 314.105 211.029 314.722 211.029 315.482C211.029 316.243 212.066 316.86 213.347 316.86Z" fill="#BBDEFB"/>
<path d="M237.573 316.797C238.853 316.797 239.89 316.18 239.89 315.42C239.89 314.659 238.853 314.042 237.573 314.042C236.294 314.042 235.256 314.659 235.256 315.42C235.256 316.18 236.294 316.797 237.573 316.797Z" fill="#BBDEFB"/>
<path d="M261.695 316.734C262.975 316.734 264.012 316.118 264.012 315.357C264.012 314.596 262.975 313.979 261.695 313.979C260.415 313.979 259.378 314.596 259.378 315.357C259.378 316.118 260.415 316.734 261.695 316.734Z" fill="#BBDEFB"/>
<path d="M285.815 316.609C287.095 316.609 288.133 315.993 288.133 315.232C288.133 314.471 287.095 313.854 285.815 313.854C284.536 313.854 283.498 314.471 283.498 315.232C283.498 315.993 284.536 316.609 285.815 316.609Z" fill="#BBDEFB"/>
<path d="M309.936 316.547C311.217 316.547 312.254 315.93 312.254 315.169C312.254 314.409 311.217 313.792 309.936 313.792C308.656 313.792 307.619 314.409 307.619 315.169C307.619 315.93 308.656 316.547 309.936 316.547Z" fill="#BBDEFB"/>
<path d="M334.058 316.484C335.338 316.484 336.376 315.868 336.376 315.107C336.376 314.346 335.338 313.729 334.058 313.729C332.778 313.729 331.741 314.346 331.741 315.107C331.741 315.868 332.778 316.484 334.058 316.484Z" fill="#BBDEFB"/>
<path d="M358.283 316.422C359.563 316.422 360.6 315.805 360.6 315.044C360.6 314.283 359.563 313.667 358.283 313.667C357.003 313.667 355.966 314.283 355.966 315.044C355.966 315.805 357.003 316.422 358.283 316.422Z" fill="#BBDEFB"/>
<path d="M92.5322 303.398C93.8119 303.398 94.8495 302.782 94.8495 302.021C94.8495 301.26 93.8119 300.643 92.5322 300.643C91.2524 300.643 90.2148 301.26 90.2148 302.021C90.2148 302.782 91.2524 303.398 92.5322 303.398Z" fill="#BBDEFB"/>
<path d="M116.652 303.336C117.932 303.336 118.97 302.719 118.97 301.958C118.97 301.197 117.932 300.581 116.652 300.581C115.372 300.581 114.335 301.197 114.335 301.958C114.335 302.719 115.372 303.336 116.652 303.336Z" fill="#BBDEFB"/>
<path d="M140.878 303.273C142.158 303.273 143.195 302.657 143.195 301.896C143.195 301.135 142.158 300.518 140.878 300.518C139.598 300.518 138.561 301.135 138.561 301.896C138.561 302.657 139.598 303.273 140.878 303.273Z" fill="#BBDEFB"/>
<path d="M164.999 303.211C166.278 303.211 167.316 302.594 167.316 301.833C167.316 301.072 166.278 300.456 164.999 300.456C163.719 300.456 162.682 301.072 162.682 301.833C162.682 302.594 163.719 303.211 164.999 303.211Z" fill="#BBDEFB"/>
<path d="M189.12 303.085C190.4 303.085 191.438 302.469 191.438 301.708C191.438 300.947 190.4 300.331 189.12 300.331C187.841 300.331 186.803 300.947 186.803 301.708C186.803 302.469 187.841 303.085 189.12 303.085Z" fill="#BBDEFB"/>
<path d="M213.24 303.023C214.52 303.023 215.557 302.406 215.557 301.645C215.557 300.885 214.52 300.268 213.24 300.268C211.961 300.268 210.923 300.885 210.923 301.645C210.923 302.406 211.961 303.023 213.24 303.023Z" fill="#BBDEFB"/>
<path d="M237.363 302.96C238.643 302.96 239.68 302.343 239.68 301.583C239.68 300.822 238.643 300.205 237.363 300.205C236.083 300.205 235.046 300.822 235.046 301.583C235.046 302.343 236.083 302.96 237.363 302.96Z" fill="#BBDEFB"/>
<path d="M261.59 302.897C262.87 302.897 263.907 302.281 263.907 301.52C263.907 300.759 262.87 300.142 261.59 300.142C260.31 300.142 259.272 300.759 259.272 301.52C259.272 302.281 260.31 302.897 261.59 302.897Z" fill="#BBDEFB"/>
<path d="M285.711 302.772C286.99 302.772 288.028 302.156 288.028 301.395C288.028 300.634 286.99 300.017 285.711 300.017C284.431 300.017 283.394 300.634 283.394 301.395C283.394 302.156 284.431 302.772 285.711 302.772Z" fill="#BBDEFB"/>
<path d="M309.832 302.71C311.111 302.71 312.149 302.093 312.149 301.332C312.149 300.571 311.111 299.955 309.832 299.955C308.552 299.955 307.515 300.571 307.515 301.332C307.515 302.093 308.552 302.71 309.832 302.71Z" fill="#BBDEFB"/>
<path d="M333.952 302.647C335.232 302.647 336.269 302.031 336.269 301.269C336.269 300.509 335.232 299.892 333.952 299.892C332.673 299.892 331.635 300.509 331.635 301.269C331.635 302.031 332.673 302.647 333.952 302.647Z" fill="#BBDEFB"/>
<path d="M358.073 302.585C359.352 302.585 360.39 301.968 360.39 301.207C360.39 300.446 359.352 299.83 358.073 299.83C356.793 299.83 355.756 300.446 355.756 301.207C355.756 301.968 356.793 302.585 358.073 302.585Z" fill="#BBDEFB"/>
<path d="M92.4267 288.622C93.7065 288.622 94.744 288.005 94.744 287.245C94.744 286.484 93.7065 285.867 92.4267 285.867C91.1469 285.867 90.1094 286.484 90.1094 287.245C90.1094 288.005 91.1469 288.622 92.4267 288.622Z" fill="#BBDEFB"/>
<path d="M116.547 288.56C117.827 288.56 118.864 287.943 118.864 287.182C118.864 286.421 117.827 285.805 116.547 285.805C115.267 285.805 114.229 286.421 114.229 287.182C114.229 287.943 115.267 288.56 116.547 288.56Z" fill="#BBDEFB"/>
<path d="M140.668 288.497C141.948 288.497 142.985 287.88 142.985 287.119C142.985 286.359 141.948 285.742 140.668 285.742C139.388 285.742 138.351 286.359 138.351 287.119C138.351 287.88 139.388 288.497 140.668 288.497Z" fill="#BBDEFB"/>
<path d="M164.894 288.434C166.175 288.434 167.212 287.818 167.212 287.057C167.212 286.296 166.175 285.679 164.894 285.679C163.615 285.679 162.577 286.296 162.577 287.057C162.577 287.818 163.615 288.434 164.894 288.434Z" fill="#BBDEFB"/>
<path d="M189.015 288.309C190.295 288.309 191.332 287.692 191.332 286.932C191.332 286.171 190.295 285.554 189.015 285.554C187.735 285.554 186.697 286.171 186.697 286.932C186.697 287.692 187.735 288.309 189.015 288.309Z" fill="#BBDEFB"/>
<path d="M213.136 288.246C214.416 288.246 215.453 287.63 215.453 286.869C215.453 286.108 214.416 285.492 213.136 285.492C211.856 285.492 210.818 286.108 210.818 286.869C210.818 287.63 211.856 288.246 213.136 288.246Z" fill="#BBDEFB"/>
<path d="M237.257 288.184C238.537 288.184 239.574 287.567 239.574 286.806C239.574 286.046 238.537 285.429 237.257 285.429C235.977 285.429 234.939 286.046 234.939 286.806C234.939 287.567 235.977 288.184 237.257 288.184Z" fill="#BBDEFB"/>
<path d="M261.38 288.121C262.659 288.121 263.697 287.505 263.697 286.744C263.697 285.983 262.659 285.366 261.38 285.366C260.1 285.366 259.062 285.983 259.062 286.744C259.062 287.505 260.1 288.121 261.38 288.121Z" fill="#BBDEFB"/>
<path d="M285.606 287.996C286.885 287.996 287.923 287.379 287.923 286.619C287.923 285.858 286.885 285.241 285.606 285.241C284.326 285.241 283.288 285.858 283.288 286.619C283.288 287.379 284.326 287.996 285.606 287.996Z" fill="#BBDEFB"/>
<path d="M309.726 287.933C311.006 287.933 312.044 287.317 312.044 286.556C312.044 285.795 311.006 285.179 309.726 285.179C308.446 285.179 307.409 285.795 307.409 286.556C307.409 287.317 308.446 287.933 309.726 287.933Z" fill="#BBDEFB"/>
<path d="M333.847 287.871C335.126 287.871 336.164 287.254 336.164 286.493C336.164 285.733 335.126 285.116 333.847 285.116C332.566 285.116 331.529 285.733 331.529 286.493C331.529 287.254 332.566 287.871 333.847 287.871Z" fill="#BBDEFB"/>
<path d="M357.968 287.808C359.248 287.808 360.285 287.192 360.285 286.431C360.285 285.67 359.248 285.053 357.968 285.053C356.688 285.053 355.65 285.67 355.65 286.431C355.65 287.192 356.688 287.808 357.968 287.808Z" fill="#BBDEFB"/>
<path d="M92.3212 273.408C93.601 273.408 94.6384 272.791 94.6384 272.03C94.6384 271.269 93.601 270.653 92.3212 270.653C91.0414 270.653 90.0039 271.269 90.0039 272.03C90.0039 272.791 91.0414 273.408 92.3212 273.408Z" fill="#BBDEFB"/>
<path d="M116.441 273.345C117.721 273.345 118.759 272.728 118.759 271.968C118.759 271.207 117.721 270.59 116.441 270.59C115.162 270.59 114.124 271.207 114.124 271.968C114.124 272.728 115.162 273.345 116.441 273.345Z" fill="#BBDEFB"/>
<path d="M140.562 273.282C141.842 273.282 142.88 272.666 142.88 271.905C142.88 271.144 141.842 270.528 140.562 270.528C139.283 270.528 138.245 271.144 138.245 271.905C138.245 272.666 139.283 273.282 140.562 273.282Z" fill="#BBDEFB"/>
<path d="M164.683 273.157C165.963 273.157 167 272.541 167 271.78C167 271.019 165.963 270.402 164.683 270.402C163.402 270.402 162.365 271.019 162.365 271.78C162.365 272.541 163.402 273.157 164.683 273.157Z" fill="#BBDEFB"/>
<path d="M188.909 273.095C190.189 273.095 191.226 272.478 191.226 271.717C191.226 270.956 190.189 270.34 188.909 270.34C187.63 270.34 186.592 270.956 186.592 271.717C186.592 272.478 187.63 273.095 188.909 273.095Z" fill="#BBDEFB"/>
<path d="M213.031 273.032C214.311 273.032 215.348 272.415 215.348 271.655C215.348 270.894 214.311 270.277 213.031 270.277C211.751 270.277 210.714 270.894 210.714 271.655C210.714 272.415 211.751 273.032 213.031 273.032Z" fill="#BBDEFB"/>
<path d="M237.152 272.969C238.432 272.969 239.469 272.353 239.469 271.592C239.469 270.831 238.432 270.215 237.152 270.215C235.872 270.215 234.835 270.831 234.835 271.592C234.835 272.353 235.872 272.969 237.152 272.969Z" fill="#BBDEFB"/>
<path d="M261.272 272.844C262.552 272.844 263.59 272.227 263.59 271.467C263.59 270.706 262.552 270.089 261.272 270.089C259.993 270.089 258.955 270.706 258.955 271.467C258.955 272.227 259.993 272.844 261.272 272.844Z" fill="#BBDEFB"/>
<path d="M285.395 272.782C286.676 272.782 287.713 272.165 287.713 271.404C287.713 270.643 286.676 270.027 285.395 270.027C284.116 270.027 283.078 270.643 283.078 271.404C283.078 272.165 284.116 272.782 285.395 272.782Z" fill="#BBDEFB"/>
<path d="M309.62 272.719C310.9 272.719 311.937 272.102 311.937 271.341C311.937 270.581 310.9 269.964 309.62 269.964C308.341 269.964 307.303 270.581 307.303 271.341C307.303 272.102 308.341 272.719 309.62 272.719Z" fill="#BBDEFB"/>
<path d="M333.742 272.656C335.022 272.656 336.059 272.04 336.059 271.279C336.059 270.518 335.022 269.901 333.742 269.901C332.463 269.901 331.425 270.518 331.425 271.279C331.425 272.04 332.463 272.656 333.742 272.656Z" fill="#BBDEFB"/>
<path d="M357.863 272.531C359.143 272.531 360.18 271.914 360.18 271.154C360.18 270.393 359.143 269.776 357.863 269.776C356.583 269.776 355.546 270.393 355.546 271.154C355.546 271.914 356.583 272.531 357.863 272.531Z" fill="#BBDEFB"/>
<path d="M92.2157 258.631C93.4955 258.631 94.533 258.015 94.533 257.254C94.533 256.493 93.4955 255.877 92.2157 255.877C90.9359 255.877 89.8984 256.493 89.8984 257.254C89.8984 258.015 90.9359 258.631 92.2157 258.631Z" fill="#BBDEFB"/>
<path d="M116.336 258.569C117.616 258.569 118.653 257.952 118.653 257.191C118.653 256.431 117.616 255.814 116.336 255.814C115.056 255.814 114.019 256.431 114.019 257.191C114.019 257.952 115.056 258.569 116.336 258.569Z" fill="#BBDEFB"/>
<path d="M140.458 258.444C141.738 258.444 142.775 257.827 142.775 257.066C142.775 256.305 141.738 255.689 140.458 255.689C139.178 255.689 138.141 256.305 138.141 257.066C138.141 257.827 139.178 258.444 140.458 258.444Z" fill="#BBDEFB"/>
<path d="M164.578 258.381C165.857 258.381 166.895 257.764 166.895 257.004C166.895 256.243 165.857 255.626 164.578 255.626C163.298 255.626 162.261 256.243 162.261 257.004C162.261 257.764 163.298 258.381 164.578 258.381Z" fill="#BBDEFB"/>
<path d="M188.7 258.318C189.98 258.318 191.017 257.702 191.017 256.941C191.017 256.18 189.98 255.563 188.7 255.563C187.42 255.563 186.383 256.18 186.383 256.941C186.383 257.702 187.42 258.318 188.7 258.318Z" fill="#BBDEFB"/>
<path d="M212.926 258.256C214.205 258.256 215.243 257.639 215.243 256.878C215.243 256.118 214.205 255.501 212.926 255.501C211.646 255.501 210.608 256.118 210.608 256.878C210.608 257.639 211.646 258.256 212.926 258.256Z" fill="#BBDEFB"/>
<path d="M237.047 258.131C238.327 258.131 239.364 257.514 239.364 256.753C239.364 255.992 238.327 255.376 237.047 255.376C235.767 255.376 234.729 255.992 234.729 256.753C234.729 257.514 235.767 258.131 237.047 258.131Z" fill="#BBDEFB"/>
<path d="M261.168 258.068C262.447 258.068 263.485 257.451 263.485 256.691C263.485 255.93 262.447 255.313 261.168 255.313C259.888 255.313 258.851 255.93 258.851 256.691C258.851 257.451 259.888 258.068 261.168 258.068Z" fill="#BBDEFB"/>
<path d="M285.288 258.005C286.568 258.005 287.605 257.389 287.605 256.628C287.605 255.867 286.568 255.25 285.288 255.25C284.009 255.25 282.971 255.867 282.971 256.628C282.971 257.389 284.009 258.005 285.288 258.005Z" fill="#BBDEFB"/>
<path d="M309.409 257.943C310.689 257.943 311.726 257.326 311.726 256.565C311.726 255.805 310.689 255.188 309.409 255.188C308.13 255.188 307.092 255.805 307.092 256.565C307.092 257.326 308.13 257.943 309.409 257.943Z" fill="#BBDEFB"/>
<path d="M333.637 257.88C334.917 257.88 335.954 257.263 335.954 256.503C335.954 255.742 334.917 255.125 333.637 255.125C332.357 255.125 331.319 255.742 331.319 256.503C331.319 257.263 332.357 257.88 333.637 257.88Z" fill="#BBDEFB"/>
<path d="M357.757 257.755C359.037 257.755 360.074 257.138 360.074 256.377C360.074 255.617 359.037 255 357.757 255C356.477 255 355.439 255.617 355.439 256.377C355.439 257.138 356.477 257.755 357.757 257.755Z" fill="#BBDEFB"/>
<path d="M94.0057 465.06C95.2856 465.06 96.3231 464.443 96.3231 463.683C96.3231 462.922 95.2856 462.305 94.0057 462.305C92.7259 462.305 91.6885 462.922 91.6885 463.683C91.6885 464.443 92.7259 465.06 94.0057 465.06Z" fill="#BBDEFB"/>
<path d="M118.127 464.998C119.407 464.998 120.444 464.381 120.444 463.62C120.444 462.859 119.407 462.243 118.127 462.243C116.847 462.243 115.81 462.859 115.81 463.62C115.81 464.381 116.847 464.998 118.127 464.998Z" fill="#BBDEFB"/>
<path d="M142.249 464.935C143.529 464.935 144.566 464.318 144.566 463.558C144.566 462.797 143.529 462.18 142.249 462.18C140.969 462.18 139.932 462.797 139.932 463.558C139.932 464.318 140.969 464.935 142.249 464.935Z" fill="#BBDEFB"/>
<path d="M166.474 464.872C167.755 464.872 168.792 464.255 168.792 463.495C168.792 462.734 167.755 462.117 166.474 462.117C165.195 462.117 164.157 462.734 164.157 463.495C164.157 464.255 165.195 464.872 166.474 464.872Z" fill="#BBDEFB"/>
<path d="M190.596 464.747C191.876 464.747 192.913 464.13 192.913 463.37C192.913 462.609 191.876 461.992 190.596 461.992C189.315 461.992 188.278 462.609 188.278 463.37C188.278 464.13 189.315 464.747 190.596 464.747Z" fill="#BBDEFB"/>
<path d="M214.718 464.685C215.997 464.685 217.035 464.068 217.035 463.307C217.035 462.546 215.997 461.93 214.718 461.93C213.438 461.93 212.4 462.546 212.4 463.307C212.4 464.068 213.438 464.685 214.718 464.685Z" fill="#BBDEFB"/>
<path d="M238.837 464.622C240.117 464.622 241.155 464.005 241.155 463.244C241.155 462.484 240.117 461.867 238.837 461.867C237.557 461.867 236.52 462.484 236.52 463.244C236.52 464.005 237.557 464.622 238.837 464.622Z" fill="#BBDEFB"/>
<path d="M262.959 464.559C264.239 464.559 265.276 463.943 265.276 463.182C265.276 462.421 264.239 461.804 262.959 461.804C261.68 461.804 260.642 462.421 260.642 463.182C260.642 463.943 261.68 464.559 262.959 464.559Z" fill="#BBDEFB"/>
<path d="M287.184 464.497C288.465 464.497 289.502 463.88 289.502 463.119C289.502 462.359 288.465 461.742 287.184 461.742C285.905 461.742 284.867 462.359 284.867 463.119C284.867 463.88 285.905 464.497 287.184 464.497Z" fill="#BBDEFB"/>
<path d="M311.307 464.371C312.587 464.371 313.624 463.754 313.624 462.994C313.624 462.233 312.587 461.616 311.307 461.616C310.027 461.616 308.989 462.233 308.989 462.994C308.989 463.754 310.027 464.371 311.307 464.371Z" fill="#BBDEFB"/>
<path d="M335.428 464.309C336.707 464.309 337.745 463.692 337.745 462.932C337.745 462.17 336.707 461.554 335.428 461.554C334.147 461.554 333.11 462.17 333.11 462.932C333.11 463.692 334.147 464.309 335.428 464.309Z" fill="#BBDEFB"/>
<path d="M359.548 464.246C360.827 464.246 361.865 463.629 361.865 462.869C361.865 462.108 360.827 461.491 359.548 461.491C358.268 461.491 357.23 462.108 357.23 462.869C357.23 463.629 358.268 464.246 359.548 464.246Z" fill="#BBDEFB"/>
<path d="M93.9003 450.284C95.1801 450.284 96.2176 449.667 96.2176 448.906C96.2176 448.146 95.1801 447.529 93.9003 447.529C92.6205 447.529 91.583 448.146 91.583 448.906C91.583 449.667 92.6205 450.284 93.9003 450.284Z" fill="#BBDEFB"/>
<path d="M118.022 450.221C119.302 450.221 120.34 449.605 120.34 448.844C120.34 448.083 119.302 447.467 118.022 447.467C116.743 447.467 115.705 448.083 115.705 448.844C115.705 449.605 116.743 450.221 118.022 450.221Z" fill="#BBDEFB"/>
<path d="M142.142 450.159C143.422 450.159 144.46 449.542 144.46 448.781C144.46 448.021 143.422 447.404 142.142 447.404C140.863 447.404 139.825 448.021 139.825 448.781C139.825 449.542 140.863 450.159 142.142 450.159Z" fill="#BBDEFB"/>
<path d="M166.263 450.096C167.543 450.096 168.58 449.479 168.58 448.719C168.58 447.958 167.543 447.341 166.263 447.341C164.983 447.341 163.945 447.958 163.945 448.719C163.945 449.479 164.983 450.096 166.263 450.096Z" fill="#BBDEFB"/>
<path d="M190.49 449.971C191.769 449.971 192.807 449.354 192.807 448.593C192.807 447.833 191.769 447.216 190.49 447.216C189.21 447.216 188.173 447.833 188.173 448.593C188.173 449.354 189.21 449.971 190.49 449.971Z" fill="#BBDEFB"/>
<path d="M214.611 449.908C215.891 449.908 216.928 449.291 216.928 448.531C216.928 447.77 215.891 447.153 214.611 447.153C213.332 447.153 212.294 447.77 212.294 448.531C212.294 449.291 213.332 449.908 214.611 449.908Z" fill="#BBDEFB"/>
<path d="M238.732 449.845C240.012 449.845 241.05 449.229 241.05 448.468C241.05 447.707 240.012 447.091 238.732 447.091C237.452 447.091 236.415 447.707 236.415 448.468C236.415 449.229 237.452 449.845 238.732 449.845Z" fill="#BBDEFB"/>
<path d="M262.852 449.783C264.133 449.783 265.17 449.166 265.17 448.406C265.17 447.645 264.133 447.028 262.852 447.028C261.573 447.028 260.535 447.645 260.535 448.406C260.535 449.166 261.573 449.783 262.852 449.783Z" fill="#BBDEFB"/>
<path d="M286.974 449.658C288.254 449.658 289.291 449.041 289.291 448.28C289.291 447.52 288.254 446.903 286.974 446.903C285.694 446.903 284.656 447.52 284.656 448.28C284.656 449.041 285.694 449.658 286.974 449.658Z" fill="#BBDEFB"/>
<path d="M311.2 449.595C312.48 449.595 313.517 448.979 313.517 448.218C313.517 447.457 312.48 446.841 311.2 446.841C309.921 446.841 308.883 447.457 308.883 448.218C308.883 448.979 309.921 449.595 311.2 449.595Z" fill="#BBDEFB"/>
<path d="M335.322 449.533C336.602 449.533 337.64 448.916 337.64 448.155C337.64 447.395 336.602 446.778 335.322 446.778C334.043 446.778 333.005 447.395 333.005 448.155C333.005 448.916 334.043 449.533 335.322 449.533Z" fill="#BBDEFB"/>
<path d="M359.442 449.47C360.722 449.47 361.76 448.853 361.76 448.093C361.76 447.332 360.722 446.715 359.442 446.715C358.162 446.715 357.125 447.332 357.125 448.093C357.125 448.853 358.162 449.47 359.442 449.47Z" fill="#BBDEFB"/>
<path d="M93.7958 436.447C95.0756 436.447 96.1131 435.83 96.1131 435.07C96.1131 434.309 95.0756 433.692 93.7958 433.692C92.516 433.692 91.4785 434.309 91.4785 435.07C91.4785 435.83 92.516 436.447 93.7958 436.447Z" fill="#BBDEFB"/>
<path d="M117.916 436.384C119.196 436.384 120.233 435.768 120.233 435.007C120.233 434.246 119.196 433.629 117.916 433.629C116.636 433.629 115.599 434.246 115.599 435.007C115.599 435.768 116.636 436.384 117.916 436.384Z" fill="#BBDEFB"/>
<path d="M142.037 436.322C143.317 436.322 144.354 435.705 144.354 434.944C144.354 434.184 143.317 433.567 142.037 433.567C140.757 433.567 139.72 434.184 139.72 434.944C139.72 435.705 140.757 436.322 142.037 436.322Z" fill="#BBDEFB"/>
<path d="M166.159 436.259C167.438 436.259 168.476 435.643 168.476 434.881C168.476 434.121 167.438 433.504 166.159 433.504C164.879 433.504 163.841 434.121 163.841 434.881C163.841 435.643 164.879 436.259 166.159 436.259Z" fill="#BBDEFB"/>
<path d="M190.279 436.134C191.559 436.134 192.596 435.517 192.596 434.756C192.596 433.996 191.559 433.379 190.279 433.379C189 433.379 187.962 433.996 187.962 434.756C187.962 435.517 189 436.134 190.279 436.134Z" fill="#BBDEFB"/>
<path d="M214.506 436.071C215.786 436.071 216.823 435.454 216.823 434.694C216.823 433.933 215.786 433.316 214.506 433.316C213.226 433.316 212.188 433.933 212.188 434.694C212.188 435.454 213.226 436.071 214.506 436.071Z" fill="#BBDEFB"/>
<path d="M238.627 436.008C239.907 436.008 240.944 435.392 240.944 434.631C240.944 433.87 239.907 433.253 238.627 433.253C237.348 433.253 236.31 433.87 236.31 434.631C236.31 435.392 237.348 436.008 238.627 436.008Z" fill="#BBDEFB"/>
<path d="M262.748 435.946C264.028 435.946 265.065 435.329 265.065 434.569C265.065 433.808 264.028 433.191 262.748 433.191C261.468 433.191 260.431 433.808 260.431 434.569C260.431 435.329 261.468 435.946 262.748 435.946Z" fill="#BBDEFB"/>
<path d="M286.869 435.821C288.148 435.821 289.186 435.204 289.186 434.443C289.186 433.683 288.148 433.066 286.869 433.066C285.589 433.066 284.552 433.683 284.552 434.443C284.552 435.204 285.589 435.821 286.869 435.821Z" fill="#BBDEFB"/>
<path d="M310.991 435.758C312.271 435.758 313.309 435.142 313.309 434.381C313.309 433.62 312.271 433.003 310.991 433.003C309.712 433.003 308.674 433.62 308.674 434.381C308.674 435.142 309.712 435.758 310.991 435.758Z" fill="#BBDEFB"/>
<path d="M335.217 435.696C336.496 435.696 337.534 435.079 337.534 434.318C337.534 433.558 336.496 432.941 335.217 432.941C333.937 432.941 332.899 433.558 332.899 434.318C332.899 435.079 333.937 435.696 335.217 435.696Z" fill="#BBDEFB"/>
<path d="M359.337 435.633C360.617 435.633 361.654 435.016 361.654 434.255C361.654 433.495 360.617 432.878 359.337 432.878C358.057 432.878 357.02 433.495 357.02 434.255C357.02 435.016 358.057 435.633 359.337 435.633Z" fill="#BBDEFB"/>
<path d="M93.5848 421.67C94.8647 421.67 95.9022 421.054 95.9022 420.293C95.9022 419.532 94.8647 418.916 93.5848 418.916C92.3051 418.916 91.2676 419.532 91.2676 420.293C91.2676 421.054 92.3051 421.67 93.5848 421.67Z" fill="#BBDEFB"/>
<path d="M117.811 421.608C119.091 421.608 120.129 420.991 120.129 420.231C120.129 419.47 119.091 418.853 117.811 418.853C116.532 418.853 115.494 419.47 115.494 420.231C115.494 420.991 116.532 421.608 117.811 421.608Z" fill="#BBDEFB"/>
<path d="M141.932 421.545C143.211 421.545 144.249 420.929 144.249 420.168C144.249 419.407 143.211 418.79 141.932 418.79C140.652 418.79 139.614 419.407 139.614 420.168C139.614 420.929 140.652 421.545 141.932 421.545Z" fill="#BBDEFB"/>
<path d="M166.054 421.483C167.334 421.483 168.371 420.866 168.371 420.105C168.371 419.345 167.334 418.728 166.054 418.728C164.774 418.728 163.736 419.345 163.736 420.105C163.736 420.866 164.774 421.483 166.054 421.483Z" fill="#BBDEFB"/>
<path d="M190.174 421.358C191.453 421.358 192.491 420.741 192.491 419.98C192.491 419.22 191.453 418.603 190.174 418.603C188.894 418.603 187.856 419.22 187.856 419.98C187.856 420.741 188.894 421.358 190.174 421.358Z" fill="#BBDEFB"/>
<path d="M214.295 421.295C215.575 421.295 216.612 420.678 216.612 419.917C216.612 419.157 215.575 418.54 214.295 418.54C213.015 418.54 211.978 419.157 211.978 419.917C211.978 420.678 213.015 421.295 214.295 421.295Z" fill="#BBDEFB"/>
<path d="M238.521 421.232C239.801 421.232 240.839 420.616 240.839 419.855C240.839 419.094 239.801 418.478 238.521 418.478C237.241 418.478 236.204 419.094 236.204 419.855C236.204 420.616 237.241 421.232 238.521 421.232Z" fill="#BBDEFB"/>
<path d="M262.643 421.17C263.923 421.17 264.961 420.553 264.961 419.792C264.961 419.032 263.923 418.415 262.643 418.415C261.363 418.415 260.326 419.032 260.326 419.792C260.326 420.553 261.363 421.17 262.643 421.17Z" fill="#BBDEFB"/>
<path d="M286.765 421.044C288.045 421.044 289.082 420.428 289.082 419.667C289.082 418.906 288.045 418.289 286.765 418.289C285.485 418.289 284.447 418.906 284.447 419.667C284.447 420.428 285.485 421.044 286.765 421.044Z" fill="#BBDEFB"/>
<path d="M310.886 420.982C312.165 420.982 313.203 420.365 313.203 419.605C313.203 418.844 312.165 418.227 310.886 418.227C309.605 418.227 308.568 418.844 308.568 419.605C308.568 420.365 309.605 420.982 310.886 420.982Z" fill="#BBDEFB"/>
<path d="M335.006 420.919C336.286 420.919 337.323 420.303 337.323 419.542C337.323 418.781 336.286 418.164 335.006 418.164C333.726 418.164 332.688 418.781 332.688 419.542C332.688 420.303 333.726 420.919 335.006 420.919Z" fill="#BBDEFB"/>
<path d="M359.232 420.857C360.512 420.857 361.55 420.24 361.55 419.479C361.55 418.719 360.512 418.102 359.232 418.102C357.953 418.102 356.915 418.719 356.915 419.479C356.915 420.24 357.953 420.857 359.232 420.857Z" fill="#BBDEFB"/>
<path d="M93.4795 406.456C94.7592 406.456 95.7967 405.84 95.7967 405.079C95.7967 404.318 94.7592 403.701 93.4795 403.701C92.1996 403.701 91.1621 404.318 91.1621 405.079C91.1621 405.84 92.1996 406.456 93.4795 406.456Z" fill="#BBDEFB"/>
<path d="M117.6 406.394C118.88 406.394 119.918 405.777 119.918 405.016C119.918 404.255 118.88 403.639 117.6 403.639C116.321 403.639 115.283 404.255 115.283 405.016C115.283 405.777 116.321 406.394 117.6 406.394Z" fill="#BBDEFB"/>
<path d="M141.826 406.331C143.106 406.331 144.143 405.714 144.143 404.953C144.143 404.193 143.106 403.576 141.826 403.576C140.546 403.576 139.509 404.193 139.509 404.953C139.509 405.714 140.546 406.331 141.826 406.331Z" fill="#BBDEFB"/>
<path d="M165.948 406.206C167.228 406.206 168.265 405.589 168.265 404.828C168.265 404.068 167.228 403.451 165.948 403.451C164.669 403.451 163.631 404.068 163.631 404.828C163.631 405.589 164.669 406.206 165.948 406.206Z" fill="#BBDEFB"/>
<path d="M190.068 406.143C191.348 406.143 192.386 405.526 192.386 404.766C192.386 404.005 191.348 403.388 190.068 403.388C188.788 403.388 187.751 404.005 187.751 404.766C187.751 405.526 188.788 406.143 190.068 406.143Z" fill="#BBDEFB"/>
<path d="M214.189 406.08C215.469 406.08 216.507 405.464 216.507 404.703C216.507 403.942 215.469 403.325 214.189 403.325C212.909 403.325 211.872 403.942 211.872 404.703C211.872 405.464 212.909 406.08 214.189 406.08Z" fill="#BBDEFB"/>
<path d="M238.31 406.018C239.59 406.018 240.628 405.401 240.628 404.641C240.628 403.88 239.59 403.263 238.31 403.263C237.03 403.263 235.992 403.88 235.992 404.641C235.992 405.401 237.03 406.018 238.31 406.018Z" fill="#BBDEFB"/>
<path d="M262.538 405.893C263.817 405.893 264.855 405.276 264.855 404.515C264.855 403.754 263.817 403.138 262.538 403.138C261.258 403.138 260.221 403.754 260.221 404.515C260.221 405.276 261.258 405.893 262.538 405.893Z" fill="#BBDEFB"/>
<path d="M286.659 405.83C287.939 405.83 288.976 405.214 288.976 404.452C288.976 403.692 287.939 403.075 286.659 403.075C285.38 403.075 284.342 403.692 284.342 404.452C284.342 405.214 285.38 405.83 286.659 405.83Z" fill="#BBDEFB"/>
<path d="M310.779 405.768C312.059 405.768 313.096 405.151 313.096 404.39C313.096 403.629 312.059 403.013 310.779 403.013C309.5 403.013 308.462 403.629 308.462 404.39C308.462 405.151 309.5 405.768 310.779 405.768Z" fill="#BBDEFB"/>
<path d="M334.901 405.705C336.181 405.705 337.219 405.088 337.219 404.327C337.219 403.567 336.181 402.95 334.901 402.95C333.621 402.95 332.584 403.567 332.584 404.327C332.584 405.088 333.621 405.705 334.901 405.705Z" fill="#BBDEFB"/>
<path d="M359.022 405.58C360.302 405.58 361.34 404.963 361.34 404.202C361.34 403.441 360.302 402.825 359.022 402.825C357.742 402.825 356.705 403.441 356.705 404.202C356.705 404.963 357.742 405.58 359.022 405.58Z" fill="#BBDEFB"/>
<path d="M93.375 391.68C94.6548 391.68 95.6922 391.063 95.6922 390.303C95.6922 389.542 94.6548 388.925 93.375 388.925C92.0951 388.925 91.0576 389.542 91.0576 390.303C91.0576 391.063 92.0951 391.68 93.375 391.68Z" fill="#BBDEFB"/>
<path d="M117.495 391.617C118.775 391.617 119.812 391.001 119.812 390.24C119.812 389.479 118.775 388.862 117.495 388.862C116.215 388.862 115.178 389.479 115.178 390.24C115.178 391.001 116.215 391.617 117.495 391.617Z" fill="#BBDEFB"/>
<path d="M141.617 391.492C142.897 391.492 143.934 390.876 143.934 390.115C143.934 389.354 142.897 388.737 141.617 388.737C140.337 388.737 139.3 389.354 139.3 390.115C139.3 390.876 140.337 391.492 141.617 391.492Z" fill="#BBDEFB"/>
<path d="M165.843 391.43C167.122 391.43 168.16 390.813 168.16 390.052C168.16 389.291 167.122 388.675 165.843 388.675C164.563 388.675 163.525 389.291 163.525 390.052C163.525 390.813 164.563 391.43 165.843 391.43Z" fill="#BBDEFB"/>
<path d="M189.964 391.367C191.243 391.367 192.281 390.75 192.281 389.989C192.281 389.229 191.243 388.612 189.964 388.612C188.684 388.612 187.646 389.229 187.646 389.989C187.646 390.75 188.684 391.367 189.964 391.367Z" fill="#BBDEFB"/>
<path d="M214.084 391.304C215.364 391.304 216.401 390.688 216.401 389.927C216.401 389.166 215.364 388.55 214.084 388.55C212.805 388.55 211.767 389.166 211.767 389.927C211.767 390.688 212.805 391.304 214.084 391.304Z" fill="#BBDEFB"/>
<path d="M238.205 391.242C239.485 391.242 240.522 390.625 240.522 389.864C240.522 389.103 239.485 388.487 238.205 388.487C236.926 388.487 235.888 389.103 235.888 389.864C235.888 390.625 236.926 391.242 238.205 391.242Z" fill="#BBDEFB"/>
<path d="M262.326 391.116C263.606 391.116 264.643 390.5 264.643 389.739C264.643 388.978 263.606 388.361 262.326 388.361C261.047 388.361 260.009 388.978 260.009 389.739C260.009 390.5 261.047 391.116 262.326 391.116Z" fill="#BBDEFB"/>
<path d="M286.555 391.054C287.835 391.054 288.872 390.437 288.872 389.677C288.872 388.915 287.835 388.299 286.555 388.299C285.274 388.299 284.237 388.915 284.237 389.677C284.237 390.437 285.274 391.054 286.555 391.054Z" fill="#BBDEFB"/>
<path d="M310.673 390.991C311.953 390.991 312.99 390.375 312.99 389.614C312.99 388.853 311.953 388.236 310.673 388.236C309.393 388.236 308.355 388.853 308.355 389.614C308.355 390.375 309.393 390.991 310.673 390.991Z" fill="#BBDEFB"/>
<path d="M334.795 390.929C336.075 390.929 337.112 390.312 337.112 389.551C337.112 388.79 336.075 388.174 334.795 388.174C333.515 388.174 332.478 388.79 332.478 389.551C332.478 390.312 333.515 390.929 334.795 390.929Z" fill="#BBDEFB"/>
<path d="M358.917 390.804C360.196 390.804 361.234 390.187 361.234 389.426C361.234 388.665 360.196 388.049 358.917 388.049C357.637 388.049 356.6 388.665 356.6 389.426C356.6 390.187 357.637 390.804 358.917 390.804Z" fill="#BBDEFB"/>
<path d="M91.2519 154.279C92.5263 154.279 93.5594 153.663 93.5594 152.902C93.5594 152.141 92.5263 151.524 91.2519 151.524C89.9774 151.524 88.9443 152.141 88.9443 152.902C88.9443 153.663 89.9774 154.279 91.2519 154.279Z" fill="#BBDEFB"/>
<path d="M115.271 154.217C116.546 154.217 117.579 153.6 117.579 152.84C117.579 152.078 116.546 151.462 115.271 151.462C113.997 151.462 112.964 152.078 112.964 152.84C112.964 153.6 113.997 154.217 115.271 154.217Z" fill="#BBDEFB"/>
<path d="M139.395 154.154C140.67 154.154 141.703 153.537 141.703 152.777C141.703 152.016 140.67 151.399 139.395 151.399C138.121 151.399 137.088 152.016 137.088 152.777C137.088 153.537 138.121 154.154 139.395 154.154Z" fill="#BBDEFB"/>
<path d="M163.415 154.029C164.689 154.029 165.722 153.412 165.722 152.651C165.722 151.891 164.689 151.274 163.415 151.274C162.14 151.274 161.107 151.891 161.107 152.651C161.107 153.412 162.14 154.029 163.415 154.029Z" fill="#BBDEFB"/>
<path d="M187.435 153.967C188.71 153.967 189.743 153.35 189.743 152.589C189.743 151.828 188.71 151.212 187.435 151.212C186.161 151.212 185.128 151.828 185.128 152.589C185.128 153.35 186.161 153.967 187.435 153.967Z" fill="#BBDEFB"/>
<path d="M211.454 153.904C212.728 153.904 213.762 153.287 213.762 152.526C213.762 151.766 212.728 151.149 211.454 151.149C210.179 151.149 209.146 151.766 209.146 152.526C209.146 153.287 210.179 153.904 211.454 153.904Z" fill="#BBDEFB"/>
<path d="M235.474 153.841C236.748 153.841 237.781 153.224 237.781 152.464C237.781 151.703 236.748 151.086 235.474 151.086C234.2 151.086 233.166 151.703 233.166 152.464C233.166 153.224 234.2 153.841 235.474 153.841Z" fill="#BBDEFB"/>
<path d="M259.597 153.716C260.871 153.716 261.905 153.099 261.905 152.339C261.905 151.578 260.871 150.961 259.597 150.961C258.323 150.961 257.289 151.578 257.289 152.339C257.289 153.099 258.323 153.716 259.597 153.716Z" fill="#BBDEFB"/>
<path d="M283.617 153.653C284.892 153.653 285.925 153.036 285.925 152.276C285.925 151.515 284.892 150.898 283.617 150.898C282.343 150.898 281.31 151.515 281.31 152.276C281.31 153.036 282.343 153.653 283.617 153.653Z" fill="#BBDEFB"/>
<path d="M307.638 153.591C308.912 153.591 309.945 152.974 309.945 152.213C309.945 151.452 308.912 150.836 307.638 150.836C306.363 150.836 305.33 151.452 305.33 152.213C305.33 152.974 306.363 153.591 307.638 153.591Z" fill="#BBDEFB"/>
<path d="M331.656 153.528C332.93 153.528 333.964 152.911 333.964 152.151C333.964 151.39 332.93 150.773 331.656 150.773C330.381 150.773 329.349 151.39 329.349 152.151C329.349 152.911 330.381 153.528 331.656 153.528Z" fill="#BBDEFB"/>
<path d="M355.676 153.403C356.95 153.403 357.984 152.786 357.984 152.025C357.984 151.265 356.95 150.648 355.676 150.648C354.402 150.648 353.368 151.265 353.368 152.025C353.368 152.786 354.402 153.403 355.676 153.403Z" fill="#BBDEFB"/>
<path d="M91.1464 139.065C92.4208 139.065 93.4539 138.448 93.4539 137.687C93.4539 136.927 92.4208 136.31 91.1464 136.31C89.872 136.31 88.8389 136.927 88.8389 137.687C88.8389 138.448 89.872 139.065 91.1464 139.065Z" fill="#BBDEFB"/>
<path d="M115.166 139.003C116.44 139.003 117.474 138.386 117.474 137.625C117.474 136.864 116.44 136.248 115.166 136.248C113.892 136.248 112.858 136.864 112.858 137.625C112.858 138.386 113.892 139.003 115.166 139.003Z" fill="#BBDEFB"/>
<path d="M139.185 138.877C140.46 138.877 141.493 138.26 141.493 137.5C141.493 136.739 140.46 136.122 139.185 136.122C137.911 136.122 136.878 136.739 136.878 137.5C136.878 138.26 137.911 138.877 139.185 138.877Z" fill="#BBDEFB"/>
<path d="M163.31 138.814C164.584 138.814 165.618 138.198 165.618 137.437C165.618 136.676 164.584 136.06 163.31 136.06C162.036 136.06 161.003 136.676 161.003 137.437C161.003 138.198 162.036 138.814 163.31 138.814Z" fill="#BBDEFB"/>
<path d="M187.33 138.752C188.605 138.752 189.638 138.135 189.638 137.375C189.638 136.614 188.605 135.997 187.33 135.997C186.056 135.997 185.022 136.614 185.022 137.375C185.022 138.135 186.056 138.752 187.33 138.752Z" fill="#BBDEFB"/>
<path d="M211.349 138.689C212.623 138.689 213.656 138.072 213.656 137.312C213.656 136.551 212.623 135.934 211.349 135.934C210.075 135.934 209.041 136.551 209.041 137.312C209.041 138.072 210.075 138.689 211.349 138.689Z" fill="#BBDEFB"/>
<path d="M235.369 138.564C236.644 138.564 237.677 137.947 237.677 137.187C237.677 136.426 236.644 135.809 235.369 135.809C234.094 135.809 233.062 136.426 233.062 137.187C233.062 137.947 234.094 138.564 235.369 138.564Z" fill="#BBDEFB"/>
<path d="M259.389 138.502C260.663 138.502 261.696 137.885 261.696 137.124C261.696 136.363 260.663 135.747 259.389 135.747C258.114 135.747 257.081 136.363 257.081 137.124C257.081 137.885 258.114 138.502 259.389 138.502Z" fill="#BBDEFB"/>
<path d="M283.513 138.439C284.787 138.439 285.82 137.822 285.82 137.061C285.82 136.301 284.787 135.684 283.513 135.684C282.238 135.684 281.205 136.301 281.205 137.061C281.205 137.822 282.238 138.439 283.513 138.439Z" fill="#BBDEFB"/>
<path d="M307.533 138.376C308.807 138.376 309.841 137.76 309.841 136.999C309.841 136.238 308.807 135.622 307.533 135.622C306.258 135.622 305.226 136.238 305.226 136.999C305.226 137.76 306.258 138.376 307.533 138.376Z" fill="#BBDEFB"/>
<path d="M331.552 138.251C332.826 138.251 333.859 137.634 333.859 136.874C333.859 136.113 332.826 135.496 331.552 135.496C330.278 135.496 329.244 136.113 329.244 136.874C329.244 137.634 330.278 138.251 331.552 138.251Z" fill="#BBDEFB"/>
<path d="M355.571 138.188C356.845 138.188 357.879 137.571 357.879 136.811C357.879 136.05 356.845 135.433 355.571 135.433C354.296 135.433 353.264 136.05 353.264 136.811C353.264 137.571 354.296 138.188 355.571 138.188Z" fill="#BBDEFB"/>
<path d="M91.0419 124.289C92.3163 124.289 93.3495 123.672 93.3495 122.911C93.3495 122.151 92.3163 121.534 91.0419 121.534C89.7675 121.534 88.7344 122.151 88.7344 122.911C88.7344 123.672 89.7675 124.289 91.0419 124.289Z" fill="#BBDEFB"/>
<path d="M115.062 124.163C116.336 124.163 117.369 123.547 117.369 122.786C117.369 122.025 116.336 121.409 115.062 121.409C113.787 121.409 112.754 122.025 112.754 122.786C112.754 123.547 113.787 124.163 115.062 124.163Z" fill="#BBDEFB"/>
<path d="M139.08 124.101C140.354 124.101 141.388 123.484 141.388 122.723C141.388 121.963 140.354 121.346 139.08 121.346C137.806 121.346 136.772 121.963 136.772 122.723C136.772 123.484 137.806 124.101 139.08 124.101Z" fill="#BBDEFB"/>
<path d="M163.1 124.038C164.374 124.038 165.407 123.422 165.407 122.661C165.407 121.9 164.374 121.284 163.1 121.284C161.826 121.284 160.792 121.9 160.792 122.661C160.792 123.422 161.826 124.038 163.1 124.038Z" fill="#BBDEFB"/>
<path d="M187.225 123.976C188.499 123.976 189.532 123.359 189.532 122.598C189.532 121.838 188.499 121.221 187.225 121.221C185.95 121.221 184.917 121.838 184.917 122.598C184.917 123.359 185.95 123.976 187.225 123.976Z" fill="#BBDEFB"/>
<path d="M211.244 123.85C212.519 123.85 213.552 123.234 213.552 122.473C213.552 121.712 212.519 121.096 211.244 121.096C209.97 121.096 208.937 121.712 208.937 122.473C208.937 123.234 209.97 123.85 211.244 123.85Z" fill="#BBDEFB"/>
<path d="M235.265 123.788C236.539 123.788 237.572 123.171 237.572 122.411C237.572 121.65 236.539 121.033 235.265 121.033C233.99 121.033 232.957 121.65 232.957 122.411C232.957 123.171 233.99 123.788 235.265 123.788Z" fill="#BBDEFB"/>
<path d="M259.283 123.725C260.557 123.725 261.591 123.108 261.591 122.348C261.591 121.587 260.557 120.97 259.283 120.97C258.008 120.97 256.976 121.587 256.976 122.348C256.976 123.108 258.008 123.725 259.283 123.725Z" fill="#BBDEFB"/>
<path d="M283.304 123.662C284.578 123.662 285.611 123.046 285.611 122.285C285.611 121.524 284.578 120.908 283.304 120.908C282.029 120.908 280.996 121.524 280.996 122.285C280.996 123.046 282.029 123.662 283.304 123.662Z" fill="#BBDEFB"/>
<path d="M307.428 123.6C308.702 123.6 309.735 122.983 309.735 122.223C309.735 121.462 308.702 120.845 307.428 120.845C306.153 120.845 305.12 121.462 305.12 122.223C305.12 122.983 306.153 123.6 307.428 123.6Z" fill="#BBDEFB"/>
<path d="M331.448 123.475C332.722 123.475 333.756 122.858 333.756 122.097C333.756 121.337 332.722 120.72 331.448 120.72C330.173 120.72 329.14 121.337 329.14 122.097C329.14 122.858 330.173 123.475 331.448 123.475Z" fill="#BBDEFB"/>
<path d="M355.466 123.412C356.74 123.412 357.773 122.796 357.773 122.035C357.773 121.274 356.74 120.657 355.466 120.657C354.192 120.657 353.158 121.274 353.158 122.035C353.158 122.796 354.192 123.412 355.466 123.412Z" fill="#BBDEFB"/>
<path d="M90.9364 109.012C92.2109 109.012 93.244 108.395 93.244 107.634C93.244 106.874 92.2109 106.257 90.9364 106.257C89.6621 106.257 88.6289 106.874 88.6289 107.634C88.6289 108.395 89.6621 109.012 90.9364 109.012Z" fill="#BBDEFB"/>
<path d="M114.956 108.949C116.23 108.949 117.263 108.332 117.263 107.571C117.263 106.811 116.23 106.194 114.956 106.194C113.682 106.194 112.648 106.811 112.648 107.571C112.648 108.332 113.682 108.949 114.956 108.949Z" fill="#BBDEFB"/>
<path d="M138.976 108.887C140.251 108.887 141.284 108.27 141.284 107.509C141.284 106.748 140.251 106.132 138.976 106.132C137.702 106.132 136.669 106.748 136.669 107.509C136.669 108.27 137.702 108.887 138.976 108.887Z" fill="#BBDEFB"/>
<path d="M162.995 108.824C164.27 108.824 165.303 108.207 165.303 107.446C165.303 106.686 164.27 106.069 162.995 106.069C161.72 106.069 160.688 106.686 160.688 107.446C160.688 108.207 161.72 108.824 162.995 108.824Z" fill="#BBDEFB"/>
<path d="M187.016 108.698C188.289 108.698 189.323 108.082 189.323 107.321C189.323 106.56 188.289 105.944 187.016 105.944C185.741 105.944 184.708 106.56 184.708 107.321C184.708 108.082 185.741 108.698 187.016 108.698Z" fill="#BBDEFB"/>
<path d="M211.141 108.636C212.414 108.636 213.448 108.019 213.448 107.259C213.448 106.498 212.414 105.881 211.141 105.881C209.866 105.881 208.833 106.498 208.833 107.259C208.833 108.019 209.866 108.636 211.141 108.636Z" fill="#BBDEFB"/>
<path d="M235.159 108.573C236.433 108.573 237.467 107.957 237.467 107.196C237.467 106.435 236.433 105.818 235.159 105.818C233.884 105.818 232.852 106.435 232.852 107.196C232.852 107.957 233.884 108.573 235.159 108.573Z" fill="#BBDEFB"/>
<path d="M259.179 108.511C260.453 108.511 261.486 107.894 261.486 107.133C261.486 106.373 260.453 105.756 259.179 105.756C257.905 105.756 256.871 106.373 256.871 107.133C256.871 107.894 257.905 108.511 259.179 108.511Z" fill="#BBDEFB"/>
<path d="M283.198 108.448C284.473 108.448 285.506 107.832 285.506 107.07C285.506 106.31 284.473 105.693 283.198 105.693C281.924 105.693 280.891 106.31 280.891 107.07C280.891 107.832 281.924 108.448 283.198 108.448Z" fill="#BBDEFB"/>
<path d="M307.217 108.323C308.491 108.323 309.525 107.706 309.525 106.945C309.525 106.185 308.491 105.568 307.217 105.568C305.943 105.568 304.909 106.185 304.909 106.945C304.909 107.706 305.943 108.323 307.217 108.323Z" fill="#BBDEFB"/>
<path d="M331.343 108.26C332.617 108.26 333.65 107.643 333.65 106.883C333.65 106.122 332.617 105.505 331.343 105.505C330.069 105.505 329.035 106.122 329.035 106.883C329.035 107.643 330.069 108.26 331.343 108.26Z" fill="#BBDEFB"/>
<path d="M355.362 108.198C356.636 108.198 357.67 107.581 357.67 106.82C357.67 106.059 356.636 105.443 355.362 105.443C354.087 105.443 353.055 106.059 353.055 106.82C353.055 107.581 354.087 108.198 355.362 108.198Z" fill="#BBDEFB"/>
<path d="M90.7274 94.2354C92.0019 94.2354 93.0351 93.6186 93.0351 92.8579C93.0351 92.0973 92.0019 91.4805 90.7274 91.4805C89.4531 91.4805 88.4199 92.0973 88.4199 92.8579C88.4199 93.6186 89.4531 94.2354 90.7274 94.2354Z" fill="#BBDEFB"/>
<path d="M114.851 94.1727C116.126 94.1727 117.159 93.5559 117.159 92.7952C117.159 92.0346 116.126 91.4177 114.851 91.4177C113.577 91.4177 112.544 92.0346 112.544 92.7952C112.544 93.5559 113.577 94.1727 114.851 94.1727Z" fill="#BBDEFB"/>
<path d="M138.871 94.1104C140.145 94.1104 141.179 93.4936 141.179 92.7329C141.179 91.9718 140.145 91.3555 138.871 91.3555C137.597 91.3555 136.563 91.9718 136.563 92.7329C136.563 93.4936 137.597 94.1104 138.871 94.1104Z" fill="#BBDEFB"/>
<path d="M162.892 94.0477C164.165 94.0477 165.199 93.4309 165.199 92.6702C165.199 91.9096 164.165 91.2927 162.892 91.2927C161.617 91.2927 160.584 91.9096 160.584 92.6702C160.584 93.4309 161.617 94.0477 162.892 94.0477Z" fill="#BBDEFB"/>
<path d="M186.91 93.9221C188.185 93.9221 189.218 93.3058 189.218 92.5447C189.218 91.784 188.185 91.1677 186.91 91.1677C185.636 91.1677 184.603 91.784 184.603 92.5447C184.603 93.3058 185.636 93.9221 186.91 93.9221Z" fill="#BBDEFB"/>
<path d="M210.93 93.8599C212.204 93.8599 213.237 93.243 213.237 92.4824C213.237 91.7217 212.204 91.1049 210.93 91.1049C209.655 91.1049 208.622 91.7217 208.622 92.4824C208.622 93.243 209.655 93.8599 210.93 93.8599Z" fill="#BBDEFB"/>
<path d="M235.054 93.7971C236.328 93.7971 237.361 93.1803 237.361 92.4197C237.361 91.659 236.328 91.0422 235.054 91.0422C233.78 91.0422 232.746 91.659 232.746 92.4197C232.746 93.1803 233.78 93.7971 235.054 93.7971Z" fill="#BBDEFB"/>
<path d="M259.074 93.7344C260.348 93.7344 261.382 93.1176 261.382 92.3569C261.382 91.5963 260.348 90.9794 259.074 90.9794C257.799 90.9794 256.767 91.5963 256.767 92.3569C256.767 93.1176 257.799 93.7344 259.074 93.7344Z" fill="#BBDEFB"/>
<path d="M283.093 93.6094C284.367 93.6094 285.4 92.9926 285.4 92.2319C285.4 91.4713 284.367 90.8544 283.093 90.8544C281.819 90.8544 280.785 91.4713 280.785 92.2319C280.785 92.9926 281.819 93.6094 283.093 93.6094Z" fill="#BBDEFB"/>
<path d="M307.112 93.5466C308.387 93.5466 309.42 92.9298 309.42 92.1692C309.42 91.4085 308.387 90.7917 307.112 90.7917C305.837 90.7917 304.805 91.4085 304.805 92.1692C304.805 92.9298 305.837 93.5466 307.112 93.5466Z" fill="#BBDEFB"/>
<path d="M331.133 93.484C332.407 93.484 333.44 92.8676 333.44 92.107C333.44 91.3458 332.407 90.7295 331.133 90.7295C329.858 90.7295 328.825 91.3458 328.825 92.107C328.825 92.8676 329.858 93.484 331.133 93.484Z" fill="#BBDEFB"/>
<path d="M355.257 93.4217C356.531 93.4217 357.564 92.8049 357.564 92.0442C357.564 91.2831 356.531 90.6667 355.257 90.6667C353.982 90.6667 352.949 91.2831 352.949 92.0442C352.949 92.8049 353.982 93.4217 355.257 93.4217Z" fill="#BBDEFB"/>
<path d="M90.623 80.3983C91.8974 80.3983 92.9306 79.7815 92.9306 79.0209C92.9306 78.2602 91.8974 77.6434 90.623 77.6434C89.3486 77.6434 88.3154 78.2602 88.3154 79.0209C88.3154 79.7815 89.3486 80.3983 90.623 80.3983Z" fill="#BBDEFB"/>
<path d="M114.642 80.3356C115.916 80.3356 116.949 79.7188 116.949 78.9581C116.949 78.1975 115.916 77.5806 114.642 77.5806C113.367 77.5806 112.334 78.1975 112.334 78.9581C112.334 79.7188 113.367 80.3356 114.642 80.3356Z" fill="#BBDEFB"/>
<path d="M138.766 80.2733C140.04 80.2733 141.073 79.6565 141.073 78.8958C141.073 78.1352 140.04 77.5184 138.766 77.5184C137.491 77.5184 136.458 78.1352 136.458 78.8958C136.458 79.6565 137.491 80.2733 138.766 80.2733Z" fill="#BBDEFB"/>
<path d="M162.786 80.2106C164.06 80.2106 165.094 79.5938 165.094 78.8331C165.094 78.0725 164.06 77.4556 162.786 77.4556C161.511 77.4556 160.479 78.0725 160.479 78.8331C160.479 79.5938 161.511 80.2106 162.786 80.2106Z" fill="#BBDEFB"/>
<path d="M186.805 80.0851C188.079 80.0851 189.113 79.4688 189.113 78.7081C189.113 77.947 188.079 77.3306 186.805 77.3306C185.531 77.3306 184.497 77.947 184.497 78.7081C184.497 79.4688 185.531 80.0851 186.805 80.0851Z" fill="#BBDEFB"/>
<path d="M210.824 80.0228C212.099 80.0228 213.132 79.406 213.132 78.6454C213.132 77.8847 212.099 77.2679 210.824 77.2679C209.55 77.2679 208.517 77.8847 208.517 78.6454C208.517 79.406 209.55 80.0228 210.824 80.0228Z" fill="#BBDEFB"/>
<path d="M234.845 79.9601C236.119 79.9601 237.152 79.3433 237.152 78.5826C237.152 77.822 236.119 77.2051 234.845 77.2051C233.57 77.2051 232.537 77.822 232.537 78.5826C232.537 79.3433 233.57 79.9601 234.845 79.9601Z" fill="#BBDEFB"/>
<path d="M258.969 79.8974C260.243 79.8974 261.276 79.281 261.276 78.5199C261.276 77.7592 260.243 77.1424 258.969 77.1424C257.695 77.1424 256.661 77.7592 256.661 78.5199C256.661 79.281 257.695 79.8974 258.969 79.8974Z" fill="#BBDEFB"/>
<path d="M282.988 79.7723C284.262 79.7723 285.296 79.1555 285.296 78.3949C285.296 77.6342 284.262 77.0174 282.988 77.0174C281.713 77.0174 280.681 77.6342 280.681 78.3949C280.681 79.1555 281.713 79.7723 282.988 79.7723Z" fill="#BBDEFB"/>
<path d="M307.009 79.7096C308.283 79.7096 309.316 79.0928 309.316 78.3321C309.316 77.5715 308.283 76.9547 307.009 76.9547C305.734 76.9547 304.701 77.5715 304.701 78.3321C304.701 79.0928 305.734 79.7096 307.009 79.7096Z" fill="#BBDEFB"/>
<path d="M331.027 79.6469C332.302 79.6469 333.335 79.0305 333.335 78.2694C333.335 77.5087 332.302 76.8919 331.027 76.8919C329.753 76.8919 328.72 77.5087 328.72 78.2694C328.72 79.0305 329.753 79.6469 331.027 79.6469Z" fill="#BBDEFB"/>
<path d="M355.047 79.5846C356.321 79.5846 357.354 78.9678 357.354 78.2071C357.354 77.4465 356.321 76.8297 355.047 76.8297C353.772 76.8297 352.739 77.4465 352.739 78.2071C352.739 78.9678 353.772 79.5846 355.047 79.5846Z" fill="#BBDEFB"/>
<path d="M90.5176 65.6221C91.792 65.6221 92.8251 65.0054 92.8251 64.2447C92.8251 63.4839 91.792 62.8672 90.5176 62.8672C89.2431 62.8672 88.21 63.4839 88.21 64.2447C88.21 65.0054 89.2431 65.6221 90.5176 65.6221Z" fill="#BBDEFB"/>
<path d="M114.536 65.5596C115.81 65.5596 116.844 64.9429 116.844 64.1822C116.844 63.4214 115.81 62.8047 114.536 62.8047C113.262 62.8047 112.229 63.4214 112.229 64.1822C112.229 64.9429 113.262 65.5596 114.536 65.5596Z" fill="#BBDEFB"/>
<path d="M138.557 65.4969C139.831 65.4969 140.864 64.8802 140.864 64.1194C140.864 63.3587 139.831 62.742 138.557 62.742C137.282 62.742 136.249 63.3587 136.249 64.1194C136.249 64.8802 137.282 65.4969 138.557 65.4969Z" fill="#BBDEFB"/>
<path d="M162.682 65.4343C163.956 65.4343 164.989 64.8176 164.989 64.0568C164.989 63.2961 163.956 62.6794 162.682 62.6794C161.408 62.6794 160.374 63.2961 160.374 64.0568C160.374 64.8176 161.408 65.4343 162.682 65.4343Z" fill="#BBDEFB"/>
<path d="M186.7 65.309C187.975 65.309 189.008 64.6923 189.008 63.9316C189.008 63.1708 187.975 62.5541 186.7 62.5541C185.426 62.5541 184.393 63.1708 184.393 63.9316C184.393 64.6923 185.426 65.309 186.7 65.309Z" fill="#BBDEFB"/>
<path d="M210.72 65.2465C211.994 65.2465 213.027 64.6298 213.027 63.8691C213.027 63.1083 211.994 62.4916 210.72 62.4916C209.446 62.4916 208.412 63.1083 208.412 63.8691C208.412 64.6298 209.446 65.2465 210.72 65.2465Z" fill="#BBDEFB"/>
<path d="M234.739 65.1839C236.014 65.1839 237.047 64.5672 237.047 63.8065C237.047 63.0457 236.014 62.429 234.739 62.429C233.465 62.429 232.432 63.0457 232.432 63.8065C232.432 64.5672 233.465 65.1839 234.739 65.1839Z" fill="#BBDEFB"/>
<path d="M258.759 65.1212C260.033 65.1212 261.066 64.5045 261.066 63.7438C261.066 62.9831 260.033 62.3663 258.759 62.3663C257.484 62.3663 256.451 62.9831 256.451 63.7438C256.451 64.5045 257.484 65.1212 258.759 65.1212Z" fill="#BBDEFB"/>
<path d="M282.884 64.9961C284.158 64.9961 285.192 64.3794 285.192 63.6186C285.192 62.8579 284.158 62.2412 282.884 62.2412C281.61 62.2412 280.576 62.8579 280.576 63.6186C280.576 64.3794 281.61 64.9961 282.884 64.9961Z" fill="#BBDEFB"/>
<path d="M306.903 64.9334C308.177 64.9334 309.211 64.3167 309.211 63.556C309.211 62.7952 308.177 62.1785 306.903 62.1785C305.628 62.1785 304.596 62.7952 304.596 63.556C304.596 64.3167 305.628 64.9334 306.903 64.9334Z" fill="#BBDEFB"/>
<path d="M330.922 64.8708C332.196 64.8708 333.229 64.2541 333.229 63.4934C333.229 62.7326 332.196 62.1159 330.922 62.1159C329.647 62.1159 328.614 62.7326 328.614 63.4934C328.614 64.2541 329.647 64.8708 330.922 64.8708Z" fill="#BBDEFB"/>
<path d="M354.942 64.8083C356.217 64.8083 357.25 64.1915 357.25 63.4308C357.25 62.6701 356.217 62.0533 354.942 62.0533C353.668 62.0533 352.635 62.6701 352.635 63.4308C352.635 64.1915 353.668 64.8083 354.942 64.8083Z" fill="#BBDEFB"/>
<path d="M90.413 50.4076C91.6874 50.4076 92.7205 49.7909 92.7205 49.0302C92.7205 48.2694 91.6874 47.6527 90.413 47.6527C89.1386 47.6527 88.1055 48.2694 88.1055 49.0302C88.1055 49.7909 89.1386 50.4076 90.413 50.4076Z" fill="#BBDEFB"/>
<path d="M114.431 50.345C115.705 50.345 116.738 49.7283 116.738 48.9676C116.738 48.2068 115.705 47.5901 114.431 47.5901C113.156 47.5901 112.123 48.2068 112.123 48.9676C112.123 49.7283 113.156 50.345 114.431 50.345Z" fill="#BBDEFB"/>
<path d="M138.451 50.2825C139.726 50.2825 140.759 49.6658 140.759 48.9051C140.759 48.1443 139.726 47.5276 138.451 47.5276C137.177 47.5276 136.144 48.1443 136.144 48.9051C136.144 49.6658 137.177 50.2825 138.451 50.2825Z" fill="#BBDEFB"/>
<path d="M162.471 50.1573C163.745 50.1573 164.778 49.5405 164.778 48.7798C164.778 48.0191 163.745 47.4023 162.471 47.4023C161.196 47.4023 160.163 48.0191 160.163 48.7798C160.163 49.5405 161.196 50.1573 162.471 50.1573Z" fill="#BBDEFB"/>
<path d="M186.595 50.0946C187.869 50.0946 188.902 49.478 188.902 48.7172C188.902 47.9565 187.869 47.3398 186.595 47.3398C185.321 47.3398 184.287 47.9565 184.287 48.7172C184.287 49.478 185.321 50.0946 186.595 50.0946Z" fill="#BBDEFB"/>
<path d="M210.615 50.032C211.89 50.032 212.923 49.4153 212.923 48.6545C212.923 47.8938 211.89 47.2771 210.615 47.2771C209.34 47.2771 208.308 47.8938 208.308 48.6545C208.308 49.4153 209.34 50.032 210.615 50.032Z" fill="#BBDEFB"/>
<path d="M234.635 49.9694C235.909 49.9694 236.942 49.3527 236.942 48.592C236.942 47.8312 235.909 47.2145 234.635 47.2145C233.36 47.2145 232.327 47.8312 232.327 48.592C232.327 49.3527 233.36 49.9694 234.635 49.9694Z" fill="#BBDEFB"/>
<path d="M258.653 49.8442C259.928 49.8442 260.962 49.2275 260.962 48.4667C260.962 47.706 259.928 47.0893 258.653 47.0893C257.379 47.0893 256.346 47.706 256.346 48.4667C256.346 49.2275 257.379 49.8442 258.653 49.8442Z" fill="#BBDEFB"/>
<path d="M282.674 49.7816C283.949 49.7816 284.981 49.1649 284.981 48.4041C284.981 47.6434 283.949 47.0267 282.674 47.0267C281.4 47.0267 280.366 47.6434 280.366 48.4041C280.366 49.1649 281.4 49.7816 282.674 49.7816Z" fill="#BBDEFB"/>
<path d="M306.798 49.7189C308.073 49.7189 309.105 49.1022 309.105 48.3415C309.105 47.5807 308.073 46.964 306.798 46.964C305.524 46.964 304.49 47.5807 304.49 48.3415C304.49 49.1022 305.524 49.7189 306.798 49.7189Z" fill="#BBDEFB"/>
<path d="M330.817 49.6563C332.092 49.6563 333.125 49.0396 333.125 48.2789C333.125 47.5181 332.092 46.9014 330.817 46.9014C329.543 46.9014 328.51 47.5181 328.51 48.2789C328.51 49.0396 329.543 49.6563 330.817 49.6563Z" fill="#BBDEFB"/>
<path d="M354.838 49.531C356.112 49.531 357.145 48.9144 357.145 48.1536C357.145 47.3929 356.112 46.7762 354.838 46.7762C353.563 46.7762 352.53 47.3929 352.53 48.1536C352.53 48.9144 353.563 49.531 354.838 49.531Z" fill="#BBDEFB"/>
<path d="M90.3075 35.6314C91.582 35.6314 92.6151 35.0148 92.6151 34.254C92.6151 33.4933 91.582 32.8766 90.3075 32.8766C89.0331 32.8766 88 33.4933 88 34.254C88 35.0148 89.0331 35.6314 90.3075 35.6314Z" fill="#BBDEFB"/>
<path d="M114.327 35.5689C115.601 35.5689 116.635 34.9523 116.635 34.1915C116.635 33.4308 115.601 32.814 114.327 32.814C113.053 32.814 112.02 33.4308 112.02 34.1915C112.02 34.9523 113.053 35.5689 114.327 35.5689Z" fill="#BBDEFB"/>
<path d="M138.347 35.4436C139.621 35.4436 140.654 34.8269 140.654 34.0662C140.654 33.3054 139.621 32.6887 138.347 32.6887C137.072 32.6887 136.039 33.3054 136.039 34.0662C136.039 34.8269 137.072 35.4436 138.347 35.4436Z" fill="#BBDEFB"/>
<path d="M162.366 35.3809C163.64 35.3809 164.674 34.7643 164.674 34.0035C164.674 33.2428 163.64 32.626 162.366 32.626C161.091 32.626 160.059 33.2428 160.059 34.0035C160.059 34.7643 161.091 35.3809 162.366 35.3809Z" fill="#BBDEFB"/>
<path d="M186.387 35.3184C187.661 35.3184 188.694 34.7017 188.694 33.9409C188.694 33.1802 187.661 32.5635 186.387 32.5635C185.112 32.5635 184.079 33.1802 184.079 33.9409C184.079 34.7017 185.112 35.3184 186.387 35.3184Z" fill="#BBDEFB"/>
<path d="M210.511 35.2558C211.785 35.2558 212.818 34.6391 212.818 33.8783C212.818 33.1176 211.785 32.5009 210.511 32.5009C209.236 32.5009 208.203 33.1176 208.203 33.8783C208.203 34.6391 209.236 35.2558 210.511 35.2558Z" fill="#BBDEFB"/>
<path d="M234.529 35.1306C235.804 35.1306 236.837 34.5139 236.837 33.7532C236.837 32.9924 235.804 32.3757 234.529 32.3757C233.255 32.3757 232.222 32.9924 232.222 33.7532C232.222 34.5139 233.255 35.1306 234.529 35.1306Z" fill="#BBDEFB"/>
<path d="M258.55 35.068C259.824 35.068 260.857 34.4513 260.857 33.6905C260.857 32.9298 259.824 32.3131 258.55 32.3131C257.275 32.3131 256.242 32.9298 256.242 33.6905C256.242 34.4513 257.275 35.068 258.55 35.068Z" fill="#BBDEFB"/>
<path d="M282.568 35.0053C283.843 35.0053 284.876 34.3886 284.876 33.6279C284.876 32.8672 283.843 32.2504 282.568 32.2504C281.294 32.2504 280.261 32.8672 280.261 33.6279C280.261 34.3886 281.294 35.0053 282.568 35.0053Z" fill="#BBDEFB"/>
<path d="M306.588 34.9427C307.863 34.9427 308.895 34.326 308.895 33.5653C308.895 32.8045 307.863 32.1879 306.588 32.1879C305.314 32.1879 304.28 32.8045 304.28 33.5653C304.28 34.326 305.314 34.9427 306.588 34.9427Z" fill="#BBDEFB"/>
<path d="M330.713 34.8802C331.988 34.8802 333.02 34.2635 333.02 33.5027C333.02 32.742 331.988 32.1252 330.713 32.1252C329.439 32.1252 328.405 32.742 328.405 33.5027C328.405 34.2635 329.439 34.8802 330.713 34.8802Z" fill="#BBDEFB"/>
<path d="M354.731 34.7549C356.006 34.7549 357.039 34.1382 357.039 33.3775C357.039 32.6167 356.006 32 354.731 32C353.457 32 352.424 32.6167 352.424 33.3775C352.424 34.1382 353.457 34.7549 354.731 34.7549Z" fill="#BBDEFB"/>
<path d="M92.0907 242.06C93.3652 242.06 94.3983 241.443 94.3983 240.683C94.3983 239.922 93.3652 239.305 92.0907 239.305C90.8163 239.305 89.7832 239.922 89.7832 240.683C89.7832 241.443 90.8163 242.06 92.0907 242.06Z" fill="#BBDEFB"/>
<path d="M116.11 241.998C117.385 241.998 118.418 241.381 118.418 240.62C118.418 239.859 117.385 239.243 116.11 239.243C114.836 239.243 113.803 239.859 113.803 240.62C113.803 241.381 114.836 241.998 116.11 241.998Z" fill="#BBDEFB"/>
<path d="M140.13 241.935C141.404 241.935 142.437 241.318 142.437 240.558C142.437 239.797 141.404 239.18 140.13 239.18C138.855 239.18 137.822 239.797 137.822 240.558C137.822 241.318 138.855 241.935 140.13 241.935Z" fill="#BBDEFB"/>
<path d="M164.254 241.872C165.529 241.872 166.561 241.255 166.561 240.495C166.561 239.734 165.529 239.117 164.254 239.117C162.98 239.117 161.946 239.734 161.946 240.495C161.946 241.255 162.98 241.872 164.254 241.872Z" fill="#BBDEFB"/>
<path d="M188.274 241.747C189.549 241.747 190.582 241.13 190.582 240.37C190.582 239.609 189.549 238.992 188.274 238.992C187 238.992 185.967 239.609 185.967 240.37C185.967 241.13 187 241.747 188.274 241.747Z" fill="#BBDEFB"/>
<path d="M212.294 241.685C213.568 241.685 214.601 241.068 214.601 240.307C214.601 239.546 213.568 238.93 212.294 238.93C211.019 238.93 209.986 239.546 209.986 240.307C209.986 241.068 211.019 241.685 212.294 241.685Z" fill="#BBDEFB"/>
<path d="M236.312 241.622C237.587 241.622 238.621 241.005 238.621 240.244C238.621 239.484 237.587 238.867 236.312 238.867C235.038 238.867 234.005 239.484 234.005 240.244C234.005 241.005 235.038 241.622 236.312 241.622Z" fill="#BBDEFB"/>
<path d="M260.333 241.559C261.608 241.559 262.64 240.943 262.64 240.182C262.64 239.421 261.608 238.804 260.333 238.804C259.059 238.804 258.025 239.421 258.025 240.182C258.025 240.943 259.059 241.559 260.333 241.559Z" fill="#BBDEFB"/>
<path d="M284.457 241.497C285.732 241.497 286.764 240.88 286.764 240.119C286.764 239.359 285.732 238.742 284.457 238.742C283.183 238.742 282.149 239.359 282.149 240.119C282.149 240.88 283.183 241.497 284.457 241.497Z" fill="#BBDEFB"/>
<path d="M308.476 241.371C309.751 241.371 310.784 240.754 310.784 239.994C310.784 239.233 309.751 238.616 308.476 238.616C307.203 238.616 306.169 239.233 306.169 239.994C306.169 240.754 307.203 241.371 308.476 241.371Z" fill="#BBDEFB"/>
<path d="M332.497 241.309C333.771 241.309 334.805 240.692 334.805 239.932C334.805 239.17 333.771 238.554 332.497 238.554C331.222 238.554 330.189 239.17 330.189 239.932C330.189 240.692 331.222 241.309 332.497 241.309Z" fill="#BBDEFB"/>
<path d="M356.516 241.246C357.789 241.246 358.823 240.629 358.823 239.869C358.823 239.108 357.789 238.491 356.516 238.491C355.241 238.491 354.208 239.108 354.208 239.869C354.208 240.629 355.241 241.246 356.516 241.246Z" fill="#BBDEFB"/>
<path d="M91.9853 227.284C93.2597 227.284 94.2929 226.667 94.2929 225.906C94.2929 225.146 93.2597 224.529 91.9853 224.529C90.7108 224.529 89.6777 225.146 89.6777 225.906C89.6777 226.667 90.7108 227.284 91.9853 227.284Z" fill="#BBDEFB"/>
<path d="M116.006 227.222C117.28 227.222 118.313 226.605 118.313 225.844C118.313 225.083 117.28 224.467 116.006 224.467C114.731 224.467 113.698 225.083 113.698 225.844C113.698 226.605 114.731 227.222 116.006 227.222Z" fill="#BBDEFB"/>
<path d="M140.024 227.159C141.299 227.159 142.332 226.542 142.332 225.781C142.332 225.021 141.299 224.404 140.024 224.404C138.75 224.404 137.717 225.021 137.717 225.781C137.717 226.542 138.75 227.159 140.024 227.159Z" fill="#BBDEFB"/>
<path d="M164.044 227.096C165.319 227.096 166.351 226.479 166.351 225.719C166.351 224.958 165.319 224.341 164.044 224.341C162.77 224.341 161.736 224.958 161.736 225.719C161.736 226.479 162.77 227.096 164.044 227.096Z" fill="#BBDEFB"/>
<path d="M188.169 226.971C189.443 226.971 190.476 226.354 190.476 225.593C190.476 224.833 189.443 224.216 188.169 224.216C186.894 224.216 185.861 224.833 185.861 225.593C185.861 226.354 186.894 226.971 188.169 226.971Z" fill="#BBDEFB"/>
<path d="M212.188 226.908C213.463 226.908 214.496 226.291 214.496 225.531C214.496 224.77 213.463 224.153 212.188 224.153C210.914 224.153 209.881 224.77 209.881 225.531C209.881 226.291 210.914 226.908 212.188 226.908Z" fill="#BBDEFB"/>
<path d="M236.208 226.846C237.483 226.846 238.515 226.229 238.515 225.468C238.515 224.707 237.483 224.091 236.208 224.091C234.933 224.091 233.9 224.707 233.9 225.468C233.9 226.229 234.933 226.846 236.208 226.846Z" fill="#BBDEFB"/>
<path d="M260.227 226.783C261.502 226.783 262.535 226.166 262.535 225.406C262.535 224.645 261.502 224.028 260.227 224.028C258.953 224.028 257.92 224.645 257.92 225.406C257.92 226.166 258.953 226.783 260.227 226.783Z" fill="#BBDEFB"/>
<path d="M284.246 226.658C285.521 226.658 286.554 226.041 286.554 225.28C286.554 224.52 285.521 223.903 284.246 223.903C282.972 223.903 281.938 224.52 281.938 225.28C281.938 226.041 282.972 226.658 284.246 226.658Z" fill="#BBDEFB"/>
<path d="M308.371 226.595C309.646 226.595 310.679 225.979 310.679 225.218C310.679 224.457 309.646 223.841 308.371 223.841C307.097 223.841 306.063 224.457 306.063 225.218C306.063 225.979 307.097 226.595 308.371 226.595Z" fill="#BBDEFB"/>
<path d="M332.392 226.533C333.666 226.533 334.7 225.916 334.7 225.155C334.7 224.395 333.666 223.778 332.392 223.778C331.118 223.778 330.084 224.395 330.084 225.155C330.084 225.916 331.118 226.533 332.392 226.533Z" fill="#BBDEFB"/>
<path d="M356.41 226.47C357.684 226.47 358.718 225.853 358.718 225.093C358.718 224.332 357.684 223.715 356.41 223.715C355.135 223.715 354.103 224.332 354.103 225.093C354.103 225.853 355.135 226.47 356.41 226.47Z" fill="#BBDEFB"/>
<path d="M91.8808 213.447C93.1552 213.447 94.1884 212.83 94.1884 212.07C94.1884 211.309 93.1552 210.692 91.8808 210.692C90.6063 210.692 89.5732 211.309 89.5732 212.07C89.5732 212.83 90.6063 213.447 91.8808 213.447Z" fill="#BBDEFB"/>
<path d="M115.9 213.384C117.175 213.384 118.208 212.768 118.208 212.007C118.208 211.246 117.175 210.629 115.9 210.629C114.626 210.629 113.593 211.246 113.593 212.007C113.593 212.768 114.626 213.384 115.9 213.384Z" fill="#BBDEFB"/>
<path d="M139.919 213.322C141.193 213.322 142.226 212.705 142.226 211.944C142.226 211.184 141.193 210.567 139.919 210.567C138.644 210.567 137.611 211.184 137.611 211.944C137.611 212.705 138.644 213.322 139.919 213.322Z" fill="#BBDEFB"/>
<path d="M163.94 213.259C165.214 213.259 166.248 212.643 166.248 211.881C166.248 211.121 165.214 210.504 163.94 210.504C162.665 210.504 161.632 211.121 161.632 211.881C161.632 212.643 162.665 213.259 163.94 213.259Z" fill="#BBDEFB"/>
<path d="M187.959 213.134C189.234 213.134 190.266 212.517 190.266 211.756C190.266 210.996 189.234 210.379 187.959 210.379C186.685 210.379 185.651 210.996 185.651 211.756C185.651 212.517 186.685 213.134 187.959 213.134Z" fill="#BBDEFB"/>
<path d="M212.083 213.071C213.358 213.071 214.39 212.454 214.39 211.694C214.39 210.933 213.358 210.316 212.083 210.316C210.809 210.316 209.775 210.933 209.775 211.694C209.775 212.454 210.809 213.071 212.083 213.071Z" fill="#BBDEFB"/>
<path d="M236.102 213.008C237.377 213.008 238.41 212.392 238.41 211.631C238.41 210.87 237.377 210.253 236.102 210.253C234.828 210.253 233.795 210.87 233.795 211.631C233.795 212.392 234.828 213.008 236.102 213.008Z" fill="#BBDEFB"/>
<path d="M260.123 212.946C261.398 212.946 262.43 212.329 262.43 211.569C262.43 210.808 261.398 210.191 260.123 210.191C258.848 210.191 257.815 210.808 257.815 211.569C257.815 212.329 258.848 212.946 260.123 212.946Z" fill="#BBDEFB"/>
<path d="M284.142 212.821C285.416 212.821 286.45 212.204 286.45 211.443C286.45 210.683 285.416 210.066 284.142 210.066C282.868 210.066 281.835 210.683 281.835 211.443C281.835 212.204 282.868 212.821 284.142 212.821Z" fill="#BBDEFB"/>
<path d="M308.162 212.758C309.437 212.758 310.47 212.142 310.47 211.381C310.47 210.62 309.437 210.003 308.162 210.003C306.888 210.003 305.854 210.62 305.854 211.381C305.854 212.142 306.888 212.758 308.162 212.758Z" fill="#BBDEFB"/>
<path d="M332.287 212.696C333.561 212.696 334.595 212.079 334.595 211.318C334.595 210.558 333.561 209.941 332.287 209.941C331.012 209.941 329.979 210.558 329.979 211.318C329.979 212.079 331.012 212.696 332.287 212.696Z" fill="#BBDEFB"/>
<path d="M356.305 212.633C357.579 212.633 358.612 212.016 358.612 211.255C358.612 210.495 357.579 209.878 356.305 209.878C355.031 209.878 353.997 210.495 353.997 211.255C353.997 212.016 355.031 212.633 356.305 212.633Z" fill="#BBDEFB"/>
<path d="M91.6708 198.67C92.9452 198.67 93.9784 198.054 93.9784 197.293C93.9784 196.532 92.9452 195.916 91.6708 195.916C90.3964 195.916 89.3633 196.532 89.3633 197.293C89.3633 198.054 90.3964 198.67 91.6708 198.67Z" fill="#BBDEFB"/>
<path d="M115.796 198.608C117.07 198.608 118.103 197.991 118.103 197.231C118.103 196.47 117.07 195.853 115.796 195.853C114.521 195.853 113.488 196.47 113.488 197.231C113.488 197.991 114.521 198.608 115.796 198.608Z" fill="#BBDEFB"/>
<path d="M139.815 198.545C141.09 198.545 142.123 197.929 142.123 197.168C142.123 196.407 141.09 195.79 139.815 195.79C138.541 195.79 137.508 196.407 137.508 197.168C137.508 197.929 138.541 198.545 139.815 198.545Z" fill="#BBDEFB"/>
<path d="M163.835 198.483C165.11 198.483 166.142 197.866 166.142 197.105C166.142 196.345 165.11 195.728 163.835 195.728C162.561 195.728 161.527 196.345 161.527 197.105C161.527 197.866 162.561 198.483 163.835 198.483Z" fill="#BBDEFB"/>
<path d="M187.854 198.358C189.128 198.358 190.162 197.741 190.162 196.98C190.162 196.219 189.128 195.603 187.854 195.603C186.58 195.603 185.547 196.219 185.547 196.98C185.547 197.741 186.58 198.358 187.854 198.358Z" fill="#BBDEFB"/>
<path d="M211.874 198.295C213.149 198.295 214.181 197.678 214.181 196.917C214.181 196.157 213.149 195.54 211.874 195.54C210.6 195.54 209.566 196.157 209.566 196.917C209.566 197.678 210.6 198.295 211.874 198.295Z" fill="#BBDEFB"/>
<path d="M235.998 198.232C237.272 198.232 238.305 197.616 238.305 196.855C238.305 196.094 237.272 195.478 235.998 195.478C234.723 195.478 233.69 196.094 233.69 196.855C233.69 197.616 234.723 198.232 235.998 198.232Z" fill="#BBDEFB"/>
<path d="M260.018 198.17C261.292 198.17 262.326 197.553 262.326 196.792C262.326 196.032 261.292 195.415 260.018 195.415C258.744 195.415 257.711 196.032 257.711 196.792C257.711 197.553 258.744 198.17 260.018 198.17Z" fill="#BBDEFB"/>
<path d="M284.038 198.044C285.313 198.044 286.346 197.428 286.346 196.667C286.346 195.906 285.313 195.289 284.038 195.289C282.764 195.289 281.73 195.906 281.73 196.667C281.73 197.428 282.764 198.044 284.038 198.044Z" fill="#BBDEFB"/>
<path d="M308.057 197.982C309.331 197.982 310.364 197.365 310.364 196.605C310.364 195.844 309.331 195.227 308.057 195.227C306.782 195.227 305.749 195.844 305.749 196.605C305.749 197.365 306.782 197.982 308.057 197.982Z" fill="#BBDEFB"/>
<path d="M332.076 197.919C333.351 197.919 334.384 197.303 334.384 196.542C334.384 195.781 333.351 195.164 332.076 195.164C330.802 195.164 329.769 195.781 329.769 196.542C329.769 197.303 330.802 197.919 332.076 197.919Z" fill="#BBDEFB"/>
<path d="M356.201 197.857C357.476 197.857 358.509 197.24 358.509 196.479C358.509 195.719 357.476 195.102 356.201 195.102C354.927 195.102 353.894 195.719 353.894 196.479C353.894 197.24 354.927 197.857 356.201 197.857Z" fill="#BBDEFB"/>
<path d="M91.5664 183.456C92.8408 183.456 93.8739 182.84 93.8739 182.079C93.8739 181.318 92.8408 180.701 91.5664 180.701C90.292 180.701 89.2588 181.318 89.2588 182.079C89.2588 182.84 90.292 183.456 91.5664 183.456Z" fill="#BBDEFB"/>
<path d="M115.585 183.394C116.859 183.394 117.892 182.777 117.892 182.016C117.892 181.255 116.859 180.639 115.585 180.639C114.31 180.639 113.277 181.255 113.277 182.016C113.277 182.777 114.31 183.394 115.585 183.394Z" fill="#BBDEFB"/>
<path d="M139.71 183.331C140.984 183.331 142.017 182.714 142.017 181.953C142.017 181.193 140.984 180.576 139.71 180.576C138.436 180.576 137.402 181.193 137.402 181.953C137.402 182.714 138.436 183.331 139.71 183.331Z" fill="#BBDEFB"/>
<path d="M163.73 183.206C165.005 183.206 166.038 182.589 166.038 181.828C166.038 181.068 165.005 180.451 163.73 180.451C162.456 180.451 161.423 181.068 161.423 181.828C161.423 182.589 162.456 183.206 163.73 183.206Z" fill="#BBDEFB"/>
<path d="M187.749 183.143C189.024 183.143 190.056 182.526 190.056 181.766C190.056 181.005 189.024 180.388 187.749 180.388C186.474 180.388 185.441 181.005 185.441 181.766C185.441 182.526 186.474 183.143 187.749 183.143Z" fill="#BBDEFB"/>
<path d="M211.769 183.08C213.043 183.08 214.077 182.464 214.077 181.703C214.077 180.942 213.043 180.325 211.769 180.325C210.495 180.325 209.462 180.942 209.462 181.703C209.462 182.464 210.495 183.08 211.769 183.08Z" fill="#BBDEFB"/>
<path d="M235.788 183.018C237.062 183.018 238.095 182.401 238.095 181.641C238.095 180.88 237.062 180.263 235.788 180.263C234.513 180.263 233.479 180.88 233.479 181.641C233.479 182.401 234.513 183.018 235.788 183.018Z" fill="#BBDEFB"/>
<path d="M259.913 182.893C261.187 182.893 262.221 182.276 262.221 181.515C262.221 180.755 261.187 180.138 259.913 180.138C258.638 180.138 257.605 180.755 257.605 181.515C257.605 182.276 258.638 182.893 259.913 182.893Z" fill="#BBDEFB"/>
<path d="M283.933 182.83C285.207 182.83 286.24 182.214 286.24 181.452C286.24 180.692 285.207 180.075 283.933 180.075C282.659 180.075 281.625 180.692 281.625 181.452C281.625 182.214 282.659 182.83 283.933 182.83Z" fill="#BBDEFB"/>
<path d="M307.951 182.768C309.226 182.768 310.259 182.151 310.259 181.39C310.259 180.63 309.226 180.013 307.951 180.013C306.677 180.013 305.644 180.63 305.644 181.39C305.644 182.151 306.677 182.768 307.951 182.768Z" fill="#BBDEFB"/>
<path d="M331.972 182.705C333.246 182.705 334.279 182.088 334.279 181.327C334.279 180.567 333.246 179.95 331.972 179.95C330.697 179.95 329.664 180.567 329.664 181.327C329.664 182.088 330.697 182.705 331.972 182.705Z" fill="#BBDEFB"/>
<path d="M355.992 182.58C357.266 182.58 358.3 181.963 358.3 181.202C358.3 180.441 357.266 179.825 355.992 179.825C354.717 179.825 353.685 180.441 353.685 181.202C353.685 181.963 354.717 182.58 355.992 182.58Z" fill="#BBDEFB"/>
<path d="M91.4619 168.68C92.7363 168.68 93.7694 168.063 93.7694 167.303C93.7694 166.542 92.7363 165.925 91.4619 165.925C90.1875 165.925 89.1543 166.542 89.1543 167.303C89.1543 168.063 90.1875 168.68 91.4619 168.68Z" fill="#BBDEFB"/>
<path d="M115.48 168.617C116.755 168.617 117.788 168.001 117.788 167.24C117.788 166.479 116.755 165.862 115.48 165.862C114.206 165.862 113.173 166.479 113.173 167.24C113.173 168.001 114.206 168.617 115.48 168.617Z" fill="#BBDEFB"/>
<path d="M139.501 168.492C140.775 168.492 141.808 167.876 141.808 167.115C141.808 166.354 140.775 165.737 139.501 165.737C138.226 165.737 137.193 166.354 137.193 167.115C137.193 167.876 138.226 168.492 139.501 168.492Z" fill="#BBDEFB"/>
<path d="M163.626 168.43C164.9 168.43 165.933 167.813 165.933 167.052C165.933 166.291 164.9 165.675 163.626 165.675C162.351 165.675 161.318 166.291 161.318 167.052C161.318 167.813 162.351 168.43 163.626 168.43Z" fill="#BBDEFB"/>
<path d="M187.644 168.367C188.918 168.367 189.952 167.75 189.952 166.989C189.952 166.229 188.918 165.612 187.644 165.612C186.37 165.612 185.337 166.229 185.337 166.989C185.337 167.75 186.37 168.367 187.644 168.367Z" fill="#BBDEFB"/>
<path d="M211.664 168.304C212.939 168.304 213.971 167.688 213.971 166.927C213.971 166.166 212.939 165.55 211.664 165.55C210.39 165.55 209.356 166.166 209.356 166.927C209.356 167.688 210.39 168.304 211.664 168.304Z" fill="#BBDEFB"/>
<path d="M235.684 168.242C236.958 168.242 237.991 167.625 237.991 166.864C237.991 166.103 236.958 165.487 235.684 165.487C234.41 165.487 233.376 166.103 233.376 166.864C233.376 167.625 234.41 168.242 235.684 168.242Z" fill="#BBDEFB"/>
<path d="M259.703 168.116C260.978 168.116 262.011 167.5 262.011 166.739C262.011 165.978 260.978 165.361 259.703 165.361C258.429 165.361 257.396 165.978 257.396 166.739C257.396 167.5 258.429 168.116 259.703 168.116Z" fill="#BBDEFB"/>
<path d="M283.828 168.054C285.103 168.054 286.136 167.437 286.136 166.677C286.136 165.915 285.103 165.299 283.828 165.299C282.553 165.299 281.521 165.915 281.521 166.677C281.521 167.437 282.553 168.054 283.828 168.054Z" fill="#BBDEFB"/>
<path d="M307.846 167.991C309.12 167.991 310.153 167.375 310.153 166.614C310.153 165.853 309.12 165.236 307.846 165.236C306.572 165.236 305.538 165.853 305.538 166.614C305.538 167.375 306.572 167.991 307.846 167.991Z" fill="#BBDEFB"/>
<path d="M331.866 167.929C333.141 167.929 334.174 167.312 334.174 166.551C334.174 165.79 333.141 165.174 331.866 165.174C330.591 165.174 329.559 165.79 329.559 166.551C329.559 167.312 330.591 167.929 331.866 167.929Z" fill="#BBDEFB"/>
<path d="M355.887 167.804C357.161 167.804 358.194 167.187 358.194 166.426C358.194 165.665 357.161 165.049 355.887 165.049C354.612 165.049 353.579 165.665 353.579 166.426C353.579 167.187 354.612 167.804 355.887 167.804Z" fill="#BBDEFB"/>
</svg>
