<svg width="544" height="756" viewBox="0 0 544 756" fill="none" xmlns="http://www.w3.org/2000/svg">
<mask id="mask0_127:122" style="mask-type:alpha" maskUnits="userSpaceOnUse" x="0" y="0" width="544" height="756">
<path d="M543.684 756L543.684 0L0.315552 -1.84646e-05L0.315509 756L543.684 756Z" fill="#F9F9F9"/>
</mask>
<g mask="url(#mask0_127:122)">
<path d="M504.417 1058.46L504.833 -652.152" stroke="#ADC9F2" stroke-width="1.2573" stroke-miterlimit="10"/>
<path d="M462.03 1058.56L462.528 -652.046" stroke="#ADC9F2" stroke-width="1.2573" stroke-miterlimit="10"/>
<path d="M419.726 1058.67L420.142 -651.939" stroke="#ADC9F2" stroke-width="1.2573" stroke-miterlimit="10"/>
<path d="M377.339 1058.77L377.754 -651.833" stroke="#ADC9F2" stroke-width="1.2573" stroke-miterlimit="10"/>
<path d="M337.606 1061L335.367 -651.728" stroke="#ADC9F2" stroke-width="1.2573" stroke-miterlimit="10"/>
<path d="M292.647 1058.88L293.062 -651.622" stroke="#ADC9F2" stroke-width="1.2573" stroke-miterlimit="10"/>
<path d="M250.26 1058.99L250.676 -651.622" stroke="#ADC9F2" stroke-width="1.2573" stroke-miterlimit="10"/>
<path d="M207.872 1059.09L208.288 -651.516" stroke="#ADC9F2" stroke-width="1.2573" stroke-miterlimit="10"/>
<path d="M165.568 1059.2L165.983 -651.41" stroke="#ADC9F2" stroke-width="1.2573" stroke-miterlimit="10"/>
<path d="M123.181 1059.3L123.597 -651.303" stroke="#ADC9F2" stroke-width="1.2573" stroke-miterlimit="10"/>
<path d="M80.7937 1059.41L81.2095 -651.198" stroke="#ADC9F2" stroke-width="1.2573" stroke-miterlimit="10"/>
<path d="M38.407 1059.41L38.9048 -651.198" stroke="#ADC9F2" stroke-width="1.2573" stroke-miterlimit="10"/>
<path d="M-383.307 516.422L972.253 513.665" stroke="#ADC9F2" stroke-width="1.2573" stroke-miterlimit="10"/>
<path d="M-383.39 447.819L972.17 444.957" stroke="#ADC9F2" stroke-width="1.2573" stroke-miterlimit="10"/>
<path d="M-383.473 379.111L972.088 376.354" stroke="#ADC9F2" stroke-width="1.2573" stroke-miterlimit="10"/>
<path d="M-383.556 310.509L972.004 307.752" stroke="#ADC9F2" stroke-width="1.2573" stroke-miterlimit="10"/>
<path d="M-383.639 241.906L971.921 239.149" stroke="#ADC9F2" stroke-width="1.2573" stroke-miterlimit="10"/>
<path d="M-383.722 173.304L971.839 170.441" stroke="#ADC9F2" stroke-width="1.2573" stroke-miterlimit="10"/>
<path d="M-382.977 721.593L972.584 718.836" stroke="#ADC9F2" stroke-width="1.2573" stroke-miterlimit="10"/>
<path d="M-383.058 652.991L972.502 650.234" stroke="#ADC9F2" stroke-width="1.2573" stroke-miterlimit="10"/>
<path d="M-383.141 584.388L972.419 581.631" stroke="#ADC9F2" stroke-width="1.2573" stroke-miterlimit="10"/>
<path d="M-383.805 104.595L971.755 101.838" stroke="#ADC9F2" stroke-width="1.2573" stroke-miterlimit="10"/>
<path d="M-383.888 35.9931L971.673 33.2362" stroke="#ADC9F2" stroke-width="1.2573" stroke-miterlimit="10"/>
</g>
</svg>
