<svg width="270" height="34" viewBox="0 0 270 34" fill="none" xmlns="http://www.w3.org/2000/svg">
<g clip-path="url(#clip0_56:2)">
<path d="M42.3014 13.1109C41.385 12.5823 40.6265 11.8116 40.1061 10.8806C39.5784 9.92123 39.3013 8.8405 39.3013 7.74146C39.3013 6.64242 39.5784 5.5617 40.1061 4.60235C40.6269 3.67165 41.3854 2.90109 42.3014 2.37201C43.2237 1.83362 44.2702 1.55418 45.3338 1.56234C46.1607 1.557 46.9807 1.71417 47.7488 2.02521C48.462 2.30516 49.0999 2.75246 49.6105 3.33061L48.6186 4.33847C48.2396 3.86783 47.7505 3.5013 47.196 3.27245C46.6062 3.02273 45.9729 2.89625 45.3338 2.90058C44.5337 2.89727 43.7464 3.1051 43.049 3.50374C42.3402 3.90527 41.7506 4.49293 41.3418 5.20524C40.9204 5.982 40.6995 6.85452 40.6995 7.74146C40.6995 8.62841 40.9204 9.50092 41.3418 10.2777C41.75 10.9906 42.3397 11.5784 43.049 11.9794C43.9326 12.5129 44.9671 12.7288 45.9861 12.5925C47.0052 12.4562 47.9494 11.9755 48.6671 11.2279C48.9609 10.8994 49.1925 10.5186 49.35 10.1045C49.5274 9.64505 49.6317 9.15976 49.6587 8.66693H45.3656V7.36152H50.9594C51.0113 7.64495 51.0385 7.93247 51.0407 8.22075C51.0415 8.9427 50.9263 9.65996 50.6997 10.3442C50.4768 11.0236 50.1041 11.6424 49.61 12.1531C48.5146 13.3318 47.0891 13.9209 45.3333 13.9206C44.2699 13.929 43.2234 13.6495 42.3014 13.1109Z" fill="#656C73"/>
<path d="M54.0806 13.3502C53.4566 12.9753 52.9473 12.4319 52.6093 11.7804C52.2618 11.0929 52.0806 10.3311 52.0806 9.55826C52.0806 8.7854 52.2618 8.02366 52.6093 7.33614C52.947 6.68456 53.4564 6.14122 54.0806 5.76686C54.7257 5.38222 55.4625 5.18503 56.2104 5.19682C56.961 5.18577 57.7004 5.38285 58.349 5.76686C58.9765 6.13962 59.4891 6.68316 59.8288 7.33614C60.1762 8.02366 60.3575 8.7854 60.3575 9.55826C60.3575 10.3311 60.1762 11.0929 59.8288 11.7804C59.4888 12.4333 58.9763 12.9769 58.349 13.3502C57.7002 13.7338 56.9609 13.9307 56.2104 13.9197C55.4625 13.9314 54.7259 13.7344 54.0806 13.3502ZM57.5765 12.2678C58.0059 12.0078 58.3574 11.6337 58.5931 11.1858C58.8441 10.6812 58.9749 10.1237 58.9749 9.55826C58.9749 8.99283 58.8441 8.43532 58.5931 7.93068C58.357 7.48306 58.0056 7.10908 57.5765 6.84877C57.1637 6.59811 56.6913 6.46666 56.2104 6.46857C55.7349 6.46822 55.2684 6.59967 54.861 6.84877C54.4319 7.1089 54.0806 7.48294 53.845 7.93068C53.5936 8.4352 53.4626 8.99276 53.4626 9.55826C53.4626 10.1238 53.5936 10.6813 53.845 11.1858C54.0803 11.6338 54.4316 12.0079 54.861 12.2678C55.2684 12.5169 55.7349 12.6483 56.2104 12.648C56.6913 12.6499 57.1637 12.5184 57.5765 12.2678Z" fill="#656C73"/>
<path d="M63.3004 13.3502C62.6763 12.9754 62.1669 12.432 61.8288 11.7804C61.4814 11.0929 61.3001 10.3311 61.3001 9.55826C61.3001 8.7854 61.4814 8.02366 61.8288 7.33614C62.1666 6.68448 62.6761 6.14113 63.3004 5.76685C63.9455 5.38225 64.6821 5.18506 65.43 5.19682C66.1806 5.18574 66.92 5.38282 67.5686 5.76685C68.1962 6.13954 68.7087 6.68309 69.0483 7.33614C69.3958 8.02366 69.577 8.7854 69.577 9.55826C69.577 10.3311 69.3958 11.0929 69.0483 11.7804C68.7084 12.4334 68.1959 12.977 67.5686 13.3502C66.9198 13.7338 66.1805 13.9307 65.43 13.9197C64.6822 13.9314 63.9456 13.7344 63.3004 13.3502ZM66.7961 12.2678C67.2256 12.0079 67.5771 11.6338 67.8126 11.1858C68.0636 10.6812 68.1944 10.1237 68.1944 9.55826C68.1944 8.99283 68.0636 8.43532 67.8126 7.93068C67.5768 7.4829 67.2253 7.10887 66.7961 6.84877C66.3832 6.59805 65.9109 6.46659 65.43 6.46857C64.9545 6.4683 64.488 6.59975 64.0805 6.84877C63.6515 7.10897 63.3002 7.48299 63.0645 7.93068C62.8131 8.4352 62.6821 8.99276 62.6821 9.55826C62.6821 10.1238 62.8131 10.6813 63.0645 11.1858C63.2999 11.6337 63.6512 12.0078 64.0805 12.2678C64.488 12.5168 64.9545 12.6482 65.43 12.648C65.9109 12.6499 66.3832 12.5185 66.7961 12.2678Z" fill="#656C73"/>
<path d="M72.1298 16.7782C71.5587 16.3677 71.1224 15.7921 70.8777 15.1263L72.1624 14.5808C72.3202 15.0591 72.6251 15.4733 73.0321 15.7623C73.4679 16.0708 73.9892 16.2299 74.5201 16.2165C75.3761 16.2165 76.0345 15.964 76.4952 15.4588C76.956 14.9537 77.1864 14.248 77.1866 13.3419V12.4659H77.1212C76.8405 12.9041 76.4546 13.2625 75.9999 13.5072C75.4911 13.7876 74.9197 13.9296 74.341 13.9197C73.6666 13.9224 73.0058 13.7266 72.4385 13.3559C71.8447 12.9714 71.3621 12.4334 71.0401 11.7971C70.698 11.102 70.5199 10.3354 70.5199 9.55825C70.5199 8.78107 70.698 8.01455 71.0401 7.31943C71.3625 6.68333 71.845 6.14539 72.4385 5.76039C73.0058 5.38986 73.6666 5.19412 74.341 5.19681C74.9197 5.18686 75.4911 5.32895 75.9999 5.60932C76.4545 5.8542 76.8403 6.21251 77.1212 6.65057H77.1866V5.4607H78.5037V13.3252C78.5281 14.1235 78.3489 14.9148 77.9835 15.622C77.6602 16.2257 77.1641 16.7153 76.5609 17.0262C75.9262 17.3418 75.2269 17.5001 74.5204 17.4883C73.6682 17.5263 72.8277 17.2766 72.1298 16.7782ZM75.8695 12.2739C76.2818 12.0131 76.6163 11.6429 76.8371 11.2033C77.091 10.6941 77.2165 10.1288 77.2025 9.55812C77.2159 8.98518 77.0904 8.41769 76.8371 7.90563C76.6194 7.46362 76.2842 7.09238 75.8695 6.83395C75.472 6.59129 75.0162 6.46485 74.5525 6.46856C74.0876 6.46514 73.6312 6.59474 73.2354 6.84256C72.8231 7.10389 72.4886 7.47425 72.2676 7.91398C72.0267 8.42771 71.9017 8.9896 71.9017 9.55866C71.9017 10.1277 72.0267 10.6896 72.2676 11.2033C72.4885 11.6429 72.8231 12.013 73.2354 12.2739C73.6325 12.5186 74.0881 12.648 74.5525 12.648C75.0169 12.648 75.4724 12.5186 75.8695 12.2739Z" fill="#656C73"/>
<path d="M80.3736 1.82614H81.7556V13.6556H80.3736V1.82614Z" fill="#656C73"/>
<path d="M85.0321 13.358C84.421 12.9848 83.923 12.4476 83.5929 11.8054C83.2384 11.1119 83.0596 10.3395 83.0727 9.55811C83.0649 8.79971 83.232 8.04999 83.5606 7.36897C83.8708 6.71994 84.352 6.17097 84.9508 5.78299C85.5709 5.38671 86.2914 5.18298 87.0239 5.1968C87.745 5.18097 88.4566 5.3665 89.0811 5.73318C89.6704 6.09031 90.1428 6.61627 90.439 7.2451C90.7643 7.94733 90.9256 8.71643 90.9102 9.4924C90.9149 9.60354 90.904 9.71478 90.8779 9.82279H84.4711C84.474 10.3744 84.6258 10.9146 84.91 11.3846C85.1589 11.7882 85.51 12.1164 85.9265 12.3348C86.316 12.5397 86.748 12.6473 87.1866 12.6485C88.2058 12.6485 88.992 12.1417 89.5451 11.1282L90.7642 11.7233C90.4277 12.3717 89.932 12.9208 89.3252 13.3173C88.6756 13.705 87.9374 13.9129 87.1841 13.9201C86.4308 13.9273 85.6888 13.7337 85.0321 13.3585V13.358ZM89.4471 8.64934C89.421 8.30352 89.327 7.9665 89.1707 7.65816C88.9899 7.30822 88.7166 7.01652 88.3815 6.8159C87.9599 6.56873 87.4779 6.44828 86.9916 6.46855C86.4109 6.45832 85.8478 6.67079 85.4145 7.06362C84.9607 7.47698 84.6619 8.03734 84.5689 8.64934H89.4471Z" fill="#656C73"/>
<path d="M96.1946 1.82611H99.7232C100.81 1.8002 101.885 2.05902 102.845 2.57764C103.713 3.05762 104.425 3.78391 104.894 4.66795C105.364 5.62179 105.609 6.67401 105.609 7.74095C105.609 8.80789 105.364 9.86013 104.894 10.814C104.425 11.698 103.713 12.4243 102.845 12.9043C101.885 13.4227 100.81 13.6814 99.7232 13.6555H96.1946V1.82611ZM99.7232 12.3173C101.1 12.3173 102.189 11.9153 102.992 11.1115C103.794 10.3076 104.195 9.18409 104.195 7.74082C104.195 6.29845 103.794 5.17499 102.992 4.37042C102.189 3.56585 101.1 3.16384 99.7232 3.16437H97.5766V12.3173H99.7232Z" fill="#656C73"/>
<path d="M108.74 13.358C108.128 12.9851 107.63 12.4478 107.3 11.8054C106.946 11.112 106.767 10.3395 106.78 9.55813C106.772 8.79972 106.94 8.05 107.268 7.36899C107.578 6.71963 108.06 6.17036 108.659 5.7822C109.279 5.38593 109.999 5.1822 110.732 5.19601C111.453 5.18013 112.164 5.36567 112.788 5.73239C113.378 6.08928 113.85 6.61531 114.146 7.24432C114.472 7.94644 114.633 8.71557 114.618 9.49162C114.623 9.60278 114.612 9.71408 114.585 9.822H108.179C108.181 10.3736 108.333 10.9139 108.618 11.3837C108.866 11.7872 109.217 12.1154 109.634 12.334C110.023 12.5389 110.455 12.6465 110.894 12.6477C111.913 12.6477 112.699 12.1409 113.253 11.1274L114.472 11.7225C114.136 12.3712 113.64 12.9204 113.033 13.3165C112.383 13.7044 111.645 13.9123 110.891 13.9195C110.138 13.9267 109.396 13.733 108.739 13.3577L108.74 13.358ZM113.154 8.64935C113.128 8.30357 113.034 7.96658 112.878 7.65817C112.697 7.30826 112.424 7.01654 112.089 6.81591C111.667 6.56892 111.185 6.44848 110.699 6.46856C110.118 6.45848 109.555 6.67091 109.121 7.06363C108.668 7.47706 108.369 8.03739 108.276 8.64935H113.154Z" fill="#656C73"/>
<path d="M114.942 5.46069H116.439L118.91 12.0039H118.943L121.447 5.46069H122.911L119.609 13.6555H118.211L114.942 5.46069Z" fill="#656C73"/>
<path d="M125.438 13.358C124.827 12.9847 124.33 12.4475 124 11.8054C123.645 11.1119 123.466 10.3395 123.479 9.55811C123.472 8.7997 123.639 8.04998 123.967 7.36897C124.277 6.71994 124.759 6.17097 125.357 5.78299C125.978 5.38671 126.698 5.18298 127.431 5.19679C128.152 5.18099 128.863 5.36652 129.488 5.73317C130.077 6.09024 130.549 6.61622 130.845 7.2451C131.171 7.94727 131.332 8.71639 131.317 9.4924C131.322 9.60353 131.311 9.71478 131.284 9.82279H124.877C124.88 10.3744 125.032 10.9146 125.316 11.3845C125.565 11.7882 125.916 12.1163 126.333 12.3348C126.722 12.5397 127.154 12.6472 127.592 12.6485C128.612 12.6485 129.398 12.1417 129.951 11.1282L131.17 11.7233C130.834 12.3717 130.338 12.9208 129.731 13.3173C129.081 13.705 128.343 13.9128 127.59 13.92C126.837 13.9272 126.095 13.7336 125.438 13.3585L125.438 13.358ZM129.854 8.64933C129.828 8.30352 129.734 7.9665 129.577 7.65815C129.397 7.30822 129.123 7.01651 128.788 6.81589C128.366 6.56876 127.884 6.44832 127.398 6.46854C126.817 6.45839 126.254 6.67085 125.821 7.06361C125.367 7.47697 125.069 8.03733 124.976 8.64933H129.854Z" fill="#656C73"/>
<path d="M132.715 1.82614H134.097V13.6556H132.715V1.82614Z" fill="#656C73"/>
<path d="M137.414 13.3502C136.79 12.9753 136.281 12.4319 135.943 11.7804C135.596 11.0929 135.414 10.3311 135.414 9.55826C135.414 8.7854 135.596 8.02366 135.943 7.33614C136.281 6.68456 136.79 6.14122 137.414 5.76686C138.059 5.38222 138.796 5.18503 139.544 5.19682C140.295 5.18581 141.034 5.38288 141.683 5.76686C142.31 6.13962 142.823 6.68316 143.163 7.33614C143.51 8.02372 143.691 8.78544 143.691 9.55826C143.691 10.3311 143.51 11.0928 143.163 11.7804C142.823 12.4333 142.31 12.9769 141.683 13.3502C141.034 13.7338 140.295 13.9307 139.544 13.9197C138.796 13.9314 138.06 13.7344 137.414 13.3502ZM140.91 12.2678C141.34 12.0079 141.691 11.6338 141.927 11.1858C142.178 10.6812 142.308 10.1237 142.308 9.55826C142.308 8.99286 142.178 8.43536 141.927 7.93068C141.691 7.48295 141.339 7.10894 140.91 6.84877C140.497 6.59809 140.025 6.46663 139.544 6.46857C139.069 6.46826 138.602 6.5997 138.194 6.84877C137.765 7.10899 137.414 7.48302 137.179 7.93068C136.927 8.43515 136.796 8.99273 136.796 9.55826C136.796 10.1238 136.927 10.6814 137.179 11.1858C137.414 11.6337 137.765 12.0078 138.194 12.2678C138.602 12.5168 139.069 12.6483 139.544 12.648C140.025 12.6498 140.497 12.5184 140.91 12.2678H140.91Z" fill="#656C73"/>
<path d="M144.943 5.46067H146.26V6.6667H146.325C146.607 6.22696 146.993 5.86595 147.447 5.61657C147.965 5.32816 148.548 5.18303 149.139 5.19571C149.819 5.19175 150.486 5.38988 151.057 5.76575C151.649 6.15303 152.132 6.69155 152.455 7.32749C152.797 8.01964 152.975 8.78345 152.975 9.55796C152.975 10.3325 152.797 11.0963 152.455 11.7884C152.131 12.4242 151.649 12.9626 151.057 13.3502C150.486 13.7256 149.819 13.9236 149.139 13.9197C148.546 13.9316 147.96 13.7865 147.439 13.4988C146.98 13.2514 146.596 12.8831 146.326 12.4328H146.261L146.326 13.5731V17.2244H144.944L144.943 5.46067ZM150.252 12.2677C150.668 12.004 151.006 11.6299 151.228 11.1858C151.469 10.6781 151.594 10.1218 151.594 9.55823C151.594 8.99464 151.469 8.43831 151.228 7.93065C151.005 7.48677 150.668 7.11277 150.252 6.84873C149.855 6.59795 149.396 6.46617 148.927 6.46853C148.46 6.46583 148.002 6.59453 147.602 6.84038C147.185 7.09943 146.847 7.47135 146.627 7.91449C146.386 8.42659 146.261 8.98686 146.261 9.55431C146.261 10.1218 146.386 10.6821 146.627 11.1942C146.846 11.6404 147.184 12.0152 147.602 12.2761C148.002 12.5219 148.46 12.6506 148.927 12.6479C149.396 12.6503 149.855 12.5185 150.252 12.2677Z" fill="#656C73"/>
<path d="M156.203 13.358C155.592 12.9848 155.094 12.4476 154.764 11.8054C154.409 11.1119 154.231 10.3395 154.244 9.55813C154.236 8.79974 154.403 8.05004 154.732 7.36899C155.042 6.71977 155.522 6.17051 156.121 5.7822C156.741 5.38593 157.462 5.1822 158.194 5.19601C158.915 5.18014 159.627 5.36567 160.251 5.73239C160.841 6.08951 161.313 6.61547 161.609 7.24432C161.935 7.94648 162.096 8.71561 162.081 9.49162C162.085 9.60276 162.074 9.71401 162.048 9.822H155.641C155.644 10.3736 155.796 10.9138 156.08 11.3837C156.329 11.7874 156.68 12.1156 157.097 12.334C157.486 12.5389 157.918 12.6465 158.357 12.6477C159.376 12.6477 160.162 12.1409 160.715 11.1274L161.934 11.7225C161.598 12.3709 161.102 12.92 160.495 13.3165C159.846 13.7042 159.108 13.9121 158.354 13.9193C157.601 13.9265 156.859 13.7329 156.202 13.3577L156.203 13.358ZM160.618 8.64935C160.592 8.30354 160.498 7.96652 160.342 7.65817C160.161 7.30817 159.888 7.01644 159.553 6.81591C159.131 6.56875 158.649 6.4483 158.163 6.46856C157.582 6.45836 157.019 6.67083 156.586 7.06363C156.132 7.47708 155.833 8.0374 155.74 8.64935H160.618Z" fill="#656C73"/>
<path d="M163.479 5.46071H164.796V6.79895H164.862C165.035 6.32088 165.365 5.91816 165.796 5.65888C166.211 5.36925 166.7 5.20869 167.203 5.19682C167.525 5.19403 167.844 5.25003 168.146 5.36215V6.86492C167.793 6.68629 167.401 6.60128 167.007 6.61774C166.626 6.61776 166.255 6.73604 165.942 6.95674C165.609 7.18581 165.338 7.49615 165.153 7.85932C164.958 8.23702 164.858 8.65808 164.862 9.08476V13.6556H163.479L163.479 5.46071Z" fill="#656C73"/>
<path d="M174.203 13.5484C173.627 13.2857 173.117 12.8947 172.71 12.4042C172.304 11.9137 172.011 11.3364 171.854 10.7152L173.171 10.1696C173.334 10.8389 173.691 11.4431 174.195 11.9042C174.67 12.3463 175.292 12.5884 175.935 12.5814C176.555 12.6022 177.163 12.4069 177.658 12.0281C177.886 11.8517 178.068 11.6222 178.19 11.359C178.311 11.0958 178.369 10.8067 178.358 10.5162C178.364 10.2586 178.314 10.0028 178.211 9.76718C178.109 9.53156 177.956 9.32196 177.764 9.15341C177.185 8.69771 176.526 8.35856 175.821 8.15417L175.089 7.88947C174.346 7.64006 173.661 7.24105 173.073 6.71628C172.808 6.45723 172.601 6.14303 172.466 5.79518C172.331 5.44732 172.272 5.07403 172.293 4.70082C172.29 4.1461 172.449 3.60298 172.748 3.13908C173.062 2.65067 173.496 2.25476 174.008 1.9912C174.568 1.69852 175.191 1.55055 175.821 1.56036C176.43 1.54649 177.034 1.67665 177.585 1.94056C178.046 2.16005 178.455 2.47524 178.789 2.86577C179.059 3.17996 179.266 3.54497 179.398 3.94014L178.114 4.50157C177.968 4.01583 177.666 3.59383 177.256 3.30318C176.846 3.01253 176.353 2.87007 175.854 2.89862C175.301 2.88353 174.76 3.06441 174.325 3.41022C174.126 3.5586 173.965 3.75278 173.855 3.97679C173.745 4.2008 173.688 4.44822 173.691 4.69867C173.686 4.91677 173.732 5.13288 173.825 5.3294C173.919 5.52592 174.056 5.69731 174.227 5.82959C174.721 6.19199 175.27 6.46842 175.854 6.64761L176.601 6.91149C177.459 7.19763 178.248 7.66202 178.918 8.27506C179.203 8.56556 179.424 8.91334 179.568 9.29602C179.713 9.6787 179.776 10.0878 179.756 10.497C179.778 11.1835 179.575 11.858 179.178 12.414C178.806 12.9224 178.302 13.3165 177.723 13.5532C177.145 13.7941 176.527 13.9176 175.902 13.9167C175.316 13.9177 174.737 13.7921 174.203 13.5484Z" fill="#656C73"/>
<path d="M183.114 13.7525C182.851 13.6494 182.611 13.495 182.406 13.2979C182.192 13.0891 182.028 12.833 181.927 12.5494C181.817 12.2217 181.765 11.877 181.772 11.531V6.73322H180.341V5.46068H181.772V3.0152H183.138V5.46068H185.122V6.73322H183.138V11.1944C183.109 11.5658 183.207 11.9361 183.415 12.243C183.515 12.3699 183.645 12.47 183.792 12.5348C183.94 12.5995 184.1 12.627 184.26 12.6148C184.569 12.6223 184.873 12.542 185.139 12.383V13.7379C184.978 13.8003 184.812 13.8472 184.642 13.8779C184.435 13.9093 184.226 13.9232 184.016 13.9194C183.708 13.9229 183.401 13.8662 183.114 13.7525Z" fill="#656C73"/>
<path d="M187.276 13.0443C186.761 12.4611 186.504 11.6515 186.504 10.6155V5.46069H187.886V10.3845C187.886 11.8938 188.552 12.6483 189.886 12.6479C190.314 12.6532 190.732 12.52 191.081 12.2677C191.433 12.0155 191.713 11.6738 191.894 11.2768C192.083 10.8741 192.18 10.4336 192.179 9.98759V5.46069H193.545V13.6555H192.244V12.4331H192.179C191.916 12.876 191.543 13.2407 191.097 13.4907C190.627 13.7735 190.091 13.9218 189.544 13.92C188.547 13.9198 187.791 13.6279 187.276 13.0443Z" fill="#656C73"/>
<path d="M196.796 13.358C196.202 12.9733 195.719 12.4341 195.398 11.7963C195.056 11.1012 194.878 10.3347 194.878 9.55745C194.878 8.78023 195.056 8.0137 195.398 7.31863C195.719 6.68099 196.202 6.14189 196.796 5.75689C197.369 5.38602 198.036 5.19099 198.715 5.1952C199.305 5.18537 199.888 5.33032 200.407 5.61606C200.865 5.85951 201.252 6.2218 201.529 6.6662H201.593L201.529 5.54282V1.82693H202.895V13.6555H201.593V12.4331H201.529C201.256 12.885 200.869 13.2534 200.407 13.4991C199.888 13.7848 199.305 13.9298 198.715 13.92C198.036 13.924 197.37 13.7289 196.796 13.358ZM200.252 12.2761C200.67 12.0151 201.008 11.6403 201.228 11.1942C201.468 10.6822 201.593 10.1219 201.593 9.55434C201.593 8.98683 201.468 8.42652 201.228 7.91452C201.007 7.47147 200.669 7.09955 200.252 6.84041C199.853 6.59457 199.394 6.46587 198.927 6.46856C198.459 6.46619 198 6.59796 197.602 6.84876C197.186 7.11241 196.849 7.48651 196.627 7.93067C196.386 8.43834 196.261 8.99467 196.261 9.55825C196.261 10.1218 196.386 10.6782 196.627 11.1858C196.849 11.6302 197.186 12.0044 197.602 12.2677C198 12.5185 198.459 12.6503 198.927 12.6479C199.394 12.6506 199.853 12.5219 200.252 12.2761Z" fill="#656C73"/>
<path d="M206.187 13.358C205.576 12.9848 205.078 12.4476 204.748 11.8054C204.393 11.1119 204.215 10.3395 204.228 9.55812C204.22 8.79972 204.387 8.05003 204.715 7.36898C205.026 6.71995 205.507 6.17097 206.106 5.78299C206.726 5.38672 207.446 5.18299 208.179 5.1968C208.9 5.18093 209.612 5.36646 210.236 5.73318C210.825 6.0903 211.298 6.61627 211.594 7.24511C211.919 7.94728 212.081 8.7164 212.065 9.49241C212.07 9.60354 212.059 9.71476 212.033 9.8228H205.626C205.629 10.3744 205.781 10.9147 206.065 11.3846C206.314 11.7882 206.665 12.1164 207.082 12.3348C207.471 12.5397 207.903 12.6472 208.342 12.6485C209.361 12.6485 210.147 12.1417 210.7 11.1282L211.919 11.7233C211.583 12.3718 211.087 12.9209 210.48 13.3173C209.831 13.705 209.092 13.9129 208.339 13.9201C207.586 13.9273 206.844 13.7337 206.187 13.3585V13.358ZM210.602 8.64934C210.576 8.30352 210.482 7.96651 210.326 7.65816C210.145 7.30823 209.872 7.01651 209.537 6.8159C209.115 6.56884 208.633 6.4484 208.147 6.46855C207.566 6.45838 207.003 6.67084 206.569 7.06362C206.116 7.47707 205.817 8.03739 205.724 8.64934H210.602Z" fill="#656C73"/>
<path d="M213.463 5.46071H214.78V6.68343H214.846C215.101 6.23722 215.472 5.87129 215.919 5.62602C216.392 5.34376 216.931 5.19555 217.48 5.19682C218.466 5.19682 219.217 5.48862 219.732 6.07221C220.248 6.6558 220.505 7.45462 220.505 8.46867V13.6556H219.139V8.68273C219.139 7.20662 218.462 6.46857 217.107 6.46857C216.686 6.46426 216.276 6.59757 215.936 6.84877C215.588 7.10312 215.311 7.44444 215.131 7.83967C214.943 8.24233 214.845 8.68293 214.847 9.12892V13.6556H213.464L213.463 5.46071Z" fill="#656C73"/>
<path d="M224.106 13.7525C223.843 13.6494 223.603 13.495 223.399 13.2979C223.184 13.0892 223.02 12.8331 222.919 12.5494C222.809 12.2218 222.757 11.8771 222.764 11.531V6.73322H221.333V5.46068H222.764V3.0152H224.13V5.46068H226.114V6.73322H224.13V11.1944C224.101 11.5658 224.199 11.936 224.406 12.243C224.507 12.3698 224.637 12.4699 224.784 12.5346C224.931 12.5994 225.092 12.6269 225.252 12.6148C225.56 12.6223 225.865 12.542 226.13 12.383V13.7379C225.97 13.8003 225.803 13.8472 225.634 13.8779C225.427 13.9094 225.217 13.9232 225.008 13.9194C224.7 13.9229 224.393 13.8662 224.106 13.7525Z" fill="#656C73"/>
<path d="M233.512 13.11C232.602 12.582 231.851 11.8107 231.341 10.8797C230.824 9.91689 230.553 8.83751 230.553 7.74057C230.553 6.64364 230.824 5.56426 231.341 4.60146C231.851 3.67086 232.602 2.89961 233.512 2.37112C234.442 1.8292 235.497 1.54967 236.569 1.56145C237.395 1.55034 238.214 1.72245 238.967 2.06578C239.683 2.39808 240.319 2.88597 240.829 3.49504L239.854 4.46979C239.464 3.96564 238.966 3.55873 238.398 3.28018C237.824 3.01839 237.199 2.88848 236.57 2.8997C235.761 2.89278 234.965 3.1007 234.261 3.50285C233.558 3.90367 232.976 4.49202 232.578 5.20435C232.167 5.98457 231.952 6.85574 231.952 7.74057C231.952 8.62541 232.167 9.49657 232.578 10.2768C232.975 10.9897 233.557 11.5783 234.261 11.9786C234.965 12.3809 235.761 12.5887 236.57 12.5814C237.264 12.5847 237.95 12.4273 238.575 12.1211C239.201 11.8148 239.749 11.3678 240.179 10.814L241.171 11.8054C240.63 12.4628 239.953 12.9904 239.187 13.3502C238.288 13.7627 237.307 13.9559 236.322 13.9141C235.337 13.8724 234.375 13.5971 233.513 13.11H233.512Z" fill="#656C73"/>
<path d="M242.52 1.82614H243.902V13.6556H242.52V1.82614Z" fill="#656C73"/>
<path d="M246.463 13.0443C245.949 12.4611 245.691 11.6515 245.691 10.6155V5.46069H247.073V10.3845C247.073 11.8938 247.74 12.6483 249.073 12.6479C249.501 12.6532 249.92 12.5201 250.269 12.2677C250.62 12.0153 250.901 11.6737 251.082 11.2768C251.27 10.8741 251.367 10.4335 251.366 9.98759V5.46069H252.732V13.6555H251.431V12.4331H251.366C251.103 12.8759 250.73 13.2406 250.285 13.4907C249.815 13.7735 249.278 13.9218 248.731 13.92C247.734 13.9198 246.978 13.6279 246.463 13.0443Z" fill="#656C73"/>
<path d="M257.097 13.4988C256.639 13.2512 256.255 12.883 255.984 12.4328H255.919V13.6556H254.602V1.82614H255.984V5.54201L255.919 6.66541H255.984C256.266 6.22588 256.652 5.8649 257.106 5.61526C257.624 5.32692 258.207 5.1818 258.797 5.1944C259.478 5.19051 260.145 5.38863 260.716 5.76444C261.308 6.15202 261.791 6.69046 262.114 7.32618C262.457 8.01829 262.635 8.78211 262.635 9.55665C262.635 10.3312 262.457 11.095 262.114 11.7871C261.79 12.4226 261.308 12.961 260.716 13.3489C260.145 13.7243 259.478 13.9222 258.797 13.9184C258.204 13.9308 257.618 13.7862 257.097 13.4988ZM259.911 12.2678C260.327 12.0042 260.664 11.6301 260.886 11.1858C261.127 10.6781 261.252 10.1218 261.252 9.55826C261.252 8.99474 261.127 8.43846 260.886 7.93069C260.664 7.48662 260.327 7.11257 259.911 6.84877C259.513 6.59807 259.054 6.4663 258.586 6.46857C258.119 6.46587 257.66 6.59457 257.261 6.84042C256.844 7.09973 256.506 7.4716 256.285 7.91453C256.045 8.42654 255.919 8.98684 255.919 9.55435C255.919 10.1219 256.045 10.6822 256.285 11.1942C256.505 11.6402 256.843 12.015 257.261 12.2761C257.66 12.522 258.119 12.6507 258.586 12.648C259.054 12.6502 259.513 12.5185 259.911 12.2678Z" fill="#656C73"/>
<path d="M264.618 13.2592C264.049 12.8541 263.612 12.2841 263.366 11.6234L264.585 11.0787C264.772 11.5571 265.091 11.9702 265.504 12.2678C265.883 12.538 266.335 12.6823 266.797 12.6808C267.252 12.6989 267.702 12.5782 268.089 12.3343C268.239 12.2508 268.365 12.1292 268.455 11.9814C268.545 11.8335 268.595 11.6645 268.601 11.4909C268.603 11.3377 268.57 11.1861 268.503 11.0484C268.437 10.9107 268.34 10.7908 268.22 10.6982C267.824 10.4279 267.379 10.2422 266.911 10.1527L265.805 9.87182C265.233 9.74628 264.699 9.47961 264.252 9.09526C264.041 8.91267 263.874 8.68409 263.763 8.42665C263.652 8.1692 263.6 7.88956 263.61 7.60864C263.599 7.13569 263.751 6.67368 264.041 6.30323C264.343 5.92855 264.739 5.6434 265.187 5.47767C265.686 5.28624 266.215 5.19099 266.748 5.19681C267.41 5.18869 268.063 5.3567 268.642 5.68419C269.192 5.98664 269.62 6.47451 269.854 7.06363L268.635 7.59249C268.48 7.21628 268.201 6.90654 267.845 6.71629C267.481 6.52636 267.077 6.43003 266.667 6.43571C266.264 6.43059 265.867 6.53917 265.521 6.7494C265.371 6.82375 265.244 6.93857 265.153 7.0813C265.063 7.22403 265.013 7.38921 265.009 7.55883C265.004 7.69106 265.033 7.82233 265.091 7.94072C265.149 8.05912 265.235 8.16091 265.342 8.23684C265.668 8.44735 266.029 8.59824 266.407 8.68273L267.61 8.97894C268.281 9.11817 268.903 9.44094 269.407 9.91248C269.598 10.106 269.749 10.3367 269.851 10.5908C269.953 10.8449 270.004 11.1172 270 11.3916C270.004 11.8541 269.861 12.3057 269.594 12.68C269.302 13.0823 268.908 13.3965 268.455 13.589C267.931 13.8163 267.366 13.9287 266.796 13.9189C266.019 13.9435 265.255 13.7121 264.618 13.2592Z" fill="#656C73"/>
<path d="M7.64196 7.92071L12.8543 4.86292C13.4373 4.51425 13.8611 3.94566 14.0334 3.28098C14.2058 2.6163 14.1127 1.90936 13.7744 1.31411C13.4362 0.718847 12.8802 0.283482 12.2275 0.10281C11.5748 -0.0778627 10.8783 0.0107989 10.2896 0.349478L1.2829 5.63302L7.64196 7.92071Z" fill="#EA4335"/>
<path d="M11.5696 15.7798C12.1344 15.7803 12.6836 15.5913 13.1319 15.2422C13.5802 14.8931 13.9026 14.4035 14.049 13.8492C14.1954 13.2949 14.1577 12.707 13.9417 12.1768C13.7257 11.6465 13.3434 11.2035 12.8543 10.9166L3.84759 5.63301C3.25851 5.28744 2.55845 5.1938 1.90141 5.37268C1.24438 5.55157 0.684199 5.98834 0.344096 6.5869C0.00399369 7.18545 -0.0881649 7.89675 0.0878904 8.56435C0.263946 9.23195 0.693789 9.80115 1.28287 10.1467L10.2888 15.43C10.6779 15.6593 11.1198 15.78 11.5696 15.7798Z" fill="#4285F4"/>
<path d="M20.5286 15.7798C20.9782 15.7798 21.4197 15.659 21.8086 15.4297L30.815 10.1465L24.5371 7.8111L19.2439 10.9163C18.7547 11.2033 18.3725 11.6463 18.1565 12.1765C17.9405 12.7068 17.9028 13.2947 18.0492 13.8489C18.1956 14.4032 18.518 14.8929 18.9663 15.242C19.4146 15.591 19.9638 15.78 20.5286 15.7795V15.7798Z" fill="#FBBC04"/>
<path d="M29.5302 10.4962C30.0951 10.4967 30.6442 10.3078 31.0926 9.95869C31.5409 9.60961 31.8632 9.11995 32.0097 8.56568C32.1561 8.0114 32.1184 7.42351 31.9024 6.89325C31.6864 6.36299 31.3041 5.91999 30.815 5.63302L21.8085 0.349478C21.2199 0.0107989 20.5234 -0.0778627 19.8707 0.10281C19.218 0.283482 18.662 0.718847 18.3237 1.31411C17.9855 1.90936 17.8924 2.6163 18.0647 3.28098C18.237 3.94566 18.6608 4.51425 19.2438 4.86292L28.2505 10.1467C28.6394 10.3756 29.0808 10.4961 29.5302 10.4962Z" fill="#34A853"/>
<path d="M40.4993 22.2052H41.696L45.7878 28.8063H45.8333L45.7878 27.2081V22.2052H46.7452V30.4971H45.7422L41.4681 23.5833H41.4225L41.4681 25.1815V30.4971H40.4993V22.2052Z" fill="#656C73"/>
<path d="M50.032 30.6824C49.6217 30.6824 49.2494 30.6013 48.9151 30.4392C48.5883 30.2693 48.33 30.0377 48.14 29.7443C47.9577 29.4432 47.8665 29.1074 47.8665 28.7368C47.8665 28.1269 48.0906 27.652 48.5389 27.3123C48.9948 26.9726 49.5761 26.8028 50.2828 26.8028C50.6323 26.8028 50.9476 26.8414 51.2288 26.9186C51.5099 26.9958 51.7341 27.0807 51.9012 27.1734V26.8723C51.9012 26.5943 51.829 26.3473 51.6847 26.1311C51.5479 25.9072 51.3617 25.7373 51.1262 25.6215C50.8906 25.498 50.6361 25.4362 50.3626 25.4362C49.7167 25.4362 49.2228 25.7026 48.8809 26.2353L48.0716 25.691C48.3072 25.3359 48.6187 25.0618 49.0062 24.8688C49.3938 24.668 49.8307 24.5677 50.317 24.5677C51.092 24.5677 51.7037 24.78 52.152 25.2046C52.6003 25.6292 52.8244 26.2006 52.8244 26.9186V30.4971H51.9012V29.6517H51.8556C51.6733 29.9451 51.4263 30.1921 51.1148 30.3928C50.8033 30.5859 50.4423 30.6824 50.032 30.6824ZM50.1118 29.8138C50.4157 29.8138 50.7045 29.7327 50.978 29.5706C51.2516 29.4085 51.4719 29.1884 51.6391 28.9105C51.8138 28.6326 51.9012 28.3314 51.9012 28.0072C51.4757 27.7292 50.9856 27.5903 50.4309 27.5903C49.9522 27.5903 49.5685 27.7022 49.2798 27.9261C48.9986 28.1423 48.8581 28.4202 48.8581 28.7599C48.8581 29.0688 48.9834 29.3235 49.2342 29.5243C49.4849 29.7173 49.7775 29.8138 50.1118 29.8138Z" fill="#656C73"/>
<path d="M56.2174 30.5897C55.9895 30.5897 55.7767 30.5511 55.5792 30.4739C55.3892 30.3967 55.2259 30.2925 55.0891 30.1612C54.9371 30.0145 54.8231 29.8447 54.7472 29.6517C54.6788 29.4509 54.6446 29.2155 54.6446 28.9452V25.6447H53.6416V24.753H54.6446V23.039H55.602V24.753H56.9925V25.6447H55.602V28.702C55.602 29.0263 55.6666 29.2656 55.7957 29.4201C55.9249 29.5899 56.1225 29.6748 56.3884 29.6748C56.624 29.6748 56.8291 29.6208 57.0039 29.5127V30.4623C56.8823 30.5087 56.7645 30.5395 56.6506 30.555C56.5442 30.5781 56.3998 30.5897 56.2174 30.5897Z" fill="#656C73"/>
<path d="M58.7509 23.5485C58.561 23.5485 58.3976 23.4791 58.2608 23.3401C58.124 23.2011 58.0557 23.0351 58.0557 22.8421C58.0557 22.6491 58.124 22.4831 58.2608 22.3441C58.3976 22.2052 58.561 22.1357 58.7509 22.1357C58.9409 22.1357 59.1042 22.2052 59.241 22.3441C59.3778 22.4831 59.4462 22.6491 59.4462 22.8421C59.4462 23.0351 59.3778 23.2011 59.241 23.3401C59.1118 23.4791 58.9485 23.5485 58.7509 23.5485ZM58.2722 24.753H59.2296V30.4971H58.2722V24.753Z" fill="#656C73"/>
<path d="M63.2501 30.6824C62.6954 30.6824 62.1977 30.5511 61.757 30.2886C61.3163 30.0184 60.9706 29.6517 60.7199 29.1884C60.4767 28.7175 60.3551 28.1963 60.3551 27.625C60.3551 27.0537 60.4767 26.5364 60.7199 26.0732C60.9706 25.6022 61.3163 25.2355 61.757 24.973C62.1977 24.7028 62.6954 24.5677 63.2501 24.5677C63.8048 24.5677 64.3025 24.7028 64.7432 24.973C65.1915 25.2355 65.5372 25.6022 65.7804 26.0732C66.0311 26.5364 66.1565 27.0537 66.1565 27.625C66.1565 28.1963 66.0311 28.7175 65.7804 29.1884C65.5372 29.6517 65.1915 30.0184 64.7432 30.2886C64.3025 30.5511 63.8048 30.6824 63.2501 30.6824ZM63.2501 29.7906C63.592 29.7906 63.9112 29.7019 64.2075 29.5243C64.5039 29.3467 64.7394 29.0958 64.9142 28.7715C65.0965 28.4395 65.1877 28.0574 65.1877 27.625C65.1877 27.1927 65.0965 26.8144 64.9142 26.4901C64.7394 26.1581 64.5039 25.9033 64.2075 25.7258C63.9112 25.5482 63.592 25.4594 63.2501 25.4594C62.9158 25.4594 62.6005 25.5482 62.3041 25.7258C62.0078 25.9033 61.7684 26.1581 61.5861 26.4901C61.4113 26.8144 61.3239 27.1927 61.3239 27.625C61.3239 28.0574 61.4113 28.4395 61.5861 28.7715C61.7684 29.0958 62.0078 29.3467 62.3041 29.5243C62.6005 29.7019 62.9158 29.7906 63.2501 29.7906Z" fill="#656C73"/>
<path d="M67.1411 24.753H68.0643V25.6099H68.1099C68.2694 25.3166 68.5202 25.0695 68.8621 24.8688C69.204 24.668 69.5687 24.5677 69.9563 24.5677C70.6477 24.5677 71.172 24.7723 71.5291 25.1815C71.8939 25.5906 72.0762 26.1504 72.0762 26.8607V30.4971H71.1188V27.0112C71.1188 25.9767 70.6439 25.4594 69.6941 25.4594C69.3902 25.4594 69.1166 25.5482 68.8735 25.7258C68.6303 25.9033 68.4404 26.1349 68.3036 26.4206C68.1744 26.7063 68.1099 27.0074 68.1099 27.3239V30.4971H67.1411V24.753Z" fill="#656C73"/>
<path d="M75.2314 30.6824C74.8211 30.6824 74.4488 30.6013 74.1144 30.4392C73.7877 30.2693 73.5294 30.0377 73.3394 29.7443C73.157 29.4432 73.0658 29.1074 73.0658 28.7368C73.0658 28.1269 73.29 27.652 73.7383 27.3123C74.1942 26.9726 74.7755 26.8028 75.4821 26.8028C75.8317 26.8028 76.147 26.8414 76.4281 26.9186C76.7093 26.9958 76.9334 27.0807 77.1006 27.1734V26.8723C77.1006 26.5943 77.0284 26.3473 76.884 26.1311C76.7473 25.9072 76.5611 25.7373 76.3256 25.6215C76.09 25.498 75.8355 25.4362 75.5619 25.4362C74.9161 25.4362 74.4222 25.7026 74.0802 26.2353L73.271 25.691C73.5066 25.3359 73.8181 25.0618 74.2056 24.8688C74.5931 24.668 75.03 24.5677 75.5163 24.5677C76.2914 24.5677 76.903 24.78 77.3513 25.2046C77.7997 25.6292 78.0238 26.2006 78.0238 26.9186V30.4971H77.1006V29.6517H77.055C76.8727 29.9451 76.6257 30.1921 76.3142 30.3928C76.0026 30.5859 75.6417 30.6824 75.2314 30.6824ZM75.3112 29.8138C75.6151 29.8138 75.9039 29.7327 76.1774 29.5706C76.4509 29.4085 76.6713 29.1884 76.8385 28.9105C77.0132 28.6326 77.1006 28.3314 77.1006 28.0072C76.6751 27.7292 76.185 27.5903 75.6303 27.5903C75.1516 27.5903 74.7679 27.7022 74.4792 27.9261C74.198 28.1423 74.0574 28.4202 74.0574 28.7599C74.0574 29.0688 74.1828 29.3235 74.4336 29.5243C74.6843 29.7173 74.9769 29.8138 75.3112 29.8138Z" fill="#656C73"/>
<path d="M79.3512 22.2052H80.32V30.4971H79.3512V22.2052Z" fill="#656C73"/>
<path d="M84.5759 22.2052H85.5447V30.4971H84.5759V22.2052Z" fill="#656C73"/>
<path d="M87.1536 24.753H88.0768V25.6099H88.1224C88.282 25.3166 88.5327 25.0695 88.8747 24.8688C89.2166 24.668 89.5813 24.5677 89.9688 24.5677C90.6603 24.5677 91.1846 24.7723 91.5417 25.1815C91.9064 25.5906 92.0888 26.1504 92.0888 26.8607V30.4971H91.1314V27.0112C91.1314 25.9767 90.6565 25.4594 89.7067 25.4594C89.4028 25.4594 89.1292 25.5482 88.8861 25.7258C88.6429 25.9033 88.453 26.1349 88.3162 26.4206C88.187 26.7063 88.1224 27.0074 88.1224 27.3239V30.4971H87.1536V24.753Z" fill="#656C73"/>
<path d="M95.4035 30.6824C94.8033 30.6824 94.2942 30.528 93.8763 30.2191C93.4584 29.9103 93.1658 29.5281 92.9986 29.0726L93.8535 28.6905C94.0054 29.0533 94.2182 29.3313 94.4917 29.5243C94.7729 29.7173 95.0768 29.8138 95.4035 29.8138C95.7683 29.8138 96.0684 29.7327 96.304 29.5706C96.5471 29.4085 96.6687 29.2116 96.6687 28.98C96.6687 28.7561 96.5775 28.5708 96.3951 28.4241C96.2204 28.2774 95.9164 28.15 95.4833 28.0419L94.7083 27.8451C94.2828 27.7447 93.9181 27.5633 93.6141 27.3008C93.3178 27.0383 93.1696 26.6908 93.1696 26.2585C93.1696 25.9033 93.2684 25.5984 93.466 25.3436C93.6711 25.0888 93.9408 24.8958 94.2752 24.7645C94.6095 24.6333 94.9742 24.5677 95.3693 24.5677C95.8556 24.5677 96.2964 24.6835 96.6915 24.9151C97.0942 25.139 97.3791 25.4594 97.5463 25.8763L96.6915 26.2469C96.5699 25.969 96.3837 25.7644 96.133 25.6331C95.8898 25.5019 95.6163 25.4362 95.3124 25.4362C95.016 25.4362 94.7463 25.5096 94.5031 25.6563C94.2676 25.803 94.1498 25.9921 94.1498 26.2237C94.1498 26.4245 94.2258 26.5827 94.3778 26.6985C94.5373 26.8144 94.7881 26.9186 95.13 27.0112L95.9734 27.2197C96.5357 27.3664 96.9536 27.5864 97.2272 27.8798C97.5083 28.1655 97.6489 28.509 97.6489 28.9105C97.6489 29.2425 97.5539 29.5436 97.3639 29.8138C97.174 30.084 96.908 30.2963 96.5661 30.4508C96.2242 30.6052 95.8367 30.6824 95.4035 30.6824Z" fill="#656C73"/>
<path d="M100.806 30.5897C100.578 30.5897 100.365 30.5511 100.168 30.4739C99.9779 30.3967 99.8145 30.2925 99.6777 30.1612C99.5258 30.0145 99.4118 29.8447 99.3358 29.6517C99.2674 29.4509 99.2332 29.2155 99.2332 28.9452V25.6447H98.2302V24.753H99.2332V23.039H100.191V24.753H101.581V25.6447H100.191V28.702C100.191 29.0263 100.255 29.2656 100.384 29.4201C100.514 29.5899 100.711 29.6748 100.977 29.6748C101.213 29.6748 101.418 29.6208 101.593 29.5127V30.4623C101.471 30.5087 101.353 30.5395 101.239 30.555C101.133 30.5781 100.988 30.5897 100.806 30.5897Z" fill="#656C73"/>
<path d="M103.34 23.5485C103.15 23.5485 102.986 23.4791 102.849 23.3401C102.713 23.2011 102.644 23.0351 102.644 22.8421C102.644 22.6491 102.713 22.4831 102.849 22.3441C102.986 22.2052 103.15 22.1357 103.34 22.1357C103.53 22.1357 103.693 22.2052 103.83 22.3441C103.966 22.4831 104.035 22.6491 104.035 22.8421C104.035 23.0351 103.966 23.2011 103.83 23.3401C103.7 23.4791 103.537 23.5485 103.34 23.5485ZM102.861 24.753H103.818V30.4971H102.861V24.753Z" fill="#656C73"/>
<path d="M107.44 30.5897C107.212 30.5897 106.999 30.5511 106.802 30.4739C106.612 30.3967 106.448 30.2925 106.311 30.1612C106.16 30.0145 106.046 29.8447 105.97 29.6517C105.901 29.4509 105.867 29.2155 105.867 28.9452V25.6447H104.864V24.753H105.867V23.039H106.824V24.753H108.215V25.6447H106.824V28.702C106.824 29.0263 106.889 29.2656 107.018 29.4201C107.147 29.5899 107.345 29.6748 107.611 29.6748C107.846 29.6748 108.052 29.6208 108.226 29.5127V30.4623C108.105 30.5087 107.987 30.5395 107.873 30.555C107.767 30.5781 107.622 30.5897 107.44 30.5897Z" fill="#656C73"/>
<path d="M111.434 30.6824C110.734 30.6824 110.203 30.4778 109.838 30.0686C109.481 29.6594 109.302 29.0919 109.302 28.3662V24.753H110.271V28.2041C110.271 29.2618 110.738 29.7906 111.673 29.7906C111.984 29.7906 112.262 29.7019 112.505 29.5243C112.756 29.3467 112.946 29.1151 113.075 28.8294C113.212 28.5438 113.28 28.2427 113.28 27.9261V24.753H114.237V30.4971H113.326V29.6401H113.28C113.113 29.9335 112.858 30.1805 112.516 30.3813C112.182 30.582 111.821 30.6824 111.434 30.6824Z" fill="#656C73"/>
<path d="M117.891 30.5897C117.663 30.5897 117.451 30.5511 117.253 30.4739C117.063 30.3967 116.9 30.2925 116.763 30.1612C116.611 30.0145 116.497 29.8447 116.421 29.6517C116.353 29.4509 116.318 29.2155 116.318 28.9452V25.6447H115.316V24.753H116.318V23.039H117.276V24.753H118.666V25.6447H117.276V28.702C117.276 29.0263 117.34 29.2656 117.47 29.4201C117.599 29.5899 117.796 29.6748 118.062 29.6748C118.298 29.6748 118.503 29.6208 118.678 29.5127V30.4623C118.556 30.5087 118.438 30.5395 118.324 30.555C118.218 30.5781 118.074 30.5897 117.891 30.5897Z" fill="#656C73"/>
<path d="M122.062 30.6824C121.515 30.6824 121.025 30.5511 120.592 30.2886C120.166 30.0261 119.832 29.6633 119.589 29.2C119.346 28.7368 119.224 28.2118 119.224 27.625C119.224 27.0691 119.338 26.5596 119.566 26.0963C119.794 25.6254 120.117 25.2548 120.535 24.9846C120.96 24.7066 121.447 24.5677 121.994 24.5677C122.541 24.5677 123.02 24.6951 123.43 24.9498C123.848 25.1969 124.167 25.5482 124.387 26.0037C124.608 26.4592 124.718 26.9842 124.718 27.5787C124.718 27.6868 124.71 27.764 124.695 27.8103H120.204C120.22 28.2427 120.322 28.6094 120.512 28.9105C120.702 29.2039 120.938 29.4239 121.219 29.5706C121.507 29.7173 121.804 29.7906 122.108 29.7906C122.822 29.7906 123.373 29.4355 123.76 28.7252L124.615 29.1421C124.372 29.6053 124.034 29.9798 123.601 30.2655C123.175 30.5434 122.662 30.6824 122.062 30.6824ZM123.692 26.9881C123.677 26.7565 123.612 26.5248 123.498 26.2932C123.384 26.0616 123.198 25.8647 122.94 25.7026C122.689 25.5405 122.366 25.4594 121.971 25.4594C121.545 25.4594 121.177 25.5984 120.865 25.8763C120.554 26.1542 120.356 26.5248 120.273 26.9881H123.692Z" fill="#656C73"/>
<path d="M131.035 30.6824C130.48 30.6824 129.982 30.5511 129.542 30.2886C129.101 30.0184 128.755 29.6517 128.504 29.1884C128.261 28.7175 128.14 28.1963 128.14 27.625C128.14 27.0537 128.261 26.5364 128.504 26.0732C128.755 25.6022 129.101 25.2355 129.542 24.973C129.982 24.7028 130.48 24.5677 131.035 24.5677C131.589 24.5677 132.087 24.7028 132.528 24.973C132.976 25.2355 133.322 25.6022 133.565 26.0732C133.816 26.5364 133.941 27.0537 133.941 27.625C133.941 28.1963 133.816 28.7175 133.565 29.1884C133.322 29.6517 132.976 30.0184 132.528 30.2886C132.087 30.5511 131.589 30.6824 131.035 30.6824ZM131.035 29.7906C131.377 29.7906 131.696 29.7019 131.992 29.5243C132.288 29.3467 132.524 29.0958 132.699 28.7715C132.881 28.4395 132.972 28.0574 132.972 27.625C132.972 27.1927 132.881 26.8144 132.699 26.4901C132.524 26.1581 132.288 25.9033 131.992 25.7258C131.696 25.5482 131.377 25.4594 131.035 25.4594C130.7 25.4594 130.385 25.5482 130.089 25.7258C129.792 25.9033 129.553 26.1581 129.371 26.4901C129.196 26.8144 129.108 27.1927 129.108 27.625C129.108 28.0574 129.196 28.4395 129.371 28.7715C129.553 29.0958 129.792 29.3467 130.089 29.5243C130.385 29.7019 130.7 29.7906 131.035 29.7906Z" fill="#656C73"/>
<path d="M135.531 25.6447H134.471V24.753H135.531V23.9539C135.531 23.5833 135.611 23.259 135.77 22.9811C135.938 22.7031 136.158 22.4908 136.431 22.3441C136.713 22.1897 137.024 22.1125 137.366 22.1125C137.556 22.1125 137.708 22.1241 137.822 22.1473C137.943 22.1704 138.069 22.2052 138.198 22.2515V23.2127C137.955 23.0892 137.689 23.0274 137.4 23.0274C137.149 23.0274 136.937 23.1201 136.762 23.3053C136.587 23.4829 136.5 23.7338 136.5 24.0581V24.753H137.959V25.6447H136.5V30.4971H135.531V25.6447Z" fill="#656C73"/>
<path d="M143.162 23.1432H140.871V22.2052H146.41V23.1432H144.119V30.4971H143.162V23.1432Z" fill="#656C73"/>
<path d="M149.02 30.6824C148.473 30.6824 147.983 30.5511 147.55 30.2886C147.124 30.0261 146.79 29.6633 146.547 29.2C146.304 28.7368 146.182 28.2118 146.182 27.625C146.182 27.0691 146.296 26.5596 146.524 26.0963C146.752 25.6254 147.075 25.2548 147.493 24.9846C147.918 24.7066 148.405 24.5677 148.952 24.5677C149.499 24.5677 149.978 24.6951 150.388 24.9498C150.806 25.1969 151.125 25.5482 151.345 26.0037C151.566 26.4592 151.676 26.9842 151.676 27.5787C151.676 27.6868 151.668 27.764 151.653 27.8103H147.162C147.178 28.2427 147.28 28.6094 147.47 28.9105C147.66 29.2039 147.896 29.4239 148.177 29.5706C148.465 29.7173 148.762 29.7906 149.066 29.7906C149.78 29.7906 150.331 29.4355 150.718 28.7252L151.573 29.1421C151.33 29.6053 150.992 29.9798 150.559 30.2655C150.133 30.5434 149.62 30.6824 149.02 30.6824ZM150.65 26.9881C150.635 26.7565 150.57 26.5248 150.456 26.2932C150.342 26.0616 150.156 25.8647 149.898 25.7026C149.647 25.5405 149.324 25.4594 148.929 25.4594C148.503 25.4594 148.135 25.5984 147.823 25.8763C147.512 26.1542 147.314 26.5248 147.231 26.9881H150.65Z" fill="#656C73"/>
<path d="M155.388 30.6824C154.841 30.6824 154.347 30.5511 153.906 30.2886C153.465 30.0184 153.12 29.6517 152.869 29.1884C152.626 28.7175 152.504 28.1963 152.504 27.625C152.504 27.046 152.626 26.5248 152.869 26.0616C153.12 25.5984 153.465 25.2355 153.906 24.973C154.347 24.7028 154.841 24.5677 155.388 24.5677C156.003 24.5677 156.52 24.7182 156.938 25.0193C157.356 25.3204 157.66 25.7103 157.85 26.189L156.972 26.5712C156.668 25.83 156.121 25.4594 155.331 25.4594C155.012 25.4594 154.708 25.552 154.419 25.7373C154.138 25.9149 153.91 26.1697 153.735 26.5017C153.56 26.8259 153.473 27.2004 153.473 27.625C153.473 28.0419 153.56 28.4164 153.735 28.7484C153.91 29.0803 154.138 29.339 154.419 29.5243C154.708 29.7019 155.012 29.7906 155.331 29.7906C155.734 29.7906 156.079 29.6941 156.368 29.5011C156.657 29.3081 156.873 29.034 157.018 28.6789L157.873 29.0495C157.683 29.5281 157.375 29.9219 156.949 30.2307C156.524 30.5318 156.003 30.6824 155.388 30.6824Z" fill="#656C73"/>
<path d="M158.901 22.2052H159.869V24.7993L159.824 25.6215H159.869C160.029 25.3204 160.276 25.0695 160.61 24.8688C160.952 24.668 161.321 24.5677 161.716 24.5677C162.422 24.5677 162.954 24.7761 163.311 25.193C163.669 25.6099 163.847 26.1658 163.847 26.8607V30.4971H162.89V27.0112C162.89 26.4785 162.761 26.0886 162.502 25.8416C162.252 25.5868 161.913 25.4594 161.488 25.4594C161.184 25.4594 160.907 25.552 160.656 25.7373C160.413 25.9149 160.219 26.1542 160.075 26.4553C159.938 26.7487 159.869 27.0537 159.869 27.3702V30.4971H158.901V22.2052Z" fill="#656C73"/>
<path d="M165.212 24.753H166.135V25.6099H166.18C166.34 25.3166 166.591 25.0695 166.933 24.8688C167.275 24.668 167.639 24.5677 168.027 24.5677C168.718 24.5677 169.243 24.7723 169.6 25.1815C169.964 25.5906 170.147 26.1504 170.147 26.8607V30.4971H169.189V27.0112C169.189 25.9767 168.714 25.4594 167.765 25.4594C167.461 25.4594 167.187 25.5482 166.944 25.7258C166.701 25.9033 166.511 26.1349 166.374 26.4206C166.245 26.7063 166.18 27.0074 166.18 27.3239V30.4971H165.212V24.753Z" fill="#656C73"/>
<path d="M174.098 30.6824C173.544 30.6824 173.046 30.5511 172.605 30.2886C172.165 30.0184 171.819 29.6517 171.568 29.1884C171.325 28.7175 171.203 28.1963 171.203 27.625C171.203 27.0537 171.325 26.5364 171.568 26.0732C171.819 25.6022 172.165 25.2355 172.605 24.973C173.046 24.7028 173.544 24.5677 174.098 24.5677C174.653 24.5677 175.151 24.7028 175.592 24.973C176.04 25.2355 176.386 25.6022 176.629 26.0732C176.879 26.5364 177.005 27.0537 177.005 27.625C177.005 28.1963 176.879 28.7175 176.629 29.1884C176.386 29.6517 176.04 30.0184 175.592 30.2886C175.151 30.5511 174.653 30.6824 174.098 30.6824ZM174.098 29.7906C174.44 29.7906 174.759 29.7019 175.056 29.5243C175.352 29.3467 175.588 29.0958 175.762 28.7715C175.945 28.4395 176.036 28.0574 176.036 27.625C176.036 27.1927 175.945 26.8144 175.762 26.4901C175.588 26.1581 175.352 25.9033 175.056 25.7258C174.759 25.5482 174.44 25.4594 174.098 25.4594C173.764 25.4594 173.449 25.5482 173.152 25.7258C172.856 25.9033 172.617 26.1581 172.434 26.4901C172.26 26.8144 172.172 27.1927 172.172 27.625C172.172 28.0574 172.26 28.4395 172.434 28.7715C172.617 29.0958 172.856 29.3467 173.152 29.5243C173.449 29.7019 173.764 29.7906 174.098 29.7906Z" fill="#656C73"/>
<path d="M178.045 22.2052H179.014V30.4971H178.045V22.2052Z" fill="#656C73"/>
<path d="M182.947 30.6824C182.392 30.6824 181.895 30.5511 181.454 30.2886C181.013 30.0184 180.668 29.6517 180.417 29.1884C180.174 28.7175 180.052 28.1963 180.052 27.625C180.052 27.0537 180.174 26.5364 180.417 26.0732C180.668 25.6022 181.013 25.2355 181.454 24.973C181.895 24.7028 182.392 24.5677 182.947 24.5677C183.502 24.5677 184 24.7028 184.44 24.973C184.889 25.2355 185.234 25.6022 185.477 26.0732C185.728 26.5364 185.854 27.0537 185.854 27.625C185.854 28.1963 185.728 28.7175 185.477 29.1884C185.234 29.6517 184.889 30.0184 184.44 30.2886C184 30.5511 183.502 30.6824 182.947 30.6824ZM182.947 29.7906C183.289 29.7906 183.608 29.7019 183.905 29.5243C184.201 29.3467 184.436 29.0958 184.611 28.7715C184.794 28.4395 184.885 28.0574 184.885 27.625C184.885 27.1927 184.794 26.8144 184.611 26.4901C184.436 26.1581 184.201 25.9033 183.905 25.7258C183.608 25.5482 183.289 25.4594 182.947 25.4594C182.613 25.4594 182.297 25.5482 182.001 25.7258C181.705 25.9033 181.465 26.1581 181.283 26.4901C181.108 26.8144 181.021 27.1927 181.021 27.625C181.021 28.0574 181.108 28.4395 181.283 28.7715C181.465 29.0958 181.705 29.3467 182.001 29.5243C182.297 29.7019 182.613 29.7906 182.947 29.7906Z" fill="#656C73"/>
<path d="M189.434 33.1838C188.75 33.1838 188.192 33.0178 187.759 32.6859C187.326 32.3539 187.033 31.9678 186.881 31.5278L187.781 31.1456C187.895 31.4853 188.097 31.7594 188.385 31.9678C188.682 32.184 189.031 32.2921 189.434 32.2921C190.034 32.2921 190.494 32.1107 190.813 31.7478C191.14 31.3927 191.303 30.8947 191.303 30.2539V29.6401H191.258C191.075 29.9335 190.813 30.1767 190.471 30.3697C190.129 30.5627 189.742 30.6592 189.309 30.6592C188.83 30.6592 188.385 30.528 187.975 30.2655C187.565 30.003 187.238 29.6401 186.995 29.1769C186.752 28.7136 186.63 28.1925 186.63 27.6134C186.63 27.0344 186.752 26.5133 186.995 26.05C187.238 25.5868 187.565 25.2239 187.975 24.9614C188.385 24.6989 188.83 24.5677 189.309 24.5677C189.742 24.5677 190.129 24.6642 190.471 24.8572C190.813 25.0502 191.075 25.2934 191.258 25.5868H191.303V24.753H192.226V30.2655C192.226 30.8985 192.105 31.4351 191.862 31.8752C191.619 32.3153 191.284 32.6434 190.859 32.8596C190.441 33.0758 189.966 33.1838 189.434 33.1838ZM189.457 29.7675C189.791 29.7675 190.099 29.6826 190.38 29.5127C190.661 29.3351 190.885 29.0842 191.053 28.7599C191.227 28.4357 191.315 28.0535 191.315 27.6134C191.315 27.1734 191.227 26.7912 191.053 26.4669C190.885 26.1349 190.661 25.884 190.38 25.7142C190.099 25.5443 189.791 25.4594 189.457 25.4594C189.123 25.4594 188.815 25.5482 188.534 25.7258C188.253 25.8956 188.025 26.1427 187.85 26.4669C187.683 26.7912 187.599 27.1734 187.599 27.6134C187.599 28.0535 187.683 28.4357 187.85 28.7599C188.025 29.0842 188.253 29.3351 188.534 29.5127C188.815 29.6826 189.123 29.7675 189.457 29.7675Z" fill="#656C73"/>
<path d="M195.371 30.1265L193.023 24.753H194.072L195.827 28.98H195.85L197.548 24.753H198.596L195.063 32.9985H194.072L195.371 30.1265Z" fill="#656C73"/>
<path d="M202.225 22.2052H204.972C205.428 22.2052 205.849 22.3094 206.237 22.5178C206.632 22.7263 206.944 23.0197 207.171 23.398C207.407 23.7686 207.525 24.1894 207.525 24.6603C207.525 25.1313 207.407 25.5559 207.171 25.9342C206.944 26.3048 206.632 26.5943 206.237 26.8028C205.849 27.0112 205.428 27.1155 204.972 27.1155H203.194V30.4971H202.225V22.2052ZM205.006 26.1774C205.31 26.1774 205.576 26.1041 205.804 25.9574C206.039 25.8107 206.218 25.6215 206.339 25.3899C206.469 25.1583 206.533 24.9151 206.533 24.6603C206.533 24.4055 206.469 24.1623 206.339 23.9307C206.218 23.6991 206.039 23.5099 205.804 23.3633C205.576 23.2166 205.31 23.1432 205.006 23.1432H203.194V26.1774H205.006Z" fill="#656C73"/>
<path d="M210.188 30.6824C209.778 30.6824 209.406 30.6013 209.071 30.4392C208.745 30.2693 208.486 30.0377 208.296 29.7443C208.114 29.4432 208.023 29.1074 208.023 28.7368C208.023 28.1269 208.247 27.652 208.695 27.3123C209.151 26.9726 209.732 26.8028 210.439 26.8028C210.789 26.8028 211.104 26.8414 211.385 26.9186C211.666 26.9958 211.89 27.0807 212.057 27.1734V26.8723C212.057 26.5943 211.985 26.3473 211.841 26.1311C211.704 25.9072 211.518 25.7373 211.282 25.6215C211.047 25.498 210.792 25.4362 210.519 25.4362C209.873 25.4362 209.379 25.7026 209.037 26.2353L208.228 25.691C208.463 25.3359 208.775 25.0618 209.163 24.8688C209.55 24.668 209.987 24.5677 210.473 24.5677C211.248 24.5677 211.86 24.78 212.308 25.2046C212.757 25.6292 212.981 26.2006 212.981 26.9186V30.4971H212.057V29.6517H212.012C211.83 29.9451 211.583 30.1921 211.271 30.3928C210.96 30.5859 210.599 30.6824 210.188 30.6824ZM210.268 29.8138C210.572 29.8138 210.861 29.7327 211.134 29.5706C211.408 29.4085 211.628 29.1884 211.795 28.9105C211.97 28.6326 212.057 28.3314 212.057 28.0072C211.632 27.7292 211.142 27.5903 210.587 27.5903C210.109 27.5903 209.725 27.7022 209.436 27.9261C209.155 28.1423 209.014 28.4202 209.014 28.7599C209.014 29.0688 209.14 29.3235 209.39 29.5243C209.641 29.7173 209.934 29.8138 210.268 29.8138Z" fill="#656C73"/>
<path d="M216.374 30.5897C216.146 30.5897 215.933 30.5511 215.735 30.4739C215.545 30.3967 215.382 30.2925 215.245 30.1612C215.093 30.0145 214.979 29.8447 214.903 29.6517C214.835 29.4509 214.801 29.2155 214.801 28.9452V25.6447H213.798V24.753H214.801V23.039H215.758V24.753H217.149V25.6447H215.758V28.702C215.758 29.0263 215.823 29.2656 215.952 29.4201C216.081 29.5899 216.279 29.6748 216.545 29.6748C216.78 29.6748 216.985 29.6208 217.16 29.5127V30.4623C217.039 30.5087 216.921 30.5395 216.807 30.555C216.7 30.5781 216.556 30.5897 216.374 30.5897Z" fill="#656C73"/>
<path d="M218.337 24.753H219.261V25.6099H219.306C219.466 25.3166 219.716 25.0695 220.058 24.8688C220.4 24.668 220.765 24.5677 221.153 24.5677C221.844 24.5677 222.368 24.7723 222.725 25.1815C223.09 25.5906 223.272 26.1504 223.272 26.8607V30.4971H222.315V27.0112C222.315 25.9767 221.84 25.4594 220.89 25.4594C220.586 25.4594 220.313 25.5482 220.07 25.7258C219.827 25.9033 219.637 26.1349 219.5 26.4206C219.371 26.7063 219.306 27.0074 219.306 27.3239V30.4971H218.337V24.753Z" fill="#656C73"/>
<path d="M226.428 30.6824C226.017 30.6824 225.645 30.6013 225.311 30.4392C224.984 30.2693 224.726 30.0377 224.536 29.7443C224.353 29.4432 224.262 29.1074 224.262 28.7368C224.262 28.1269 224.486 27.652 224.935 27.3123C225.39 26.9726 225.972 26.8028 226.678 26.8028C227.028 26.8028 227.343 26.8414 227.624 26.9186C227.906 26.9958 228.13 27.0807 228.297 27.1734V26.8723C228.297 26.5943 228.225 26.3473 228.08 26.1311C227.944 25.9072 227.757 25.7373 227.522 25.6215C227.286 25.498 227.032 25.4362 226.758 25.4362C226.112 25.4362 225.618 25.7026 225.276 26.2353L224.467 25.691C224.703 25.3359 225.014 25.0618 225.402 24.8688C225.789 24.668 226.226 24.5677 226.713 24.5677C227.488 24.5677 228.099 24.78 228.548 25.2046C228.996 25.6292 229.22 26.2006 229.22 26.9186V30.4971H228.297V29.6517H228.251C228.069 29.9451 227.822 30.1921 227.51 30.3928C227.199 30.5859 226.838 30.6824 226.428 30.6824ZM226.507 29.8138C226.811 29.8138 227.1 29.7327 227.374 29.5706C227.647 29.4085 227.868 29.1884 228.035 28.9105C228.209 28.6326 228.297 28.3314 228.297 28.0072C227.871 27.7292 227.381 27.5903 226.827 27.5903C226.348 27.5903 225.964 27.7022 225.675 27.9261C225.394 28.1423 225.254 28.4202 225.254 28.7599C225.254 29.0688 225.379 29.3235 225.63 29.5243C225.881 29.7173 226.173 29.8138 226.507 29.8138Z" fill="#656C73"/>
</g>
<defs>
<clipPath id="clip0_56:2">
<rect width="270" height="34" fill="white"/>
</clipPath>
</defs>
</svg>
