<svg  viewBox="0 0 738 534" fill="none" xmlns="http://www.w3.org/2000/svg">
<g filter="url(#filter0_d_309:164)">
<path d="M29.4417 490.962C29.4417 490.962 40.4449 491.249 44.0808 492.586C47.7166 493.924 50.7784 490.58 54.0315 490.962C57.3803 491.249 58.3372 492.3 61.3989 492.968C64.365 493.637 72.4022 492.586 75.0812 490.962C77.7603 489.338 93.0691 489.338 97.3747 484.657C101.68 479.977 104.742 468.322 107.038 468.991C109.335 469.659 113.353 472.621 113.736 473.958C114.023 475.296 114.693 480.072 115.745 481.027C116.702 481.983 118.424 486.568 119.764 487.619C121.103 488.574 118.424 490.676 119.764 493.159C121.103 495.643 123.4 496.98 123.4 496.98C123.4 496.98 127.418 493.637 127.418 490.962C127.418 488.287 129.045 486.281 129.715 488.67C130.384 491.058 131.15 492.395 133.351 491.822C135.551 491.249 134.499 489.816 133.351 488.861C132.202 487.905 131.15 484.944 132.681 484.753C134.212 484.562 135.551 485.899 137.082 486.759C138.613 487.619 138.709 487.046 139.474 485.613C140.24 484.18 141.675 485.422 142.919 486.568C144.162 487.714 144.354 490.676 145.311 486.377C146.267 482.078 146.554 481.218 148.468 482.938C150.382 484.657 156.41 491.535 154.974 493.446C153.539 495.356 149.425 495.643 148.659 496.885C147.894 498.127 149.138 501.279 150.669 501.279C152.2 501.279 155.453 503.572 154.305 504.336C153.156 505.1 156.314 509.495 159.28 510.163C162.246 510.832 165.021 510.354 165.021 511.787C165.021 513.22 167.03 515.035 168.37 515.226C169.709 515.417 167.987 519.143 168.37 520.003C168.752 520.862 171.144 519.143 172.675 519.334C174.206 519.525 176.12 520.767 176.885 521.913C177.555 523.06 178.512 524.684 178.512 526.212C178.512 527.74 179.564 527.454 180.617 524.779C181.669 522.104 181.382 520.194 183.391 519.143C185.496 518.092 182.243 517.997 183.391 515.417C184.54 512.934 183.87 511.596 186.932 511.692C189.993 511.883 189.132 510.259 190.185 507.68C191.237 505.196 190.95 506.533 193.533 507.106C196.213 507.68 197.265 506.533 199.561 507.68C201.953 508.826 203.389 509.781 204.154 508.73C204.919 507.68 205.494 507.011 205.876 504.432C206.355 501.948 205.015 501.661 207.024 499.56C209.034 497.458 212.478 497.84 213.818 496.789C215.157 495.739 214.87 493.733 216.497 492.395C218.123 491.058 220.037 493.255 221.472 490.962C222.907 488.574 226.065 485.995 227.787 487.905C229.509 489.816 227.978 495.548 228.552 497.84C229.127 500.133 232.38 498.413 234.198 497.84C235.92 497.267 237.259 497.458 237.259 502.712C237.259 507.966 241.278 511.692 242.713 511.978C244.148 512.265 251.803 512.265 251.803 508.635C251.803 505.005 254.003 507.011 255.534 505.578C256.97 504.145 259.075 503.19 261.275 504.145C263.476 505.005 263.763 503.667 264.528 502.043C265.294 500.419 266.155 500.611 265.581 504.145C265.007 507.68 263.284 510.354 265.772 510.641C268.26 510.928 268.356 510.832 269.695 508.539C271.035 506.342 274.096 503.858 276.297 503.667C278.498 503.476 281.272 501.566 279.55 499.273C277.828 496.885 275.149 496.025 276.584 495.548C278.019 495.07 284.238 495.548 285.865 494.974C287.492 494.401 291.797 492.586 291.893 490.962C292.084 489.338 293.328 490.676 295.433 490.389C297.538 490.102 296.486 489.052 296.486 487.332C296.486 485.613 299.739 485.708 301.748 485.422C303.853 485.135 307.202 484.657 307.967 483.511C308.733 482.365 310.455 484.084 312.081 483.033C313.708 481.983 310.359 478.926 312.081 480.072C313.804 481.218 315.048 484.371 320.023 483.32C324.998 482.269 328.538 481.218 328.825 483.511C329.113 485.708 331.313 486.281 332.174 485.231C333.035 484.18 332.94 480.645 334.566 480.359C336.193 480.072 338.298 479.594 337.915 475.678C337.628 471.666 342.603 473.194 344.134 474.818C345.57 476.442 352.841 477.779 353.224 475.105C353.607 472.43 354.276 470.519 353.224 468.036C352.171 465.552 349.397 461.253 350.258 459.629C351.119 458.005 357.051 458.292 357.147 454.471C357.243 450.649 358.869 451.414 358.582 449.503C358.295 447.592 358.104 445.777 358.582 444.249C359.156 442.625 360.783 443.103 360.878 440.906C361.07 438.708 361.931 437.371 363.844 438.231C365.758 439.091 365.471 441.192 367.576 441.192C369.681 441.192 374.082 440.906 375.039 439.473C376.092 438.04 382.598 438.613 383.842 441.097C385.181 443.58 388.721 449.885 392.836 450.554C396.95 451.223 397.428 451.414 397.811 449.79C398.289 448.166 399.246 447.401 400.586 447.592C401.925 447.784 400.873 445.395 402.021 444.631C403.169 443.867 406.901 445.777 407.188 443.867C407.475 441.956 409.962 442.816 409.101 444.727C408.24 446.637 404.7 448.452 406.327 448.548C407.953 448.739 413.407 446.637 415.129 449.025C416.851 451.414 420.774 456.19 420.583 461.54C420.392 466.794 418.095 470.233 421.922 471.57C425.75 472.907 424.697 475.391 427.663 475.105C430.629 474.818 430.342 472.907 431.49 473.385C432.639 473.863 434.17 475.869 433.978 473.194C433.787 470.519 432.352 467.94 433.978 468.895C435.605 469.946 435.413 472.907 438.571 473.481C441.728 474.054 441.537 473.767 444.79 473.767C448.043 473.767 448.522 474.531 447.565 477.302C446.608 480.072 446.417 484.18 446.704 486.281C446.991 488.383 445.651 490.676 443.738 491.917C441.824 493.064 445.651 494.115 447.086 495.261C448.522 496.407 450.818 494.974 453.306 496.025C455.793 497.076 455.028 499.273 456.654 500.037C458.281 500.802 461.534 502.999 461.917 504.432C462.395 505.865 465.266 506.629 467.658 507.106C470.05 507.584 471.389 508.539 471.389 505.482C471.389 502.426 470.241 499.846 472.155 499.273C474.068 498.7 475.503 498.222 475.121 494.974C474.642 491.726 474.547 490.58 476.173 486.186C477.8 481.792 480 481.792 482.679 480.932C485.359 480.072 485.167 477.206 485.167 476.251C485.167 475.2 488.707 476.537 488.899 474.34C489.09 472.143 488.325 469.468 490.238 469.755C492.152 470.042 493.204 472.43 495.883 473.863C498.562 475.296 497.988 476.06 500.859 476.251C503.825 476.442 511.958 472.143 512.245 470.615C512.532 469.182 512.053 466.22 514.732 466.507C517.411 466.794 521.239 468.131 521.334 471.092C521.526 474.054 519.899 472.525 521.526 474.054C523.152 475.487 525.544 473.863 525.927 474.531C526.405 475.105 525.64 477.015 526.692 477.015C527.745 477.015 529.659 475.869 530.424 474.914C531.189 474.054 532.051 474.627 533.199 476.251C534.347 477.875 536.739 479.499 536.26 476.538C535.782 473.576 534.538 472.812 534.921 470.806C535.399 468.704 538.174 468.418 538.748 464.883C539.322 461.349 540.853 461.635 542.862 463.164C544.967 464.596 548.89 467.462 549.082 465.838C549.273 464.214 552.143 462.877 552.335 464.214C552.526 465.552 551.761 466.412 553.1 466.985C554.44 467.558 556.927 467.749 556.927 467.749C556.927 467.749 556.162 462.208 558.363 456.095C560.563 449.981 561.903 434.123 563.625 429.442C565.347 424.761 570.705 427.914 570.897 425.526C571.088 423.137 569.557 399.446 572.715 395.53C575.872 391.613 584.866 383.398 586.493 385.499C588.215 387.505 590.798 391.04 590.99 388.461C591.181 385.881 590.224 383.589 592.329 379.003C594.338 374.323 589.363 370.788 594.147 368.591C599.027 366.394 612.231 366.012 611.083 368.591C609.934 371.17 609.743 372.699 611.178 372.699C612.613 372.699 618.928 370.692 617.684 365.056C616.345 359.516 618.641 361.713 619.694 361.331C620.746 360.949 620.459 358.56 618.737 357.223C617.015 355.886 620.268 352.542 620.268 352.542C620.268 352.542 621.512 354.739 623.138 355.121C624.861 355.504 623.904 358.465 625.148 356.936C626.487 355.408 625.722 353.211 626.487 351.491C627.253 349.772 627.444 348.53 630.41 348.339C633.376 348.148 633.95 348.339 634.333 350.345C634.716 352.351 638.256 351.3 640.648 352.064C643.04 352.829 646.197 351.873 647.919 352.064C649.642 352.256 648.494 354.644 649.737 356.172C650.981 357.701 651.747 356.745 652.512 358.56C653.278 360.375 655.287 360.758 656.435 362.668C657.583 364.579 658.636 364.865 661.315 365.438C663.898 366.012 664.472 367.253 666.577 367.253C668.682 367.253 672.701 368.782 670.5 365.916C668.299 363.146 667.917 361.617 669.543 360.662C671.17 359.707 672.892 359.898 672.892 357.51C672.892 355.121 673.275 353.402 670.117 352.256C666.96 351.109 662.846 346.81 662.846 343.658C662.846 340.506 661.028 341.652 660.071 340.123C659.114 338.595 658.731 336.971 659.688 334.583C660.645 332.195 661.028 330.475 661.506 328.278C662.08 326.081 663.037 329.424 663.898 329.615C664.855 329.806 668.395 330.093 668.586 327.514C668.778 324.935 670.309 325.126 671.935 324.935C673.657 324.743 672.701 323.788 672.892 322.164C673.083 320.445 673.083 319.967 674.519 319.203C676.049 318.439 678.729 319.012 679.494 318.534C680.259 318.152 676.815 317.961 677.485 316.624C678.154 315.191 680.259 317.006 680.546 315.764C680.834 314.522 681.408 312.994 684.469 313.28C687.531 313.567 689.636 314.14 690.784 315.955C691.932 317.77 690.21 318.439 693.272 318.916C696.334 319.394 695.664 320.349 696.525 320.731C697.386 321.113 704.084 321.4 703.701 319.012C703.318 316.624 703.701 314.904 701.596 313.949C699.491 312.994 697.099 313.089 697.769 311.752C698.439 310.319 699.874 309.937 698.343 308.408C696.812 306.88 695.664 308.408 696.334 305.351C697.004 302.294 698.152 304.396 698.152 301.817C698.152 299.238 698.056 297.614 699.013 296.181C699.97 294.748 699.108 294.366 698.917 290.736C698.63 287.105 699.874 286.819 697.96 286.628C695.951 286.532 697.291 287.201 694.324 285.768C691.358 284.335 689.54 283.666 687.053 282.234C684.565 280.801 682.843 274.496 681.695 274.496C680.546 274.496 677.198 274.591 677.293 272.681C677.389 270.675 676.145 270.006 677.389 269.146C678.633 268.286 678.059 268.286 677.102 266.949C676.145 265.516 675.762 264.083 678.537 262.937C681.312 261.791 674.327 260.835 670.213 260.167C666.099 259.498 664.281 256.632 663.994 254.435C663.707 252.238 660.836 250.041 663.707 248.99C666.481 247.939 666.099 248.034 666.194 243.64C666.29 239.246 666.577 240.201 667.056 236.189C667.438 232.177 665.907 231.03 667.821 230.839C669.735 230.648 670.691 231.126 672.988 227.974C675.284 224.726 676.337 222.72 677.58 224.152C678.824 225.585 678.729 227.687 680.546 227.496C682.364 227.305 680.164 225.108 681.599 224.726C683.13 224.344 686.096 219.758 685.713 216.128C685.33 212.498 687.531 213.74 689.445 213.167C691.358 212.498 692.219 207.435 694.037 207.722C695.855 207.913 700.257 210.779 701.5 207.722C702.649 204.569 703.892 205.429 705.328 202.468C706.859 199.506 707.815 199.984 708.868 199.984C709.92 199.984 709.155 197.405 710.112 196.163C711.068 194.921 713.269 196.449 716.331 193.87C719.393 191.291 722.263 191.864 722.263 189.189C722.263 186.514 725.038 187.183 725.229 185.464C725.421 183.744 725.229 181.929 727.143 182.311C729.056 182.693 730.874 182.502 730.874 180.687C730.874 178.872 733.84 179.636 732.118 178.299C730.396 176.962 729.439 175.051 727.43 174.956C725.421 174.86 722.263 176.006 722.933 173.236C723.603 170.466 728.865 171.517 727.621 168.651C726.377 165.785 725.803 166.167 725.516 166.071C725.229 165.976 725.803 163.492 723.985 163.492C722.167 163.492 721.019 164.256 721.402 161.677C721.785 159.098 720.349 159.862 718.053 160.435C715.757 161.008 716.331 159.576 716.235 158.811C716.14 158.047 713.365 159.671 714.322 157.761C715.278 155.85 720.349 153.366 721.498 150.882C722.646 148.399 722.454 145.82 719.775 145.628C717.096 145.437 720.828 148.972 719.01 149.45C717.192 150.023 716.044 147.635 714.704 148.972C713.365 150.309 712.121 153.366 710.59 153.462C709.155 153.557 706.763 157.665 706.093 155.372C705.423 153.08 705.71 149.545 703.605 149.067C701.5 148.59 702.84 149.354 702.84 149.354C702.84 149.354 703.797 150.023 703.605 152.506C703.414 155.086 701.5 151.742 701.5 153.462C701.5 155.181 702.17 156.137 702.457 158.238C702.744 160.34 702.649 158.907 702.649 161.582C702.649 164.256 704.849 161.773 702.649 165.212C700.448 168.746 700.544 167.886 699.3 169.988C698.056 172.09 697.673 171.899 696.621 172.663C695.473 173.427 695.76 174.287 694.803 174.478C693.846 174.669 692.985 174.478 692.698 176.58C692.315 178.681 689.732 180.878 688.01 178.777C686.192 176.675 687.627 176.102 686.383 174.765C685.235 173.427 683.895 174.956 683.513 173.714C683.13 172.472 682.46 173.236 680.929 171.517C679.398 169.797 678.346 171.517 677.485 169.033C676.624 166.549 676.145 166.454 674.901 166.071C673.657 165.689 676.624 163.015 674.04 160.722C671.552 158.429 672.509 159.384 670.117 160.722C667.725 162.059 667.056 161.582 667.056 163.779C667.056 165.976 666.577 167.6 664.855 167.409C663.133 167.218 664.472 166.931 662.463 165.116C660.549 163.301 660.262 164.065 658.827 163.683C657.392 163.301 656.818 163.588 656.818 162.441C656.818 161.295 656.435 162.441 655.287 163.97C654.139 165.498 655.574 166.263 655.191 168.269C654.808 170.275 653.469 170.752 653.086 172.09C652.703 173.427 652.416 172.758 650.981 172.376C649.546 171.994 647.728 172.376 646.293 171.326C644.858 170.275 642.37 166.358 640.935 167.6C639.5 168.842 639.978 171.803 638.16 172.281C636.342 172.663 636.629 174.096 636.246 174.573C635.864 175.051 637.299 175.529 633.854 175.911C630.41 176.293 630.219 176.006 629.645 177.344C629.07 178.681 626.104 176.006 625.243 175.433C624.382 174.86 619.407 169.893 616.823 169.893C614.24 169.893 608.021 166.645 606.586 168.842C605.15 171.134 603.715 171.517 600.558 172.09C597.4 172.663 595.487 172.185 594.53 174.478C593.477 176.771 594.051 181.738 592.712 182.407C591.372 183.075 589.363 183.935 587.832 182.789C586.301 181.738 582.952 179.541 582.378 177.248C581.804 174.956 582.283 174.096 581.326 174C580.369 173.905 577.499 172.185 575.681 172.854C573.863 173.523 569.653 175.624 567.07 175.529C564.486 175.433 560.181 173.045 556.927 169.988C553.674 166.836 553.674 168.269 553.674 165.594C553.674 162.919 552.526 146.393 548.89 146.106C545.254 145.82 546.785 148.781 544.872 151.551C542.958 154.322 540.566 156.423 538.844 156.137C537.026 155.754 530.615 156.71 530.328 160.149C529.946 163.588 528.989 162.919 526.501 163.206C524.013 163.492 526.023 165.403 524.205 166.931C522.387 168.364 520.091 171.039 515.402 170.561C510.714 170.084 509.661 167.982 507.748 168.364C505.834 168.746 504.399 173.141 502.581 173.427C500.763 173.714 496.936 172.281 495.692 170.943C494.448 169.606 477.226 161.677 476.078 159.576C474.929 157.474 473.398 156.423 472.92 155.659C472.442 154.895 471.772 153.939 470.337 154.226C468.902 154.513 468.423 155.372 463.543 153.271C458.664 151.169 461.63 150.214 460.195 150.309C458.759 150.405 463.448 153.653 456.08 150.214C448.713 146.679 447.948 145.055 446.225 145.055C444.503 145.055 445.173 142.954 443.738 142.954C442.302 142.954 441.059 144.1 439.049 144.1C436.944 144.1 434.839 142.858 432.543 143.336C430.247 143.813 431.395 144.291 429.386 145.82C427.281 147.348 426.802 148.876 424.793 147.921C422.688 146.87 424.314 143.527 422.018 143.813C419.722 144.1 418.191 145.246 416.469 145.246C414.746 145.246 411.589 145.342 412.737 144.387C413.885 143.336 416.277 142.572 414.364 142.094C412.45 141.616 411.015 142.858 409.867 142.094C408.719 141.33 406.709 137.509 405.083 137.509C403.456 137.604 395.515 134.834 395.132 136.84C394.749 138.75 391.879 140.565 390.922 138.655C389.87 136.84 387.86 136.744 387.86 138.559C387.86 140.374 387.669 143.336 386.329 143.718C384.99 144.1 380.876 143.813 380.684 145.437C380.493 147.061 378.962 147.157 377.24 148.972C375.517 150.787 374.943 152.793 373.795 150.5C372.647 148.208 372.647 147.73 371.403 146.297C370.159 144.864 369.968 144.769 369.011 146.106C368.054 147.539 367.289 149.259 366.428 147.348C365.567 145.437 363.366 141.234 360.209 141.043C357.051 140.852 352.363 141.807 352.937 136.076C353.511 130.344 353.415 123.753 354.276 120.887C355.138 118.116 355.425 116.492 353.702 114.009C351.98 111.525 352.841 110.379 348.536 109.137C344.23 107.895 342.316 110.188 340.977 106.271C339.637 102.354 338.106 101.781 336.576 103.978C335.045 106.175 333.514 106.844 331.887 105.698C330.261 104.551 330.069 104.742 329.878 106.844C329.782 108.946 328.251 109.041 326.625 109.423C324.998 109.805 325.764 110.379 324.998 111.62C324.137 112.862 322.893 112.098 320.788 113.053C318.683 114.009 318.492 116.588 316.291 117.448C314.091 118.403 313.038 120.218 310.359 119.167C307.68 118.116 306.149 117.066 305.958 117.639C305.767 118.212 305.479 120.982 303.662 120.887C301.844 120.791 302.992 123.37 300.983 123.37C298.973 123.37 297.825 123.179 297.251 124.326C296.677 125.472 295.529 127.096 294.189 126.141C292.85 125.185 294.668 123.848 290.936 124.421C287.205 124.994 288.64 125.663 284.908 124.421C281.177 123.179 280.698 122.797 278.115 123.179C275.532 123.561 275.34 123.753 274.479 120.6C273.618 117.448 272.661 117.257 272.47 115.919C272.278 114.582 273.331 113.436 273.714 112.003C274.192 110.474 276.201 110.379 275.244 108.277C274.288 106.175 274.383 105.793 271.322 105.984C268.26 106.175 266.538 105.411 263.954 105.793C261.371 106.175 258.596 107.131 258.596 107.99C258.596 108.85 254.29 110.188 252.377 109.71C250.463 109.137 248.167 107.608 250.272 106.462C252.377 105.22 257.257 102.163 255.056 102.45C252.855 102.736 253.142 102.832 249.602 102.832C246.062 102.832 247.497 101.399 245.488 99.6795C243.479 97.96 242.043 99.584 241.278 97.4823C240.513 95.3807 243.383 97.5779 243.287 95.8584C243.192 94.1389 243.096 92.3238 240.991 92.2283C238.886 92.1328 238.886 89.458 237.451 89.7446C236.111 89.9356 236.494 91.3686 234.389 90.4133C232.284 89.458 232.475 90.1267 230.466 89.7446C228.361 89.3625 230.275 88.5027 228.361 88.2161C226.448 87.9295 224.821 86.1145 223.673 84.1084C222.525 82.0068 222.333 82.6755 221.281 82.3889C220.228 82.1023 218.793 82.9621 218.028 83.8218C217.262 84.6816 217.836 87.0698 216.401 85.9234C214.966 84.7771 215.827 83.1531 213.722 83.1531C211.617 83.1531 211.617 83.9174 210.086 84.2039C208.46 84.4905 205.781 84.5861 204.25 82.771C202.719 80.956 202.145 80.6694 200.135 81.2426C198.03 81.8158 198.7 80.6694 197.361 79.6186C196.021 78.5678 194.586 81.2426 193.821 79.332C193.151 77.4215 194.012 76.6572 194.012 74.3646C194.012 72.0719 197.361 73.5048 197.265 71.6898C197.169 69.8747 196.787 69.1105 197.169 67.5821C197.552 66.1492 198.987 65.6715 198.7 63.6654C198.413 61.6593 198.126 61.8504 198.222 57.8382C198.317 53.826 199.466 55.6411 199.37 53.5395C199.274 51.4378 199.083 45.133 197.074 43.7001C195.064 42.2671 194.395 41.0253 193.629 38.1594C192.959 35.2936 188.749 30.5172 185.975 30.3261C183.2 30.1351 183.678 28.4156 181.095 28.5111C178.512 28.6066 173.441 27.9379 169.805 27.4603C166.169 26.9827 164.255 26.2184 160.715 26.2184C157.175 26.2184 150.573 25.3587 148.277 25.3587C145.98 25.3587 144.545 25.6453 143.588 24.1168C142.632 22.5884 141.005 24.4034 139.857 23.4481C138.709 22.4928 138.23 18.0986 136.604 16.0925C134.977 14.0864 132.968 11.6027 132.011 12.5579C131.054 13.5132 130.097 17.4299 129.619 16.2835C129.045 15.2327 130.863 11.9848 128.567 11.2205C126.27 10.4563 121.965 8.16365 120.721 7.11284C119.477 6.06203 120.434 5.10675 119.286 3.48277C118.137 1.8588 111.727 1.38116 111.631 3.00513C111.535 4.62911 112.588 6.34861 110.387 6.6352C108.091 6.92178 107.325 7.01731 106.943 10.0742C106.656 13.1311 106.369 13.6087 105.125 13.7998C103.881 13.9909 102.924 16.4746 101.106 15.8059C99.2883 15.1372 96.5136 13.7043 94.6957 14.4685C92.8778 15.2327 90.8685 15.0417 89.0505 14.6596C87.2326 14.373 85.6061 15.2327 83.8838 15.2327C82.2572 15.3282 79.3868 15.9969 76.9948 15.2327C74.6028 14.4685 73.7417 13.8953 73.7417 16.5701C73.7417 19.2449 73.1676 20.2957 76.038 22.3018C78.9084 24.3079 80.535 23.1615 80.3436 25.7408C80.1523 28.2245 80.3436 30.7083 79.0998 31.1859C77.856 31.7591 73.359 32.8099 74.2201 34.3383C75.0812 35.8668 75.1769 37.1086 77.8559 36.9176C80.6307 36.7265 80.1523 35.7712 81.4918 34.6249C82.8313 33.4786 85.7974 32.6188 86.7542 34.4338C87.711 36.1534 89.1462 39.4968 86.9456 41.1208C84.7449 42.7448 82.3529 45.0375 85.1277 47.1391C87.9024 49.2407 89.1462 47.3301 91.1555 48.7631C93.1648 50.196 93.6432 51.9155 93.9302 53.1573C94.1216 54.3992 94.2173 53.4439 95.4611 54.3037C96.705 55.1634 96.992 58.889 95.0784 61.2772C93.1648 63.6654 90.7728 65.9581 90.7728 68.3463C90.7728 70.7345 90.0073 72.9316 92.3994 73.4093C94.7914 73.9824 95.9395 73.2182 97.9488 72.1674C99.9581 71.2121 99.9581 70.3524 101.393 71.2121C102.829 72.0719 101.393 73.9825 99.4797 75.2243C97.5661 76.4662 97.4704 76.3706 98.9056 77.2304C100.437 78.0902 103.785 79.332 104.455 80.7649C105.125 82.1979 104.072 84.0129 104.264 84.9682C104.551 86.019 103.977 84.8726 105.221 85.0637C106.464 85.2548 107.421 85.2548 106.656 87.2608C105.89 89.2669 103.785 89.9356 104.933 91.1775C106.082 92.4194 107.421 93.7567 106.273 94.3299C105.125 94.8076 103.02 94.521 103.403 96.0494C103.785 97.5779 103.02 96.336 104.359 96.8136C105.699 97.1958 104.838 97.8645 105.221 98.3421C105.603 98.8197 106.56 97.96 106.751 99.2974C106.943 100.635 107.23 101.112 106.369 102.068C105.412 103.023 106.656 101.59 107.325 103.501C107.995 105.507 106.56 106.08 109.335 106.366C112.11 106.653 112.779 108.373 113.64 106.749C114.502 105.22 114.406 104.742 114.693 104.169C114.98 103.501 117.659 105.984 118.616 105.984C119.573 105.984 119.764 106.749 119.573 107.99C119.477 109.232 118.616 109.997 119.668 110.952C120.721 111.907 121.103 110.092 121.391 111.907C121.678 113.627 120.816 114.391 123.113 114.391C125.409 114.391 126.653 115.346 126.557 113.436C126.462 111.429 125.505 110.952 126.94 110.761C128.375 110.665 129.523 110.188 129.906 109.232C130.289 108.277 132.011 107.799 133.446 108.755C134.881 109.71 138.422 111.238 136.986 114.104C135.551 116.97 133.829 116.875 133.829 118.403C133.829 119.931 133.925 124.899 133.159 126.141C132.394 127.383 132.394 127.86 133.829 128.72C135.264 129.58 134.977 129.102 135.264 130.631C135.551 132.159 135.456 132.732 136.795 131.777C138.135 130.822 137.273 129.484 138.804 129.484C140.335 129.484 138.9 127.86 140.814 127.287C142.727 126.714 144.067 127.765 144.832 128.816C145.598 129.866 145.119 131.299 146.076 132.923C147.033 134.547 147.894 134.738 147.32 135.885C146.746 137.031 146.459 138.177 149.425 138.75C152.391 139.324 154.974 138.082 155.644 139.228C156.314 140.374 156.41 140.279 157.845 140.374C159.28 140.47 159.663 141.903 159.663 143.527C159.663 145.151 161.385 145.533 161.194 146.202C161.002 146.87 160.428 146.966 158.323 147.635C156.218 148.303 156.697 149.545 154.018 149.163C151.338 148.781 149.903 150.214 147.224 149.545C144.641 148.876 144.545 149.45 143.493 150.405C142.44 151.36 142.632 152.029 138.709 151.074C134.786 150.118 135.743 151.074 131.915 149.354C128.184 147.635 125.983 147.539 124.931 147.443C123.878 147.348 125.696 147.061 123.4 146.202C121.103 145.342 122.156 145.915 118.903 146.106C115.65 146.297 114.502 145.533 113.258 146.87C112.11 148.208 113.258 152.029 112.014 153.271C110.77 154.513 108.952 155.277 108.282 156.901C107.613 158.525 107.995 162.25 106.177 162.537C104.359 162.823 101.68 163.683 101.298 164.447C100.915 165.212 100.819 165.116 99.384 164.639C97.9488 164.161 97.7575 162.155 96.6093 164.065C95.4611 165.976 95.6525 168.746 93.8346 167.6C92.0166 166.549 93.3562 165.021 91.2512 164.925C89.1462 164.83 86.8499 164.639 86.3715 166.454C85.9888 168.269 87.0413 168.651 86.6585 171.517C86.2758 174.287 85.9888 175.624 87.1369 177.439C88.2851 179.159 90.103 178.012 91.0598 178.968C92.0166 179.923 93.3562 179.541 95.7482 179.923C98.0445 180.305 98.5229 180.21 99.097 178.968C99.6711 177.726 101.011 177.057 102.254 178.395C103.498 179.732 102.541 180.496 104.933 182.789C107.325 185.082 105.986 184.89 107.804 184.986C109.622 185.082 108.378 186.61 109.526 187.088C110.674 187.565 108.761 187.947 112.875 187.47C116.989 186.992 118.807 186.323 119.764 187.661C120.721 188.998 121.008 188.807 123.113 188.903C125.218 188.998 125.792 187.279 125.792 190.24C125.792 193.201 126.079 195.781 127.036 198.073C127.992 200.366 126.557 199.124 126.27 201.703C125.983 204.283 126.844 209.059 123.878 208.677C120.912 208.295 118.903 206.575 117.755 207.817C116.606 209.059 118.329 209.25 116.319 210.11C114.31 210.97 114.214 211.734 112.971 212.785C111.727 213.835 111.153 214.409 108.856 213.167C106.56 211.925 105.89 210.205 104.359 210.874C102.829 211.543 101.298 213.167 103.403 214.313C105.508 215.459 104.359 217.466 102.924 218.039C101.489 218.612 101.68 219.567 101.872 220.618C102.063 221.669 102.446 221.86 104.168 222.911C105.89 223.961 102.924 225.108 103.594 226.063C104.264 227.018 106.751 227.591 107.038 228.547C107.325 229.502 107.134 233.419 107.804 233.514C108.474 233.61 114.119 233.228 115.171 233.992C116.224 234.756 119.668 239.055 120.816 240.488C121.965 241.921 126.175 243.736 126.175 245.36C126.175 246.984 125.218 249.467 126.27 249.658C127.323 249.85 127.992 250.996 129.045 250.996C130.097 250.996 130.767 250.136 131.915 250.136C133.063 250.136 136.03 250.805 136.699 252.142C137.369 253.575 138.326 255.008 139.761 255.008C141.196 255.008 143.875 255.963 144.258 257.301C144.736 258.638 147.703 257.587 148.659 256.632C149.616 255.677 152.104 255.008 153.922 256.059C155.74 257.11 157.558 258.638 159.854 259.402C162.15 260.167 162.533 261.313 162.724 262.555C162.916 263.797 162.533 263.51 164.16 265.898C165.786 268.286 166.169 267.713 169.613 267.809C173.058 267.904 174.684 266.471 175.259 268C175.833 269.528 177.459 268.573 179.756 269.051C182.052 269.528 181.286 271.057 179.66 271.534C178.033 272.012 179.756 274.591 179.756 275.451C179.756 276.406 181.382 277.457 182.052 277.171C182.722 276.884 182.817 274.305 184.444 275.451C186.07 276.597 187.793 277.266 187.697 278.795C187.601 280.323 192.959 279.368 193.629 281.565C194.299 283.762 195.447 285.099 193.533 285.29C191.62 285.481 190.95 285.386 191.333 287.105C191.716 288.729 191.429 288.729 192.672 289.207C193.916 289.685 194.873 289.207 194.873 291.118C194.873 293.028 194.873 293.41 193.342 292.933C191.811 292.359 190.185 291.022 188.271 291.118C186.357 291.213 185.209 291.786 184.54 291.691C183.87 291.595 184.635 293.983 183.87 293.983C183.104 293.983 181.095 293.41 181.095 294.366C181.095 295.321 182.243 300.67 179.181 300.766C176.12 300.861 172.962 302.485 171.431 299.62C169.9 296.754 170.857 295.321 168.083 295.703C165.403 296.085 166.743 297.9 164.925 297.805C163.107 297.709 161.672 298.76 161.289 295.321C160.906 291.882 158.323 293.888 158.132 291.977C158.036 289.971 151.721 289.398 151.147 291.213C150.669 293.028 149.616 295.13 149.616 297.996C149.616 300.861 151.051 302.677 147.798 302.677C144.545 302.677 145.98 305.065 143.11 305.065C140.24 305.065 133.638 305.542 132.202 302.963C130.767 300.384 133.638 297.614 130.384 296.945C127.131 296.276 128.567 294.939 125.696 294.175C122.826 293.41 123.113 293.888 120.529 294.079C118.042 294.175 114.31 295.416 114.214 297.136C114.119 298.855 113.449 301.244 113.832 303.154C114.214 305.16 114.597 309.363 112.397 309.363C110.196 309.363 105.603 312.42 104.646 312.994C103.69 313.662 104.359 314.522 102.637 314.426C100.915 314.331 99.4797 313.949 99.097 315.095C98.7143 316.241 97.3747 319.298 96.0352 319.298C94.6957 319.298 96.1309 321.4 94.0259 321.4C91.921 321.4 90.103 322.164 89.7203 323.406C89.3376 324.552 89.4333 326.654 87.5197 327.705C85.5104 328.756 83.0227 326.941 83.0227 328.851C83.0227 330.762 85.4147 331.908 83.6924 332.768C81.9702 333.628 80.1523 335.347 80.1523 336.876C80.1523 338.404 78.0473 337.831 76.6121 337.258C75.1769 336.78 73.5503 337.926 74.2201 338.308C74.8899 338.691 78.3344 339.264 78.3344 340.41C78.3344 341.556 76.3251 342.512 74.6985 342.512C73.0719 342.512 74.4115 343.562 73.9331 344.9C73.4547 346.237 73.1676 348.339 71.8281 348.434C70.4886 348.53 65.8002 345.855 64.078 347.097C62.3557 348.434 59.581 349.867 59.1983 349.294C58.8156 348.817 57.8588 349.772 56.6149 351.3C55.2754 352.733 54.8927 353.88 52.9791 354.071C50.9698 354.166 51.8309 355.79 50.9698 356.841C50.2043 357.892 49.6302 356.459 48.195 357.605C46.7598 358.751 46.8555 358.943 44.7505 359.134C42.6456 359.42 42.9326 362.573 40.5406 362.668C38.1486 362.764 36.9048 361.617 35.2782 362.382C33.7473 363.146 33.1732 365.629 31.3553 366.012C29.5374 366.394 27.0497 365.534 26.8583 366.68C26.667 367.827 25.3274 368.495 25.1361 370.597C25.0404 372.699 23.6052 370.884 21.5959 370.692C19.5866 370.597 20.8305 372.412 19.2039 372.508C17.673 372.603 15.3767 372.221 15.281 373.94C15.1853 375.66 14.6112 377.57 13.9415 378.144C13.2717 378.717 12.9847 381.009 10.784 381.009C8.58338 381.009 6.47841 381.105 6.47841 383.111C6.47841 385.117 7.91361 387.314 8.20065 389.32C8.4877 391.326 9.34882 391.327 8.9661 393.428C8.58338 395.53 8.9661 396.007 7.62657 396.007C6.28705 396.007 7.62657 397.822 6.47841 399.924C5.33024 402.026 4.66048 401.739 4.46912 404.032C4.37344 406.229 2.74688 408.139 3.03392 410.05C3.32096 412.056 5.42592 411.483 5.42592 414.158C5.42592 416.737 7.14817 413.202 7.14817 415.495C7.14817 417.692 6.86113 417.597 7.81793 418.934C8.77474 420.271 9.63586 424.188 9.54018 426.194C9.4445 428.2 8.39202 431.544 9.4445 433.454C10.497 435.365 13.0804 436.32 12.889 437.944C12.602 439.473 12.889 442.147 13.8458 443.485C14.8026 444.822 14.3242 445.013 14.3242 447.115C14.3242 449.216 14.994 449.503 16.4292 450.172C17.8644 450.84 19.9693 449.885 21.1175 452.273C22.2657 454.662 23.5095 456.19 25.9972 456.19C28.4849 456.19 28.4849 456.286 28.4849 458.005C28.4849 459.725 27.1454 460.871 29.1547 461.54C31.1639 462.208 32.5991 461.922 32.5991 464.31C32.5991 466.698 30.5899 466.029 30.5899 468.513C30.5899 470.997 31.3553 470.328 33.0775 471.092C34.7998 471.857 37.3832 473.098 37.1918 473.672C37.0004 474.245 35.0868 475.869 34.4171 476.824C33.7473 477.779 34.4171 478.257 34.7041 480.263C34.9912 482.269 36.235 483.798 34.2257 484.848C32.1207 485.899 31.8337 487.714 30.7812 488.287C29.7287 488.765 30.3985 489.434 29.4417 489.529C29.4417 490.102 29.4417 490.962 29.4417 490.962Z" fill="#C8E6C9"/>
</g>
<defs>
<filter id="filter0_d_309:164" x="0" y="0" width="737.656" height="533.138" filterUnits="userSpaceOnUse" color-interpolation-filters="sRGB">
<feFlood flood-opacity="0" result="BackgroundImageFix"/>
<feColorMatrix in="SourceAlpha" type="matrix" values="0 0 0 0 0 0 0 0 0 0 0 0 0 0 0 0 0 0 127 0" result="hardAlpha"/>
<feOffset dx="1" dy="2"/>
<feGaussianBlur stdDeviation="2"/>
<feComposite in2="hardAlpha" operator="out"/>
<feColorMatrix type="matrix" values="0 0 0 0 0 0 0 0 0 0 0 0 0 0 0 0 0 0 0.2 0"/>
<feBlend mode="normal" in2="BackgroundImageFix" result="effect1_dropShadow_309:164"/>
<feBlend mode="normal" in="SourceGraphic" in2="effect1_dropShadow_309:164" result="shape"/>
</filter>
</defs>
</svg>
