<svg width="837" height="605" viewBox="0 0 837 605" fill="none" xmlns="http://www.w3.org/2000/svg">
<g filter="url(#filter0_d_205_2)">
<path d="M33.6641 557.698C33.6641 557.698 46.1504 558.024 50.2762 559.541C54.4021 561.059 57.8766 557.265 61.5681 557.698C65.3683 558.024 66.4541 559.216 69.9285 559.975C73.2943 560.734 82.4147 559.541 85.4548 557.698C88.495 555.856 105.867 555.856 110.753 550.544C115.639 545.232 119.113 532.007 121.719 532.766C124.325 533.525 128.885 536.885 129.32 538.403C129.645 539.92 130.405 545.34 131.6 546.424C132.685 547.509 134.64 552.712 136.16 553.904C137.68 554.988 134.64 557.373 136.16 560.192C137.68 563.01 140.286 564.528 140.286 564.528C140.286 564.528 144.846 560.734 144.846 557.698C144.846 554.663 146.692 552.387 147.452 555.097C148.212 557.807 149.08 559.324 151.578 558.674C154.075 558.024 152.88 556.398 151.578 555.314C150.275 554.23 149.08 550.869 150.818 550.652C152.555 550.435 154.075 551.953 155.812 552.929C157.549 553.904 157.658 553.254 158.526 551.628C159.395 550.002 161.024 551.411 162.435 552.712C163.847 554.013 164.064 557.373 165.15 552.495C166.235 547.617 166.561 546.641 168.733 548.593C170.904 550.544 177.744 558.349 176.116 560.517C174.487 562.685 169.818 563.01 168.95 564.419C168.081 565.829 169.493 569.406 171.23 569.406C172.967 569.406 176.659 572.008 175.356 572.875C174.053 573.742 177.636 578.729 181.002 579.487C184.368 580.246 187.516 579.704 187.516 581.33C187.516 582.956 189.796 585.016 191.316 585.233C192.836 585.45 190.882 589.677 191.316 590.653C191.751 591.629 194.465 589.677 196.202 589.894C197.939 590.111 200.111 591.52 200.98 592.821C201.74 594.122 202.825 595.965 202.825 597.699C202.825 599.434 204.02 599.108 205.214 596.073C206.408 593.038 206.083 590.87 208.363 589.677C210.751 588.485 207.06 588.376 208.363 585.45C209.666 582.631 208.906 581.113 212.38 581.222C215.855 581.439 214.877 579.596 216.072 576.669C217.266 573.85 216.94 575.368 219.872 576.018C222.912 576.669 224.106 575.368 226.712 576.669C229.427 577.97 231.055 579.054 231.924 577.861C232.792 576.669 233.444 575.91 233.878 572.983C234.421 570.165 232.901 569.84 235.181 567.455C237.461 565.07 241.37 565.503 242.89 564.311C244.41 563.119 244.084 560.842 245.93 559.324C247.776 557.807 249.947 560.3 251.576 557.698C253.205 554.988 256.788 552.061 258.742 554.23C260.696 556.398 258.959 562.902 259.611 565.503C260.262 568.105 263.954 566.154 266.017 565.503C267.971 564.853 269.491 565.07 269.491 571.032C269.491 576.994 274.051 581.222 275.68 581.547C277.308 581.872 285.995 581.872 285.995 577.753C285.995 573.634 288.492 575.91 290.229 574.284C291.858 572.658 294.246 571.574 296.744 572.658C299.241 573.634 299.567 572.116 300.435 570.273C301.304 568.43 302.281 568.647 301.63 572.658C300.978 576.669 299.024 579.704 301.847 580.029C304.67 580.355 304.778 580.246 306.298 577.645C307.818 575.151 311.293 572.333 313.79 572.116C316.287 571.899 319.436 569.731 317.482 567.129C315.527 564.419 312.487 563.444 314.116 562.902C315.744 562.36 322.802 562.902 324.648 562.251C326.493 561.601 331.379 559.541 331.488 557.698C331.705 555.856 333.116 557.373 335.505 557.048C337.894 556.723 336.7 555.53 336.7 553.579C336.7 551.628 340.391 551.736 342.671 551.411C345.06 551.086 348.86 550.544 349.729 549.243C350.597 547.942 352.552 549.893 354.397 548.701C356.243 547.509 352.443 544.04 354.397 545.34C356.352 546.641 357.763 550.219 363.409 549.026C369.055 547.834 373.072 546.641 373.398 549.243C373.724 551.736 376.221 552.387 377.198 551.194C378.175 550.002 378.067 545.991 379.913 545.666C381.759 545.34 384.147 544.798 383.713 540.354C383.387 535.801 389.033 537.535 390.77 539.378C392.399 541.221 400.651 542.739 401.085 539.704C401.519 536.668 402.279 534.5 401.085 531.682C399.891 528.863 396.742 523.985 397.719 522.142C398.696 520.299 405.428 520.625 405.537 516.288C405.645 511.952 407.491 512.82 407.165 510.651C406.84 508.483 406.622 506.424 407.165 504.689C407.817 502.846 409.663 503.388 409.771 500.895C409.988 498.402 410.965 496.884 413.137 497.86C415.308 498.836 414.983 501.22 417.371 501.22C419.76 501.22 424.755 500.895 425.84 499.269C427.035 497.643 434.418 498.294 435.829 501.112C437.349 503.93 441.367 511.085 446.035 511.844C450.704 512.603 451.247 512.82 451.681 510.977C452.224 509.134 453.31 508.267 454.83 508.483C456.35 508.7 455.156 505.99 456.459 505.123C457.762 504.256 461.996 506.424 462.322 504.256C462.648 502.088 465.471 503.063 464.493 505.231C463.516 507.399 459.499 509.459 461.345 509.567C463.19 509.784 469.379 507.399 471.334 510.109C473.288 512.82 477.74 518.24 477.522 524.31C477.305 530.272 474.7 534.175 479.043 535.693C483.386 537.21 482.191 540.029 485.557 539.704C488.923 539.378 488.597 537.21 489.9 537.752C491.203 538.294 492.94 540.571 492.723 537.535C492.506 534.5 490.877 531.573 492.723 532.657C494.569 533.85 494.352 537.21 497.935 537.861C501.518 538.511 501.301 538.186 504.992 538.186C508.684 538.186 509.227 539.053 508.141 542.197C507.055 545.34 506.838 550.002 507.164 552.387C507.489 554.772 505.969 557.373 503.798 558.782C501.626 560.083 505.969 561.276 507.598 562.577C509.227 563.877 511.832 562.251 514.655 563.444C517.478 564.636 516.61 567.129 518.456 567.997C520.301 568.864 523.993 571.357 524.427 572.983C524.97 574.609 528.227 575.476 530.942 576.018C533.656 576.56 535.176 577.645 535.176 574.176C535.176 570.707 533.873 567.78 536.045 567.129C538.216 566.479 539.845 565.937 539.411 562.251C538.868 558.566 538.759 557.265 540.605 552.278C542.451 547.292 544.948 547.292 547.988 546.316C551.028 545.34 550.811 542.088 550.811 541.004C550.811 539.812 554.829 541.33 555.046 538.836C555.263 536.343 554.394 533.308 556.566 533.633C558.737 533.958 559.932 536.668 562.972 538.294C566.012 539.92 565.36 540.788 568.618 541.004C571.984 541.221 581.213 536.343 581.538 534.609C581.864 532.983 581.321 529.622 584.361 529.947C587.401 530.272 591.744 531.79 591.853 535.151C592.07 538.511 590.224 536.777 592.07 538.511C593.916 540.137 596.63 538.294 597.065 539.053C597.607 539.704 596.739 541.872 597.933 541.872C599.128 541.872 601.299 540.571 602.168 539.487C603.036 538.511 604.013 539.161 605.316 541.004C606.619 542.847 609.334 544.69 608.791 541.33C608.248 537.969 606.836 537.102 607.271 534.825C607.814 532.441 610.962 532.115 611.614 528.104C612.265 524.093 614.002 524.419 616.283 526.153C618.671 527.779 623.123 531.031 623.34 529.188C623.557 527.346 626.814 525.828 627.032 527.346C627.249 528.863 626.38 529.839 627.9 530.489C629.42 531.14 632.243 531.356 632.243 531.356C632.243 531.356 631.375 525.069 633.872 518.131C636.369 511.194 637.889 493.199 639.844 487.887C641.798 482.575 647.878 486.152 648.095 483.442C648.312 480.732 646.575 453.848 650.158 449.404C653.741 444.959 663.947 435.637 665.793 438.021C667.747 440.298 670.679 444.309 670.896 441.382C671.113 438.455 670.028 435.853 672.416 430.65C674.696 425.338 669.05 421.327 674.479 418.834C680.017 416.341 695 415.907 693.697 418.834C692.394 421.761 692.177 423.495 693.806 423.495C695.434 423.495 702.6 421.219 701.189 414.823C699.669 408.536 702.275 411.029 703.469 410.595C704.663 410.162 704.338 407.452 702.383 405.934C700.429 404.417 704.12 400.622 704.12 400.622C704.12 400.622 705.532 403.116 707.378 403.549C709.332 403.983 708.246 407.343 709.658 405.609C711.178 403.874 710.309 401.381 711.178 399.43C712.047 397.479 712.264 396.069 715.629 395.853C718.995 395.636 719.647 395.853 720.081 398.129C720.515 400.406 724.533 399.213 727.247 400.08C729.962 400.948 733.545 399.864 735.499 400.08C737.453 400.297 736.15 403.007 737.562 404.742C738.973 406.476 739.842 405.392 740.711 407.452C741.579 409.511 743.859 409.945 745.162 412.113C746.465 414.281 747.659 414.606 750.699 415.257C753.631 415.907 754.283 417.316 756.671 417.316C759.06 417.316 763.62 419.051 761.123 415.799C758.626 412.655 758.191 410.921 760.037 409.837C761.883 408.753 763.837 408.969 763.837 406.259C763.837 403.549 764.272 401.598 760.688 400.297C757.105 398.996 752.437 394.118 752.437 390.541C752.437 386.964 750.374 388.264 749.288 386.53C748.202 384.796 747.768 382.953 748.854 380.243C749.939 377.533 750.374 375.581 750.917 373.088C751.568 370.595 752.654 374.389 753.631 374.606C754.717 374.822 758.734 375.148 758.951 372.221C759.168 369.294 760.906 369.511 762.751 369.294C764.706 369.077 763.62 367.993 763.837 366.15C764.054 364.199 764.054 363.657 765.683 362.79C767.42 361.922 770.46 362.573 771.329 362.031C772.198 361.597 768.289 361.381 769.049 359.863C769.809 358.237 772.198 360.296 772.523 358.887C772.849 357.478 773.5 355.744 776.975 356.069C780.449 356.394 782.838 357.044 784.141 359.104C785.444 361.164 783.489 361.923 786.964 362.465C790.438 363.007 789.678 364.091 790.655 364.524C791.633 364.958 799.233 365.283 798.799 362.573C798.364 359.863 798.799 357.912 796.41 356.828C794.021 355.744 791.307 355.852 792.067 354.334C792.827 352.708 794.456 352.275 792.718 350.54C790.981 348.806 789.678 350.54 790.438 347.071C791.198 343.602 792.501 345.987 792.501 343.06C792.501 340.134 792.393 338.291 793.478 336.665C794.564 335.039 793.587 334.605 793.37 330.486C793.044 326.366 794.456 326.041 792.284 325.824C790.004 325.716 791.524 326.475 788.158 324.849C784.792 323.223 782.729 322.464 779.906 320.838C777.083 319.212 775.129 312.057 773.826 312.057C772.523 312.057 768.723 312.166 768.832 309.997C768.94 307.721 767.529 306.962 768.94 305.987C770.352 305.011 769.7 305.011 768.615 303.493C767.529 301.867 767.094 300.241 770.243 298.94C773.392 297.639 765.466 296.555 760.797 295.797C756.128 295.038 754.065 291.786 753.74 289.292C753.414 286.799 750.157 284.306 753.414 283.113C756.563 281.921 756.128 282.029 756.237 277.043C756.345 272.056 756.671 273.14 757.214 268.587C757.648 264.035 755.911 262.734 758.083 262.517C760.254 262.3 761.34 262.842 763.946 259.265C766.552 255.579 767.746 253.303 769.157 254.929C770.569 256.555 770.46 258.94 772.523 258.723C774.586 258.506 772.089 256.013 773.718 255.579C775.455 255.145 778.821 249.942 778.386 245.823C777.952 241.704 780.449 243.113 782.621 242.462C784.792 241.704 785.77 235.958 787.832 236.283C789.895 236.5 794.89 239.752 796.301 236.283C797.604 232.706 799.016 233.682 800.644 230.321C802.382 226.961 803.467 227.503 804.662 227.503C805.856 227.503 804.987 224.576 806.073 223.167C807.159 221.757 809.656 223.492 813.131 220.565C816.605 217.638 819.862 218.288 819.862 215.253C819.862 212.218 823.011 212.977 823.228 211.025C823.445 209.074 823.228 207.015 825.4 207.448C827.571 207.882 829.634 207.665 829.634 205.605C829.634 203.546 833 204.413 831.046 202.895C829.091 201.378 828.006 199.21 825.725 199.101C823.445 198.993 819.862 200.294 820.622 197.15C821.382 194.006 827.354 195.199 825.943 191.947C824.531 188.694 823.88 189.128 823.554 189.02C823.228 188.911 823.88 186.093 821.817 186.093C819.754 186.093 818.451 186.96 818.885 184.033C819.319 181.106 817.691 181.973 815.085 182.624C812.479 183.274 813.131 181.648 813.022 180.781C812.914 179.914 809.765 181.757 810.851 179.589C811.936 177.421 817.691 174.602 818.994 171.784C820.297 168.965 820.08 166.038 817.039 165.821C813.999 165.605 818.234 169.615 816.171 170.158C814.108 170.808 812.805 168.098 811.285 169.615C809.765 171.133 808.353 174.602 806.616 174.71C804.987 174.819 802.273 179.48 801.513 176.878C800.753 174.277 801.079 170.266 798.69 169.724C796.301 169.182 797.821 170.049 797.821 170.049C797.821 170.049 798.907 170.808 798.69 173.626C798.473 176.553 796.301 172.759 796.301 174.71C796.301 176.662 797.061 177.746 797.387 180.131C797.713 182.515 797.604 180.889 797.604 183.925C797.604 186.96 800.102 184.141 797.604 188.044C795.107 192.055 795.216 191.079 793.804 193.464C792.393 195.849 791.958 195.632 790.764 196.499C789.461 197.367 789.787 198.342 788.701 198.559C787.615 198.776 786.638 198.559 786.312 200.944C785.878 203.329 782.947 205.822 780.992 203.437C778.929 201.052 780.558 200.402 779.146 198.884C777.843 197.367 776.323 199.101 775.889 197.692C775.455 196.283 774.695 197.15 772.958 195.199C771.22 193.247 770.026 195.199 769.049 192.38C768.072 189.562 767.529 189.453 766.117 189.02C764.706 188.586 768.072 185.551 765.14 182.949C762.317 180.347 763.403 181.431 760.688 182.949C757.974 184.467 757.214 183.925 757.214 186.418C757.214 188.911 756.671 190.754 754.717 190.537C752.762 190.32 754.283 189.995 752.002 187.936C749.831 185.876 749.505 186.743 747.877 186.31C746.248 185.876 745.596 186.201 745.596 184.9C745.596 183.599 745.162 184.9 743.859 186.635C742.556 188.369 744.185 189.236 743.751 191.513C743.316 193.789 741.796 194.331 741.362 195.849C740.928 197.367 740.602 196.608 738.973 196.174C737.345 195.741 735.282 196.174 733.653 194.982C732.024 193.789 729.201 189.345 727.573 190.754C725.944 192.163 726.487 195.524 724.424 196.066C722.361 196.499 722.687 198.125 722.253 198.668C721.818 199.21 723.447 199.752 719.538 200.185C715.629 200.619 715.412 200.294 714.761 201.811C714.109 203.329 710.744 200.294 709.766 199.643C708.789 198.993 703.143 193.356 700.212 193.356C697.28 193.356 690.223 189.67 688.594 192.163C686.965 194.765 685.337 195.199 681.754 195.849C678.171 196.499 675.999 195.957 674.914 198.559C673.719 201.161 674.371 206.798 672.851 207.557C671.33 208.315 669.05 209.291 667.313 207.99C665.576 206.798 661.776 204.304 661.124 201.703C660.473 199.101 661.016 198.125 659.93 198.017C658.844 197.909 655.587 195.957 653.524 196.716C651.461 197.475 646.684 199.86 643.752 199.752C640.821 199.643 635.935 196.933 632.243 193.464C628.552 189.887 628.552 191.513 628.552 188.478C628.552 185.442 627.249 166.689 623.123 166.363C618.997 166.038 620.734 169.399 618.563 172.542C616.391 175.686 613.677 178.071 611.722 177.746C609.659 177.312 602.385 178.396 602.059 182.299C601.625 186.201 600.539 185.442 597.716 185.768C594.893 186.093 597.173 188.261 595.11 189.995C593.047 191.621 590.441 194.657 585.121 194.115C579.801 193.573 578.607 191.188 576.435 191.621C574.264 192.055 572.635 197.041 570.572 197.367C568.509 197.692 564.166 196.066 562.755 194.548C561.343 193.031 541.799 184.033 540.497 181.648C539.194 179.263 537.456 178.071 536.913 177.204C536.371 176.336 535.611 175.252 533.982 175.578C532.353 175.903 531.81 176.878 526.273 174.494C520.736 172.109 524.102 171.025 522.473 171.133C520.844 171.242 526.164 174.927 517.804 171.025C509.444 167.014 508.575 165.171 506.621 165.171C504.666 165.171 505.426 162.786 503.798 162.786C502.169 162.786 500.758 164.087 498.478 164.087C496.089 164.087 493.7 162.678 491.094 163.22C488.489 163.762 489.792 164.304 487.511 166.038C485.123 167.773 484.58 169.507 482.3 168.423C479.911 167.231 481.757 163.437 479.151 163.762C476.545 164.087 474.808 165.388 472.854 165.388C470.899 165.388 467.316 165.496 468.619 164.412C469.922 163.22 472.637 162.352 470.465 161.81C468.294 161.268 466.665 162.678 465.362 161.81C464.059 160.943 461.779 156.607 459.933 156.607C458.087 156.716 449.076 153.572 448.641 155.848C448.207 158.016 444.95 160.076 443.864 157.908C442.67 155.848 440.39 155.74 440.39 157.8C440.39 159.859 440.172 163.22 438.652 163.653C437.132 164.087 432.463 163.762 432.246 165.605C432.029 167.447 430.292 167.556 428.338 169.615C426.383 171.675 425.732 173.952 424.429 171.35C423.126 168.748 423.126 168.206 421.714 166.58C420.303 164.954 420.086 164.846 419 166.363C417.914 167.989 417.046 169.941 416.069 167.773C415.091 165.605 412.594 160.835 409.011 160.618C405.428 160.401 400.108 161.485 400.759 154.981C401.411 148.477 401.302 140.997 402.279 137.745C403.257 134.601 403.582 132.758 401.628 129.94C399.674 127.121 400.651 125.821 395.765 124.411C390.879 123.002 388.707 125.604 387.187 121.159C385.667 116.715 383.93 116.064 382.193 118.558C380.456 121.051 378.718 121.81 376.873 120.509C375.027 119.208 374.81 119.425 374.592 121.81C374.484 124.195 372.747 124.303 370.901 124.737C369.055 125.17 369.924 125.821 369.055 127.23C368.078 128.639 366.666 127.772 364.278 128.856C361.889 129.94 361.672 132.867 359.175 133.842C356.677 134.927 355.483 136.986 352.443 135.794C349.403 134.601 347.666 133.409 347.449 134.059C347.231 134.71 346.906 137.853 344.843 137.745C342.78 137.637 344.083 140.563 341.803 140.563C339.522 140.563 338.22 140.347 337.568 141.647C336.917 142.948 335.614 144.791 334.094 143.707C332.574 142.623 334.637 141.105 330.402 141.756C326.168 142.406 327.796 143.165 323.562 141.756C319.327 140.347 318.784 139.913 315.853 140.347C312.921 140.78 312.704 140.997 311.727 137.42C310.75 133.842 309.664 133.626 309.447 132.108C309.23 130.59 310.424 129.29 310.858 127.664C311.401 125.929 313.681 125.821 312.596 123.436C311.51 121.051 311.618 120.617 308.144 120.834C304.67 121.051 302.715 120.184 299.784 120.617C296.852 121.051 293.703 122.135 293.703 123.111C293.703 124.086 288.818 125.604 286.646 125.062C284.474 124.411 281.869 122.677 284.257 121.376C286.646 119.967 292.183 116.498 289.686 116.823C287.189 117.148 287.515 117.257 283.497 117.257C279.48 117.257 281.109 115.631 278.829 113.68C276.548 111.728 274.92 113.571 274.051 111.186C273.183 108.801 276.44 111.295 276.331 109.343C276.223 107.392 276.114 105.332 273.725 105.224C271.337 105.116 271.337 102.08 269.708 102.406C268.188 102.622 268.622 104.248 266.234 103.164C263.845 102.08 264.062 102.839 261.782 102.406C259.393 101.972 261.565 100.996 259.393 100.671C257.222 100.346 255.376 98.2863 254.073 96.0098C252.77 93.625 252.553 94.3838 251.359 94.0586C250.164 93.7334 248.536 94.709 247.667 95.6846C246.799 96.6602 247.45 99.3703 245.821 98.0695C244.193 96.7686 245.17 94.9258 242.781 94.9258C240.393 94.9258 240.393 95.793 238.655 96.1182C236.81 96.4434 233.77 96.5518 232.032 94.4922C230.295 92.4325 229.644 92.1073 227.364 92.7577C224.975 93.4081 225.735 92.1073 224.215 90.9149C222.695 89.7224 221.066 92.7577 220.198 90.5897C219.438 88.4216 220.415 87.5544 220.415 84.9527C220.415 82.351 224.215 83.9771 224.106 81.9174C223.998 79.8578 223.563 78.9905 223.998 77.2561C224.432 75.63 226.061 75.088 225.735 72.8116C225.409 70.5351 225.083 70.7519 225.192 66.199C225.301 61.646 226.604 63.7057 226.495 61.3208C226.386 58.936 226.169 51.7814 223.889 50.1553C221.609 48.5293 220.849 47.12 219.98 43.8679C219.22 40.6159 214.443 35.1957 211.294 34.9789C208.146 34.7621 208.688 32.8108 205.757 32.9192C202.825 33.0276 197.071 32.2688 192.945 31.7268C188.819 31.1848 186.648 30.3176 182.63 30.3176C178.613 30.3176 171.121 29.3419 168.515 29.3419C165.91 29.3419 164.281 29.6672 163.195 27.9327C162.109 26.1983 160.264 28.2579 158.961 27.1739C157.658 26.0898 157.115 21.1033 155.269 18.8268C153.423 16.5504 151.143 13.7319 150.058 14.8159C148.972 15.9 147.886 20.3445 147.343 19.0437C146.692 17.8512 148.755 14.1655 146.149 13.2983C143.543 12.4311 138.657 9.82939 137.246 8.63696C135.834 7.44452 136.92 6.36049 135.617 4.51764C134.314 2.67479 127.039 2.13277 126.931 3.97563C126.822 5.81848 128.017 7.76973 125.519 8.09494C122.914 8.42015 122.045 8.52855 121.611 11.9975C121.285 15.4663 120.959 16.0084 119.548 16.2252C118.136 16.442 117.05 19.2605 114.987 18.5016C112.925 17.7428 109.776 16.1168 107.713 16.984C105.65 17.8512 103.37 17.6344 101.307 17.2008C99.244 16.8756 97.3982 17.8512 95.4438 17.8512C93.598 17.9596 90.3408 18.7184 87.6264 17.8512C84.912 16.984 83.9348 16.3336 83.9348 19.3689C83.9348 22.4041 83.2833 23.5966 86.5406 25.873C89.7979 28.1495 91.6437 26.8487 91.4265 29.7756C91.2094 32.594 91.4265 35.4125 90.015 35.9545C88.6036 36.6049 83.5005 37.7974 84.4777 39.5318C85.4548 41.2663 85.5634 42.6755 88.6035 42.4587C91.7523 42.2419 91.2094 41.1579 92.7294 39.857C94.2495 38.5562 97.6154 37.5806 98.7011 39.6402C99.7869 41.5915 101.416 45.3856 98.9183 47.2284C96.421 49.0713 93.7066 51.673 96.8553 54.0578C100.004 56.4427 101.416 54.2746 103.696 55.9007C105.976 57.5267 106.519 59.478 106.844 60.8872C107.061 62.2965 107.17 61.2124 108.582 62.1881C109.993 63.1637 110.319 67.3914 108.147 70.1015C105.976 72.8116 103.261 75.4132 103.261 78.1233C103.261 80.8334 102.393 83.3267 105.107 83.8687C107.821 84.5191 109.124 83.6519 111.404 82.4594C113.685 81.3754 113.685 80.3998 115.313 81.3754C116.942 82.351 115.313 84.5191 113.142 85.9283C110.97 87.3376 110.862 87.2292 112.49 88.2048C114.227 89.1804 118.028 90.5897 118.788 92.2157C119.548 93.8418 118.353 95.9014 118.571 96.9854C118.896 98.1779 118.245 96.877 119.656 97.0939C121.068 97.3107 122.154 97.3107 121.285 99.5871C120.416 101.864 118.028 102.622 119.331 104.032C120.633 105.441 122.154 106.959 120.851 107.609C119.548 108.151 117.159 107.826 117.593 109.56C118.028 111.295 117.159 109.885 118.679 110.427C120.199 110.861 119.222 111.62 119.656 112.162C120.091 112.704 121.176 111.728 121.393 113.246C121.611 114.764 121.936 115.306 120.959 116.39C119.873 117.474 121.285 115.848 122.045 118.016C122.805 120.292 121.176 120.943 124.325 121.268C127.474 121.593 128.234 123.544 129.211 121.701C130.188 119.967 130.08 119.425 130.405 118.774C130.731 118.016 133.771 120.834 134.857 120.834C135.943 120.834 136.16 121.701 135.943 123.111C135.834 124.52 134.857 125.387 136.051 126.471C137.246 127.555 137.68 125.495 138.006 127.555C138.331 129.506 137.354 130.374 139.96 130.374C142.566 130.374 143.977 131.458 143.869 129.29C143.76 127.013 142.674 126.471 144.303 126.254C145.932 126.146 147.235 125.604 147.669 124.52C148.103 123.436 150.058 122.894 151.686 123.978C153.315 125.062 157.332 126.796 155.703 130.048C154.075 133.3 152.12 133.192 152.12 134.927C152.12 136.661 152.229 142.298 151.36 143.707C150.492 145.116 150.492 145.658 152.12 146.634C153.749 147.61 153.423 147.068 153.749 148.802C154.075 150.537 153.966 151.187 155.486 150.103C157.006 149.019 156.029 147.501 157.766 147.501C159.504 147.501 157.875 145.658 160.046 145.008C162.218 144.358 163.738 145.55 164.607 146.742C165.475 147.935 164.932 149.561 166.018 151.404C167.104 153.247 168.081 153.463 167.43 154.764C166.778 156.065 166.452 157.366 169.818 158.016C173.184 158.667 176.116 157.258 176.876 158.558C177.636 159.859 177.744 159.751 179.373 159.859C181.002 159.968 181.436 161.594 181.436 163.437C181.436 165.279 183.39 165.713 183.173 166.472C182.956 167.231 182.305 167.339 179.916 168.098C177.527 168.857 178.07 170.266 175.03 169.832C171.99 169.399 170.361 171.025 167.321 170.266C164.39 169.507 164.281 170.158 163.087 171.242C161.892 172.326 162.109 173.084 157.658 172C153.206 170.916 154.292 172 149.949 170.049C145.714 168.098 143.217 167.989 142.023 167.881C140.829 167.773 142.892 167.447 140.286 166.472C137.68 165.496 138.874 166.147 135.183 166.363C131.491 166.58 130.188 165.713 128.777 167.231C127.474 168.748 128.777 173.084 127.365 174.494C125.954 175.903 123.891 176.77 123.131 178.613C122.371 180.456 122.805 184.684 120.742 185.009C118.679 185.334 115.639 186.31 115.205 187.177C114.77 188.044 114.662 187.936 113.033 187.394C111.404 186.852 111.187 184.575 109.884 186.743C108.582 188.911 108.799 192.055 106.736 190.754C104.673 189.562 106.193 187.827 103.804 187.719C101.416 187.61 98.8097 187.394 98.2668 189.453C97.8325 191.513 99.0268 191.947 98.5925 195.199C98.1582 198.342 97.8325 199.86 99.1354 201.92C100.438 203.871 102.501 202.57 103.587 203.654C104.673 204.738 106.193 204.304 108.907 204.738C111.513 205.172 112.056 205.063 112.707 203.654C113.359 202.245 114.879 201.486 116.29 203.004C117.702 204.521 116.616 205.389 119.331 207.99C122.045 210.592 120.525 210.375 122.588 210.483C124.651 210.592 123.239 212.326 124.542 212.868C125.845 213.41 123.674 213.844 128.342 213.302C133.011 212.76 135.074 212.001 136.16 213.519C137.246 215.036 137.571 214.82 139.96 214.928C142.349 215.036 143 213.085 143 216.446C143 219.806 143.326 222.733 144.412 225.335C145.497 227.936 143.869 226.527 143.543 229.454C143.217 232.381 144.194 237.801 140.829 237.367C137.463 236.934 135.183 234.983 133.88 236.392C132.577 237.801 134.531 238.018 132.251 238.993C129.971 239.969 129.862 240.836 128.451 242.029C127.039 243.221 126.388 243.872 123.782 242.462C121.176 241.053 120.416 239.102 118.679 239.861C116.942 240.619 115.205 242.462 117.593 243.763C119.982 245.064 118.679 247.34 117.05 247.991C115.422 248.641 115.639 249.725 115.856 250.918C116.073 252.11 116.508 252.327 118.462 253.519C120.416 254.712 117.05 256.013 117.81 257.097C118.571 258.181 121.393 258.831 121.719 259.915C122.045 260.999 121.828 265.444 122.588 265.552C123.348 265.661 129.754 265.227 130.948 266.094C132.142 266.961 136.051 271.84 137.354 273.466C138.657 275.092 143.434 277.151 143.434 278.994C143.434 280.837 142.349 283.656 143.543 283.872C144.737 284.089 145.497 285.39 146.692 285.39C147.886 285.39 148.646 284.414 149.949 284.414C151.252 284.414 154.618 285.173 155.378 286.691C156.138 288.317 157.224 289.943 158.852 289.943C160.481 289.943 163.521 291.027 163.955 292.545C164.498 294.062 167.864 292.87 168.95 291.786C170.035 290.702 172.858 289.943 174.921 291.135C176.984 292.328 179.047 294.062 181.653 294.929C184.259 295.797 184.693 297.097 184.91 298.507C185.128 299.916 184.693 299.591 186.539 302.301C188.385 305.011 188.819 304.36 192.728 304.469C196.637 304.577 198.482 302.951 199.134 304.686C199.785 306.42 201.631 305.336 204.237 305.878C206.843 306.42 205.974 308.155 204.128 308.697C202.283 309.239 204.237 312.166 204.237 313.141C204.237 314.225 206.083 315.418 206.843 315.092C207.603 314.767 207.711 311.84 209.557 313.141C211.403 314.442 213.357 315.201 213.249 316.935C213.14 318.67 219.22 317.586 219.98 320.079C220.74 322.572 222.043 324.09 219.872 324.307C217.7 324.523 216.94 324.415 217.375 326.366C217.809 328.209 217.483 328.209 218.895 328.751C220.306 329.293 221.392 328.751 221.392 330.919C221.392 333.087 221.392 333.521 219.655 332.979C217.917 332.328 216.072 330.811 213.9 330.919C211.729 331.028 210.426 331.678 209.666 331.57C208.906 331.461 209.774 334.171 208.906 334.171C208.037 334.171 205.757 333.521 205.757 334.605C205.757 335.689 207.06 341.76 203.585 341.868C200.111 341.976 196.528 343.819 194.791 340.567C193.054 337.315 194.139 335.689 190.991 336.123C187.951 336.556 189.471 338.616 187.408 338.507C185.345 338.399 183.716 339.591 183.282 335.689C182.847 331.786 179.916 334.063 179.699 331.895C179.59 329.618 172.424 328.968 171.773 331.028C171.23 333.087 170.035 335.472 170.035 338.724C170.035 341.976 171.664 344.036 167.973 344.036C164.281 344.036 165.91 346.746 162.652 346.746C159.395 346.746 151.903 347.288 150.275 344.361C148.646 341.434 151.903 338.291 148.212 337.532C144.52 336.773 146.149 335.255 142.891 334.388C139.634 333.521 139.96 334.063 137.028 334.28C134.205 334.388 129.971 335.797 129.862 337.749C129.754 339.7 128.994 342.41 129.428 344.578C129.862 346.854 130.297 351.624 127.799 351.624C125.302 351.624 120.091 355.093 119.005 355.744C117.919 356.502 118.679 357.478 116.725 357.37C114.77 357.261 113.142 356.828 112.707 358.128C112.273 359.429 110.753 362.898 109.233 362.898C107.713 362.898 109.342 365.283 106.953 365.283C104.564 365.283 102.501 366.15 102.067 367.559C101.633 368.86 101.741 371.245 99.5697 372.438C97.2896 373.63 94.4667 371.57 94.4667 373.738C94.4667 375.906 97.181 377.207 95.2267 378.183C93.2723 379.159 91.2094 381.11 91.2094 382.844C91.2094 384.579 88.8207 383.928 87.1921 383.278C85.5634 382.736 83.7176 384.037 84.4777 384.47C85.2377 384.904 89.1464 385.554 89.1464 386.855C89.1464 388.156 86.8663 389.24 85.0205 389.24C83.1747 389.24 84.6948 390.432 84.1519 391.95C83.6091 393.468 83.2833 395.853 81.7633 395.961C80.2432 396.069 74.923 393.034 72.9686 394.443C71.0142 395.961 67.8655 397.587 67.4312 396.937C66.9969 396.395 65.9112 397.479 64.4997 399.213C62.9796 400.839 62.5453 402.14 60.3738 402.357C58.0937 402.465 59.0709 404.308 58.0937 405.501C57.2251 406.693 56.5736 405.067 54.945 406.368C53.3164 407.669 53.4249 407.885 51.0363 408.102C48.6476 408.427 48.9733 412.005 46.2589 412.113C43.5445 412.222 42.1331 410.921 40.2873 411.788C38.55 412.655 37.8986 415.474 35.8356 415.907C33.7727 416.341 30.9497 415.365 30.7326 416.666C30.5154 417.967 28.9954 418.726 28.7782 421.111C28.6696 423.495 27.041 421.436 24.7609 421.219C22.4808 421.111 23.8923 423.17 22.0465 423.279C20.3093 423.387 17.7035 422.953 17.5949 424.905C17.4863 426.856 16.8349 429.024 16.0748 429.674C15.3148 430.325 14.9891 432.927 12.4918 432.927C9.99458 432.927 7.60591 433.035 7.60591 435.311C7.60591 437.588 9.23455 440.081 9.56028 442.358C9.88601 444.634 10.8632 444.634 10.4289 447.019C9.99458 449.404 10.4289 449.946 8.90882 449.946C7.38876 449.946 8.90882 452.005 7.60591 454.39C6.303 456.775 5.54297 456.45 5.32582 459.052C5.21724 461.545 3.37145 463.713 3.69718 465.881C4.02291 468.157 6.41158 467.507 6.41158 470.542C6.41158 473.469 8.36594 469.458 8.36594 472.06C8.36594 474.553 8.04022 474.445 9.12597 475.962C10.2117 477.48 11.1889 481.925 11.0803 484.201C10.9718 486.478 9.77743 490.272 10.9718 492.44C12.1661 494.608 15.0976 495.692 14.8805 497.535C14.5548 499.269 14.8805 502.304 15.9663 503.822C17.052 505.34 16.5091 505.557 16.5091 507.941C16.5091 510.326 17.2692 510.651 18.8978 511.41C20.5264 512.169 22.9151 511.085 24.218 513.795C25.5209 516.505 26.9324 518.24 29.7554 518.24C32.5784 518.24 32.5784 518.348 32.5784 520.299C32.5784 522.251 31.0583 523.551 33.3384 524.31C35.6185 525.069 37.2471 524.744 37.2471 527.454C37.2471 530.164 34.967 529.405 34.967 532.224C34.967 535.042 35.8357 534.283 37.79 535.151C39.7444 536.018 42.6759 537.427 42.4588 538.077C42.2416 538.728 40.0701 540.571 39.3101 541.655C38.55 542.739 39.3101 543.281 39.6358 545.557C39.9615 547.834 41.373 549.568 39.0929 550.761C36.7043 551.953 36.3785 554.013 35.1842 554.663C33.9899 555.205 34.7499 555.964 33.6641 556.072C33.6641 556.723 33.6641 557.698 33.6641 557.698Z" fill="#C8E6C9"/>
</g>
<mask id="mask0_205_2" style="mask-type:alpha" maskUnits="userSpaceOnUse" x="3" y="2" width="829" height="597">
<path d="M33.6641 557.698C33.6641 557.698 46.1504 558.024 50.2762 559.541C54.4021 561.059 57.8766 557.265 61.5681 557.698C65.3683 558.024 66.4541 559.216 69.9285 559.975C73.2943 560.734 82.4147 559.541 85.4548 557.698C88.495 555.856 105.867 555.856 110.753 550.544C115.639 545.232 119.113 532.007 121.719 532.766C124.325 533.525 128.885 536.885 129.32 538.403C129.645 539.92 130.405 545.34 131.6 546.424C132.685 547.509 134.64 552.712 136.16 553.904C137.68 554.988 134.64 557.373 136.16 560.192C137.68 563.01 140.286 564.528 140.286 564.528C140.286 564.528 144.846 560.734 144.846 557.698C144.846 554.663 146.692 552.387 147.452 555.097C148.212 557.807 149.08 559.324 151.578 558.674C154.075 558.024 152.88 556.398 151.578 555.314C150.275 554.23 149.08 550.869 150.818 550.652C152.555 550.435 154.075 551.953 155.812 552.929C157.549 553.904 157.658 553.254 158.526 551.628C159.395 550.002 161.024 551.411 162.435 552.712C163.847 554.013 164.064 557.373 165.15 552.495C166.235 547.617 166.561 546.641 168.733 548.593C170.904 550.544 177.744 558.349 176.116 560.517C174.487 562.685 169.818 563.01 168.95 564.419C168.081 565.829 169.493 569.406 171.23 569.406C172.967 569.406 176.659 572.008 175.356 572.875C174.053 573.742 177.636 578.729 181.002 579.487C184.368 580.246 187.516 579.704 187.516 581.33C187.516 582.956 189.796 585.016 191.316 585.233C192.836 585.45 190.882 589.677 191.316 590.653C191.751 591.629 194.465 589.677 196.202 589.894C197.939 590.111 200.111 591.52 200.98 592.821C201.74 594.122 202.825 595.965 202.825 597.699C202.825 599.434 204.02 599.108 205.214 596.073C206.408 593.038 206.083 590.87 208.363 589.677C210.751 588.485 207.06 588.376 208.363 585.45C209.666 582.631 208.906 581.113 212.38 581.222C215.855 581.439 214.877 579.596 216.072 576.669C217.266 573.85 216.94 575.368 219.872 576.018C222.912 576.669 224.106 575.368 226.712 576.669C229.427 577.97 231.055 579.054 231.924 577.861C232.792 576.669 233.444 575.91 233.878 572.983C234.421 570.165 232.901 569.84 235.181 567.455C237.461 565.07 241.37 565.503 242.89 564.311C244.41 563.119 244.084 560.842 245.93 559.324C247.776 557.807 249.947 560.3 251.576 557.698C253.205 554.988 256.788 552.061 258.742 554.23C260.696 556.398 258.959 562.902 259.611 565.503C260.262 568.105 263.954 566.154 266.017 565.503C267.971 564.853 269.491 565.07 269.491 571.032C269.491 576.994 274.051 581.222 275.68 581.547C277.308 581.872 285.995 581.872 285.995 577.753C285.995 573.634 288.492 575.91 290.229 574.284C291.858 572.658 294.246 571.574 296.744 572.658C299.241 573.634 299.567 572.116 300.435 570.273C301.304 568.43 302.281 568.647 301.63 572.658C300.978 576.669 299.024 579.704 301.847 580.029C304.67 580.355 304.778 580.246 306.298 577.645C307.818 575.151 311.293 572.333 313.79 572.116C316.287 571.899 319.436 569.731 317.482 567.129C315.527 564.419 312.487 563.444 314.116 562.902C315.744 562.36 322.802 562.902 324.648 562.251C326.493 561.601 331.379 559.541 331.488 557.698C331.705 555.856 333.116 557.373 335.505 557.048C337.894 556.723 336.7 555.53 336.7 553.579C336.7 551.628 340.391 551.736 342.671 551.411C345.06 551.086 348.86 550.544 349.729 549.243C350.597 547.942 352.552 549.893 354.397 548.701C356.243 547.509 352.443 544.04 354.397 545.34C356.352 546.641 357.763 550.219 363.409 549.026C369.055 547.834 373.072 546.641 373.398 549.243C373.724 551.736 376.221 552.387 377.198 551.194C378.175 550.002 378.067 545.991 379.913 545.666C381.759 545.34 384.147 544.798 383.713 540.354C383.387 535.801 389.033 537.535 390.77 539.378C392.399 541.221 400.651 542.739 401.085 539.704C401.519 536.668 402.279 534.5 401.085 531.682C399.891 528.863 396.742 523.985 397.719 522.142C398.696 520.299 405.428 520.625 405.537 516.288C405.645 511.952 407.491 512.82 407.165 510.651C406.84 508.483 406.622 506.424 407.165 504.689C407.817 502.846 409.663 503.388 409.771 500.895C409.988 498.402 410.965 496.884 413.137 497.86C415.308 498.836 414.983 501.22 417.371 501.22C419.76 501.22 424.755 500.895 425.84 499.269C427.035 497.643 434.418 498.294 435.829 501.112C437.349 503.93 441.367 511.085 446.035 511.844C450.704 512.603 451.247 512.82 451.681 510.977C452.224 509.134 453.31 508.267 454.83 508.483C456.35 508.7 455.156 505.99 456.459 505.123C457.762 504.256 461.996 506.424 462.322 504.256C462.648 502.088 465.471 503.063 464.493 505.231C463.516 507.399 459.499 509.459 461.345 509.567C463.19 509.784 469.379 507.399 471.334 510.109C473.288 512.82 477.74 518.24 477.522 524.31C477.305 530.272 474.7 534.175 479.043 535.693C483.386 537.21 482.191 540.029 485.557 539.704C488.923 539.378 488.597 537.21 489.9 537.752C491.203 538.294 492.94 540.571 492.723 537.535C492.506 534.5 490.877 531.573 492.723 532.657C494.569 533.85 494.352 537.21 497.935 537.861C501.518 538.511 501.301 538.186 504.992 538.186C508.684 538.186 509.227 539.053 508.141 542.197C507.055 545.34 506.838 550.002 507.164 552.387C507.489 554.772 505.969 557.373 503.798 558.782C501.626 560.083 505.969 561.276 507.598 562.577C509.227 563.877 511.832 562.251 514.655 563.444C517.478 564.636 516.61 567.129 518.456 567.997C520.301 568.864 523.993 571.357 524.427 572.983C524.97 574.609 528.227 575.476 530.942 576.018C533.656 576.56 535.176 577.645 535.176 574.176C535.176 570.707 533.873 567.78 536.045 567.129C538.216 566.479 539.845 565.937 539.411 562.251C538.868 558.566 538.759 557.265 540.605 552.278C542.451 547.292 544.948 547.292 547.988 546.316C551.028 545.34 550.811 542.088 550.811 541.004C550.811 539.812 554.829 541.33 555.046 538.836C555.263 536.343 554.394 533.308 556.566 533.633C558.737 533.958 559.932 536.668 562.972 538.294C566.012 539.92 565.36 540.788 568.618 541.004C571.984 541.221 581.213 536.343 581.538 534.609C581.864 532.983 581.321 529.622 584.361 529.947C587.401 530.272 591.744 531.79 591.853 535.151C592.07 538.511 590.224 536.777 592.07 538.511C593.916 540.137 596.63 538.294 597.065 539.053C597.607 539.704 596.739 541.872 597.933 541.872C599.128 541.872 601.299 540.571 602.168 539.487C603.036 538.511 604.013 539.161 605.316 541.004C606.619 542.847 609.334 544.69 608.791 541.33C608.248 537.969 606.836 537.102 607.271 534.825C607.814 532.441 610.962 532.115 611.614 528.104C612.265 524.093 614.002 524.419 616.283 526.153C618.671 527.779 623.123 531.031 623.34 529.188C623.557 527.346 626.814 525.828 627.032 527.346C627.249 528.863 626.38 529.839 627.9 530.489C629.42 531.14 632.243 531.356 632.243 531.356C632.243 531.356 631.375 525.069 633.872 518.131C636.369 511.194 637.889 493.199 639.844 487.887C641.798 482.575 647.878 486.152 648.095 483.442C648.312 480.732 646.575 453.848 650.158 449.404C653.741 444.959 663.947 435.637 665.793 438.021C667.747 440.298 670.679 444.309 670.896 441.382C671.113 438.455 670.028 435.853 672.416 430.65C674.696 425.338 669.05 421.327 674.479 418.834C680.017 416.341 695 415.907 693.697 418.834C692.394 421.761 692.177 423.495 693.806 423.495C695.434 423.495 702.6 421.219 701.189 414.823C699.669 408.536 702.275 411.029 703.469 410.595C704.663 410.162 704.338 407.452 702.383 405.934C700.429 404.417 704.12 400.622 704.12 400.622C704.12 400.622 705.532 403.116 707.378 403.549C709.332 403.983 708.246 407.343 709.658 405.609C711.178 403.874 710.309 401.381 711.178 399.43C712.047 397.479 712.264 396.069 715.629 395.853C718.995 395.636 719.647 395.853 720.081 398.129C720.515 400.406 724.533 399.213 727.247 400.08C729.962 400.948 733.545 399.864 735.499 400.08C737.453 400.297 736.15 403.007 737.562 404.742C738.973 406.476 739.842 405.392 740.711 407.452C741.579 409.511 743.859 409.945 745.162 412.113C746.465 414.281 747.659 414.606 750.699 415.257C753.631 415.907 754.283 417.316 756.671 417.316C759.06 417.316 763.62 419.051 761.123 415.799C758.626 412.655 758.191 410.921 760.037 409.837C761.883 408.753 763.837 408.969 763.837 406.259C763.837 403.549 764.272 401.598 760.688 400.297C757.105 398.996 752.437 394.118 752.437 390.541C752.437 386.964 750.374 388.264 749.288 386.53C748.202 384.796 747.768 382.953 748.854 380.243C749.939 377.533 750.374 375.581 750.917 373.088C751.568 370.595 752.654 374.389 753.631 374.606C754.717 374.822 758.734 375.148 758.951 372.221C759.168 369.294 760.906 369.511 762.751 369.294C764.706 369.077 763.62 367.993 763.837 366.15C764.054 364.199 764.054 363.657 765.683 362.79C767.42 361.922 770.46 362.573 771.329 362.031C772.198 361.597 768.289 361.381 769.049 359.863C769.809 358.237 772.198 360.296 772.523 358.887C772.849 357.478 773.5 355.744 776.975 356.069C780.449 356.394 782.838 357.044 784.141 359.104C785.444 361.164 783.489 361.923 786.964 362.465C790.438 363.007 789.678 364.091 790.655 364.524C791.633 364.958 799.233 365.283 798.799 362.573C798.364 359.863 798.799 357.912 796.41 356.828C794.021 355.744 791.307 355.852 792.067 354.334C792.827 352.708 794.456 352.275 792.718 350.54C790.981 348.806 789.678 350.54 790.438 347.071C791.198 343.602 792.501 345.987 792.501 343.06C792.501 340.134 792.393 338.291 793.478 336.665C794.564 335.039 793.587 334.605 793.37 330.486C793.044 326.366 794.456 326.041 792.284 325.824C790.004 325.716 791.524 326.475 788.158 324.849C784.792 323.223 782.729 322.464 779.906 320.838C777.083 319.212 775.129 312.057 773.826 312.057C772.523 312.057 768.723 312.166 768.832 309.997C768.94 307.721 767.529 306.962 768.94 305.987C770.352 305.011 769.7 305.011 768.615 303.493C767.529 301.867 767.094 300.241 770.243 298.94C773.392 297.639 765.466 296.555 760.797 295.797C756.128 295.038 754.065 291.786 753.74 289.292C753.414 286.799 750.157 284.306 753.414 283.113C756.563 281.921 756.128 282.029 756.237 277.043C756.345 272.056 756.671 273.14 757.214 268.587C757.648 264.035 755.911 262.734 758.083 262.517C760.254 262.3 761.34 262.842 763.946 259.265C766.552 255.579 767.746 253.303 769.157 254.929C770.569 256.555 770.46 258.94 772.523 258.723C774.586 258.506 772.089 256.013 773.718 255.579C775.455 255.145 778.821 249.942 778.386 245.823C777.952 241.704 780.449 243.113 782.621 242.462C784.792 241.704 785.77 235.958 787.832 236.283C789.895 236.5 794.89 239.752 796.301 236.283C797.604 232.706 799.016 233.682 800.644 230.321C802.382 226.961 803.467 227.503 804.662 227.503C805.856 227.503 804.987 224.576 806.073 223.167C807.159 221.757 809.656 223.492 813.131 220.565C816.605 217.638 819.862 218.288 819.862 215.253C819.862 212.218 823.011 212.977 823.228 211.025C823.445 209.074 823.228 207.015 825.4 207.448C827.571 207.882 829.634 207.665 829.634 205.605C829.634 203.546 833 204.413 831.046 202.895C829.091 201.378 828.006 199.21 825.725 199.101C823.445 198.993 819.862 200.294 820.622 197.15C821.382 194.006 827.354 195.199 825.943 191.947C824.531 188.694 823.88 189.128 823.554 189.02C823.228 188.911 823.88 186.093 821.817 186.093C819.754 186.093 818.451 186.96 818.885 184.033C819.319 181.106 817.691 181.973 815.085 182.624C812.479 183.274 813.131 181.648 813.022 180.781C812.914 179.914 809.765 181.757 810.851 179.589C811.936 177.421 817.691 174.602 818.994 171.784C820.297 168.965 820.08 166.038 817.039 165.821C813.999 165.605 818.234 169.615 816.171 170.158C814.108 170.808 812.805 168.098 811.285 169.615C809.765 171.133 808.353 174.602 806.616 174.71C804.987 174.819 802.273 179.48 801.513 176.878C800.753 174.277 801.079 170.266 798.69 169.724C796.301 169.182 797.821 170.049 797.821 170.049C797.821 170.049 798.907 170.808 798.69 173.626C798.473 176.553 796.301 172.759 796.301 174.71C796.301 176.662 797.061 177.746 797.387 180.131C797.713 182.515 797.604 180.889 797.604 183.925C797.604 186.96 800.102 184.141 797.604 188.044C795.107 192.055 795.216 191.079 793.804 193.464C792.393 195.849 791.958 195.632 790.764 196.499C789.461 197.367 789.787 198.342 788.701 198.559C787.615 198.776 786.638 198.559 786.312 200.944C785.878 203.329 782.947 205.822 780.992 203.437C778.929 201.052 780.558 200.402 779.146 198.884C777.843 197.367 776.323 199.101 775.889 197.692C775.455 196.283 774.695 197.15 772.958 195.199C771.22 193.247 770.026 195.199 769.049 192.38C768.072 189.562 767.529 189.453 766.117 189.02C764.706 188.586 768.072 185.551 765.14 182.949C762.317 180.347 763.403 181.431 760.688 182.949C757.974 184.467 757.214 183.925 757.214 186.418C757.214 188.911 756.671 190.754 754.717 190.537C752.762 190.32 754.283 189.995 752.002 187.936C749.831 185.876 749.505 186.743 747.877 186.31C746.248 185.876 745.596 186.201 745.596 184.9C745.596 183.599 745.162 184.9 743.859 186.635C742.556 188.369 744.185 189.236 743.751 191.513C743.316 193.789 741.796 194.331 741.362 195.849C740.928 197.367 740.602 196.608 738.973 196.174C737.345 195.741 735.282 196.174 733.653 194.982C732.024 193.789 729.201 189.345 727.573 190.754C725.944 192.163 726.487 195.524 724.424 196.066C722.361 196.499 722.687 198.125 722.253 198.668C721.818 199.21 723.447 199.752 719.538 200.185C715.629 200.619 715.412 200.294 714.761 201.811C714.109 203.329 710.744 200.294 709.766 199.643C708.789 198.993 703.143 193.356 700.212 193.356C697.28 193.356 690.223 189.67 688.594 192.163C686.965 194.765 685.337 195.199 681.754 195.849C678.171 196.499 675.999 195.957 674.914 198.559C673.719 201.161 674.371 206.798 672.851 207.557C671.33 208.315 669.05 209.291 667.313 207.99C665.576 206.798 661.776 204.304 661.124 201.703C660.473 199.101 661.016 198.125 659.93 198.017C658.844 197.909 655.587 195.957 653.524 196.716C651.461 197.475 646.684 199.86 643.752 199.752C640.821 199.643 635.935 196.933 632.243 193.464C628.552 189.887 628.552 191.513 628.552 188.478C628.552 185.442 627.249 166.689 623.123 166.363C618.997 166.038 620.734 169.399 618.563 172.542C616.391 175.686 613.677 178.071 611.722 177.746C609.659 177.312 602.385 178.396 602.059 182.299C601.625 186.201 600.539 185.442 597.716 185.768C594.893 186.093 597.173 188.261 595.11 189.995C593.047 191.621 590.441 194.657 585.121 194.115C579.801 193.573 578.607 191.188 576.435 191.621C574.264 192.055 572.635 197.041 570.572 197.367C568.509 197.692 564.166 196.066 562.755 194.548C561.343 193.031 541.799 184.033 540.497 181.648C539.194 179.263 537.456 178.071 536.913 177.204C536.371 176.336 535.611 175.252 533.982 175.578C532.353 175.903 531.81 176.878 526.273 174.494C520.736 172.109 524.102 171.025 522.473 171.133C520.844 171.242 526.164 174.927 517.804 171.025C509.444 167.014 508.575 165.171 506.621 165.171C504.666 165.171 505.426 162.786 503.798 162.786C502.169 162.786 500.758 164.087 498.478 164.087C496.089 164.087 493.7 162.678 491.094 163.22C488.489 163.762 489.792 164.304 487.511 166.038C485.123 167.773 484.58 169.507 482.3 168.423C479.911 167.231 481.757 163.437 479.151 163.762C476.545 164.087 474.808 165.388 472.854 165.388C470.899 165.388 467.316 165.496 468.619 164.412C469.922 163.22 472.637 162.352 470.465 161.81C468.294 161.268 466.665 162.678 465.362 161.81C464.059 160.943 461.779 156.607 459.933 156.607C458.087 156.716 449.076 153.572 448.641 155.848C448.207 158.016 444.95 160.076 443.864 157.908C442.67 155.848 440.39 155.74 440.39 157.8C440.39 159.859 440.172 163.22 438.652 163.653C437.132 164.087 432.463 163.762 432.246 165.605C432.029 167.447 430.292 167.556 428.338 169.615C426.383 171.675 425.732 173.952 424.429 171.35C423.126 168.748 423.126 168.206 421.714 166.58C420.303 164.954 420.086 164.846 419 166.363C417.914 167.989 417.046 169.941 416.069 167.773C415.091 165.605 412.594 160.835 409.011 160.618C405.428 160.401 400.108 161.485 400.759 154.981C401.411 148.477 401.302 140.997 402.279 137.745C403.257 134.601 403.582 132.758 401.628 129.94C399.674 127.121 400.651 125.821 395.765 124.411C390.879 123.002 388.707 125.604 387.187 121.159C385.667 116.715 383.93 116.064 382.193 118.558C380.456 121.051 378.718 121.81 376.873 120.509C375.027 119.208 374.81 119.425 374.592 121.81C374.484 124.195 372.747 124.303 370.901 124.737C369.055 125.17 369.924 125.821 369.055 127.23C368.078 128.639 366.666 127.772 364.278 128.856C361.889 129.94 361.672 132.867 359.175 133.842C356.677 134.927 355.483 136.986 352.443 135.794C349.403 134.601 347.666 133.409 347.449 134.059C347.231 134.71 346.906 137.853 344.843 137.745C342.78 137.637 344.083 140.563 341.803 140.563C339.522 140.563 338.22 140.347 337.568 141.647C336.917 142.948 335.614 144.791 334.094 143.707C332.574 142.623 334.637 141.105 330.402 141.756C326.168 142.406 327.796 143.165 323.562 141.756C319.327 140.347 318.784 139.913 315.853 140.347C312.921 140.78 312.704 140.997 311.727 137.42C310.75 133.842 309.664 133.626 309.447 132.108C309.23 130.59 310.424 129.29 310.858 127.664C311.401 125.929 313.681 125.821 312.596 123.436C311.51 121.051 311.618 120.617 308.144 120.834C304.67 121.051 302.715 120.184 299.784 120.617C296.852 121.051 293.703 122.135 293.703 123.111C293.703 124.086 288.818 125.604 286.646 125.062C284.474 124.411 281.869 122.677 284.257 121.376C286.646 119.967 292.183 116.498 289.686 116.823C287.189 117.148 287.515 117.257 283.497 117.257C279.48 117.257 281.109 115.631 278.829 113.68C276.548 111.728 274.92 113.571 274.051 111.186C273.183 108.801 276.44 111.295 276.331 109.343C276.223 107.392 276.114 105.332 273.725 105.224C271.337 105.116 271.337 102.08 269.708 102.406C268.188 102.622 268.622 104.248 266.234 103.164C263.845 102.08 264.062 102.839 261.782 102.406C259.393 101.972 261.565 100.996 259.393 100.671C257.222 100.346 255.376 98.2863 254.073 96.0098C252.77 93.625 252.553 94.3838 251.359 94.0586C250.164 93.7334 248.536 94.709 247.667 95.6846C246.799 96.6602 247.45 99.3703 245.821 98.0695C244.193 96.7686 245.17 94.9258 242.781 94.9258C240.393 94.9258 240.393 95.793 238.655 96.1182C236.81 96.4434 233.77 96.5518 232.032 94.4922C230.295 92.4325 229.644 92.1073 227.364 92.7577C224.975 93.4081 225.735 92.1073 224.215 90.9149C222.695 89.7224 221.066 92.7577 220.198 90.5897C219.438 88.4216 220.415 87.5544 220.415 84.9527C220.415 82.351 224.215 83.9771 224.106 81.9174C223.998 79.8578 223.563 78.9905 223.998 77.2561C224.432 75.63 226.061 75.088 225.735 72.8116C225.409 70.5351 225.083 70.7519 225.192 66.199C225.301 61.646 226.604 63.7057 226.495 61.3208C226.386 58.936 226.169 51.7814 223.889 50.1553C221.609 48.5293 220.849 47.12 219.98 43.8679C219.22 40.6159 214.443 35.1957 211.294 34.9789C208.146 34.7621 208.688 32.8108 205.757 32.9192C202.825 33.0276 197.071 32.2688 192.945 31.7268C188.819 31.1848 186.648 30.3176 182.63 30.3176C178.613 30.3176 171.121 29.3419 168.515 29.3419C165.91 29.3419 164.281 29.6672 163.195 27.9327C162.109 26.1983 160.264 28.2579 158.961 27.1739C157.658 26.0898 157.115 21.1033 155.269 18.8268C153.423 16.5504 151.143 13.7319 150.058 14.8159C148.972 15.9 147.886 20.3445 147.343 19.0437C146.692 17.8512 148.755 14.1655 146.149 13.2983C143.543 12.4311 138.657 9.82939 137.246 8.63696C135.834 7.44452 136.92 6.36049 135.617 4.51764C134.314 2.67479 127.039 2.13277 126.931 3.97563C126.822 5.81848 128.017 7.76973 125.519 8.09494C122.914 8.42015 122.045 8.52855 121.611 11.9975C121.285 15.4663 120.959 16.0084 119.548 16.2252C118.136 16.442 117.05 19.2605 114.987 18.5016C112.925 17.7428 109.776 16.1168 107.713 16.984C105.65 17.8512 103.37 17.6344 101.307 17.2008C99.244 16.8756 97.3982 17.8512 95.4438 17.8512C93.598 17.9596 90.3408 18.7184 87.6264 17.8512C84.912 16.984 83.9348 16.3336 83.9348 19.3689C83.9348 22.4041 83.2833 23.5966 86.5406 25.873C89.7979 28.1495 91.6437 26.8487 91.4265 29.7756C91.2094 32.594 91.4265 35.4125 90.015 35.9545C88.6036 36.6049 83.5005 37.7974 84.4777 39.5318C85.4548 41.2663 85.5634 42.6755 88.6035 42.4587C91.7523 42.2419 91.2094 41.1579 92.7294 39.857C94.2495 38.5562 97.6154 37.5806 98.7011 39.6402C99.7869 41.5915 101.416 45.3856 98.9183 47.2284C96.421 49.0713 93.7066 51.673 96.8553 54.0578C100.004 56.4427 101.416 54.2746 103.696 55.9007C105.976 57.5267 106.519 59.478 106.844 60.8872C107.061 62.2965 107.17 61.2124 108.582 62.1881C109.993 63.1637 110.319 67.3914 108.147 70.1015C105.976 72.8116 103.261 75.4132 103.261 78.1233C103.261 80.8334 102.393 83.3267 105.107 83.8687C107.821 84.5191 109.124 83.6519 111.404 82.4594C113.685 81.3754 113.685 80.3998 115.313 81.3754C116.942 82.351 115.313 84.5191 113.142 85.9283C110.97 87.3376 110.862 87.2292 112.49 88.2048C114.227 89.1804 118.028 90.5897 118.788 92.2157C119.548 93.8418 118.353 95.9014 118.571 96.9854C118.896 98.1779 118.245 96.877 119.656 97.0939C121.068 97.3107 122.154 97.3107 121.285 99.5871C120.416 101.864 118.028 102.622 119.331 104.032C120.633 105.441 122.154 106.959 120.851 107.609C119.548 108.151 117.159 107.826 117.593 109.56C118.028 111.295 117.159 109.885 118.679 110.427C120.199 110.861 119.222 111.62 119.656 112.162C120.091 112.704 121.176 111.728 121.393 113.246C121.611 114.764 121.936 115.306 120.959 116.39C119.873 117.474 121.285 115.848 122.045 118.016C122.805 120.292 121.176 120.943 124.325 121.268C127.474 121.593 128.234 123.544 129.211 121.701C130.188 119.967 130.08 119.425 130.405 118.774C130.731 118.016 133.771 120.834 134.857 120.834C135.943 120.834 136.16 121.701 135.943 123.111C135.834 124.52 134.857 125.387 136.051 126.471C137.246 127.555 137.68 125.495 138.006 127.555C138.331 129.506 137.354 130.374 139.96 130.374C142.566 130.374 143.977 131.458 143.869 129.29C143.76 127.013 142.674 126.471 144.303 126.254C145.932 126.146 147.235 125.604 147.669 124.52C148.103 123.436 150.058 122.894 151.686 123.978C153.315 125.062 157.332 126.796 155.703 130.048C154.075 133.3 152.12 133.192 152.12 134.927C152.12 136.661 152.229 142.298 151.36 143.707C150.492 145.116 150.492 145.658 152.12 146.634C153.749 147.61 153.423 147.068 153.749 148.802C154.075 150.537 153.966 151.187 155.486 150.103C157.006 149.019 156.029 147.501 157.766 147.501C159.504 147.501 157.875 145.658 160.046 145.008C162.218 144.358 163.738 145.55 164.607 146.742C165.475 147.935 164.932 149.561 166.018 151.404C167.104 153.247 168.081 153.463 167.43 154.764C166.778 156.065 166.452 157.366 169.818 158.016C173.184 158.667 176.116 157.258 176.876 158.558C177.636 159.859 177.744 159.751 179.373 159.859C181.002 159.968 181.436 161.594 181.436 163.437C181.436 165.279 183.39 165.713 183.173 166.472C182.956 167.231 182.305 167.339 179.916 168.098C177.527 168.857 178.07 170.266 175.03 169.832C171.99 169.399 170.361 171.025 167.321 170.266C164.39 169.507 164.281 170.158 163.087 171.242C161.892 172.326 162.109 173.084 157.658 172C153.206 170.916 154.292 172 149.949 170.049C145.714 168.098 143.217 167.989 142.023 167.881C140.829 167.773 142.892 167.447 140.286 166.472C137.68 165.496 138.874 166.147 135.183 166.363C131.491 166.58 130.188 165.713 128.777 167.231C127.474 168.748 128.777 173.084 127.365 174.494C125.954 175.903 123.891 176.77 123.131 178.613C122.371 180.456 122.805 184.684 120.742 185.009C118.679 185.334 115.639 186.31 115.205 187.177C114.77 188.044 114.662 187.936 113.033 187.394C111.404 186.852 111.187 184.575 109.884 186.743C108.582 188.911 108.799 192.055 106.736 190.754C104.673 189.562 106.193 187.827 103.804 187.719C101.416 187.61 98.8097 187.394 98.2668 189.453C97.8325 191.513 99.0268 191.947 98.5925 195.199C98.1582 198.342 97.8325 199.86 99.1354 201.92C100.438 203.871 102.501 202.57 103.587 203.654C104.673 204.738 106.193 204.304 108.907 204.738C111.513 205.172 112.056 205.063 112.707 203.654C113.359 202.245 114.879 201.486 116.29 203.004C117.702 204.521 116.616 205.389 119.331 207.99C122.045 210.592 120.525 210.375 122.588 210.483C124.651 210.592 123.239 212.326 124.542 212.868C125.845 213.41 123.674 213.844 128.342 213.302C133.011 212.76 135.074 212.001 136.16 213.519C137.246 215.036 137.571 214.82 139.96 214.928C142.349 215.036 143 213.085 143 216.446C143 219.806 143.326 222.733 144.412 225.335C145.497 227.936 143.869 226.527 143.543 229.454C143.217 232.381 144.194 237.801 140.829 237.367C137.463 236.934 135.183 234.983 133.88 236.392C132.577 237.801 134.531 238.018 132.251 238.993C129.971 239.969 129.862 240.836 128.451 242.029C127.039 243.221 126.388 243.872 123.782 242.462C121.176 241.053 120.416 239.102 118.679 239.861C116.942 240.619 115.205 242.462 117.593 243.763C119.982 245.064 118.679 247.34 117.05 247.991C115.422 248.641 115.639 249.725 115.856 250.918C116.073 252.11 116.508 252.327 118.462 253.519C120.416 254.712 117.05 256.013 117.81 257.097C118.571 258.181 121.393 258.831 121.719 259.915C122.045 260.999 121.828 265.444 122.588 265.552C123.348 265.661 129.754 265.227 130.948 266.094C132.142 266.961 136.051 271.84 137.354 273.466C138.657 275.092 143.434 277.151 143.434 278.994C143.434 280.837 142.349 283.656 143.543 283.872C144.737 284.089 145.497 285.39 146.692 285.39C147.886 285.39 148.646 284.414 149.949 284.414C151.252 284.414 154.618 285.173 155.378 286.691C156.138 288.317 157.224 289.943 158.852 289.943C160.481 289.943 163.521 291.027 163.955 292.545C164.498 294.062 167.864 292.87 168.95 291.786C170.035 290.702 172.858 289.943 174.921 291.135C176.984 292.328 179.047 294.062 181.653 294.929C184.259 295.797 184.693 297.097 184.91 298.507C185.128 299.916 184.693 299.591 186.539 302.301C188.385 305.011 188.819 304.36 192.728 304.469C196.637 304.577 198.482 302.951 199.134 304.686C199.785 306.42 201.631 305.336 204.237 305.878C206.843 306.42 205.974 308.155 204.128 308.697C202.283 309.239 204.237 312.166 204.237 313.141C204.237 314.225 206.083 315.418 206.843 315.092C207.603 314.767 207.711 311.84 209.557 313.141C211.403 314.442 213.357 315.201 213.249 316.935C213.14 318.67 219.22 317.586 219.98 320.079C220.74 322.572 222.043 324.09 219.872 324.307C217.7 324.523 216.94 324.415 217.375 326.366C217.809 328.209 217.483 328.209 218.895 328.751C220.306 329.293 221.392 328.751 221.392 330.919C221.392 333.087 221.392 333.521 219.655 332.979C217.917 332.328 216.072 330.811 213.9 330.919C211.729 331.028 210.426 331.678 209.666 331.57C208.906 331.461 209.774 334.171 208.906 334.171C208.037 334.171 205.757 333.521 205.757 334.605C205.757 335.689 207.06 341.76 203.585 341.868C200.111 341.976 196.528 343.819 194.791 340.567C193.054 337.315 194.139 335.689 190.991 336.123C187.951 336.556 189.471 338.616 187.408 338.507C185.345 338.399 183.716 339.591 183.282 335.689C182.847 331.786 179.916 334.063 179.699 331.895C179.59 329.618 172.424 328.968 171.773 331.028C171.23 333.087 170.035 335.472 170.035 338.724C170.035 341.976 171.664 344.036 167.973 344.036C164.281 344.036 165.91 346.746 162.652 346.746C159.395 346.746 151.903 347.288 150.275 344.361C148.646 341.434 151.903 338.291 148.212 337.532C144.52 336.773 146.149 335.255 142.891 334.388C139.634 333.521 139.96 334.063 137.028 334.28C134.205 334.388 129.971 335.797 129.862 337.749C129.754 339.7 128.994 342.41 129.428 344.578C129.862 346.854 130.297 351.624 127.799 351.624C125.302 351.624 120.091 355.093 119.005 355.744C117.919 356.502 118.679 357.478 116.725 357.37C114.77 357.261 113.142 356.828 112.707 358.128C112.273 359.429 110.753 362.898 109.233 362.898C107.713 362.898 109.342 365.283 106.953 365.283C104.564 365.283 102.501 366.15 102.067 367.559C101.633 368.86 101.741 371.245 99.5697 372.438C97.2896 373.63 94.4667 371.57 94.4667 373.738C94.4667 375.906 97.181 377.207 95.2267 378.183C93.2723 379.159 91.2094 381.11 91.2094 382.844C91.2094 384.579 88.8207 383.928 87.1921 383.278C85.5634 382.736 83.7176 384.037 84.4777 384.47C85.2377 384.904 89.1464 385.554 89.1464 386.855C89.1464 388.156 86.8663 389.24 85.0205 389.24C83.1747 389.24 84.6948 390.432 84.1519 391.95C83.6091 393.468 83.2833 395.853 81.7633 395.961C80.2432 396.069 74.923 393.034 72.9686 394.443C71.0142 395.961 67.8655 397.587 67.4312 396.937C66.9969 396.395 65.9112 397.479 64.4997 399.213C62.9796 400.839 62.5453 402.14 60.3738 402.357C58.0937 402.465 59.0709 404.308 58.0937 405.501C57.2251 406.693 56.5736 405.067 54.945 406.368C53.3164 407.669 53.4249 407.885 51.0363 408.102C48.6476 408.427 48.9733 412.005 46.2589 412.113C43.5445 412.222 42.1331 410.921 40.2873 411.788C38.55 412.655 37.8986 415.474 35.8356 415.907C33.7727 416.341 30.9497 415.365 30.7326 416.666C30.5154 417.967 28.9954 418.726 28.7782 421.111C28.6696 423.495 27.041 421.436 24.7609 421.219C22.4808 421.111 23.8923 423.17 22.0465 423.279C20.3093 423.387 17.7035 422.953 17.5949 424.905C17.4863 426.856 16.8349 429.024 16.0748 429.674C15.3148 430.325 14.9891 432.927 12.4918 432.927C9.99458 432.927 7.60591 433.035 7.60591 435.311C7.60591 437.588 9.23455 440.081 9.56028 442.358C9.88601 444.634 10.8632 444.634 10.4289 447.019C9.99458 449.404 10.4289 449.946 8.90882 449.946C7.38876 449.946 8.90882 452.005 7.60591 454.39C6.303 456.775 5.54297 456.45 5.32582 459.052C5.21724 461.545 3.37145 463.713 3.69718 465.881C4.02291 468.157 6.41158 467.507 6.41158 470.542C6.41158 473.469 8.36594 469.458 8.36594 472.06C8.36594 474.553 8.04022 474.445 9.12597 475.962C10.2117 477.48 11.1889 481.925 11.0803 484.201C10.9718 486.478 9.77743 490.272 10.9718 492.44C12.1661 494.608 15.0976 495.692 14.8805 497.535C14.5548 499.269 14.8805 502.304 15.9663 503.822C17.052 505.34 16.5091 505.557 16.5091 507.941C16.5091 510.326 17.2692 510.651 18.8978 511.41C20.5264 512.169 22.9151 511.085 24.218 513.795C25.5209 516.505 26.9324 518.24 29.7554 518.24C32.5784 518.24 32.5784 518.348 32.5784 520.299C32.5784 522.251 31.0583 523.551 33.3384 524.31C35.6185 525.069 37.2471 524.744 37.2471 527.454C37.2471 530.164 34.967 529.405 34.967 532.224C34.967 535.042 35.8357 534.283 37.79 535.151C39.7444 536.018 42.6759 537.427 42.4588 538.077C42.2416 538.728 40.0701 540.571 39.3101 541.655C38.55 542.739 39.3101 543.281 39.6358 545.557C39.9615 547.834 41.373 549.568 39.0929 550.761C36.7043 551.953 36.3785 554.013 35.1842 554.663C33.9899 555.205 34.7499 555.964 33.6641 556.072C33.6641 556.723 33.6641 557.698 33.6641 557.698Z" fill="#C8E6C9"/>
</mask>
<g mask="url(#mask0_205_2)">
<g opacity="0.5">
<g opacity="0.5">
<path opacity="0.5" d="M-392.7 35.9C-392.7 35.9 -391.1 40.1 -388 48C-387.2 50 -386.3 52.2 -385.4 54.7C-377.8 72.5 -370 89.7 -364.5 108C-363.6 110.3 -362.7 112.7 -361.8 115.1C-215.4 487.5 397.2 2048.4 397.2 2048.4" stroke="#A5D6A7" stroke-width="2.4141" stroke-miterlimit="10"/>
<path opacity="0.5" d="M-349.1 19.3C-342 38.1 -322.4 44.3 -306.4 55.1C-304.4 57.5 -301.4 59.6 -301.3 62.7C-302 80.1 -318.5 95.1 -312.1 113.4C-311.1 116 -310.1 118.6 -309 121.3C-148.3 530.7 440.8 2031.8 440.8 2031.8" stroke="#A5D6A7" stroke-width="2.4141" stroke-miterlimit="10"/>
<path opacity="0.5" d="M-305.6 2.70001L484.3 2015.3" stroke="#A5D6A7" stroke-width="2.4141" stroke-miterlimit="10"/>
<path opacity="0.5" d="M-262 -13.8L527.8 1998.7" stroke="#A5D6A7" stroke-width="2.4141" stroke-miterlimit="10"/>
<path opacity="0.5" d="M-218.5 -30.4L571.4 1982.1" stroke="#A5D6A7" stroke-width="2.4141" stroke-miterlimit="10"/>
<path opacity="0.5" d="M-174.9 -46.9L614.9 1965.6" stroke="#A5D6A7" stroke-width="2.4141" stroke-miterlimit="10"/>
<path opacity="0.5" d="M-131.4 -63.5L658.5 1949" stroke="#A5D6A7" stroke-width="2.4141" stroke-miterlimit="10"/>
<path opacity="0.5" d="M-87.7998 -80.1L702 1932.5" stroke="#A5D6A7" stroke-width="2.4141" stroke-miterlimit="10"/>
<path opacity="0.5" d="M-44.2998 -96.6L745.6 1915.9" stroke="#A5D6A7" stroke-width="2.4141" stroke-miterlimit="10"/>
<path opacity="0.5" d="M-0.699951 -113.2L789.1 1899.3" stroke="#A5D6A7" stroke-width="2.4141" stroke-miterlimit="10"/>
<path opacity="0.5" d="M42.8 -129.7L832.7 1882.8" stroke="#A5D6A7" stroke-width="2.4141" stroke-miterlimit="10"/>
<path opacity="0.5" d="M86.3999 -146.3L876.2 1866.2" stroke="#A5D6A7" stroke-width="2.4141" stroke-miterlimit="10"/>
<path opacity="0.5" d="M129.9 -162.9L919.8 1849.7" stroke="#A5D6A7" stroke-width="2.4141" stroke-miterlimit="10"/>
<path opacity="0.5" d="M173.5 -179.4L963.3 1833.1" stroke="#A5D6A7" stroke-width="2.4141" stroke-miterlimit="10"/>
<path opacity="0.5" d="M217 -196L1006.9 1816.5" stroke="#A5D6A7" stroke-width="2.4141" stroke-miterlimit="10"/>
<path opacity="0.5" d="M260.6 -212.5L1050.4 1800" stroke="#A5D6A7" stroke-width="2.4141" stroke-miterlimit="10"/>
<path opacity="0.5" d="M304.1 -229.1L1094 1783.4" stroke="#A5D6A7" stroke-width="2.4141" stroke-miterlimit="10"/>
<path opacity="0.5" d="M347.7 -245.7L1137.5 1766.9" stroke="#A5D6A7" stroke-width="2.4141" stroke-miterlimit="10"/>
<path opacity="0.5" d="M391.2 -262.2L1181.1 1750.3" stroke="#A5D6A7" stroke-width="2.4141" stroke-miterlimit="10"/>
<path opacity="0.5" d="M434.8 -278.8L1224.6 1733.7" stroke="#A5D6A7" stroke-width="2.4141" stroke-miterlimit="10"/>
<path opacity="0.5" d="M478.3 -295.3L1268.2 1717.2" stroke="#A5D6A7" stroke-width="2.4141" stroke-miterlimit="10"/>
<path opacity="0.5" d="M521.9 -311.9L1311.7 1700.6" stroke="#A5D6A7" stroke-width="2.4141" stroke-miterlimit="10"/>
<path opacity="0.5" d="M565.4 -328.5L1355.3 1684.1" stroke="#A5D6A7" stroke-width="2.4141" stroke-miterlimit="10"/>
<path opacity="0.5" d="M609 -345L1398.8 1667.5" stroke="#A5D6A7" stroke-width="2.4141" stroke-miterlimit="10"/>
<path opacity="0.5" d="M652.5 -361.6L1442.4 1650.9" stroke="#A5D6A7" stroke-width="2.4141" stroke-miterlimit="10"/>
<path opacity="0.5" d="M696.1 -378.1L1485.9 1634.4" stroke="#A5D6A7" stroke-width="2.4141" stroke-miterlimit="10"/>
<path opacity="0.5" d="M739.6 -394.7L1529.5 1617.8" stroke="#A5D6A7" stroke-width="2.4141" stroke-miterlimit="10"/>
<path opacity="0.5" d="M783.2 -411.3L1573 1601.3" stroke="#A5D6A7" stroke-width="2.4141" stroke-miterlimit="10"/>
<path opacity="0.5" d="M826.7 -427.8L1616.6 1584.7" stroke="#A5D6A7" stroke-width="2.4141" stroke-miterlimit="10"/>
</g>
<g opacity="0.5">
<path opacity="0.5" d="M-416.8 567.2L2261.4 970.8" stroke="#A5D6A7" stroke-width="2.4141" stroke-miterlimit="10"/>
<path opacity="0.5" d="M-409.2 521.2L2269 924.8" stroke="#A5D6A7" stroke-width="2.4141" stroke-miterlimit="10"/>
<path opacity="0.5" d="M-401.7 475.2L2276.6 878.9" stroke="#A5D6A7" stroke-width="2.4141" stroke-miterlimit="10"/>
<path opacity="0.5" d="M-394.1 429.3L2284.1 832.9" stroke="#A5D6A7" stroke-width="2.4141" stroke-miterlimit="10"/>
<path opacity="0.5" d="M-386.6 383.3L2291.7 786.9" stroke="#A5D6A7" stroke-width="2.4141" stroke-miterlimit="10"/>
<path opacity="0.5" d="M-379 337.3L2299.2 740.9" stroke="#A5D6A7" stroke-width="2.4141" stroke-miterlimit="10"/>
<path opacity="0.5" d="M-371.5 291.3L2306.8 695" stroke="#A5D6A7" stroke-width="2.4141" stroke-miterlimit="10"/>
<path opacity="0.5" d="M-363.9 245.3L2314.3 649" stroke="#A5D6A7" stroke-width="2.4141" stroke-miterlimit="10"/>
<path opacity="0.5" d="M-356.3 199.4L2321.9 603" stroke="#A5D6A7" stroke-width="2.4141" stroke-miterlimit="10"/>
<path opacity="0.5" d="M-348.8 153.4L2329.5 557" stroke="#A5D6A7" stroke-width="2.4141" stroke-miterlimit="10"/>
<path opacity="0.5" d="M-340.5 107.3C-330.1 109.3 -319.9 110.6 -310 112.1C-307.1 112.5 -304 113 -300.7 113.5C34.3 164 2337.1 511 2337.1 511" stroke="#A5D6A7" stroke-width="2.4141" stroke-miterlimit="10"/>
<path opacity="0.5" d="M-307.3 56C-300.8 56.1 -294.5 55.8 -287.8 56.4C-266.8 61 -252.1 76.6 -230.3 77C-227.8 77.4 -225.2 77.8 -222.6 78.2C283.3 154.4 2344.5 465.1 2344.5 465.1" stroke="#A5D6A7" stroke-width="2.4141" stroke-miterlimit="10"/>
<path opacity="0.5" d="M-326.1 15.5C-293.3 17.9 -261.7 24.8 -230.2 29.9C-227.8 30.3 -225.3 30.6 -222.7 31C269.6 105.2 2352.2 419.1 2352.2 419.1" stroke="#A5D6A7" stroke-width="2.4141" stroke-miterlimit="10"/>
<path opacity="0.5" d="M-318.6 -30.5L2359.7 373.1" stroke="#A5D6A7" stroke-width="2.4141" stroke-miterlimit="10"/>
<path opacity="0.5" d="M-311 -76.5L2367.2 327.1" stroke="#A5D6A7" stroke-width="2.4141" stroke-miterlimit="10"/>
<path opacity="0.5" d="M-303.4 -122.5L2374.8 281.2" stroke="#A5D6A7" stroke-width="2.4141" stroke-miterlimit="10"/>
<path opacity="0.5" d="M-295.9 -168.4L2382.4 235.2" stroke="#A5D6A7" stroke-width="2.4141" stroke-miterlimit="10"/>
<path opacity="0.5" d="M-288.3 -214.4L2389.9 189.2" stroke="#A5D6A7" stroke-width="2.4141" stroke-miterlimit="10"/>
<path opacity="0.5" d="M-280.8 -260.4L2397.5 143.2" stroke="#A5D6A7" stroke-width="2.4141" stroke-miterlimit="10"/>
<path opacity="0.5" d="M-273.2 -306.4L2405 97.3" stroke="#A5D6A7" stroke-width="2.4141" stroke-miterlimit="10"/>
<path opacity="0.5" d="M-265.7 -352.4L2412.6 51.3" stroke="#A5D6A7" stroke-width="2.4141" stroke-miterlimit="10"/>
<path opacity="0.5" d="M-258.1 -398.3L2420.1 5.29999" stroke="#A5D6A7" stroke-width="2.4141" stroke-miterlimit="10"/>
</g>
<g opacity="0.5">
<path opacity="0.5" d="M2501.2 244.4L812.5 2362.1" stroke="#A5D6A7" stroke-width="2.4141" stroke-miterlimit="10"/>
<path opacity="0.5" d="M2464.4 215.9L775.7 2333.5" stroke="#A5D6A7" stroke-width="2.4141" stroke-miterlimit="10"/>
<path opacity="0.5" d="M2427.6 187.3L738.9 2304.9" stroke="#A5D6A7" stroke-width="2.4141" stroke-miterlimit="10"/>
<path opacity="0.5" d="M2390.8 158.8L702.1 2276.4" stroke="#A5D6A7" stroke-width="2.4141" stroke-miterlimit="10"/>
<path opacity="0.5" d="M2354 130.2L665.3 2247.8" stroke="#A5D6A7" stroke-width="2.4141" stroke-miterlimit="10"/>
<path opacity="0.5" d="M2317.2 101.6L628.5 2219.2" stroke="#A5D6A7" stroke-width="2.4141" stroke-miterlimit="10"/>
<path opacity="0.5" d="M2280.3 73.1L591.7 2190.7" stroke="#A5D6A7" stroke-width="2.4141" stroke-miterlimit="10"/>
<path opacity="0.5" d="M2243.5 44.5L554.9 2162.1" stroke="#A5D6A7" stroke-width="2.4141" stroke-miterlimit="10"/>
<path opacity="0.5" d="M2206.7 15.9L518 2133.6" stroke="#A5D6A7" stroke-width="2.4141" stroke-miterlimit="10"/>
<path opacity="0.5" d="M2169.9 -12.6L481.2 2105" stroke="#A5D6A7" stroke-width="2.4141" stroke-miterlimit="10"/>
<path opacity="0.5" d="M2133.1 -41.2L444.4 2076.4" stroke="#A5D6A7" stroke-width="2.4141" stroke-miterlimit="10"/>
<path opacity="0.5" d="M2096.3 -69.7L407.6 2047.9" stroke="#A5D6A7" stroke-width="2.4141" stroke-miterlimit="10"/>
<path opacity="0.5" d="M2059.5 -98.3L370.8 2019.3" stroke="#A5D6A7" stroke-width="2.4141" stroke-miterlimit="10"/>
<path opacity="0.5" d="M2022.7 -126.9L334 1990.7" stroke="#A5D6A7" stroke-width="2.4141" stroke-miterlimit="10"/>
<path opacity="0.5" d="M1985.8 -155.4L297.2 1962.2" stroke="#A5D6A7" stroke-width="2.4141" stroke-miterlimit="10"/>
<path opacity="0.5" d="M1949 -184L260.3 1933.6" stroke="#A5D6A7" stroke-width="2.4141" stroke-miterlimit="10"/>
<path opacity="0.5" d="M1912.2 -212.5L223.5 1905.1" stroke="#A5D6A7" stroke-width="2.4141" stroke-miterlimit="10"/>
<path opacity="0.5" d="M1875.4 -241.1L186.7 1876.5" stroke="#A5D6A7" stroke-width="2.4141" stroke-miterlimit="10"/>
<path opacity="0.5" d="M1838.6 -269.7L149.9 1847.9" stroke="#A5D6A7" stroke-width="2.4141" stroke-miterlimit="10"/>
<path opacity="0.5" d="M1801.8 -298.2L113.1 1819.4" stroke="#A5D6A7" stroke-width="2.4141" stroke-miterlimit="10"/>
<path opacity="0.5" d="M1765 -326.8L76.3 1790.8" stroke="#A5D6A7" stroke-width="2.4141" stroke-miterlimit="10"/>
<path opacity="0.5" d="M1728.2 -355.4L39.5 1762.2" stroke="#A5D6A7" stroke-width="2.4141" stroke-miterlimit="10"/>
<path opacity="0.5" d="M1691.3 -383.9L2.69995 1733.7" stroke="#A5D6A7" stroke-width="2.4141" stroke-miterlimit="10"/>
<path opacity="0.5" d="M1654.5 -412.5L-34.2 1705.1" stroke="#A5D6A7" stroke-width="2.4141" stroke-miterlimit="10"/>
<path opacity="0.5" d="M1617.7 -441L-71 1676.6" stroke="#A5D6A7" stroke-width="2.4141" stroke-miterlimit="10"/>
<path opacity="0.5" d="M1580.9 -469.6L-107.8 1648" stroke="#A5D6A7" stroke-width="2.4141" stroke-miterlimit="10"/>
<path opacity="0.5" d="M1544.1 -498.2L-144.6 1619.4" stroke="#A5D6A7" stroke-width="2.4141" stroke-miterlimit="10"/>
<path opacity="0.5" d="M1507.3 -526.7L-181.4 1590.9" stroke="#A5D6A7" stroke-width="2.4141" stroke-miterlimit="10"/>
<path opacity="0.5" d="M1470.5 -555.3L-218.2 1562.3" stroke="#A5D6A7" stroke-width="2.4141" stroke-miterlimit="10"/>
<path opacity="0.5" d="M1433.6 -583.9L-255 1533.7" stroke="#A5D6A7" stroke-width="2.4141" stroke-miterlimit="10"/>
<path opacity="0.5" d="M1396.8 -612.4L-291.9 1505.2" stroke="#A5D6A7" stroke-width="2.4141" stroke-miterlimit="10"/>
<path opacity="0.5" d="M1360 -641L-328.7 1476.6" stroke="#A5D6A7" stroke-width="2.4141" stroke-miterlimit="10"/>
<path opacity="0.5" d="M1323.2 -669.5L-365.5 1448.1" stroke="#A5D6A7" stroke-width="2.4141" stroke-miterlimit="10"/>
<path opacity="0.5" d="M1286.4 -698.1L-402.3 1419.5" stroke="#A5D6A7" stroke-width="2.4141" stroke-miterlimit="10"/>
<path opacity="0.5" d="M1249.6 -726.7L-439.1 1390.9" stroke="#A5D6A7" stroke-width="2.4141" stroke-miterlimit="10"/>
<path opacity="0.5" d="M1212.8 -755.2L-475.9 1362.4" stroke="#A5D6A7" stroke-width="2.4141" stroke-miterlimit="10"/>
<path opacity="0.5" d="M1176 -783.8L-512.7 1333.8" stroke="#A5D6A7" stroke-width="2.4141" stroke-miterlimit="10"/>
<path opacity="0.5" d="M1139.1 -812.4L-549.5 1305.2" stroke="#A5D6A7" stroke-width="2.4141" stroke-miterlimit="10"/>
<path opacity="0.5" d="M1102.3 -840.9L-586.4 1276.7" stroke="#A5D6A7" stroke-width="2.4141" stroke-miterlimit="10"/>
<path opacity="0.5" d="M1065.5 -869.5L-623.2 1248.1" stroke="#A5D6A7" stroke-width="2.4141" stroke-miterlimit="10"/>
<path opacity="0.5" d="M1028.7 -898L-660 1219.6" stroke="#A5D6A7" stroke-width="2.4141" stroke-miterlimit="10"/>
</g>
</g>
</g>
<path d="M294 233C272.99 233 256 250.039 256 271.11C256 292.125 294 350 294 350C294 350 332 292.125 332 271.11C332 250.039 314.954 233 294 233ZM294 286.332C285.618 286.332 278.823 279.516 278.823 271.11C278.823 262.704 285.618 255.889 294 255.889C302.382 255.889 309.177 262.704 309.177 271.11C309.177 279.516 302.382 286.332 294 286.332Z" fill="#EA4335"/>
<defs>
<filter id="filter0_d_205_2" x="0.658691" y="0.835022" width="835.997" height="603.915" filterUnits="userSpaceOnUse" color-interpolation-filters="sRGB">
<feFlood flood-opacity="0" result="BackgroundImageFix"/>
<feColorMatrix in="SourceAlpha" type="matrix" values="0 0 0 0 0 0 0 0 0 0 0 0 0 0 0 0 0 0 127 0" result="hardAlpha"/>
<feOffset dx="1" dy="2"/>
<feGaussianBlur stdDeviation="2"/>
<feComposite in2="hardAlpha" operator="out"/>
<feColorMatrix type="matrix" values="0 0 0 0 0 0 0 0 0 0 0 0 0 0 0 0 0 0 0.2 0"/>
<feBlend mode="normal" in2="BackgroundImageFix" result="effect1_dropShadow_205_2"/>
<feBlend mode="normal" in="SourceGraphic" in2="effect1_dropShadow_205_2" result="shape"/>
</filter>
</defs>
</svg>
