<svg  viewBox="0 0 1353 687" fill="none" xmlns="http://www.w3.org/2000/svg">
<path d="M1353 0.332581H0V687H1353V0.332581Z" fill="#F9F9F9"/>
<mask id="mask0_299:3" style="mask-type:alpha" maskUnits="userSpaceOnUse" x="0" y="0" width="1353" height="687">
<path d="M1353 0.332581H0V687H1353V0.332581Z" fill="#F9F9F9"/>
</mask>
<g mask="url(#mask0_299:3)">
<path d="M1352.16 23.1893L0.502563 25.2434" stroke="#ADC9F2" stroke-width="1.2573" stroke-miterlimit="10"/>
<path d="M1352.24 62.0659L0.586304 64.0439" stroke="#ADC9F2" stroke-width="1.2573" stroke-miterlimit="10"/>
<path d="M1351.99 103.3L0.670044 102.921" stroke="#ADC9F2" stroke-width="1.2573" stroke-miterlimit="10"/>
<path d="M1351.99 142.177L0.670044 141.797" stroke="#ADC9F2" stroke-width="1.2573" stroke-miterlimit="10"/>
<path d="M1352.07 181.053L0.753784 180.598" stroke="#ADC9F2" stroke-width="1.2573" stroke-miterlimit="10"/>
<path d="M1352.16 219.854L0.837708 219.474" stroke="#ADC9F2" stroke-width="1.2573" stroke-miterlimit="10"/>
<path d="M1352.24 258.731L0.921448 258.351" stroke="#ADC9F2" stroke-width="1.2573" stroke-miterlimit="10"/>
<path d="M1354 295.173L1.00519 297.228" stroke="#ADC9F2" stroke-width="1.2573" stroke-miterlimit="10"/>
<path d="M1352.32 336.408L1.08887 336.028" stroke="#ADC9F2" stroke-width="1.2573" stroke-miterlimit="10"/>
<path d="M1352.41 375.284L1.08887 374.905" stroke="#ADC9F2" stroke-width="1.2573" stroke-miterlimit="10"/>
<path d="M1352.49 414.161L1.17261 413.781" stroke="#ADC9F2" stroke-width="1.2573" stroke-miterlimit="10"/>
<path d="M1352.58 452.962L1.25635 452.582" stroke="#ADC9F2" stroke-width="1.2573" stroke-miterlimit="10"/>
<path d="M1352.66 491.838L1.34027 491.458" stroke="#ADC9F2" stroke-width="1.2573" stroke-miterlimit="10"/>
<path d="M1352.74 530.715L1.42383 530.335" stroke="#ADC9F2" stroke-width="1.2573" stroke-miterlimit="10"/>
<path d="M1352.74 569.591L1.42383 569.136" stroke="#ADC9F2" stroke-width="1.2573" stroke-miterlimit="10"/>
<path d="M1352.83 608.392L1.50775 608.012" stroke="#ADC9F2" stroke-width="1.2573" stroke-miterlimit="10"/>
<path d="M1352.91 647.269L1.59149 646.889" stroke="#ADC9F2" stroke-width="1.2573" stroke-miterlimit="10"/>
<path d="M1352.99 686.145L1.67523 685.689" stroke="#ADC9F2" stroke-width="1.2573" stroke-miterlimit="10"/>
<path d="M923.803 956.38L921.625 -286.911" stroke="#ADC9F2" stroke-width="1.2573" stroke-miterlimit="10"/>
<path d="M869.609 956.456L867.347 -286.835" stroke="#ADC9F2" stroke-width="1.2573" stroke-miterlimit="10"/>
<path d="M815.332 956.533L813.154 -286.759" stroke="#ADC9F2" stroke-width="1.2573" stroke-miterlimit="10"/>
<path d="M761.138 956.608L758.96 -286.682" stroke="#ADC9F2" stroke-width="1.2573" stroke-miterlimit="10"/>
<path d="M706.945 956.685L704.767 -286.606" stroke="#ADC9F2" stroke-width="1.2573" stroke-miterlimit="10"/>
<path d="M652.751 956.761L650.49 -286.53" stroke="#ADC9F2" stroke-width="1.2573" stroke-miterlimit="10"/>
<path d="M1194.35 955.924L1192.17 -287.367" stroke="#ADC9F2" stroke-width="1.2573" stroke-miterlimit="10"/>
<path d="M1140.16 955.999L1137.9 -287.292" stroke="#ADC9F2" stroke-width="1.2573" stroke-miterlimit="10"/>
<path d="M1085.88 956.075L1083.7 -287.216" stroke="#ADC9F2" stroke-width="1.2573" stroke-miterlimit="10"/>
<path d="M1031.69 956.151L1029.51 -287.14" stroke="#ADC9F2" stroke-width="1.2573" stroke-miterlimit="10"/>
<path d="M977.493 956.227L975.315 -287.064" stroke="#ADC9F2" stroke-width="1.2573" stroke-miterlimit="10"/>
<path d="M1249.21 955.847L1246.95 -287.444" stroke="#ADC9F2" stroke-width="1.2573" stroke-miterlimit="10"/>
<path d="M1302.91 955.695L1300.73 -287.595" stroke="#ADC9F2" stroke-width="1.2573" stroke-miterlimit="10"/>
<path d="M598.474 956.837L596.296 -286.454" stroke="#ADC9F2" stroke-width="1.2573" stroke-miterlimit="10"/>
<path d="M544.28 956.913L542.103 -286.378" stroke="#ADC9F2" stroke-width="1.2573" stroke-miterlimit="10"/>
<path d="M490.087 956.989L487.909 -286.302" stroke="#ADC9F2" stroke-width="1.2573" stroke-miterlimit="10"/>
<path d="M435.893 957.065L433.632 -286.226" stroke="#ADC9F2" stroke-width="1.2573" stroke-miterlimit="10"/>
<path d="M381.616 957.141L379.438 -286.15" stroke="#ADC9F2" stroke-width="1.2573" stroke-miterlimit="10"/>
<path d="M327.423 957.217L325.245 -286.074" stroke="#ADC9F2" stroke-width="1.2573" stroke-miterlimit="10"/>
<path d="M273.229 957.293L271.051 -285.998" stroke="#ADC9F2" stroke-width="1.2573" stroke-miterlimit="10"/>
<path d="M219.035 957.369L216.774 -285.922" stroke="#ADC9F2" stroke-width="1.2573" stroke-miterlimit="10"/>
<path d="M164.759 957.445L162.581 -285.846" stroke="#ADC9F2" stroke-width="1.2573" stroke-miterlimit="10"/>
<path d="M56.3713 957.597L54.1935 -285.693" stroke="#ADC9F2" stroke-width="1.2573" stroke-miterlimit="10"/>
<path d="M110.565 957.521L108.387 -285.77" stroke="#ADC9F2" stroke-width="1.2573" stroke-miterlimit="10"/>
</g>
</svg>
