<svg width="388" height="484" viewBox="0 0 388 484" fill="none" xmlns="http://www.w3.org/2000/svg">
<g clip-path="url(#clip0_342:1158)">
<path d="M388 0H0V484H388V0Z" fill="#F44336"/>
<g clip-path="url(#clip1_342:1158)">
<path d="M31.2319 283.187C32.8065 283.187 34.0829 281.91 34.0829 280.333C34.0829 278.757 32.8065 277.479 31.2319 277.479C29.6573 277.479 28.3809 278.757 28.3809 280.333C28.3809 281.91 29.6573 283.187 31.2319 283.187Z" fill="#F19A99"/>
<path d="M60.9082 283.057C62.4827 283.057 63.7592 281.78 63.7592 280.204C63.7592 278.627 62.4827 277.35 60.9082 277.35C59.3336 277.35 58.0571 278.627 58.0571 280.204C58.0571 281.78 59.3336 283.057 60.9082 283.057Z" fill="#F19A99"/>
<path d="M90.7148 282.928C92.2894 282.928 93.5658 281.65 93.5658 280.074C93.5658 278.498 92.2894 277.22 90.7148 277.22C89.1402 277.22 87.8638 278.498 87.8638 280.074C87.8638 281.65 89.1402 282.928 90.7148 282.928Z" fill="#F19A99"/>
<path d="M120.392 282.668C121.966 282.668 123.243 281.391 123.243 279.814C123.243 278.238 121.966 276.96 120.392 276.96C118.817 276.96 117.541 278.238 117.541 279.814C117.541 281.391 118.817 282.668 120.392 282.668Z" fill="#F19A99"/>
<path d="M150.068 282.539C151.643 282.539 152.919 281.261 152.919 279.685C152.919 278.109 151.643 276.831 150.068 276.831C148.494 276.831 147.217 278.109 147.217 279.685C147.217 281.261 148.494 282.539 150.068 282.539Z" fill="#F19A99"/>
<path d="M179.745 282.409C181.319 282.409 182.596 281.131 182.596 279.555C182.596 277.979 181.319 276.701 179.745 276.701C178.17 276.701 176.894 277.979 176.894 279.555C176.894 281.131 178.17 282.409 179.745 282.409Z" fill="#F19A99"/>
<path d="M209.421 282.279C210.996 282.279 212.272 281.001 212.272 279.425C212.272 277.849 210.996 276.571 209.421 276.571C207.847 276.571 206.57 277.849 206.57 279.425C206.57 281.001 207.847 282.279 209.421 282.279Z" fill="#F19A99"/>
<path d="M239.228 282.02C240.802 282.02 242.079 280.742 242.079 279.166C242.079 277.59 240.802 276.312 239.228 276.312C237.653 276.312 236.376 277.59 236.376 279.166C236.376 280.742 237.653 282.02 239.228 282.02Z" fill="#F19A99"/>
<path d="M268.904 281.89C270.479 281.89 271.755 280.612 271.755 279.036C271.755 277.46 270.479 276.182 268.904 276.182C267.33 276.182 266.053 277.46 266.053 279.036C266.053 280.612 267.33 281.89 268.904 281.89Z" fill="#F19A99"/>
<path d="M298.581 281.76C300.156 281.76 301.432 280.483 301.432 278.906C301.432 277.33 300.156 276.052 298.581 276.052C297.006 276.052 295.73 277.33 295.73 278.906C295.73 280.483 297.006 281.76 298.581 281.76Z" fill="#F19A99"/>
<path d="M328.258 281.631C329.832 281.631 331.109 280.353 331.109 278.777C331.109 277.201 329.832 275.923 328.258 275.923C326.683 275.923 325.407 277.201 325.407 278.777C325.407 280.353 326.683 281.631 328.258 281.631Z" fill="#F19A99"/>
<path d="M357.935 281.371C359.509 281.371 360.786 280.093 360.786 278.517C360.786 276.941 359.509 275.663 357.935 275.663C356.36 275.663 355.083 276.941 355.083 278.517C355.083 280.093 356.36 281.371 357.935 281.371Z" fill="#F19A99"/>
<path d="M31.102 251.664C32.6766 251.664 33.953 250.387 33.953 248.81C33.953 247.234 32.6766 245.957 31.102 245.957C29.5274 245.957 28.251 247.234 28.251 248.81C28.251 250.387 29.5274 251.664 31.102 251.664Z" fill="#F19A99"/>
<path d="M60.7788 251.535C62.3534 251.535 63.6298 250.257 63.6298 248.681C63.6298 247.105 62.3534 245.827 60.7788 245.827C59.2042 245.827 57.9277 247.105 57.9277 248.681C57.9277 250.257 59.2042 251.535 60.7788 251.535Z" fill="#F19A99"/>
<path d="M90.4555 251.275C92.0301 251.275 93.3066 249.997 93.3066 248.421C93.3066 246.845 92.0301 245.567 90.4555 245.567C88.8809 245.567 87.6045 246.845 87.6045 248.421C87.6045 249.997 88.8809 251.275 90.4555 251.275Z" fill="#F19A99"/>
<path d="M120.262 251.145C121.836 251.145 123.113 249.868 123.113 248.291C123.113 246.715 121.836 245.438 120.262 245.438C118.687 245.438 117.411 246.715 117.411 248.291C117.411 249.868 118.687 251.145 120.262 251.145Z" fill="#F19A99"/>
<path d="M149.938 251.016C151.513 251.016 152.789 249.738 152.789 248.162C152.789 246.586 151.513 245.308 149.938 245.308C148.364 245.308 147.087 246.586 147.087 248.162C147.087 249.738 148.364 251.016 149.938 251.016Z" fill="#F19A99"/>
<path d="M179.615 250.886C181.19 250.886 182.466 249.608 182.466 248.032C182.466 246.456 181.19 245.178 179.615 245.178C178.041 245.178 176.764 246.456 176.764 248.032C176.764 249.608 178.041 250.886 179.615 250.886Z" fill="#F19A99"/>
<path d="M209.292 250.627C210.867 250.627 212.143 249.349 212.143 247.773C212.143 246.196 210.867 244.919 209.292 244.919C207.717 244.919 206.441 246.196 206.441 247.773C206.441 249.349 207.717 250.627 209.292 250.627Z" fill="#F19A99"/>
<path d="M238.969 250.497C240.543 250.497 241.82 249.219 241.82 247.643C241.82 246.067 240.543 244.789 238.969 244.789C237.394 244.789 236.118 246.067 236.118 247.643C236.118 249.219 237.394 250.497 238.969 250.497Z" fill="#F19A99"/>
<path d="M268.775 250.367C270.349 250.367 271.626 249.089 271.626 247.513C271.626 245.937 270.349 244.659 268.775 244.659C267.2 244.659 265.924 245.937 265.924 247.513C265.924 249.089 267.2 250.367 268.775 250.367Z" fill="#F19A99"/>
<path d="M298.452 250.237C300.026 250.237 301.303 248.96 301.303 247.383C301.303 245.807 300.026 244.53 298.452 244.53C296.877 244.53 295.601 245.807 295.601 247.383C295.601 248.96 296.877 250.237 298.452 250.237Z" fill="#F19A99"/>
<path d="M328.128 249.978C329.703 249.978 330.979 248.7 330.979 247.124C330.979 245.548 329.703 244.27 328.128 244.27C326.554 244.27 325.277 245.548 325.277 247.124C325.277 248.7 326.554 249.978 328.128 249.978Z" fill="#F19A99"/>
<path d="M357.805 249.848C359.379 249.848 360.656 248.57 360.656 246.994C360.656 245.418 359.379 244.14 357.805 244.14C356.23 244.14 354.954 245.418 354.954 246.994C354.954 248.57 356.23 249.848 357.805 249.848Z" fill="#F19A99"/>
<path d="M30.9726 221.05C32.5472 221.05 33.8237 219.772 33.8237 218.196C33.8237 216.62 32.5472 215.342 30.9726 215.342C29.398 215.342 28.1216 216.62 28.1216 218.196C28.1216 219.772 29.398 221.05 30.9726 221.05Z" fill="#F19A99"/>
<path d="M60.6494 220.79C62.224 220.79 63.5004 219.512 63.5004 217.936C63.5004 216.36 62.224 215.082 60.6494 215.082C59.0748 215.082 57.7983 216.36 57.7983 217.936C57.7983 219.512 59.0748 220.79 60.6494 220.79Z" fill="#F19A99"/>
<path d="M90.3261 220.66C91.9007 220.66 93.1772 219.382 93.1772 217.806C93.1772 216.23 91.9007 214.952 90.3261 214.952C88.7516 214.952 87.4751 216.23 87.4751 217.806C87.4751 219.382 88.7516 220.66 90.3261 220.66Z" fill="#F19A99"/>
<path d="M120.002 220.531C121.577 220.531 122.853 219.253 122.853 217.677C122.853 216.1 121.577 214.823 120.002 214.823C118.428 214.823 117.151 216.1 117.151 217.677C117.151 219.253 118.428 220.531 120.002 220.531Z" fill="#F19A99"/>
<path d="M149.809 220.401C151.384 220.401 152.66 219.123 152.66 217.547C152.66 215.971 151.384 214.693 149.809 214.693C148.234 214.693 146.958 215.971 146.958 217.547C146.958 219.123 148.234 220.401 149.809 220.401Z" fill="#F19A99"/>
<path d="M179.485 220.141C181.06 220.141 182.336 218.864 182.336 217.288C182.336 215.711 181.06 214.434 179.485 214.434C177.911 214.434 176.634 215.711 176.634 217.288C176.634 218.864 177.911 220.141 179.485 220.141Z" fill="#F19A99"/>
<path d="M209.163 220.012C210.737 220.012 212.014 218.734 212.014 217.158C212.014 215.582 210.737 214.304 209.163 214.304C207.588 214.304 206.312 215.582 206.312 217.158C206.312 218.734 207.588 220.012 209.163 220.012Z" fill="#F19A99"/>
<path d="M238.839 219.882C240.413 219.882 241.69 218.604 241.69 217.028C241.69 215.452 240.413 214.174 238.839 214.174C237.264 214.174 235.988 215.452 235.988 217.028C235.988 218.604 237.264 219.882 238.839 219.882Z" fill="#F19A99"/>
<path d="M268.516 219.752C270.09 219.752 271.367 218.475 271.367 216.898C271.367 215.322 270.09 214.044 268.516 214.044C266.941 214.044 265.665 215.322 265.665 216.898C265.665 218.475 266.941 219.752 268.516 219.752Z" fill="#F19A99"/>
<path d="M298.322 219.623C299.896 219.623 301.173 218.345 301.173 216.769C301.173 215.193 299.896 213.915 298.322 213.915C296.747 213.915 295.471 215.193 295.471 216.769C295.471 218.345 296.747 219.623 298.322 219.623Z" fill="#F19A99"/>
<path d="M327.999 219.363C329.573 219.363 330.85 218.085 330.85 216.509C330.85 214.933 329.573 213.655 327.999 213.655C326.424 213.655 325.147 214.933 325.147 216.509C325.147 218.085 326.424 219.363 327.999 219.363Z" fill="#F19A99"/>
<path d="M357.675 219.233C359.25 219.233 360.526 217.956 360.526 216.38C360.526 214.803 359.25 213.526 357.675 213.526C356.101 213.526 354.824 214.803 354.824 216.38C354.824 217.956 356.101 219.233 357.675 219.233Z" fill="#F19A99"/>
<path d="M30.8427 189.397C32.4173 189.397 33.6938 188.119 33.6938 186.543C33.6938 184.967 32.4173 183.689 30.8427 183.689C29.2682 183.689 27.9917 184.967 27.9917 186.543C27.9917 188.119 29.2682 189.397 30.8427 189.397Z" fill="#F19A99"/>
<path d="M60.5195 189.267C62.0941 189.267 63.3705 187.989 63.3705 186.413C63.3705 184.837 62.0941 183.559 60.5195 183.559C58.9449 183.559 57.6685 184.837 57.6685 186.413C57.6685 187.989 58.9449 189.267 60.5195 189.267Z" fill="#F19A99"/>
<path d="M90.1962 189.138C91.7708 189.138 93.0473 187.86 93.0473 186.284C93.0473 184.707 91.7708 183.43 90.1962 183.43C88.6217 183.43 87.3452 184.707 87.3452 186.284C87.3452 187.86 88.6217 189.138 90.1962 189.138Z" fill="#F19A99"/>
<path d="M119.873 189.008C121.448 189.008 122.724 187.73 122.724 186.154C122.724 184.578 121.448 183.3 119.873 183.3C118.298 183.3 117.022 184.578 117.022 186.154C117.022 187.73 118.298 189.008 119.873 189.008Z" fill="#F19A99"/>
<path d="M149.55 188.748C151.124 188.748 152.401 187.471 152.401 185.894C152.401 184.318 151.124 183.041 149.55 183.041C147.975 183.041 146.699 184.318 146.699 185.894C146.699 187.471 147.975 188.748 149.55 188.748Z" fill="#F19A99"/>
<path d="M179.356 188.618C180.93 188.618 182.207 187.341 182.207 185.765C182.207 184.188 180.93 182.911 179.356 182.911C177.781 182.911 176.505 184.188 176.505 185.765C176.505 187.341 177.781 188.618 179.356 188.618Z" fill="#F19A99"/>
<path d="M209.033 188.489C210.607 188.489 211.884 187.211 211.884 185.635C211.884 184.059 210.607 182.781 209.033 182.781C207.458 182.781 206.182 184.059 206.182 185.635C206.182 187.211 207.458 188.489 209.033 188.489Z" fill="#F19A99"/>
<path d="M238.709 188.359C240.284 188.359 241.56 187.081 241.56 185.505C241.56 183.929 240.284 182.651 238.709 182.651C237.135 182.651 235.858 183.929 235.858 185.505C235.858 187.081 237.135 188.359 238.709 188.359Z" fill="#F19A99"/>
<path d="M268.386 188.229C269.961 188.229 271.237 186.952 271.237 185.375C271.237 183.799 269.961 182.521 268.386 182.521C266.812 182.521 265.535 183.799 265.535 185.375C265.535 186.952 266.812 188.229 268.386 188.229Z" fill="#F19A99"/>
<path d="M298.062 187.97C299.637 187.97 300.914 186.692 300.914 185.116C300.914 183.54 299.637 182.262 298.062 182.262C296.488 182.262 295.211 183.54 295.211 185.116C295.211 186.692 296.488 187.97 298.062 187.97Z" fill="#F19A99"/>
<path d="M327.869 187.84C329.444 187.84 330.72 186.562 330.72 184.986C330.72 183.41 329.444 182.132 327.869 182.132C326.295 182.132 325.018 183.41 325.018 184.986C325.018 186.562 326.295 187.84 327.869 187.84Z" fill="#F19A99"/>
<path d="M357.546 187.711C359.12 187.711 360.397 186.433 360.397 184.857C360.397 183.28 359.12 182.003 357.546 182.003C355.971 182.003 354.695 183.28 354.695 184.857C354.695 186.433 355.971 187.711 357.546 187.711Z" fill="#F19A99"/>
<path d="M30.5839 158.782C32.1585 158.782 33.435 157.504 33.435 155.928C33.435 154.352 32.1585 153.074 30.5839 153.074C29.0094 153.074 27.7329 154.352 27.7329 155.928C27.7329 157.504 29.0094 158.782 30.5839 158.782Z" fill="#F19A99"/>
<path d="M60.3901 158.652C61.9647 158.652 63.2411 157.374 63.2411 155.798C63.2411 154.222 61.9647 152.944 60.3901 152.944C58.8155 152.944 57.5391 154.222 57.5391 155.798C57.5391 157.374 58.8155 158.652 60.3901 158.652Z" fill="#F19A99"/>
<path d="M90.0669 158.523C91.6414 158.523 92.9179 157.245 92.9179 155.669C92.9179 154.092 91.6414 152.815 90.0669 152.815C88.4923 152.815 87.2158 154.092 87.2158 155.669C87.2158 157.245 88.4923 158.523 90.0669 158.523Z" fill="#F19A99"/>
<path d="M119.744 158.393C121.318 158.393 122.595 157.115 122.595 155.539C122.595 153.963 121.318 152.685 119.744 152.685C118.169 152.685 116.893 153.963 116.893 155.539C116.893 157.115 118.169 158.393 119.744 158.393Z" fill="#F19A99"/>
<path d="M149.42 158.133C150.995 158.133 152.271 156.856 152.271 155.279C152.271 153.703 150.995 152.426 149.42 152.426C147.846 152.426 146.569 153.703 146.569 155.279C146.569 156.856 147.846 158.133 149.42 158.133Z" fill="#F19A99"/>
<path d="M179.097 158.004C180.671 158.004 181.948 156.726 181.948 155.15C181.948 153.574 180.671 152.296 179.097 152.296C177.522 152.296 176.246 153.574 176.246 155.15C176.246 156.726 177.522 158.004 179.097 158.004Z" fill="#F19A99"/>
<path d="M208.903 157.874C210.478 157.874 211.754 156.596 211.754 155.02C211.754 153.444 210.478 152.166 208.903 152.166C207.329 152.166 206.052 153.444 206.052 155.02C206.052 156.596 207.329 157.874 208.903 157.874Z" fill="#F19A99"/>
<path d="M238.58 157.744C240.154 157.744 241.431 156.466 241.431 154.89C241.431 153.314 240.154 152.036 238.58 152.036C237.005 152.036 235.729 153.314 235.729 154.89C235.729 156.466 237.005 157.744 238.58 157.744Z" fill="#F19A99"/>
<path d="M268.256 157.485C269.831 157.485 271.107 156.207 271.107 154.631C271.107 153.055 269.831 151.777 268.256 151.777C266.682 151.777 265.405 153.055 265.405 154.631C265.405 156.207 266.682 157.485 268.256 157.485Z" fill="#F19A99"/>
<path d="M297.933 157.355C299.508 157.355 300.784 156.077 300.784 154.501C300.784 152.925 299.508 151.647 297.933 151.647C296.358 151.647 295.082 152.925 295.082 154.501C295.082 156.077 296.358 157.355 297.933 157.355Z" fill="#F19A99"/>
<path d="M327.61 157.225C329.184 157.225 330.461 155.948 330.461 154.372C330.461 152.795 329.184 151.518 327.61 151.518C326.035 151.518 324.759 152.795 324.759 154.372C324.759 155.948 326.035 157.225 327.61 157.225Z" fill="#F19A99"/>
<path d="M357.416 157.096C358.991 157.096 360.267 155.818 360.267 154.242C360.267 152.665 358.991 151.388 357.416 151.388C355.841 151.388 354.565 152.665 354.565 154.242C354.565 155.818 355.841 157.096 357.416 157.096Z" fill="#F19A99"/>
<path d="M30.4541 130.113C32.0286 130.113 33.3051 128.835 33.3051 127.259C33.3051 125.683 32.0286 124.405 30.4541 124.405C28.8795 124.405 27.603 125.683 27.603 127.259C27.603 128.835 28.8795 130.113 30.4541 130.113Z" fill="#F19A99"/>
<path d="M60.1308 129.983C61.7054 129.983 62.9819 128.705 62.9819 127.129C62.9819 125.553 61.7054 124.275 60.1308 124.275C58.5562 124.275 57.2798 125.553 57.2798 127.129C57.2798 128.705 58.5562 129.983 60.1308 129.983Z" fill="#F19A99"/>
<path d="M89.937 129.854C91.5116 129.854 92.788 128.576 92.788 127C92.788 125.424 91.5116 124.146 89.937 124.146C88.3624 124.146 87.0859 125.424 87.0859 127C87.0859 128.576 88.3624 129.854 89.937 129.854Z" fill="#F19A99"/>
<path d="M119.614 129.724C121.188 129.724 122.465 128.446 122.465 126.87C122.465 125.294 121.188 124.016 119.614 124.016C118.039 124.016 116.763 125.294 116.763 126.87C116.763 128.446 118.039 129.724 119.614 129.724Z" fill="#F19A99"/>
<path d="M149.29 129.464C150.865 129.464 152.142 128.187 152.142 126.611C152.142 125.034 150.865 123.757 149.29 123.757C147.716 123.757 146.439 125.034 146.439 126.611C146.439 128.187 147.716 129.464 149.29 129.464Z" fill="#F19A99"/>
<path d="M178.967 129.335C180.542 129.335 181.818 128.057 181.818 126.481C181.818 124.905 180.542 123.627 178.967 123.627C177.393 123.627 176.116 124.905 176.116 126.481C176.116 128.057 177.393 129.335 178.967 129.335Z" fill="#F19A99"/>
<path d="M208.644 129.205C210.219 129.205 211.495 127.927 211.495 126.351C211.495 124.775 210.219 123.497 208.644 123.497C207.069 123.497 205.793 124.775 205.793 126.351C205.793 127.927 207.069 129.205 208.644 129.205Z" fill="#F19A99"/>
<path d="M238.45 129.075C240.025 129.075 241.301 127.798 241.301 126.221C241.301 124.645 240.025 123.367 238.45 123.367C236.876 123.367 235.599 124.645 235.599 126.221C235.599 127.798 236.876 129.075 238.45 129.075Z" fill="#F19A99"/>
<path d="M268.127 128.816C269.701 128.816 270.978 127.538 270.978 125.962C270.978 124.386 269.701 123.108 268.127 123.108C266.552 123.108 265.276 124.386 265.276 125.962C265.276 127.538 266.552 128.816 268.127 128.816Z" fill="#F19A99"/>
<path d="M297.804 128.686C299.378 128.686 300.655 127.408 300.655 125.832C300.655 124.256 299.378 122.978 297.804 122.978C296.229 122.978 294.953 124.256 294.953 125.832C294.953 127.408 296.229 128.686 297.804 128.686Z" fill="#F19A99"/>
<path d="M327.48 128.556C329.055 128.556 330.331 127.279 330.331 125.702C330.331 124.126 329.055 122.848 327.48 122.848C325.906 122.848 324.629 124.126 324.629 125.702C324.629 127.279 325.906 128.556 327.48 128.556Z" fill="#F19A99"/>
<path d="M357.157 128.427C358.731 128.427 360.008 127.149 360.008 125.573C360.008 123.997 358.731 122.719 357.157 122.719C355.582 122.719 354.306 123.997 354.306 125.573C354.306 127.149 355.582 128.427 357.157 128.427Z" fill="#F19A99"/>
<path d="M30.3247 99.4981C31.8993 99.4981 33.1757 98.2204 33.1757 96.6442C33.1757 95.068 31.8993 93.7903 30.3247 93.7903C28.7501 93.7903 27.4736 95.068 27.4736 96.6442C27.4736 98.2204 28.7501 99.4981 30.3247 99.4981Z" fill="#F19A99"/>
<path d="M60.0014 99.3685C61.576 99.3685 62.8525 98.0907 62.8525 96.5146C62.8525 94.9384 61.576 93.6606 60.0014 93.6606C58.4268 93.6606 57.1504 94.9384 57.1504 96.5146C57.1504 98.0907 58.4268 99.3685 60.0014 99.3685Z" fill="#F19A99"/>
<path d="M89.6782 99.2386C91.2528 99.2386 92.5292 97.9609 92.5292 96.3847C92.5292 94.8085 91.2528 93.5308 89.6782 93.5308C88.1036 93.5308 86.8271 94.8085 86.8271 96.3847C86.8271 97.9609 88.1036 99.2386 89.6782 99.2386Z" fill="#F19A99"/>
<path d="M119.484 99.109C121.059 99.109 122.335 97.8312 122.335 96.255C122.335 94.6789 121.059 93.4011 119.484 93.4011C117.91 93.4011 116.633 94.6789 116.633 96.255C116.633 97.8312 117.91 99.109 119.484 99.109Z" fill="#F19A99"/>
<path d="M149.161 98.8495C150.736 98.8495 152.012 97.5717 152.012 95.9955C152.012 94.4193 150.736 93.1416 149.161 93.1416C147.587 93.1416 146.31 94.4193 146.31 95.9955C146.31 97.5717 147.587 98.8495 149.161 98.8495Z" fill="#F19A99"/>
<path d="M178.837 98.7198C180.412 98.7198 181.688 97.4421 181.688 95.8659C181.688 94.2897 180.412 93.012 178.837 93.012C177.263 93.012 175.986 94.2897 175.986 95.8659C175.986 97.4421 177.263 98.7198 178.837 98.7198Z" fill="#F19A99"/>
<path d="M208.514 98.5902C210.089 98.5902 211.365 97.3124 211.365 95.7363C211.365 94.1601 210.089 92.8823 208.514 92.8823C206.94 92.8823 205.663 94.1601 205.663 95.7363C205.663 97.3124 206.94 98.5902 208.514 98.5902Z" fill="#F19A99"/>
<path d="M238.191 98.4603C239.765 98.4603 241.042 97.1825 241.042 95.6064C241.042 94.0302 239.765 92.7524 238.191 92.7524C236.616 92.7524 235.34 94.0302 235.34 95.6064C235.34 97.1825 236.616 98.4603 238.191 98.4603Z" fill="#F19A99"/>
<path d="M267.998 98.201C269.572 98.201 270.849 96.9233 270.849 95.3471C270.849 93.7709 269.572 92.4932 267.998 92.4932C266.423 92.4932 265.146 93.7709 265.146 95.3471C265.146 96.9233 266.423 98.201 267.998 98.201Z" fill="#F19A99"/>
<path d="M297.674 98.0711C299.248 98.0711 300.525 96.7934 300.525 95.2172C300.525 93.641 299.248 92.3633 297.674 92.3633C296.099 92.3633 294.823 93.641 294.823 95.2172C294.823 96.7934 296.099 98.0711 297.674 98.0711Z" fill="#F19A99"/>
<path d="M327.351 97.9415C328.925 97.9415 330.202 96.6638 330.202 95.0876C330.202 93.5114 328.925 92.2336 327.351 92.2336C325.776 92.2336 324.5 93.5114 324.5 95.0876C324.5 96.6638 325.776 97.9415 327.351 97.9415Z" fill="#F19A99"/>
<path d="M357.027 97.8119C358.602 97.8119 359.878 96.5341 359.878 94.9579C359.878 93.3818 358.602 92.104 357.027 92.104C355.453 92.104 354.176 93.3818 354.176 94.9579C354.176 96.5341 355.453 97.8119 357.027 97.8119Z" fill="#F19A99"/>
<path d="M30.1948 67.9752C31.7694 67.9752 33.0458 66.6974 33.0458 65.1213C33.0458 63.5451 31.7694 62.2673 30.1948 62.2673C28.6202 62.2673 27.3438 63.5451 27.3438 65.1213C27.3438 66.6974 28.6202 67.9752 30.1948 67.9752Z" fill="#F19A99"/>
<path d="M59.8715 67.8455C61.4461 67.8455 62.7226 66.5678 62.7226 64.9916C62.7226 63.4154 61.4461 62.1377 59.8715 62.1377C58.297 62.1377 57.0205 63.4154 57.0205 64.9916C57.0205 66.5678 58.297 67.8455 59.8715 67.8455Z" fill="#F19A99"/>
<path d="M89.5483 67.7159C91.1229 67.7159 92.3993 66.4382 92.3993 64.862C92.3993 63.2858 91.1229 62.0081 89.5483 62.0081C87.9737 62.0081 86.6973 63.2858 86.6973 64.862C86.6973 66.4382 87.9737 67.7159 89.5483 67.7159Z" fill="#F19A99"/>
<path d="M119.225 67.4564C120.8 67.4564 122.076 66.1786 122.076 64.6025C122.076 63.0263 120.8 61.7485 119.225 61.7485C117.65 61.7485 116.374 63.0263 116.374 64.6025C116.374 66.1786 117.65 67.4564 119.225 67.4564Z" fill="#F19A99"/>
<path d="M149.031 67.3267C150.606 67.3267 151.882 66.049 151.882 64.4728C151.882 62.8966 150.606 61.6189 149.031 61.6189C147.457 61.6189 146.18 62.8966 146.18 64.4728C146.18 66.049 147.457 67.3267 149.031 67.3267Z" fill="#F19A99"/>
<path d="M178.708 67.1969C180.283 67.1969 181.559 65.9191 181.559 64.3429C181.559 62.7668 180.283 61.489 178.708 61.489C177.133 61.489 175.857 62.7668 175.857 64.3429C175.857 65.9191 177.133 67.1969 178.708 67.1969Z" fill="#F19A99"/>
<path d="M208.385 67.0672C209.959 67.0672 211.236 65.7895 211.236 64.2133C211.236 62.6371 209.959 61.3594 208.385 61.3594C206.81 61.3594 205.534 62.6371 205.534 64.2133C205.534 65.7895 206.81 67.0672 208.385 67.0672Z" fill="#F19A99"/>
<path d="M238.061 66.8077C239.636 66.8077 240.913 65.53 240.913 63.9538C240.913 62.3776 239.636 61.0999 238.061 61.0999C236.487 61.0999 235.21 62.3776 235.21 63.9538C235.21 65.53 236.487 66.8077 238.061 66.8077Z" fill="#F19A99"/>
<path d="M267.738 66.6781C269.313 66.6781 270.589 65.4003 270.589 63.8241C270.589 62.248 269.313 60.9702 267.738 60.9702C266.164 60.9702 264.887 62.248 264.887 63.8241C264.887 65.4003 266.164 66.6781 267.738 66.6781Z" fill="#F19A99"/>
<path d="M297.544 66.5482C299.119 66.5482 300.395 65.2704 300.395 63.6943C300.395 62.1181 299.119 60.8403 297.544 60.8403C295.97 60.8403 294.693 62.1181 294.693 63.6943C294.693 65.2704 295.97 66.5482 297.544 66.5482Z" fill="#F19A99"/>
<path d="M327.221 66.4185C328.796 66.4185 330.072 65.1408 330.072 63.5646C330.072 61.9884 328.796 60.7107 327.221 60.7107C325.647 60.7107 324.37 61.9884 324.37 63.5646C324.37 65.1408 325.647 66.4185 327.221 66.4185Z" fill="#F19A99"/>
<path d="M356.898 66.159C358.472 66.159 359.749 64.8813 359.749 63.3051C359.749 61.7289 358.472 60.4512 356.898 60.4512C355.323 60.4512 354.047 61.7289 354.047 63.3051C354.047 64.8813 355.323 66.159 356.898 66.159Z" fill="#F19A99"/>
<path d="M30.0654 37.3604C31.64 37.3604 32.9164 36.0827 32.9164 34.5065C32.9164 32.9303 31.64 31.6526 30.0654 31.6526C28.4908 31.6526 27.2144 32.9303 27.2144 34.5065C27.2144 36.0827 28.4908 37.3604 30.0654 37.3604Z" fill="#F19A99"/>
<path d="M59.7422 37.2308C61.3167 37.2308 62.5932 35.9531 62.5932 34.3769C62.5932 32.8007 61.3167 31.5229 59.7422 31.5229C58.1676 31.5229 56.8911 32.8007 56.8911 34.3769C56.8911 35.9531 58.1676 37.2308 59.7422 37.2308Z" fill="#F19A99"/>
<path d="M89.4189 36.9713C90.9935 36.9713 92.2699 35.6935 92.2699 34.1174C92.2699 32.5412 90.9935 31.2634 89.4189 31.2634C87.8443 31.2634 86.5679 32.5412 86.5679 34.1174C86.5679 35.6935 87.8443 36.9713 89.4189 36.9713Z" fill="#F19A99"/>
<path d="M119.096 36.8414C120.67 36.8414 121.947 35.5637 121.947 33.9875C121.947 32.4113 120.67 31.1335 119.096 31.1335C117.521 31.1335 116.245 32.4113 116.245 33.9875C116.245 35.5637 117.521 36.8414 119.096 36.8414Z" fill="#F19A99"/>
<path d="M148.772 36.7118C150.347 36.7118 151.623 35.434 151.623 33.8578C151.623 32.2817 150.347 31.0039 148.772 31.0039C147.197 31.0039 145.921 32.2817 145.921 33.8578C145.921 35.434 147.197 36.7118 148.772 36.7118Z" fill="#F19A99"/>
<path d="M178.579 36.5821C180.153 36.5821 181.43 35.3044 181.43 33.7282C181.43 32.152 180.153 30.8743 178.579 30.8743C177.004 30.8743 175.728 32.152 175.728 33.7282C175.728 35.3044 177.004 36.5821 178.579 36.5821Z" fill="#F19A99"/>
<path d="M208.255 36.3226C209.83 36.3226 211.106 35.0449 211.106 33.4687C211.106 31.8925 209.83 30.6147 208.255 30.6147C206.681 30.6147 205.404 31.8925 205.404 33.4687C205.404 35.0449 206.681 36.3226 208.255 36.3226Z" fill="#F19A99"/>
<path d="M237.932 36.193C239.506 36.193 240.783 34.9152 240.783 33.339C240.783 31.7629 239.506 30.4851 237.932 30.4851C236.357 30.4851 235.081 31.7629 235.081 33.339C235.081 34.9152 236.357 36.193 237.932 36.193Z" fill="#F19A99"/>
<path d="M267.608 36.0631C269.183 36.0631 270.459 34.7853 270.459 33.2092C270.459 31.633 269.183 30.3552 267.608 30.3552C266.034 30.3552 264.757 31.633 264.757 33.2092C264.757 34.7853 266.034 36.0631 267.608 36.0631Z" fill="#F19A99"/>
<path d="M297.285 35.9334C298.86 35.9334 300.136 34.6557 300.136 33.0795C300.136 31.5033 298.86 30.2256 297.285 30.2256C295.711 30.2256 294.434 31.5033 294.434 33.0795C294.434 34.6557 295.711 35.9334 297.285 35.9334Z" fill="#F19A99"/>
<path d="M327.091 35.8038C328.666 35.8038 329.942 34.5261 329.942 32.9499C329.942 31.3737 328.666 30.0959 327.091 30.0959C325.517 30.0959 324.24 31.3737 324.24 32.9499C324.24 34.5261 325.517 35.8038 327.091 35.8038Z" fill="#F19A99"/>
<path d="M356.768 35.5443C358.343 35.5443 359.619 34.2665 359.619 32.6904C359.619 31.1142 358.343 29.8364 356.768 29.8364C355.193 29.8364 353.917 31.1142 353.917 32.6904C353.917 34.2665 355.193 35.5443 356.768 35.5443Z" fill="#F19A99"/>
<path d="M32.2685 465.06C33.8431 465.06 35.1196 463.782 35.1196 462.206C35.1196 460.63 33.8431 459.352 32.2685 459.352C30.6939 459.352 29.4175 460.63 29.4175 462.206C29.4175 463.782 30.6939 465.06 32.2685 465.06Z" fill="#F19A99"/>
<path d="M61.9453 464.931C63.5199 464.931 64.7963 463.653 64.7963 462.077C64.7963 460.5 63.5199 459.223 61.9453 459.223C60.3707 459.223 59.0942 460.5 59.0942 462.077C59.0942 463.653 60.3707 464.931 61.9453 464.931Z" fill="#F19A99"/>
<path d="M91.622 464.801C93.1966 464.801 94.4731 463.523 94.4731 461.947C94.4731 460.371 93.1966 459.093 91.622 459.093C90.0474 459.093 88.771 460.371 88.771 461.947C88.771 463.523 90.0474 464.801 91.622 464.801Z" fill="#F19A99"/>
<path d="M121.428 464.671C123.003 464.671 124.279 463.393 124.279 461.817C124.279 460.241 123.003 458.963 121.428 458.963C119.854 458.963 118.577 460.241 118.577 461.817C118.577 463.393 119.854 464.671 121.428 464.671Z" fill="#F19A99"/>
<path d="M151.105 464.411C152.68 464.411 153.956 463.134 153.956 461.558C153.956 459.981 152.68 458.704 151.105 458.704C149.53 458.704 148.254 459.981 148.254 461.558C148.254 463.134 149.53 464.411 151.105 464.411Z" fill="#F19A99"/>
<path d="M180.782 464.282C182.356 464.282 183.633 463.004 183.633 461.428C183.633 459.852 182.356 458.574 180.782 458.574C179.207 458.574 177.931 459.852 177.931 461.428C177.931 463.004 179.207 464.282 180.782 464.282Z" fill="#F19A99"/>
<path d="M210.458 464.152C212.033 464.152 213.31 462.874 213.31 461.298C213.31 459.722 212.033 458.444 210.458 458.444C208.884 458.444 207.607 459.722 207.607 461.298C207.607 462.874 208.884 464.152 210.458 464.152Z" fill="#F19A99"/>
<path d="M240.135 464.022C241.71 464.022 242.986 462.745 242.986 461.168C242.986 459.592 241.71 458.314 240.135 458.314C238.561 458.314 237.284 459.592 237.284 461.168C237.284 462.745 238.561 464.022 240.135 464.022Z" fill="#F19A99"/>
<path d="M269.941 463.893C271.516 463.893 272.792 462.615 272.792 461.039C272.792 459.463 271.516 458.185 269.941 458.185C268.367 458.185 267.09 459.463 267.09 461.039C267.09 462.615 268.367 463.893 269.941 463.893Z" fill="#F19A99"/>
<path d="M299.618 463.633C301.193 463.633 302.469 462.355 302.469 460.779C302.469 459.203 301.193 457.925 299.618 457.925C298.044 457.925 296.767 459.203 296.767 460.779C296.767 462.355 298.044 463.633 299.618 463.633Z" fill="#F19A99"/>
<path d="M329.295 463.504C330.869 463.504 332.146 462.226 332.146 460.65C332.146 459.073 330.869 457.796 329.295 457.796C327.72 457.796 326.444 459.073 326.444 460.65C326.444 462.226 327.72 463.504 329.295 463.504Z" fill="#F19A99"/>
<path d="M358.972 463.374C360.546 463.374 361.823 462.096 361.823 460.52C361.823 458.944 360.546 457.666 358.972 457.666C357.397 457.666 356.121 458.944 356.121 460.52C356.121 462.096 357.397 463.374 358.972 463.374Z" fill="#F19A99"/>
<path d="M32.1391 434.445C33.7137 434.445 34.9902 433.168 34.9902 431.591C34.9902 430.015 33.7137 428.738 32.1391 428.738C30.5645 428.738 29.2881 430.015 29.2881 431.591C29.2881 433.168 30.5645 434.445 32.1391 434.445Z" fill="#F19A99"/>
<path d="M61.8159 434.316C63.3905 434.316 64.6669 433.038 64.6669 431.462C64.6669 429.886 63.3905 428.608 61.8159 428.608C60.2413 428.608 58.9648 429.886 58.9648 431.462C58.9648 433.038 60.2413 434.316 61.8159 434.316Z" fill="#F19A99"/>
<path d="M91.4926 434.186C93.0672 434.186 94.3437 432.908 94.3437 431.332C94.3437 429.756 93.0672 428.478 91.4926 428.478C89.918 428.478 88.6416 429.756 88.6416 431.332C88.6416 432.908 89.918 434.186 91.4926 434.186Z" fill="#F19A99"/>
<path d="M121.169 434.056C122.744 434.056 124.02 432.778 124.02 431.202C124.02 429.626 122.744 428.348 121.169 428.348C119.595 428.348 118.318 429.626 118.318 431.202C118.318 432.778 119.595 434.056 121.169 434.056Z" fill="#F19A99"/>
<path d="M150.976 433.797C152.55 433.797 153.827 432.519 153.827 430.943C153.827 429.367 152.55 428.089 150.976 428.089C149.401 428.089 148.125 429.367 148.125 430.943C148.125 432.519 149.401 433.797 150.976 433.797Z" fill="#F19A99"/>
<path d="M180.652 433.667C182.227 433.667 183.503 432.389 183.503 430.813C183.503 429.237 182.227 427.959 180.652 427.959C179.078 427.959 177.801 429.237 177.801 430.813C177.801 432.389 179.078 433.667 180.652 433.667Z" fill="#F19A99"/>
<path d="M210.329 433.537C211.904 433.537 213.18 432.259 213.18 430.683C213.18 429.107 211.904 427.829 210.329 427.829C208.754 427.829 207.478 429.107 207.478 430.683C207.478 432.259 208.754 433.537 210.329 433.537Z" fill="#F19A99"/>
<path d="M240.005 433.408C241.58 433.408 242.856 432.13 242.856 430.554C242.856 428.977 241.58 427.7 240.005 427.7C238.431 427.7 237.154 428.977 237.154 430.554C237.154 432.13 238.431 433.408 240.005 433.408Z" fill="#F19A99"/>
<path d="M269.682 433.148C271.257 433.148 272.533 431.87 272.533 430.294C272.533 428.718 271.257 427.44 269.682 427.44C268.108 427.44 266.831 428.718 266.831 430.294C266.831 431.87 268.108 433.148 269.682 433.148Z" fill="#F19A99"/>
<path d="M299.488 433.018C301.063 433.018 302.339 431.741 302.339 430.164C302.339 428.588 301.063 427.311 299.488 427.311C297.914 427.311 296.637 428.588 296.637 430.164C296.637 431.741 297.914 433.018 299.488 433.018Z" fill="#F19A99"/>
<path d="M329.165 432.889C330.74 432.889 332.017 431.611 332.017 430.035C332.017 428.459 330.74 427.181 329.165 427.181C327.591 427.181 326.314 428.459 326.314 430.035C326.314 431.611 327.591 432.889 329.165 432.889Z" fill="#F19A99"/>
<path d="M358.842 432.759C360.416 432.759 361.693 431.481 361.693 429.905C361.693 428.329 360.416 427.051 358.842 427.051C357.267 427.051 355.991 428.329 355.991 429.905C355.991 431.481 357.267 432.759 358.842 432.759Z" fill="#F19A99"/>
<path d="M32.0097 405.776C33.5843 405.776 34.8608 404.499 34.8608 402.923C34.8608 401.346 33.5843 400.069 32.0097 400.069C30.4351 400.069 29.1587 401.346 29.1587 402.923C29.1587 404.499 30.4351 405.776 32.0097 405.776Z" fill="#F19A99"/>
<path d="M61.686 405.647C63.2606 405.647 64.537 404.369 64.537 402.793C64.537 401.216 63.2606 399.939 61.686 399.939C60.1114 399.939 58.835 401.216 58.835 402.793C58.835 404.369 60.1114 405.647 61.686 405.647Z" fill="#F19A99"/>
<path d="M91.3628 405.517C92.9373 405.517 94.2138 404.239 94.2138 402.663C94.2138 401.087 92.9373 399.809 91.3628 399.809C89.7882 399.809 88.5117 401.087 88.5117 402.663C88.5117 404.239 89.7882 405.517 91.3628 405.517Z" fill="#F19A99"/>
<path d="M121.04 405.387C122.614 405.387 123.891 404.11 123.891 402.533C123.891 400.957 122.614 399.679 121.04 399.679C119.465 399.679 118.188 400.957 118.188 402.533C118.188 404.11 119.465 405.387 121.04 405.387Z" fill="#F19A99"/>
<path d="M150.716 405.128C152.291 405.128 153.567 403.85 153.567 402.274C153.567 400.698 152.291 399.42 150.716 399.42C149.142 399.42 147.865 400.698 147.865 402.274C147.865 403.85 149.142 405.128 150.716 405.128Z" fill="#F19A99"/>
<path d="M180.522 404.998C182.097 404.998 183.373 403.72 183.373 402.144C183.373 400.568 182.097 399.29 180.522 399.29C178.948 399.29 177.671 400.568 177.671 402.144C177.671 403.72 178.948 404.998 180.522 404.998Z" fill="#F19A99"/>
<path d="M210.199 404.868C211.774 404.868 213.05 403.59 213.05 402.014C213.05 400.438 211.774 399.16 210.199 399.16C208.625 399.16 207.348 400.438 207.348 402.014C207.348 403.59 208.625 404.868 210.199 404.868Z" fill="#F19A99"/>
<path d="M239.876 404.739C241.451 404.739 242.727 403.461 242.727 401.885C242.727 400.308 241.451 399.031 239.876 399.031C238.301 399.031 237.025 400.308 237.025 401.885C237.025 403.461 238.301 404.739 239.876 404.739Z" fill="#F19A99"/>
<path d="M269.553 404.479C271.127 404.479 272.404 403.201 272.404 401.625C272.404 400.049 271.127 398.771 269.553 398.771C267.978 398.771 266.702 400.049 266.702 401.625C266.702 403.201 267.978 404.479 269.553 404.479Z" fill="#F19A99"/>
<path d="M299.229 404.349C300.804 404.349 302.081 403.072 302.081 401.496C302.081 399.919 300.804 398.642 299.229 398.642C297.655 398.642 296.378 399.919 296.378 401.496C296.378 403.072 297.655 404.349 299.229 404.349Z" fill="#F19A99"/>
<path d="M329.036 404.22C330.61 404.22 331.887 402.942 331.887 401.366C331.887 399.79 330.61 398.512 329.036 398.512C327.461 398.512 326.185 399.79 326.185 401.366C326.185 402.942 327.461 404.22 329.036 404.22Z" fill="#F19A99"/>
<path d="M358.712 404.09C360.287 404.09 361.563 402.812 361.563 401.236C361.563 399.66 360.287 398.382 358.712 398.382C357.138 398.382 355.861 399.66 355.861 401.236C355.861 402.812 357.138 404.09 358.712 404.09Z" fill="#F19A99"/>
<path d="M31.7504 375.161C33.325 375.161 34.6015 373.884 34.6015 372.308C34.6015 370.731 33.325 369.454 31.7504 369.454C30.1759 369.454 28.8994 370.731 28.8994 372.308C28.8994 373.884 30.1759 375.161 31.7504 375.161Z" fill="#F19A99"/>
<path d="M61.5566 375.032C63.1312 375.032 64.4076 373.754 64.4076 372.178C64.4076 370.602 63.1312 369.324 61.5566 369.324C59.982 369.324 58.7056 370.602 58.7056 372.178C58.7056 373.754 59.982 375.032 61.5566 375.032Z" fill="#F19A99"/>
<path d="M91.2334 374.902C92.808 374.902 94.0844 373.624 94.0844 372.048C94.0844 370.472 92.808 369.194 91.2334 369.194C89.6588 369.194 88.3823 370.472 88.3823 372.048C88.3823 373.624 89.6588 374.902 91.2334 374.902Z" fill="#F19A99"/>
<path d="M120.91 374.772C122.485 374.772 123.761 373.495 123.761 371.918C123.761 370.342 122.485 369.064 120.91 369.064C119.336 369.064 118.059 370.342 118.059 371.918C118.059 373.495 119.336 374.772 120.91 374.772Z" fill="#F19A99"/>
<path d="M150.587 374.513C152.161 374.513 153.438 373.235 153.438 371.659C153.438 370.083 152.161 368.805 150.587 368.805C149.012 368.805 147.736 370.083 147.736 371.659C147.736 373.235 149.012 374.513 150.587 374.513Z" fill="#F19A99"/>
<path d="M180.263 374.383C181.838 374.383 183.114 373.105 183.114 371.529C183.114 369.953 181.838 368.675 180.263 368.675C178.689 368.675 177.412 369.953 177.412 371.529C177.412 373.105 178.689 374.383 180.263 374.383Z" fill="#F19A99"/>
<path d="M210.07 374.253C211.644 374.253 212.921 372.976 212.921 371.4C212.921 369.823 211.644 368.546 210.07 368.546C208.495 368.546 207.219 369.823 207.219 371.4C207.219 372.976 208.495 374.253 210.07 374.253Z" fill="#F19A99"/>
<path d="M239.747 374.124C241.321 374.124 242.598 372.846 242.598 371.27C242.598 369.694 241.321 368.416 239.747 368.416C238.172 368.416 236.896 369.694 236.896 371.27C236.896 372.846 238.172 374.124 239.747 374.124Z" fill="#F19A99"/>
<path d="M269.423 373.864C270.998 373.864 272.274 372.587 272.274 371.01C272.274 369.434 270.998 368.156 269.423 368.156C267.849 368.156 266.572 369.434 266.572 371.01C266.572 372.587 267.849 373.864 269.423 373.864Z" fill="#F19A99"/>
<path d="M299.1 373.735C300.674 373.735 301.951 372.457 301.951 370.881C301.951 369.305 300.674 368.027 299.1 368.027C297.525 368.027 296.249 369.305 296.249 370.881C296.249 372.457 297.525 373.735 299.1 373.735Z" fill="#F19A99"/>
<path d="M328.776 373.605C330.351 373.605 331.627 372.327 331.627 370.751C331.627 369.175 330.351 367.897 328.776 367.897C327.202 367.897 325.925 369.175 325.925 370.751C325.925 372.327 327.202 373.605 328.776 373.605Z" fill="#F19A99"/>
<path d="M358.582 373.475C360.157 373.475 361.434 372.197 361.434 370.621C361.434 369.045 360.157 367.767 358.582 367.767C357.008 367.767 355.731 369.045 355.731 370.621C355.731 372.197 357.008 373.475 358.582 373.475Z" fill="#F19A99"/>
<path d="M31.6206 343.639C33.1951 343.639 34.4716 342.361 34.4716 340.785C34.4716 339.208 33.1951 337.931 31.6206 337.931C30.046 337.931 28.7695 339.208 28.7695 340.785C28.7695 342.361 30.046 343.639 31.6206 343.639Z" fill="#F19A99"/>
<path d="M61.2973 343.509C62.8719 343.509 64.1484 342.231 64.1484 340.655C64.1484 339.079 62.8719 337.801 61.2973 337.801C59.7227 337.801 58.4463 339.079 58.4463 340.655C58.4463 342.231 59.7227 343.509 61.2973 343.509Z" fill="#F19A99"/>
<path d="M91.104 343.379C92.6786 343.379 93.955 342.101 93.955 340.525C93.955 338.949 92.6786 337.671 91.104 337.671C89.5294 337.671 88.2529 338.949 88.2529 340.525C88.2529 342.101 89.5294 343.379 91.104 343.379Z" fill="#F19A99"/>
<path d="M120.78 343.12C122.355 343.12 123.631 341.842 123.631 340.266C123.631 338.69 122.355 337.412 120.78 337.412C119.206 337.412 117.929 338.69 117.929 340.266C117.929 341.842 119.206 343.12 120.78 343.12Z" fill="#F19A99"/>
<path d="M150.457 342.99C152.032 342.99 153.308 341.712 153.308 340.136C153.308 338.56 152.032 337.282 150.457 337.282C148.882 337.282 147.606 338.56 147.606 340.136C147.606 341.712 148.882 342.99 150.457 342.99Z" fill="#F19A99"/>
<path d="M180.134 342.86C181.708 342.86 182.985 341.582 182.985 340.006C182.985 338.43 181.708 337.152 180.134 337.152C178.559 337.152 177.283 338.43 177.283 340.006C177.283 341.582 178.559 342.86 180.134 342.86Z" fill="#F19A99"/>
<path d="M209.811 342.731C211.385 342.731 212.662 341.453 212.662 339.877C212.662 338.3 211.385 337.023 209.811 337.023C208.236 337.023 206.959 338.3 206.959 339.877C206.959 341.453 208.236 342.731 209.811 342.731Z" fill="#F19A99"/>
<path d="M239.617 342.471C241.191 342.471 242.468 341.193 242.468 339.617C242.468 338.041 241.191 336.763 239.617 336.763C238.042 336.763 236.766 338.041 236.766 339.617C236.766 341.193 238.042 342.471 239.617 342.471Z" fill="#F19A99"/>
<path d="M269.293 342.341C270.868 342.341 272.144 341.064 272.144 339.487C272.144 337.911 270.868 336.634 269.293 336.634C267.719 336.634 266.442 337.911 266.442 339.487C266.442 341.064 267.719 342.341 269.293 342.341Z" fill="#F19A99"/>
<path d="M298.97 342.212C300.545 342.212 301.821 340.934 301.821 339.358C301.821 337.782 300.545 336.504 298.97 336.504C297.396 336.504 296.119 337.782 296.119 339.358C296.119 340.934 297.396 342.212 298.97 342.212Z" fill="#F19A99"/>
<path d="M328.647 342.082C330.222 342.082 331.498 340.804 331.498 339.228C331.498 337.652 330.222 336.374 328.647 336.374C327.072 336.374 325.796 337.652 325.796 339.228C325.796 340.804 327.072 342.082 328.647 342.082Z" fill="#F19A99"/>
<path d="M358.324 341.823C359.898 341.823 361.175 340.545 361.175 338.969C361.175 337.392 359.898 336.115 358.324 336.115C356.749 336.115 355.473 337.392 355.473 338.969C355.473 340.545 356.749 341.823 358.324 341.823Z" fill="#F19A99"/>
<path d="M31.4912 313.024C33.0658 313.024 34.3422 311.746 34.3422 310.17C34.3422 308.594 33.0658 307.316 31.4912 307.316C29.9166 307.316 28.6401 308.594 28.6401 310.17C28.6401 311.746 29.9166 313.024 31.4912 313.024Z" fill="#F19A99"/>
<path d="M61.1679 312.894C62.7425 312.894 64.019 311.616 64.019 310.04C64.019 308.464 62.7425 307.186 61.1679 307.186C59.5933 307.186 58.3169 308.464 58.3169 310.04C58.3169 311.616 59.5933 312.894 61.1679 312.894Z" fill="#F19A99"/>
<path d="M90.8447 312.635C92.4193 312.635 93.6957 311.357 93.6957 309.781C93.6957 308.205 92.4193 306.927 90.8447 306.927C89.2701 306.927 87.9937 308.205 87.9937 309.781C87.9937 311.357 89.2701 312.635 90.8447 312.635Z" fill="#F19A99"/>
<path d="M120.651 312.505C122.225 312.505 123.502 311.227 123.502 309.651C123.502 308.075 122.225 306.797 120.651 306.797C119.076 306.797 117.8 308.075 117.8 309.651C117.8 311.227 119.076 312.505 120.651 312.505Z" fill="#F19A99"/>
<path d="M150.328 312.375C151.902 312.375 153.179 311.097 153.179 309.521C153.179 307.945 151.902 306.667 150.328 306.667C148.753 306.667 147.477 307.945 147.477 309.521C147.477 311.097 148.753 312.375 150.328 312.375Z" fill="#F19A99"/>
<path d="M180.004 312.245C181.579 312.245 182.855 310.968 182.855 309.392C182.855 307.815 181.579 306.538 180.004 306.538C178.43 306.538 177.153 307.815 177.153 309.392C177.153 310.968 178.43 312.245 180.004 312.245Z" fill="#F19A99"/>
<path d="M209.681 312.116C211.256 312.116 212.532 310.838 212.532 309.262C212.532 307.685 211.256 306.408 209.681 306.408C208.107 306.408 206.83 307.685 206.83 309.262C206.83 310.838 208.107 312.116 209.681 312.116Z" fill="#F19A99"/>
<path d="M239.357 311.856C240.932 311.856 242.208 310.579 242.208 309.002C242.208 307.426 240.932 306.148 239.357 306.148C237.783 306.148 236.506 307.426 236.506 309.002C236.506 310.579 237.783 311.856 239.357 311.856Z" fill="#F19A99"/>
<path d="M269.164 311.726C270.739 311.726 272.015 310.449 272.015 308.873C272.015 307.296 270.739 306.019 269.164 306.019C267.589 306.019 266.313 307.296 266.313 308.873C266.313 310.449 267.589 311.726 269.164 311.726Z" fill="#F19A99"/>
<path d="M298.84 311.597C300.415 311.597 301.691 310.319 301.691 308.743C301.691 307.167 300.415 305.889 298.84 305.889C297.266 305.889 295.989 307.167 295.989 308.743C295.989 310.319 297.266 311.597 298.84 311.597Z" fill="#F19A99"/>
<path d="M328.517 311.467C330.092 311.467 331.368 310.189 331.368 308.613C331.368 307.037 330.092 305.759 328.517 305.759C326.942 305.759 325.666 307.037 325.666 308.613C325.666 310.189 326.942 311.467 328.517 311.467Z" fill="#F19A99"/>
<path d="M358.194 311.208C359.768 311.208 361.045 309.93 361.045 308.354C361.045 306.778 359.768 305.5 358.194 305.5C356.619 305.5 355.343 306.778 355.343 308.354C355.343 309.93 356.619 311.208 358.194 311.208Z" fill="#F19A99"/>
</g>
</g>
<defs>
<clipPath id="clip0_342:1158">
<rect width="388" height="484" fill="white"/>
</clipPath>
<clipPath id="clip1_342:1158">
<rect width="334.997" height="529.014" fill="white" transform="translate(27.2144 29.8364)"/>
</clipPath>
</defs>
</svg>
