<svg width="978" height="1480" viewBox="0 0 978 1480" fill="none" xmlns="http://www.w3.org/2000/svg">
<path d="M54.8999 985.9L206.5 8.19995L978 126.6L826.4 1104.3L54.8999 985.9Z" fill="#FFF8E1"/>
<path d="M0.100098 1327.2L776.1 1443.2" stroke="#FFECB3" stroke-width="1.2749" stroke-miterlimit="10"/>
<path d="M6.7002 1284.6L782.7 1400.6" stroke="#FFECB3" stroke-width="1.2749" stroke-miterlimit="10"/>
<path d="M13.2002 1242L789.2 1358.1" stroke="#FFECB3" stroke-width="1.2749" stroke-miterlimit="10"/>
<path d="M19.8003 1199.4L795.8 1315.5" stroke="#FFECB3" stroke-width="1.2749" stroke-miterlimit="10"/>
<path d="M26.3003 1156.9L802.4 1272.9" stroke="#FFECB3" stroke-width="1.2749" stroke-miterlimit="10"/>
<path d="M32.8999 1114.3L808.9 1230.3" stroke="#FFECB3" stroke-width="1.2749" stroke-miterlimit="10"/>
<path d="M39.5 1071.7L815.5 1187.7" stroke="#FFECB3" stroke-width="1.2749" stroke-miterlimit="10"/>
<path d="M46 1029.1L822.1 1145.2" stroke="#FFECB3" stroke-width="1.2749" stroke-miterlimit="10"/>
<path d="M52.6001 986.5L828.6 1102.6" stroke="#FFECB3" stroke-width="1.2749" stroke-miterlimit="10"/>
<path d="M59.2002 944L835.2 1060" stroke="#FFECB3" stroke-width="1.2749" stroke-miterlimit="10"/>
<path d="M65.7002 901.4L841.8 1017.4" stroke="#FFECB3" stroke-width="1.2749" stroke-miterlimit="10"/>
<path d="M72.3003 858.8L848.3 974.8" stroke="#FFECB3" stroke-width="1.2749" stroke-miterlimit="10"/>
<path d="M78.8999 816.2L854.9 932.3" stroke="#FFECB3" stroke-width="1.2749" stroke-miterlimit="10"/>
<path d="M85.3999 773.6L861.4 889.7" stroke="#FFECB3" stroke-width="1.2749" stroke-miterlimit="10"/>
<path d="M92 731.1L868 847.1" stroke="#FFECB3" stroke-width="1.2749" stroke-miterlimit="10"/>
<path d="M98.6001 688.5L874.6 804.5" stroke="#FFECB3" stroke-width="1.2749" stroke-miterlimit="10"/>
<path d="M105.1 645.9L881.1 761.9" stroke="#FFECB3" stroke-width="1.2749" stroke-miterlimit="10"/>
<path d="M111.7 603.3L887.7 719.4" stroke="#FFECB3" stroke-width="1.2749" stroke-miterlimit="10"/>
<path d="M118.2 560.7L894.3 676.8" stroke="#FFECB3" stroke-width="1.2749" stroke-miterlimit="10"/>
<path d="M124.8 518.2L900.8 634.2" stroke="#FFECB3" stroke-width="1.2749" stroke-miterlimit="10"/>
<path d="M131.4 475.6L907.4 591.6" stroke="#FFECB3" stroke-width="1.2749" stroke-miterlimit="10"/>
<path d="M137.9 433L914 549" stroke="#FFECB3" stroke-width="1.2749" stroke-miterlimit="10"/>
<path d="M144.5 390.4L920.5 506.5" stroke="#FFECB3" stroke-width="1.2749" stroke-miterlimit="10"/>
<path d="M151.1 347.8L927.1 463.9" stroke="#FFECB3" stroke-width="1.2749" stroke-miterlimit="10"/>
<path d="M157.6 305.3L933.7 421.3" stroke="#FFECB3" stroke-width="1.2749" stroke-miterlimit="10"/>
<path d="M164.2 262.7L940.2 378.7" stroke="#FFECB3" stroke-width="1.2749" stroke-miterlimit="10"/>
<path d="M170.8 220.1L946.8 336.1" stroke="#FFECB3" stroke-width="1.2749" stroke-miterlimit="10"/>
<path d="M177.3 177.5L953.3 293.6" stroke="#FFECB3" stroke-width="1.2749" stroke-miterlimit="10"/>
<path d="M183.9 134.9L959.9 251" stroke="#FFECB3" stroke-width="1.2749" stroke-miterlimit="10"/>
<path d="M190.4 92.3999L966.5 208.4" stroke="#FFECB3" stroke-width="1.2749" stroke-miterlimit="10"/>
<path d="M197 49.7998L973 165.8" stroke="#FFECB3" stroke-width="1.2749" stroke-miterlimit="10"/>
<path d="M246.7 13.5999L36.6001 1376.2" stroke="#FFECB3" stroke-width="1.2749" stroke-miterlimit="10"/>
<path d="M289.8 20.0999L79.8003 1382.6" stroke="#FFECB3" stroke-width="1.2749" stroke-miterlimit="10"/>
<path d="M332.9 26.4998L122.9 1389.1" stroke="#FFECB3" stroke-width="1.2749" stroke-miterlimit="10"/>
<path d="M376 32.9998L166 1395.5" stroke="#FFECB3" stroke-width="1.2749" stroke-miterlimit="10"/>
<path d="M419.1 39.3999L209.1 1402" stroke="#FFECB3" stroke-width="1.2749" stroke-miterlimit="10"/>
<path d="M462.2 45.8999L252.2 1408.4" stroke="#FFECB3" stroke-width="1.2749" stroke-miterlimit="10"/>
<path d="M505.4 52.2998L295.3 1414.9" stroke="#FFECB3" stroke-width="1.2749" stroke-miterlimit="10"/>
<path d="M548.5 58.7998L338.4 1421.3" stroke="#FFECB3" stroke-width="1.2749" stroke-miterlimit="10"/>
<path d="M591.6 65.2L381.5 1427.8" stroke="#FFECB3" stroke-width="1.2749" stroke-miterlimit="10"/>
<path d="M634.7 71.7L424.7 1434.2" stroke="#FFECB3" stroke-width="1.2749" stroke-miterlimit="10"/>
<path d="M677.8 78.0999L467.8 1440.7" stroke="#FFECB3" stroke-width="1.2749" stroke-miterlimit="10"/>
<path d="M720.9 84.5999L510.9 1447.1" stroke="#FFECB3" stroke-width="1.2749" stroke-miterlimit="10"/>
<path d="M764 90.9998L554 1453.6" stroke="#FFECB3" stroke-width="1.2749" stroke-miterlimit="10"/>
<path d="M807.1 97.3999L597.1 1460" stroke="#FFECB3" stroke-width="1.2749" stroke-miterlimit="10"/>
<path d="M850.3 103.9L640.2 1466.5" stroke="#FFECB3" stroke-width="1.2749" stroke-miterlimit="10"/>
<path d="M936.5 116.8L726.4 1479.3" stroke="#FFECB3" stroke-width="1.2749" stroke-miterlimit="10"/>
<path d="M893.4 110.3L683.3 1472.9" stroke="#FFECB3" stroke-width="1.2749" stroke-miterlimit="10"/>
<path d="M430.5 831C430.3 830.5 431 830.2 434.5 830.6L435.4 830.7L436.2 830.9L437.9 831.3C439 831.6 440.2 831.8 441.2 832.2L444.4 833.3L447.5 834.7C451.6 836.7 455.4 839.2 458.8 842.2L459.2 842.5C463.6 846.4 467.7 850.8 470.8 855.8L471.8 857.5L472.3 858.3L472.7 859.2L474.5 862.7L476 866.3L476.4 867.2L476.7 868.1L477.3 870C478.8 875 479.7 880.2 479.7 885.4C479.7 897 476.6 908.7 471 918.8C464.2 930.9 454.5 941.3 442.7 948.7C437.7 951.8 432.3 954.4 426.5 955.9C420.7 957.5 414.6 957.8 408.7 957.1C404.6 956.6 400.6 955.8 396.7 954.7C392.8 953.6 389 952.4 385.1 951C382.3 950 379.5 948.8 376.9 947.4C373.7 945.7 370.7 943.9 368.1 941.1C365.9 938.8 362.4 935.4 360.2 932C357 927.3 354.8 922.1 352.8 916.9C351.8 914.2 351 911.5 350.2 908.8C349.4 906.1 348.7 903.3 348 900.6C347.3 897.4 346.9 894 346.6 890.8C345.8 883.4 347 875.9 349.7 869.1C353.5 859.5 360.1 851.2 368.1 845C376.1 838.7 385.6 834.4 395.5 832C403.1 830.2 410.8 829.2 418.6 829.1C424.7 829.1 428.1 830.3 431.3 831.4C434.8 832.6 433.2 833 427.9 832.6C417.9 832.1 407.9 832.7 398.2 834.7C389.4 836.6 380.8 839.7 373.4 844.9C369.6 847.5 366.1 850.5 363 853.9C362.8 854 362.7 854.1 362.7 854.3C358.3 858.9 354.9 864.6 352.6 870.5C351.4 873.7 350.4 877 349.9 880.4C349.5 882.7 349.6 886 349.7 888.9C349.9 893.4 350.7 897.9 351.7 902.3C352.8 906.7 354 911.1 355.6 915.4C356.3 917.4 357.1 919.4 357.9 921.3C358.8 923.8 360.1 926 361.5 928.1C362.3 929.4 363.1 930.7 364.1 932C364.6 932.8 365.3 933.5 365.9 934.3C366.5 935 367.2 935.7 367.8 936.4C370.7 939.2 373.8 941.6 377.3 943.7C377.7 943.9 378.2 944.1 378.6 944.3C379.4 944.7 380.1 945 380.9 945.3C381 945.3 381 945.3 381.1 945.4V945.5C384.3 947.1 387.6 948.1 391 949.1L392.4 949.7H392.3H392.4C392.4 949.7 392.4 949.7 392.5 949.7H392.6C397.2 951.1 401.8 952.1 406.4 953C409.1 953.5 411.9 953.8 414.7 953.8C415.2 953.9 415.6 954 416.1 953.8C416.5 953.8 416.9 953.7 417.3 953.7L417.6 953.5C419.5 953.4 421.3 953.2 423 953.1C423.4 953 423.8 952.8 424.2 952.8C424.2 952.8 424.2 952.8 424.1 952.8H424.2C426.3 952.3 428.4 951.7 430.4 950.9C431.7 950.3 432.8 949.8 434.2 949.5C435.2 949.3 436.3 948.2 437.7 947.7C437.8 947.6 437.9 947.6 438.1 947.5C440.8 946 443.4 944.4 445.9 942.5C448.4 940.7 450.8 938.7 453.1 936.6L455.3 934.7C456 934 456.7 933.3 457.4 932.6C458.8 931.2 460 929.6 461.3 928.1C463.7 924.9 466 921.6 467.9 918.1C469 916.2 469.9 914.2 470.8 912.3L472 909.3C472.2 908.8 472.4 908.3 472.6 907.8L473.1 906.3C474.5 902.2 475.4 898 475.9 893.7L476.2 891.1C476.3 890.2 476.3 889.4 476.3 888.5C476.3 887.6 476.3 886.8 476.3 885.9L476.1 883.3C476 882.9 476 882.4 476 882V882.1C475.9 880.7 475.6 879.2 475.5 877.8C475.3 876.4 474.9 875.1 474.6 874C474.4 873 474 872.1 473.7 871.2C473.4 870.3 473.1 869.4 472.8 868.5C472.4 867.6 472 866.7 471.7 865.8L471.1 864.5L470.4 863.2L469 860.5L467.4 857.9C467.1 857.5 466.9 857 466.6 856.6L465.7 855.4C465.1 854.6 464.5 853.8 463.9 853C462.5 851.5 461.3 849.9 459.8 848.5C459.1 847.8 458.4 847.1 457.6 846.4L455.2 844.5L454.5 843.9L453.7 843.4L452.1 842.4C451.1 841.7 449.9 841.1 448.8 840.6C447.8 840.1 447.2 839.7 446.8 839.4C446.4 839.1 446.2 838.9 446.1 838.7C445.9 838.2 445.6 837.8 444.8 837.2C444.4 836.9 443.9 836.6 443.2 836.3C442.5 836 441.6 835.7 440.6 835.4C439.5 835 437.8 834.7 436.6 834.3C435.4 833.9 434.8 833.5 435.6 833.1C435.8 833 435.6 832.9 435.3 832.8C434.9 832.7 434.4 832.7 434.1 832.6C429.2 832.1 430.7 831.6 430.5 831ZM381.6 945.8L381 945.4C381.1 945.5 381.1 945.6 381.3 945.7C381.3 945.6 381.5 945.7 381.6 945.8ZM406 952.9L406.2 952.8H405.8L406 952.9ZM418 953.5H417.2H418ZM431.5 950.4L430.4 950.7L431.3 950.5L431.5 950.4ZM476 883.1V883.3C476 883.2 476 883.1 476 883.1Z" fill="#FFE082"/>
<path d="M404.9 995.5C404.4 995.5 404.1 995.2 404.3 993.9C404.7 990.3 405.5 986.9 406 983.3C406 983.2 406 983.2 406 983.1C406.4 980.8 406.4 978.4 406.8 976.1C407.4 972 407.7 967.9 408.4 963.9C409.2 959.4 409.6 954.7 410.2 950.1C411 944.6 411.6 939.1 412.2 933.6C412.7 928.9 413.1 924.2 413.6 919.6C414 916.4 414.5 913.1 415 909.9C415.2 908.7 415.3 907.5 415.4 906.3C415.6 904.9 415.7 903.5 416.2 902.1C416.7 900.9 416.7 899 416.9 897.4C417.2 895.2 417.6 892.9 417.8 890.7C418 888.4 418.5 886.1 418.5 883.8C418.7 882.5 418.9 881.1 419 879.8C419.2 876.8 419.8 874 420.3 871.1C421.5 863 422.5 854.8 423.4 846.7C423.7 843.6 423.9 840.4 424.2 837.3C424.4 834.9 425.5 833.6 426.4 832.3C427.4 830.9 427.9 831.6 427.8 833.8C427.6 837.9 427.3 842.1 426.8 846.2C426.3 850 425.7 853.7 425.3 857.5C425.1 859.4 424.8 861.4 424.5 863.3C424.4 863.4 424.4 863.4 424.5 863.5C423.9 866.2 423.8 868.9 423.4 871.6C423.2 873 423 874.5 422.6 875.9C422.4 876.9 422.4 878.3 422.3 879.5C421.9 883.3 421.4 887 420.9 890.8C420.8 891.7 420.7 892.5 420.6 893.4C420.3 894.5 420.3 895.6 420.2 896.6C420.1 897.3 420 897.9 419.9 898.5C419.8 899.3 419.7 900.1 419.7 900.9C419.7 902.6 419.4 904.3 419 906C419 906.2 419 906.4 419 906.6C419 907 419 907.3 419 907.7V907.8C419 907.8 419 907.8 418.9 907.8C418.6 909.3 418.6 910.7 418.5 912.2C418.4 912.4 418.4 912.6 418.3 912.8C418.1 914.8 418.1 916.7 417.6 918.7C417.4 919.9 417.3 921 417.1 922.2C417 922.4 416.9 922.6 417 922.8C417 923 417 923.1 417 923.3L417.1 923.4C417 924.2 416.9 925 416.6 925.7C416.6 925.9 416.7 926.1 416.5 926.2C416.4 927.1 416.3 928 416.3 929C416.3 929.6 416.3 930.1 416 930.7C415.7 931.1 416.2 931.8 415.9 932.4C415.9 932.5 415.9 932.5 415.9 932.6C415.6 935.2 415.3 937.8 415 940.3C414.1 943.5 414 946.8 413.6 950.1C413.2 953.7 412.8 957.3 412.4 960.9C412.2 962.3 412.1 963.8 412 965.2C412.1 965.4 412.1 965.6 411.9 965.8C411.7 967 411.6 968.3 411.5 969.3C411.5 971 411.2 972.6 411.1 974.2C410.8 977.6 410.4 981.1 410 984.5C409.9 985.6 409.9 986.7 409.9 987.8C409.9 988.7 409.6 989 409.3 989.1C408.6 989.3 408.1 989.8 408 991.6C408 992.6 407.7 994.4 406.7 993.7C406.5 993.5 406.4 994 406.4 994.3C406.1 996.1 405.4 995.5 404.9 995.5ZM418.6 908.1C418.7 908 418.7 907.9 418.8 907.8C418.7 907.8 418.7 907.9 418.6 907.9C418.6 907.9 418.6 908 418.6 908.1ZM417.5 918.6L417.6 918.7C417.5 918.7 417.5 918.6 417.5 918.6ZM417 923.7C417 923.6 417 923.5 417.1 923.3C417 923.5 416.9 923.6 417 923.7C416.9 923.7 416.9 923.7 417 923.7ZM416.2 929.5C416.2 929.3 416.3 929.2 416.3 929C416.3 929.2 416.2 929.3 416.2 929.5ZM411.9 965.3C411.9 965.3 412 965.3 411.9 965.3C412 965.3 412 965.3 411.9 965.3Z" fill="#FFE082"/>
<path d="M423.1 951.4H423.2V951.3L423.1 951.4Z" fill="#FFE082"/>
<path d="M431 828.1C431 827.9 431.2 827.7 431.7 827.8C432.2 827.9 432.9 828.2 434.1 829C435.6 830 437 831.2 438.3 832.4C439.6 833.6 440.8 835 441.8 836.4C444 839.2 445.7 842.3 447.2 845.5C447.3 845.6 447.3 845.8 447.4 845.9C449.2 850.1 450.7 854.5 451.4 859C452.7 866.9 452.8 874.8 452.1 882.6C451.3 891.3 450.3 900.1 448.3 908.6C447.1 913.7 445.7 918.8 444.2 923.8C443.4 926.3 442.6 928.8 441.7 931.3C440.8 933.8 439.8 936.3 438.6 938.7C437.6 940.7 436.5 942.7 435.2 944.7C433.9 946.6 432.5 948.5 430.9 950.2C429.3 951.9 427.5 953.5 425.4 954.7C423.3 955.9 421 956.9 418.6 957.4C417.8 957.6 416.9 957.6 416 957.7C415.1 957.8 414.3 957.7 413.4 957.7C411.7 957.5 410 957.2 408.4 956.6C405.2 955.5 402.4 953.6 399.9 951.4C398.1 949.8 396.5 948.1 395 946.2C393.3 943.9 391.8 941.7 390.9 938.9C390.5 937.7 389.9 936.3 389.2 934.9C388.6 933.4 388 931.8 387.4 930.4C386.2 926.3 385.2 922 384.7 917.8C384.3 915.6 384.2 913.4 384 911.2C383.9 910.1 383.9 909 383.8 907.9C383.7 906.8 383.7 905.7 383.6 904.6C383.6 903.3 383.7 902.1 383.7 900.8C383.8 899.5 383.9 898.3 383.9 897C384.1 891.4 385.1 885.9 386 880.5C387.4 872.9 388.9 865.3 390.6 857.8C391.5 854 392.6 850.2 394.7 846.7C396.8 843.2 399.8 840.4 403.1 838.2C408.3 834.9 414.1 832.9 419.9 831.6C424.5 830.6 427.3 831.2 429.9 831.6C432.8 832.1 431.6 832.8 427.6 833.5C420 834.8 412.5 836.6 406.1 840.2C403.2 841.8 400.6 843.9 398.6 846.5C396.6 849.1 395.3 852.1 394.4 855.4C393.5 858.8 392.8 862.4 392 866C391.9 866.1 391.9 866.2 391.9 866.4C390.7 871.3 389.9 876.4 389.1 881.4C388.7 884.1 388.2 886.7 387.8 889.4C387.4 891.2 387.5 893.8 387.3 896.1C386.8 903.1 386.8 910.1 387.8 917C388 918.6 388.2 920.2 388.6 921.8C388.7 922.8 388.9 923.8 389.1 924.7C389.4 925.6 389.7 926.6 390 927.5L390.5 929.2L391.1 930.9C391.6 932.3 392.1 933.7 392.8 935C394.2 937.8 395.6 940.5 397.2 943.1C397.4 943.4 397.7 943.6 397.9 943.9L399.2 945.3L399.3 945.4V945.5C401 947.6 403 949.2 405.2 950.6C405.5 950.8 405.8 951.1 406.1 951.3C406.1 951.3 406.1 951.3 406.2 951.3C406.2 951.3 406.2 951.3 406.3 951.3C409.3 953 412.6 953.7 415.9 953.7C417.9 953.6 419.8 953.1 421.7 952.4C422 952.3 422.4 952.2 422.6 952C422.8 951.8 423.1 951.7 423.3 951.5L423.4 951.3C424 950.9 424.6 950.6 425.1 950.2C425.6 949.8 426.2 949.4 426.8 949.1C427 948.8 427.1 948.6 427.5 948.5V948.4C428.7 947.3 429.7 946 430.7 944.7C431.3 943.8 431.8 943 432.6 942.3C433.2 941.7 433.4 940.6 434.1 939.7C434.2 939.6 434.2 939.5 434.3 939.4C436.6 935.3 438.3 930.8 439.9 926.2C442.3 920.6 443.8 914.5 445.1 908.5C446.5 901.9 447.6 895.2 448.2 888.5C448.5 885.8 448.6 883.2 448.7 880.5C448.6 880.1 448.6 879.8 448.8 879.4C448.9 877.2 449 874.7 448.9 872.9C448.7 869.8 448.6 866.9 448.3 863.9C447.5 857.7 446.1 851.5 443.2 846C442.3 844.3 441.2 842.6 440 841.2C439 839.9 438.8 839.4 438.9 839C439 838.6 439 838.1 438.7 837.4C438.4 836.7 437.7 835.9 436.4 834.7C435 833.4 432.3 831.5 433.9 831.3C434.3 831.3 433.5 830.7 433 830.4C429.6 828.7 430.9 828.7 431 828.1ZM399.4 946.1L399.1 945.6C399.1 945.7 399.1 945.8 399.2 945.9C399.2 945.9 399.3 946 399.4 946.1ZM415.5 953.9L415.7 953.8L415.4 953.9H415.5ZM423.6 951.2L423.1 951.5L423.6 951.2ZM431.1 944.1C430.9 944.3 430.7 944.6 430.5 944.8C430.7 944.6 430.9 944.5 431.1 944.3V944.1ZM448.4 880.4V880.5C448.4 880.5 448.4 880.5 448.4 880.4C448.4 880.5 448.4 880.5 448.4 880.4Z" fill="#FFE082"/>
<path d="M474.9 901.3C474.9 901.8 474.6 902.1 473.6 902C470.9 901.7 468.2 901 465.5 900.6H465.3C463.5 900.3 461.7 900.3 460 900C456.9 899.5 453.8 899.3 450.7 898.7C447.3 898 443.7 897.8 440.2 897.3C436 896.7 431.8 896.3 427.6 895.9C424 895.6 420.4 895.4 416.9 895C414.4 894.8 412 894.3 409.5 894C408.6 893.9 407.7 893.8 406.8 893.7C405.7 893.6 404.7 893.6 403.6 893C402.7 892.6 401.2 892.7 400 892.5C398.3 892.3 396.6 892 394.9 891.9C393.2 891.8 391.4 891.4 389.7 891.5C388.7 891.4 387.7 891.2 386.7 891.2C384.4 891.2 382.2 890.6 380 890.3C373.8 889.5 367.6 888.9 361.3 888.4C358.9 888.2 356.5 888.2 354.1 888.1C352.2 888 351.2 887 350.3 886.2C349.2 885.3 349.8 884.7 351.4 884.7C354.6 884.7 357.7 884.7 360.9 885C363.8 885.3 366.6 885.7 369.5 885.9C371 886 372.5 886.2 373.9 886.4C373.9 886.5 374 886.5 374.1 886.4C376.1 886.9 378.2 886.9 380.3 887.1C381.4 887.2 382.5 887.4 383.6 887.7C384.3 887.9 385.4 887.8 386.4 887.8L395 888.7L397 888.9C397.8 889.2 398.6 889.1 399.5 889.2C400 889.2 400.5 889.3 401 889.4C401.6 889.5 402.2 889.5 402.8 889.5C404.1 889.5 405.4 889.7 406.7 890C406.8 890 407 890 407.2 890H408C408 890 408 890 408.1 890V890.1C409.2 890.3 410.3 890.3 411.5 890.4L412 890.6C413.5 890.7 415 890.7 416.5 891L419.2 891.4C419.3 891.5 419.5 891.6 419.6 891.4H420L420.1 891.3C420.7 891.4 421.3 891.4 421.8 891.7C421.9 891.7 422.1 891.6 422.2 891.7L424.3 891.8C424.8 891.7 425.2 891.7 425.6 892.1C425.9 892.4 426.4 891.9 426.9 892.2H427L432.9 892.8C435.3 893.6 437.9 893.6 440.4 893.9C443.1 894.2 445.9 894.5 448.7 894.7L452 895C452.2 894.9 452.3 894.9 452.4 895.1C453.3 895.2 454.3 895.4 455 895.4C456.3 895.4 457.5 895.6 458.7 895.7C461.3 895.9 463.9 896.3 466.6 896.5C467.4 896.6 468.3 896.6 469.1 896.6C469.8 896.6 470 896.8 470.1 897.2C470.2 897.9 470.6 898.4 472 898.5C472.8 898.5 474.2 898.7 473.6 899.7C473.4 899.9 473.8 900 474.1 900C475.4 900.2 474.9 900.8 474.9 901.3ZM408.3 890.5L408.1 890.3C408.1 890.4 408.2 890.4 408.2 890.5C408.2 890.5 408.2 890.5 408.3 890.5ZM420.2 891.5H419.9H420.2ZM424.7 892.1L424.3 892L424.7 892.1Z" fill="#FFE082"/>
<path d="M466.2 864.9C466.2 865.4 466 865.7 465.1 865.6C462.8 865.4 460.5 864.8 458.2 864.6H458.1C456.6 864.4 455.1 864.5 453.6 864.3C451 864 448.3 864 445.7 863.5C442.8 863 439.7 863 436.8 862.7C433.2 862.3 429.6 862.2 426.1 862.1C423.1 862 420 862 417 861.9C414.9 861.8 412.8 861.6 410.7 861.4C409.9 861.3 409.2 861.4 408.4 861.3C407.5 861.2 406.6 861.3 405.6 860.9C404.8 860.5 403.6 860.7 402.5 860.7C401 860.6 399.6 860.4 398.1 860.4C396.6 860.4 395.1 860.1 393.6 860.4C392.7 860.4 391.9 860.2 391 860.3C389.1 860.4 387.2 860.1 385.3 860C380 859.7 374.7 859.6 369.4 859.7C367.4 859.7 365.3 859.9 363.3 860C361.7 860.1 360.8 859.2 359.9 858.5C358.9 857.7 359.3 857.1 360.8 856.9C363.5 856.6 366.2 856.4 368.9 856.4C371.4 856.4 373.8 856.6 376.3 856.6C377.6 856.6 378.8 856.7 380.1 856.7C380.1 856.8 380.2 856.8 380.2 856.7C382 857 383.7 856.8 385.5 856.9C386.4 856.9 387.4 857 388.3 857.2C388.9 857.3 389.9 857.1 390.6 857.1L398 857.3L399.7 857.4C400.4 857.6 401.1 857.5 401.8 857.5C402.2 857.5 402.6 857.6 403.1 857.6C403.6 857.6 404.2 857.7 404.7 857.6C405.8 857.5 406.9 857.6 408 857.8C408.1 857.8 408.3 857.8 408.4 857.7L409.1 857.6C409.1 857.6 409.1 857.6 409.2 857.6V857.7C410.2 857.9 411.1 857.7 412.1 857.7L412.5 857.8C413.8 857.8 415.1 857.7 416.3 857.9L418.6 858.1C418.7 858.2 418.8 858.3 419 858.1L419.3 858L419.4 857.9C419.9 857.9 420.4 857.9 420.9 858.2C421 858.1 421.1 858.1 421.2 858.2H423C423.4 858.1 423.7 858.1 424.1 858.4C424.4 858.6 424.8 858.1 425.2 858.4H425.3L430.4 858.6C432.5 859.2 434.7 859.1 436.8 859.2L443.8 859.6L446.6 859.7C446.7 859.6 446.9 859.6 447 859.7C447.8 859.8 448.6 859.9 449.3 859.8C450.4 859.7 451.4 859.8 452.5 859.9C454.7 860 457 860.2 459.2 860.3C459.9 860.3 460.6 860.3 461.3 860.2C461.9 860.1 462.1 860.4 462.2 860.8C462.3 861.5 462.6 862 463.8 862C464.5 862 465.7 862.1 465.1 863.1C465 863.4 465.3 863.3 465.5 863.4C466.6 863.7 466.2 864.4 466.2 864.9ZM409.3 858L409.1 857.8C409.1 857.9 409.2 857.9 409.2 858C409.2 858 409.2 858 409.3 858ZM419.5 858.3H419.3H419.5ZM423.3 858.5L423 858.4L423.3 858.5Z" fill="#FFE082"/>
<path d="M459.9 930C459.9 930.5 459.7 930.8 458.9 930.8C456.6 930.6 454.4 930.1 452.1 929.9H452C450.5 929.7 449 929.8 447.5 929.6C444.9 929.3 442.3 929.3 439.7 928.8C436.8 928.3 433.8 928.2 430.9 927.9C427.4 927.5 423.8 927.2 420.3 927C417.3 926.8 414.3 926.7 411.3 926.4C409.2 926.2 407.2 925.8 405.1 925.6C404.3 925.5 403.6 925.5 402.8 925.4C401.9 925.3 401 925.3 400.1 924.8C399.3 924.4 398.1 924.5 397.1 924.4C395.7 924.2 394.3 923.9 392.8 923.8C391.3 923.7 389.9 923.3 388.4 923.5C387.6 923.4 386.7 923.2 385.9 923.2C384 923.2 382.2 922.6 380.3 922.3C375.1 921.4 369.9 920.7 364.7 920.2C362.7 920 360.7 919.9 358.7 919.8C357.1 919.6 356.4 918.7 355.6 917.8C354.8 916.9 355.3 916.3 356.7 916.4C359.3 916.5 362 916.6 364.6 916.9C367 917.2 369.4 917.7 371.8 918C373 918.1 374.3 918.4 375.5 918.5C375.5 918.6 375.6 918.6 375.6 918.5C377.3 919 379 919 380.7 919.2C381.6 919.3 382.5 919.5 383.4 919.8C384 920 384.9 919.9 385.7 920L392.9 920.8L394.6 921C395.3 921.3 396 921.2 396.7 921.2C397.1 921.2 397.5 921.3 397.9 921.4C398.4 921.5 398.9 921.5 399.4 921.5C400.5 921.5 401.6 921.7 402.6 921.9C402.7 921.9 402.9 921.9 403 921.9H403.7C403.7 921.9 403.7 921.9 403.8 921.9V922C404.7 922.2 405.7 922.2 406.6 922.2L407 922.4C408.2 922.5 409.5 922.4 410.7 922.7L412.9 923C413 923.1 413.1 923.2 413.3 923H413.6L413.7 922.9C414.2 923 414.7 923 415.2 923.2C415.3 923.1 415.4 923.1 415.5 923.2L417.3 923.3C417.7 923.2 418 923.2 418.4 923.5C418.7 923.7 419.1 923.3 419.5 923.5H419.6L424.6 923.9C426.6 924.6 428.8 924.5 430.9 924.7C433.2 924.9 435.5 925 437.8 925.2L440.6 925.3C440.7 925.2 440.8 925.2 441 925.3C441.7 925.4 442.6 925.5 443.2 925.4C444.3 925.3 445.3 925.4 446.3 925.5C448.5 925.6 450.7 925.8 452.9 925.9C453.6 925.9 454.3 925.9 455 925.8C455.6 925.7 455.8 926 455.8 926.3C455.9 927 456.2 927.5 457.4 927.4C458 927.4 459.2 927.5 458.7 928.5C458.6 928.8 458.9 928.7 459.1 928.8C460.3 928.8 459.9 929.5 459.9 930ZM404.1 922L403.9 921.8C403.9 921.9 403.9 921.9 404 922C404 922 404 922 404.1 922ZM414 922.8H413.8H414ZM417.7 923.2L417.4 923.1L417.7 923.2Z" fill="#FFE082"/>
<path d="M422.1 831C421.6 831.2 421.2 830.6 421.2 827.7C421.2 823.8 421.7 820 422.4 816.2C422.6 815.3 422.8 814.2 423.4 813C423.7 812.4 424.1 811.8 424.6 811.3C425.1 810.8 425.8 810.3 426.4 810.1C427.7 809.5 429 809.5 430 809.5C431.1 809.5 432 809.7 433 809.8H433.4C438.3 810.4 443.2 811.1 448 812.3C456.4 814.5 464.7 817.4 472.2 822.1C480.5 827.3 488.1 834 493.6 842.3C496.9 847.3 499.5 852.7 501.1 858.4C502.8 864.1 503.3 870.1 503.2 876C503.1 881 502.5 885.9 501.7 890.8C500.9 895.7 499.8 900.5 498.5 905.3C496.7 911.9 494.1 918.4 491.2 924.6C490.7 925.7 490.1 926.9 489.6 928C489.1 929.1 488.5 930.2 487.8 931.3C487.1 932.6 486.3 933.9 485.6 935.2C484.8 936.5 483.9 937.7 482.9 938.9C482.1 939.9 481 941.2 480 942.7C479 944.1 477.9 945.6 476.8 947C473.8 950.7 470.4 954 466.9 957.2C463.3 960.5 459.2 963.2 455.4 966.1C454.2 966.8 453 967.5 451.7 968.2C450.4 968.9 449.2 969.5 448 970.2C442.4 973.1 436.4 974.9 430.4 976.1C421.9 977.8 413.1 977.9 404.6 976.5C396.1 975.2 387.8 972.6 379.8 969.8C373.6 967.6 367.4 965.3 361.7 961.9C357.2 959.2 355.4 956.5 353.9 954C353.1 952.6 353.1 952.1 353.6 952.2C354.2 952.4 355.3 953.3 357 954.6C363.5 959.8 371.3 963.1 379.3 966C386.6 968.7 394 971.3 401.5 972.7C405.4 973.4 409.3 974 413.2 974.2C413.3 974.3 413.5 974.3 413.6 974.2C419.1 974.6 424.6 974 429.9 972.8L432.1 972.3L434.2 971.8C435.6 971.5 437 971 438.5 970.6C439.5 970.3 440.6 969.9 441.8 969.3C442.4 969 443 968.8 443.6 968.5C444.2 968.2 444.8 967.9 445.3 967.7C447.1 966.9 448.7 966 450.4 965.1C452 964.1 453.7 963.2 455.3 962.1C458.5 960 461.6 957.6 464.5 955.1L466.5 953.3L468.4 951.4C469.3 950.7 470 949.9 470.8 949.1C471.5 948.3 472.3 947.4 473 946.6C473.8 945.6 474.8 944.6 475.6 943.5C476.6 942.2 477.7 940.9 478.5 939.5C480.4 936.5 482.3 933.6 484.2 930.7C484.4 930.4 484.5 930 484.7 929.6L485.7 927.7C485.7 927.6 485.7 927.6 485.8 927.5H485.9C487.4 924.8 488.5 922.1 489.6 919.3L490.2 918.1V918.2V918.1C490.2 918.1 490.2 918.1 490.2 918C490.2 918 490.2 918 490.2 917.9C491.7 914.2 492.9 910.3 494.2 906.5C494.6 905.4 494.9 904.2 495.2 903.1C495.5 902 495.9 900.8 496.1 899.6C496.3 899.2 496.4 898.9 496.4 898.4L496.6 897.4L496.5 897.1C496.8 895.5 497.2 893.9 497.7 892.5C497.7 892.1 497.7 891.8 497.9 891.4C497.9 891.4 497.9 891.4 497.9 891.5V891.4C498.2 889.5 498.5 887.7 498.8 885.8C498.9 884.6 499 883.5 499.4 882.4C499.7 881.5 499.3 880.3 499.7 879C499.7 878.9 499.7 878.8 499.7 878.7C500.1 873.4 499.9 868.1 498.9 863C498.2 856.4 495.2 850.1 491.5 844.6C487.5 838.5 482.2 833.2 476.3 828.8C473.9 827.1 471.4 825.6 468.9 824.1C468.5 824 468.2 823.8 467.9 823.5H468C467 822.9 465.8 822.4 464.7 821.8C463.6 821.3 462.5 820.8 461.6 820.5C458.4 819.3 455.3 818.2 452.2 817.3C445.5 815.4 438.5 814.1 431.5 813.5C430.5 813.4 429.5 813.4 428.9 813.7C428.6 813.8 428.4 813.9 428.3 814.1C428.2 814.2 428.1 814.4 428 814.7C427.8 815.2 427.7 815.7 427.5 816.1C427.3 816.5 427.2 816.6 426.9 816.8C426.1 817.2 425.4 818.2 425.2 822C425 824.1 425 827.8 423.9 826.5C423.6 826.2 423.7 827.2 423.6 827.9C423.3 831.9 422.6 830.8 422.1 831ZM486.1 927.1L485.7 927.6C485.8 927.5 485.9 927.5 486 927.4C486 927.3 486 927.2 486.1 927.1ZM494.1 906.9V906.7L494 907L494.1 906.9ZM496.7 896.8L496.5 897.5L496.7 896.8ZM498.9 884.9L498.7 885.9L499 885.1L498.9 884.9ZM468.6 824.2L468.7 824.3C468.7 824.3 468.7 824.3 468.6 824.2C468.6 824.2 468.6 824.3 468.6 824.2Z" fill="#FFE082"/>
<path d="M435.9 1001.7C435.8 1002.2 435.7 1002.5 435.2 1002.4C434 1002.2 433 1001.6 431.8 1001.4H431.7C431 1001.2 430.2 1001.2 429.4 1001C428.1 1000.6 426.7 1000.6 425.4 1000.2C423.9 999.7 422.4 999.6 420.9 999.3C419.1 998.9 417.3 998.7 415.5 998.5C413.9 998.4 412.4 998.3 410.8 998.2C409.7 998.1 408.7 997.8 407.6 997.6C407.2 997.5 406.8 997.5 406.4 997.5C405.9 997.4 405.5 997.5 405 997C404.6 996.6 404 996.8 403.4 996.7C402.7 996.6 401.9 996.4 401.2 996.4C400.4 996.4 399.7 996.1 398.9 996.3C398.5 996.2 398 996.1 397.6 996.2C396.6 996.3 395.7 995.9 394.7 995.7C392 995.2 389.3 995 386.6 995C385.6 995 384.5 995.1 383.5 995.2C382.7 995.2 382.3 994.3 381.8 993.6C381.3 992.8 381.6 992.2 382.3 992.1C383.7 991.9 385.1 991.7 386.5 991.8C387.8 991.9 389 992.1 390.3 992.2C391 992.2 391.6 992.3 392.2 992.4C392.2 992.5 392.2 992.5 392.3 992.4C393.2 992.7 394.1 992.6 395 992.7C395.5 992.7 396 992.9 396.4 993.1C396.7 993.2 397.2 993.1 397.6 993.1C398.9 993.2 400.1 993.3 401.4 993.5L402.3 993.6C402.6 993.8 403 993.7 403.4 993.7C403.6 993.7 403.8 993.8 404 993.8C404.3 993.8 404.5 993.9 404.8 993.8C405.4 993.7 405.9 993.8 406.5 994.1C406.6 994.1 406.6 994.1 406.7 994H407.1V994.1C407.6 994.3 408.1 994.2 408.6 994.2L408.8 994.3C409.5 994.4 410.1 994.2 410.8 994.5L412 994.7C412.1 994.8 412.1 994.9 412.2 994.7L412.4 994.6L412.5 994.5C412.8 994.5 413 994.5 413.2 994.8C413.3 994.7 413.3 994.7 413.4 994.8H414.3C414.5 994.7 414.7 994.7 414.8 995C414.9 995.2 415.2 994.7 415.4 995C415.4 995 415.4 995 415.5 995L418.1 995.3C419.1 995.9 420.2 995.9 421.3 996C422.5 996.2 423.7 996.3 424.9 996.4L426.3 996.5C426.4 996.4 426.4 996.4 426.5 996.5C426.9 996.6 427.3 996.7 427.7 996.6C428.3 996.5 428.8 996.7 429.3 996.7C430.4 996.8 431.6 997 432.7 997.2C433.1 997.2 433.4 997.2 433.8 997.2C434.1 997.2 434.2 997.4 434.2 997.8C434.2 998.5 434.2 999 434.9 999C435.2 999 435.8 999.1 435.4 1000.1C435.3 1000.3 435.5 1000.3 435.6 1000.4C436.3 1000.5 435.9 1001.2 435.9 1001.7ZM407.4 994.1L407.3 993.9C407.3 994 407.3 994 407.4 994.1C407.3 994.1 407.3 994.1 407.4 994.1ZM412.6 994.5H412.5H412.6ZM414.5 994.8L414.3 994.7L414.5 994.8Z" fill="#FFE082"/>
<path d="M276.3 859.5L277 853.4L277.4 850.4V850C277.4 849.9 277.4 849.8 277.4 849.8L277.1 849.9L276.3 850.2L275.2 850.6C273.9 851.1 272.6 851.7 271.9 852.4L271 849.7C271.3 849.7 272.1 849.6 272.8 849.4C273.5 849.2 274.2 849 274.9 848.7C275.6 848.4 276.2 848.1 276.8 847.8C277.1 847.6 277.4 847.5 277.5 847.3L277.6 847.2L277.7 847.1L277.8 847C277.8 847 278 847.1 278.1 847.1L279.9 849.1C268.5 853.1 257.1 857.2 245.9 861.7C240.8 863.7 235.7 865.9 230.7 868C228.2 869.1 225.7 870.2 223.2 871.3C222.6 871.5 221.8 872 221 872.2C220.2 872.4 219.5 872.5 218.8 872.6C218.1 872.7 217.5 872.8 216.9 872.9C216.6 873 216.3 873 216.1 873.1C215.6 873.3 215 873.6 214.4 873.8L209.8 869.9L206 866.6L198.4 859.9C193.4 855.5 188.3 851.2 183.1 847.1C177.8 843 172.4 839.2 166.8 835.7C164.7 834.4 162.2 833.7 159.7 833.6C158.7 833.6 157.3 833.7 157.2 833.5C156.8 832.8 155.4 832.2 156.6 831.2C157.1 830.8 158.5 830.5 160.4 830.6C162.4 830.7 164.5 831.2 166.3 832.1C167.2 832.5 168.1 833 168.9 833.6L171.2 835C174.3 836.9 177.4 839 180.4 841.2C186.4 845.6 192 850.3 197.6 855.1C202.7 859.5 207.6 864.2 212.7 868.5L214.2 869.7L214.8 870.2C214.9 870.3 214.9 870.3 215 870.4C215.1 870.4 215.2 870.3 215.3 870.3C215.7 870.2 216 870.1 216.4 870C217.1 869.8 217.8 869.8 218.5 869.7C219.2 869.6 219.8 869.5 220.3 869.4C220.9 869.3 221.3 869 222 868.7C224.5 867.6 227 866.5 229.5 865.4C234.5 863.3 239.5 861.2 244.5 859.1C256 854.5 267.5 850.1 279.1 846L282.3 844.9L280.9 847.9C280.6 848.6 280.1 849 279.8 849.4C279.4 849.7 279 850 278.6 850.2C277.8 850.7 277 851 276.2 851.3C275.4 851.6 274.6 851.9 273.8 852.1C272.9 852.3 272.2 852.5 270.9 852.4L267.5 852.2L270 849.9C271.5 848.6 273.1 848 274.6 847.4L275.7 847L277.2 846.6C278.5 846.2 279.9 845.7 281.2 845.2L280.8 848.7L279.5 859L278.2 868.6C277.3 875 276.4 881.4 275.5 887.7L271.7 915.1C270.7 922.2 269.8 929.3 268.9 936.4L268.8 937C268.8 937 268.8 937.3 268.8 937.5V938.8L268.9 941.5C269 943.3 269.1 945.2 268.9 947.1C268.4 951.3 265.8 954.6 262.9 957C261.5 958.1 260.1 959.1 258.7 959.9C258 960.3 257.2 960.7 256.5 961.2L255.4 961.8L254.9 962.1L254.8 962.2L253.9 963.1L253.5 963.5L253.3 963.7C253.2 963.8 253.1 964 252.9 964.1L250.6 965.4C249.1 966.2 247.6 967 246.2 967.7C240.2 970.6 234.1 973.1 228 975.5C220 978.7 212 982.3 205 987.2L205.2 987C204.4 987.7 203.6 987.9 203 988C202.8 988 202.7 988 202.5 988C202.3 988 202 988 201.8 988H201.5L201.2 987.8L200.6 987.4C199.7 986.8 198.8 986.2 197.9 985.6C196.1 984.3 194.4 983 192.8 981.7C191.6 980.7 190.5 979.5 189.3 978.6L188.5 977.9C187 976.4 185.5 975 184.1 973.5L181.9 971.3C181.6 971 181.7 971.2 181.7 971.1C181.6 971.1 181.5 971 181.2 970.9C181 970.8 180.7 970.7 180.3 970.6C180 970.5 179.5 970.2 179.1 969.9L176.8 967.7C175.9 966.8 174.9 966 173.9 965.3C173.4 964.9 172.9 964.6 172.3 964.3C172.1 964.2 172.1 964.2 171.8 964C171.6 963.9 171.4 963.7 171.2 963.6C170.8 963.3 170.5 963 170.3 962.6C169.8 961.9 169.4 961.3 169.1 960.8C168.8 960.3 168.6 960.1 168.1 959.8L166.5 958.6L164.9 957.4C160.6 954.3 156 951.3 152 947.2C150.1 945.3 148.2 943 146.8 940.4L146.3 939.4L146 938.9C145.9 938.7 145.8 938.5 145.7 938.2C145.4 937.3 145.3 936.4 145.3 935.6C145.3 934.8 145.3 934 145.4 933.3V932.3V931.8C145.4 931.6 145.4 931.5 145.5 931.3L145.6 931C146.4 926.7 147.2 921.2 147.5 916.8C147.8 911.3 148.4 911.6 149.1 910.6C149.3 910.2 149.5 910.6 149.6 911C149.9 912.2 150 914.6 150.7 914.1C151.1 913.8 150.7 916.7 150.6 918.2C150.3 920.9 150.1 923.6 149.7 926.4C149.5 927.8 149.3 929.1 149.1 930.5C149 930.8 149 931.2 148.9 931.5C148.8 932 148.8 931.6 148.8 932.2C148.8 932.9 148.7 933.6 148.7 934.3C148.6 935.6 148.7 936.7 149.1 937.3L150.1 939.1C150.5 939.6 150.8 940.2 151.2 940.7C152.7 942.8 154.5 944.6 156.5 946.3C160.5 949.7 165.1 952.7 169.5 956L170.3 956.6C170.6 956.8 171 957.1 171.3 957.5C172 958.2 172.4 958.9 172.7 959.5C173 960.1 173.3 960.4 173.6 960.7C173.8 960.9 174.5 961.3 175.1 961.7C177.5 963.3 179.6 965.4 181.5 967.3C181.5 967.3 181.5 967.3 181.6 967.3C181.7 967.3 181.9 967.4 182.1 967.5C182.3 967.6 182.6 967.7 182.9 967.8C183.2 967.9 183.6 968.2 184 968.5L186 970.5C187.3 971.8 188.6 973.1 189.9 974.3C192.3 976.6 194.6 978.7 197.2 980.7C198.5 981.7 199.7 982.7 201.1 983.6C201.4 983.8 201.8 984.1 202.1 984.3L202.5 984.6H202.6C202.8 984.6 202.9 984.6 203 984.5C203.1 984.5 203.2 984.4 203.2 984.4C203.2 984.4 203.2 984.4 203.3 984.5C203.3 984.6 203.4 984.6 203.4 984.7L203.5 984.8L203 985C207.6 981.9 212.4 979.2 217.4 976.9C222.4 974.5 227.4 972.5 232.4 970.4C236.3 968.8 240.2 967.1 244 965.3C245 964.9 245.9 964.4 246.8 963.9C247.7 963.4 248.7 962.9 249.6 962.4L250.9 961.7L251.2 961.4L251.8 960.8L252.4 960.2L252.6 960C252.7 959.9 252.8 959.8 252.9 959.8L253.4 959.5L254.8 958.7C258.5 956.7 262 954.5 264.1 951.4C264.6 950.6 265 949.8 265.4 948.9L265.6 948.2L265.7 947.9V947.7C265.8 947.2 265.8 946.7 265.9 946.3C266 944.3 265.9 942.3 265.7 940.1C265.7 939.5 265.6 938.8 265.6 938.2V937.7C265.6 937.5 265.6 937.4 265.6 937.1L265.7 936.1L266.2 932.3C266.5 929.8 266.8 927.3 267.2 924.8C267.9 919.8 268.6 914.8 269.3 909.8C270.8 899.5 272.3 889.2 273.9 878.9C274.7 872.4 275.7 865.9 276.3 859.5Z" fill="#FFE082"/>
<path d="M155.5 860.6C155.4 861.2 155.3 861.8 155.3 862.4C155.2 864.2 154.9 865.9 154.6 867.7C154.3 869.6 154.2 871.4 153.9 873.3C153.7 874.7 153.6 876.1 153.2 877.5C153.1 877.8 153.2 878.1 153.2 878.3C153.2 878.4 153.2 878.6 153 878.6C152.2 878.6 151.5 878.6 150.7 878.4C150.4 878.3 150.3 878.2 150.3 878C150.5 876.5 150.8 874.9 151.1 873.4C151.2 872.7 151.5 872 151.5 871.3C151.5 870 151.8 868.8 151.9 867.5C152.1 865.5 152.1 863.4 152.5 861.4C152.7 860.1 153 858.7 153.1 857.4C153.2 856.4 153.2 855.5 153.4 854.5C153.6 853 153.7 851.5 153.9 850C154 848.6 154.2 847.2 154.6 845.9C154.9 844.6 155.2 843.2 155 841.8C155 841.6 155.2 841.5 155 841.3L154.9 841.2C155.1 840.7 155 840.1 155 839.6C155.1 838.5 155.1 837.3 155.5 836.2C155.7 835.7 155.8 835.1 155.8 834.5C155.8 834 156.1 833.5 155.9 833C155.7 832.4 156.3 832.5 156.8 832.5C157 832.5 157.2 832.5 157.4 832.6C157.9 832.8 158.2 833.1 158.8 833.1C159.2 833.1 159.1 833.4 159.1 833.6C159.1 836.3 158.6 839 158.2 841.6C157.9 843.4 157.8 845.3 157.6 847.1C157.4 848.9 156.9 850.6 156.8 852.4C156.7 853.5 156.6 854.5 156.3 855.6C156 856.7 155.9 857.8 155.7 858.8C155.6 859.3 155.4 859.9 155.5 860.6Z" fill="#FFE082"/>
<path d="M206.9 941.8C206.7 943.3 206.5 944.7 206.3 946.2C205.8 950.6 205 954.9 204.4 959.3C203.7 963.9 203.1 968.5 202.3 973.1C201.7 976.6 201.2 980 200.4 983.5C200.2 984.2 200.2 984.9 200.1 985.6C200.1 985.9 200.1 986.3 199.8 986.3C199 986.3 198.2 986.5 197.5 986.1C197.2 985.9 197.1 985.6 197.2 985.1C197.9 981.3 198.5 977.5 199.2 973.7C199.5 972 200 970.2 200.2 968.5C200.6 965.3 201.1 962.2 201.6 959.1C202.3 954.1 202.8 949.1 203.6 944.1C204.2 940.8 204.7 937.4 205.2 934.1C205.5 931.7 205.8 929.3 206.1 926.9C206.6 923.2 207.1 919.5 207.6 915.7C208.1 912.3 208.6 908.9 209.2 905.5C209.8 902.2 210.4 898.8 210.6 895.4C210.6 895 210.9 894.6 210.7 894.2C210.7 894.1 210.7 894 210.7 893.9C211 892.6 211 891.2 211.2 889.9C211.6 887.1 211.8 884.3 212.5 881.5C212.8 880.2 213.1 878.7 213.2 877.2C213.3 876 213.8 874.6 213.7 873.4C213.6 871.9 214.2 872.1 214.8 871.9C215 871.8 215.2 871.9 215.3 872.1C215.7 872.5 216 873.1 216.7 873.1C217.1 873.1 216.9 873.8 216.9 874.2C216.3 880.9 215.2 887.5 214.2 894.1C213.5 898.6 213 903.2 212.3 907.7C211.6 912.1 210.8 916.5 210.3 920.9C210 923.5 209.6 926.2 209.1 928.8C208.6 931.5 208.2 934.2 207.7 936.9C207.3 938.4 207 940.1 206.9 941.8Z" fill="#FFE082"/>
<path d="M164.7 966C165.9 966.8 167.1 967.6 168.3 968.3C171.9 970.5 175.4 972.9 179 975.2C182.8 977.6 186.7 980 190.5 982.2C191.2 982.7 191.9 983 192.7 983.4C193.5 983.8 194.2 984.3 194.9 984.7C196.4 985.6 197.8 986.5 199.2 987.5C199.7 987.9 200.4 988.1 201 988.4C201.2 988.5 201.6 988.7 201.5 988.9C201.2 989.6 201.2 990.5 200.5 991C200.2 991.2 199.9 991.2 199.5 990.9C196.2 989 193.2 986.9 190 985.1C188.5 984.2 187.1 983.1 185.6 982.3C182.9 980.8 180.3 979.1 177.7 977.5C173.6 974.9 169.3 972.5 165.3 969.7C162.6 967.9 159.9 966 157.1 964.3L151.2 960.4C148.2 958.4 145.1 956.5 142 954.6C139.2 952.8 136.4 951 133.7 949L131.7 947.5L130.1 946.4C130 946.4 130.1 946.2 130 946.2V945.9V945.4L130.1 944.5C130.2 942.9 130.2 941.2 130.1 939.6C130.1 939.2 130.3 938.8 130.1 938.4L130 938.1C130.2 936.8 130.1 935.5 130.1 934.2C130.2 931.5 130.2 928.8 130.6 926C130.8 924.7 130.9 923.2 130.9 921.8C130.9 920.6 131.2 919.3 131 918.1C130.8 916.7 131.4 916.8 131.9 916.6C132.1 916.5 132.3 916.6 132.5 916.7C133 917 133.3 917.6 133.9 917.5C134.3 917.4 134.2 918.2 134.2 918.5C134.2 925 133.7 931.4 133.4 937.9C133.3 940.1 133.2 942.3 133.1 944.5C133.1 944.9 133.1 944.7 133.1 944.7L133.3 944.8L134 945.3L136.7 947.1C140.2 949.5 143.8 952 147.5 954.2C149.7 955.5 151.9 957 153.9 958.5C156.1 960.1 158.1 961.6 160.4 963.1C161.9 964.3 163.2 965.2 164.7 966Z" fill="#FFE082"/>
<path d="M138 877.8C137.9 878.8 137.7 879.9 137.6 880.9C137.3 884 136.9 887 136.5 890.1C136.3 891.7 136.1 893.3 136 895L135.6 899.9C135.4 902.4 135.3 904.8 134.8 907.3C134.7 907.8 134.8 908.3 134.7 908.8C134.7 909 134.7 909.3 134.5 909.3C133.7 909.3 132.9 909.5 132.2 909.2C131.9 909.1 131.8 908.8 131.8 908.5L132.6 900.4C132.7 899.2 133 897.9 133.1 896.7C133.1 894.5 133.5 892.2 133.7 890C134.1 886.5 134.2 882.9 134.8 879.4C135.2 877 135.6 874.7 135.9 872.3C136.1 870.6 136.3 868.9 136.5 867.2L137.6 859.3C137.9 856.9 138.4 854.5 138.9 852.1C139.2 851 139.4 850 139.6 848.9L140 846.4C140.2 845.5 140.3 844.5 140.4 843.4L141.2 843.9C141.6 844.2 142.1 844.8 142.5 844.8L142.8 844.9C143.2 845.2 143.5 845.5 143.9 845.8L144.4 846.2L144.7 846.4L144.9 846.5C145.3 846.8 145.7 847 146.1 847.3C147.7 848.5 149.4 849.5 150.8 850.9C151.5 851.6 152.3 852.2 153.2 852.8C153.9 853.2 154.6 854.1 155.4 854.4C156.4 854.8 156 855.2 155.8 855.8C155.7 856 155.6 856.1 155.4 856.2C154.9 856.5 154.4 856.5 154.1 857.1C153.9 857.4 153.5 857.1 153.3 856.9C151.3 855.6 149.4 854.3 147.5 852.9L144.7 850.8L143.3 849.7L142.7 849.2C142.7 849.2 142.6 849.2 142.6 849.1V849.2L142.4 850.1L141.8 853.9C141.3 857 140.5 860 140.2 863.1C140 865 139.7 866.8 139.3 868.6C138.9 870.5 138.6 872.4 138.3 874.3C138.2 875.4 138 876.6 138 877.8Z" fill="#FFE082"/>
<path d="M281.4 919.6C281.7 917 282.1 914.4 282.4 911.8C283.3 904.1 284.4 896.4 285.4 888.7C286.4 880.5 287.2 872.4 287.9 864.2C288 862.7 288.1 861.1 288.2 859.6L288.3 858.4V858.1V858L288.4 857.5V857.4H288.3L288.2 857.5L288 857.6L287.7 857.7L286.8 858.2C285.5 859 284.1 859.8 282.8 860.5C281.7 861.1 280.7 861.8 279.7 862.5C279.3 862.8 278.7 863.2 278.5 863C278 862.4 277 862.1 277.1 861.1C277.1 860.7 277.6 860.3 278.3 859.8L287.9 854L289.9 852.7L290.9 852.1C291.2 852 291.7 851.4 291.6 852.1L291.3 856.9L291.1 860.1L290.9 862.6C290.7 865.7 290.2 868.8 290 871.9C289.6 877.5 288.9 883.1 288.2 888.7C287.2 897.6 286.2 906.4 284.9 915.2C284 921.1 283.2 927 282.4 932.9C281.9 937.1 281.5 941.4 281 945.6C280.8 947.2 280.7 948.9 280.5 950.5L280.3 953C280.2 953.8 280.2 954.7 280 955.6C279.8 956.5 279.6 957.5 279.1 958.4C278.6 959.3 277.8 960.1 277.1 960.7C276.4 961.3 275.6 961.7 275 962.2L272.9 963.6C267.8 967 262.8 970.3 257.5 973.5C252.3 976.6 246.8 979.3 241.3 981.9C240.6 982.2 239.8 982.3 239.3 982.7L238.9 983C236.6 983.7 234.3 984.7 232 985.4C227.2 986.9 222.4 988.3 217.4 989C215 989.4 212.4 989.9 209.8 990.4C207.7 990.9 205.2 991 203.2 991.6C200.7 992.3 200.7 991.7 200.2 991.3C200 991.1 200.1 990.9 200.3 990.7C200.8 990.1 201.8 989.6 201.4 989C201.2 988.7 202.5 988.5 203.2 988.4C214.7 986.1 226.3 984 237.3 980C244.8 977.3 251.8 973.6 258.4 969.2L268.3 962.8L273.3 959.6C274.1 959.1 274.9 958.5 275.5 958C276.1 957.5 276.5 957 276.7 956.3C277 955.5 277.1 954.5 277.2 953.3L277.5 949.8C277.7 947.5 278 945.1 278.3 942.8C278.9 938 279.6 933.2 280.2 928.4C280.7 925.6 281.2 922.6 281.4 919.6Z" fill="#FFE082"/>
<path d="M234.5 937.3C234.9 934.8 235.3 932.4 235.6 929.9C236.5 922.6 237.4 915.3 238.1 908C238.8 900.2 239.4 892.4 240.2 884.6C240.8 878.7 241.5 872.8 242.6 867C242.8 865.9 242.9 864.6 243.1 863.5C243.2 863 243.2 862.4 243.5 862.4C244.3 862.4 245.1 861.9 245.8 862.6C246.1 862.9 246.1 863.4 246 864.2C244.9 870.5 244.1 876.9 243.3 883.3C243 886.2 242.5 889.2 242.3 892.1C241.9 897.4 241.4 902.7 240.9 908C240.1 916.4 239.5 924.9 238.2 933.3L237.5 937.5L237.3 938.6L237 940.3L236.4 943.6L236.1 945.2L235.9 946C235.8 946.2 235.9 946.8 235.6 946.3L233.4 943.4L230 939L228.1 936.6L227.8 936.3C227.8 936.3 227.7 936.1 227.7 936.2L227.6 936.4L226.3 938C225.7 938.8 225.1 939.5 224.5 940.3C222.2 943.4 220.3 946.8 218.9 950.4L215.1 959.8L216.1 949.7L216.8 942.8C217.4 937 218 931.3 218.7 925.5C219.4 919.9 220.1 914.2 220.4 908.5C220.4 907.8 220.7 907.1 220.6 906.5V906C221 903.7 221 901.5 221.2 899.2C221.7 894.5 222 889.8 222.7 885.1C223.1 882.8 223.4 880.3 223.5 877.8C223.6 875.8 224.1 873.4 224.1 871.4C224.1 869 224.7 869.1 225.2 868.7C225.4 868.6 225.6 868.7 225.7 868.9C226.1 869.5 226.4 870.5 227 870.4C227.4 870.3 227.2 871.5 227.1 872.2C226.3 883.4 225 894.5 223.8 905.7L221.5 928.6C220.7 935.7 219.8 942.9 219.1 950L215.8 949.2L216.2 948.3C218 944 220.4 940.1 223.4 936.6C223.8 936.2 224.2 935.7 224.6 935.3L224.9 935L225.3 934.6L226.3 933.5L227.4 932.4L227.7 932.1L227.8 932L227.9 931.9L228.4 932.5L230.3 935L232.4 937.7L233.4 939.1C233.6 939.4 233.6 939.4 233.6 939.4L233.7 939.5L234 939.9C234 939.9 234 940 234.1 940V939.8L234.2 939.4C234.2 939.1 234.3 938.9 234.3 938.6L234.5 937.3Z" fill="#FFE082"/>
<path d="M177.7 878.7C177 878.2 176.2 877.9 175.4 877.4C174.6 877.1 173.8 876.7 173 876.5C168.1 875.2 162.6 875.6 157.5 877C154.8 877.8 152.3 878.9 150.5 880.8C148.7 882.6 147.6 885.1 147 887.8C146.5 889.8 146.3 892 146.2 894.1C146 896.3 145.9 898.4 145.8 900.6C145.8 901.5 145.9 902.3 145.9 903.2C145.9 903.6 146 904 145.7 904.1C144.9 904.3 144.2 904.7 143.4 904.4C143.1 904.2 142.9 903.8 142.9 903.2C142.8 900.7 142.9 898.3 143 895.8C143.1 893.4 143.3 890.9 143.8 888.4C144.2 886.1 145.1 883.9 146.2 881.8C147.2 879.9 148.8 878.2 150.6 877C152.4 875.8 154.4 875 156.4 874.4C159.6 873.5 162.8 872.8 166.1 872.7C169.4 872.6 172.8 873 176 874.4C178.1 875.3 180 876.6 181.7 878.1C183.4 879.6 184.8 881.3 186.1 883.2C187.9 885.9 189.2 888.8 189.9 891.9C191.1 896.7 191 901.9 189.4 906.7C188.7 908.9 187.6 911.1 186 912.9C184.5 914.7 182.6 916.1 180.6 917.3C176.7 919.5 172.4 921 168 921.7C167.5 921.8 166.9 921.6 166.4 921.9C166.3 921.9 166.2 922 166 922C164.2 921.9 162.3 921.9 160.5 921.5C156.8 920.7 153 919 150.4 916.1C149.1 914.7 147.9 913.1 146.8 911.4C145.9 910 145.4 908 144.9 906.5C144.5 905.5 144.6 905 144.7 904.7C144.8 904.4 145.1 904.3 145.4 904.1C145.6 904 145.8 904 146 904.2C146.5 904.6 147 905.3 147.6 905C147.9 904.9 148.1 905.7 148.2 906.1C149.3 909.7 151.7 912.9 154.8 915.1C157.9 917.3 161.7 918.5 165.6 918.5C170.9 918.5 176.3 916.5 180.6 913.4C182.7 911.9 184.4 910 185.5 907.7C186.6 905.4 187.3 902.8 187.4 900.2C187.6 897.1 187.2 894 186.4 891C185.6 887.9 184.1 884.9 182 882.4C181.4 881.6 180.7 880.9 179.9 880.2C179.4 879.7 178.6 879.1 177.7 878.7Z" fill="#FFE082"/>
<path d="M150.2 897.5C149.7 897.5 149.4 897.4 149.4 896.7C149.3 894.7 149.2 892.3 149.6 889.6V889.4C149.8 888.5 150.1 887.6 150.5 886.7C150.9 885.8 151.4 885.1 152.1 884.4C154.4 882.2 157 880.9 159.7 880.3C162.8 879.7 166 879.3 169.1 879.9C172.8 880.6 176.4 882.3 179.3 884.7C181.7 886.8 183.8 889.5 184.8 892.7C185.5 894.9 185.7 897.3 185.4 899.6C185.3 900.4 185.2 901.3 185 902.1C184.7 903.1 184.5 904.1 183.6 904.8C182.9 905.4 182.4 906.7 181.6 907.5C180.5 908.7 179.2 909.5 177.9 910.3C176.6 911.1 175 911.5 173.7 912.2C172.8 912.4 171.9 912.5 171.1 912.8C169.2 913.3 167.3 913.2 165.4 913.2C162.8 913.1 160 912.9 157.4 911.6C156.1 911 154.9 910 154.1 908.9C153.2 907.8 152.6 906.5 152.1 905.3C151.4 903.4 150.7 901.4 150.3 899.4C150.1 897.8 150.9 896.8 151.7 896C152.5 895.1 153.1 895.5 153.3 896.8C153.6 899.2 154.3 901.5 155.1 903.7C155.8 905.7 156.6 907.5 158.1 908.5C158.9 909 159.8 909.4 160.8 909.7C160.8 909.8 160.9 909.8 160.9 909.7C162.3 910.3 163.9 910.2 165.5 910.2C166.4 910.2 167.2 910.2 168.1 910.3C168.7 910.3 169.5 910 170.2 909.9C172.4 909.5 174.5 908.9 176.3 907.9C176.7 907.7 177.1 907.4 177.5 907.1C178.1 906.9 178.4 906.4 178.8 906C179.1 905.8 179.3 905.5 179.5 905.2C179.8 904.9 180 904.5 180.2 904.1C180.5 903.2 181 902.5 181.4 901.6C181.4 901.5 181.4 901.4 181.4 901.3C181.4 901.1 181.4 900.9 181.5 900.7H181.6C181.9 899.9 181.8 899.1 181.8 898.3L181.9 898C181.9 896.9 181.5 895.9 181.4 894.8C181.3 894.2 181.1 893.6 180.8 892.9C180.8 892.8 180.9 892.6 180.7 892.6L180.5 892.4H180.3C180.1 892 179.9 891.6 179.8 891.2C179.7 891.1 179.6 891.1 179.6 890.9C179.3 890.5 179 890.1 178.6 889.7C178.3 889.5 178.1 889.3 178.1 888.9C178.1 888.6 177.5 888.7 177.4 888.3C177.4 888.3 177.4 888.2 177.3 888.2C176.3 887.2 175.1 886.3 173.8 885.6C172.4 884.3 170.5 883.8 168.6 883.5C166.6 883.2 164.4 883.2 162.4 883.7C161.6 883.9 160.8 884.1 160 884.4C159.9 884.5 159.8 884.6 159.7 884.5C159.1 884.7 158.3 885 157.9 885.3C157.1 885.8 156.4 886.3 155.7 886.8C155 887.4 154.5 888 154.1 888.6C153.7 889.2 153.5 890 153.4 890.8C153.4 891.3 153.4 891.9 153.6 892.5C153.7 893 153.5 893.2 153.2 893.3C152.5 893.5 152.1 893.9 152.3 895C152.4 895.6 152.5 896.8 151.4 896.5C151.1 896.4 151.2 896.7 151.2 896.9C151.4 897.9 150.7 897.5 150.2 897.5ZM181.8 900.5L181.6 900.6C181.7 900.6 181.7 900.6 181.8 900.5C181.8 900.5 181.8 900.6 181.8 900.5ZM181.4 894.7H181.3H181.4ZM180.4 892.1L180.5 892.3L180.4 892.1ZM178.6 889.3C178.6 889.4 178.7 889.5 178.7 889.6L178.6 889.3Z" fill="#FFE082"/>
<path d="M146.1 904.5C146.4 904.9 146.4 905.3 145.6 905.7C143.5 906.8 141.2 907.5 139 908.5L138.9 908.6C137.4 909.2 136.1 910 134.7 910.6C132.1 911.6 129.7 912.8 127 913.6C124.1 914.5 121.2 915.7 118.2 916.6C116.4 917.1 114.7 917.7 112.9 918.3C111.1 918.9 109.4 919.4 107.7 920C106.3 920.5 104.9 921.1 103.7 921.8C103.4 922 103.1 922.2 102.8 922.3L102.6 922.4L102.5 922.5L102.4 922.6L102.3 922.7C102.3 922.8 102.3 922.8 102.4 922.9L102.5 923.1L102.7 923.9L103.1 925.5L103.5 927.1L103.7 927.9V928.1V928.2C103.7 928.4 103.8 928.5 103.9 928.7C103.9 928.7 103.9 928.8 103.9 928.7C104.1 928.6 104.1 928.5 104.5 928.7C104.6 928.8 105.2 928.5 105.7 928.2C106.2 927.9 106.7 927.6 107.2 927.3C108.6 926.6 110 926.1 111.3 925.4C112.7 924.7 114.2 924.3 115.4 923.4C116.2 923 117.1 922.8 117.8 922.3C119.5 921.3 121.4 920.8 123.2 920.1C128.3 918.1 133.2 915.9 138.1 913.5C140 912.6 141.8 911.6 143.6 910.6C145.1 909.9 146.3 910.3 147.4 910.6C148.6 910.9 148.5 911.7 147.2 912.4C144.8 913.8 142.4 915.1 139.9 916.3C137.6 917.3 135.3 918.2 133 919.3C131.8 919.9 130.6 920.3 129.4 920.8C129.3 920.7 129.3 920.8 129.3 920.9C127.6 921.4 126 922.3 124.3 923C123.4 923.4 122.5 923.7 121.6 924C121 924.2 120.2 924.8 119.5 925.1L112.7 928.2L111.1 928.9C110.4 929 109.8 929.5 109.2 929.8C108.8 930 108.4 930.2 108.1 930.4C107.6 930.6 107.2 930.9 106.8 931.2L106.5 931.5L105.9 931.9C105.5 932.2 105.1 932.4 104.7 932.7C103.9 933.2 103.1 933.7 102.3 934.1C102.2 934.1 102.1 934.2 102.1 934.3C102 934.3 102 934.2 101.9 934.1L101.5 933.1C101.5 933.1 101.5 933.1 101.5 933V932.9C101.3 932 101 931.3 100.8 930.5L100.4 929.4L100.1 928.7V928.3C99.7002 927.1 99.1002 925.9 98.8002 924.6L98.3002 922.8C98.2002 922.2 97.6002 921.5 98.5002 921.2C98.7002 921.1 99.0002 921 99.0002 920.8L99.4002 920.4V920.2C99.8002 919.9 100.2 919.6 100.5 919.4C100.8 919.3 101 919.2 101.3 919.1C101.4 919 101.4 918.8 101.6 918.9C102.2 918.6 102.7 918.2 103.3 917.9C103.6 917.6 104 917.4 104.4 917.6C104.8 917.7 105 917.1 105.4 917.1H105.5C107.2 916.5 108.9 916 110.5 915.4C112.7 915.2 114.7 914.3 116.8 913.6C119.1 912.8 121.3 912 123.5 911.1C124.4 910.7 125.2 910.4 126.1 910C126.2 909.9 126.3 909.8 126.4 909.9C127.1 909.6 128 909.3 128.5 909C129.4 908.4 130.4 908 131.4 907.6C133.4 906.6 135.5 905.7 137.5 904.7C138.1 904.4 138.7 904 139.3 903.6C139.8 903.2 140.1 903.4 140.3 903.6C140.8 904.2 141.3 904.4 142.3 903.7C142.9 903.3 143.9 902.8 144.1 903.9C144.1 904.2 144.4 904 144.6 903.9C145.9 903.2 145.8 904 146.1 904.5ZM101.5 932.2V932.7L101.6 932.4C101.5 932.3 101.5 932.2 101.5 932.2ZM98.8002 924.3H98.7001H98.8002ZM99.6002 919.8L99.3002 920L99.6002 919.8ZM103.6 917.7L103.3 917.8L103.6 917.7Z" fill="#FFE082"/>
<path d="M268.6 243.4C268.5 243.9 268.4 244.2 267.9 244.1C266.7 243.9 265.6 243.3 264.4 243.1C264.4 243.1 264.4 243.1 264.3 243.1C263.5 242.9 262.7 243 262 242.8C260.7 242.4 259.3 242.4 257.9 241.9C256.4 241.4 254.8 241.3 253.3 240.9C251.5 240.4 249.6 240.2 247.8 240C246.2 239.8 244.6 239.7 243.1 239.4C242 239.2 240.9 238.9 239.9 238.6C239.5 238.5 239.1 238.5 238.7 238.4C238.2 238.3 237.8 238.3 237.3 237.8C236.9 237.4 236.3 237.5 235.7 237.4C235 237.2 234.2 237 233.5 236.9C232.7 236.8 232 236.5 231.2 236.7C230.8 236.6 230.3 236.4 229.9 236.4C228.9 236.4 228 235.9 227 235.7C224.3 235 221.6 234.5 218.9 234.1C217.8 234 216.8 234 215.7 233.9C214.9 233.8 214.6 232.9 214.2 232.1C213.8 231.2 214.2 230.7 214.9 230.6C216.3 230.6 217.7 230.6 219.1 230.8C220.4 231 221.6 231.4 222.9 231.6C223.6 231.7 224.2 231.9 224.8 232C224.8 232.1 224.8 232.1 224.9 232C225.8 232.4 226.7 232.4 227.6 232.6C228.1 232.7 228.5 232.9 229 233.1C229.3 233.3 229.8 233.1 230.2 233.2C231.5 233.4 232.7 233.6 234 233.9C234.3 234 234.6 234 234.9 234.1C235.2 234.4 235.6 234.2 236 234.3C236.2 234.3 236.4 234.4 236.6 234.5C236.9 234.5 237.1 234.6 237.4 234.6C238 234.5 238.5 234.7 239.1 235C239.2 235 239.2 235 239.3 234.9C239.4 234.9 239.5 234.9 239.7 234.9C239.7 234.9 239.7 234.9 239.7 235C240.2 235.2 240.7 235.1 241.2 235.2C241.3 235.3 241.3 235.3 241.4 235.4C242.1 235.5 242.7 235.4 243.4 235.7C243.8 235.8 244.2 235.9 244.6 236C244.7 236.1 244.7 236.2 244.8 236C244.9 236 244.9 236 245 235.9C245 235.9 245 235.8 245.1 235.8C245.4 235.8 245.6 235.9 245.8 236.1C245.9 236 245.9 236 246 236.1C246.3 236.1 246.6 236.1 246.9 236.2C247.1 236.1 247.3 236.1 247.4 236.4C247.5 236.6 247.8 236.2 248 236.4C248 236.4 248 236.4 248.1 236.4C249 236.5 249.8 236.7 250.7 236.8C251.7 237.5 252.9 237.4 254 237.6C255.2 237.8 256.4 237.9 257.6 238.1C258.1 238.2 258.6 238.2 259.1 238.3C259.2 238.2 259.2 238.2 259.3 238.3C259.7 238.4 260.1 238.5 260.5 238.4C261.1 238.3 261.6 238.5 262.2 238.5C263.4 238.6 264.5 238.8 265.7 239C266.1 239 266.4 239 266.8 238.9C267.1 238.8 267.2 239.1 267.2 239.5C267.2 240.2 267.3 240.7 267.9 240.6C268.2 240.6 268.9 240.7 268.5 241.7C268.4 241.9 268.6 241.9 268.7 242C268.9 242.3 268.6 242.9 268.6 243.4ZM239.7 235.2C239.7 235.1 239.6 235.1 239.6 235C239.7 235.1 239.7 235.1 239.7 235.2ZM243.3 235.7C243.3 235.6 243.3 235.7 243.3 235.7V235.7ZM245 235.9H244.9C244.9 235.9 244.9 235.9 245 235.9C245 235.9 245 236 245 235.9ZM246.9 236.3L246.8 236.2C246.8 236.2 246.9 236.3 246.9 236.3ZM258.9 238.4C258.9 238.3 258.9 238.3 258.9 238.4C258.9 238.3 258.9 238.3 258.9 238.4C258.9 238.4 258.9 238.3 258.9 238.4Z" fill="#FFE082"/>
<path d="M278.1 239.9C278.2 239.4 278.3 239.1 278.5 239.1C279.1 239.2 279.5 239.6 280.1 239.7C280.4 239.9 280.8 239.7 281.2 239.8C281.8 240 282.5 239.9 283.1 240.2C283.8 240.6 284.5 240.5 285.2 240.7C286 241 286.9 241 287.8 241C288.5 241 289.3 241 290 241C290.5 241.1 291 241.3 291.5 241.4C291.7 241.4 291.9 241.4 292.1 241.5C292.3 241.5 292.5 241.5 292.7 241.9C292.8 242.3 293.2 242 293.4 242.1C293.7 242.2 294.1 242.4 294.4 242.3C294.8 242.3 295.1 242.6 295.5 242.3C295.7 242.3 295.9 242.5 296.1 242.4C296.6 242.3 297 242.6 297.4 242.8C298.6 243.2 299.9 243.4 301.2 243.4C301.7 243.4 302.2 243.3 302.7 243.2C303.1 243.2 303.2 244.1 303.3 244.8C303.4 245.6 303.3 246.2 302.9 246.3C302.2 246.5 301.5 246.7 300.9 246.6C300.3 246.5 299.7 246.3 299.1 246.2C298.8 246.2 298.5 246.1 298.2 246C298.2 245.9 298.2 245.9 298.2 246C297.8 245.7 297.4 245.8 296.9 245.7C296.7 245.7 296.5 245.5 296.2 245.4C296.1 245.3 295.8 245.5 295.6 245.4L293.8 245.2C293.7 245.2 293.5 245.2 293.4 245.1C293.3 244.9 293.1 245 292.9 245C292.8 245 292.7 244.9 292.6 244.9C292.5 244.9 292.3 244.8 292.2 244.9C291.9 245 291.7 244.9 291.4 244.7C291.4 244.7 291.3 244.7 291.3 244.8L291.1 244.9V244.8C290.9 244.7 290.6 244.8 290.4 244.8L290.3 244.7C290 244.7 289.7 244.8 289.4 244.6L288.9 244.5C288.9 244.4 288.9 244.3 288.8 244.5L288.7 244.6V244.7C288.6 244.7 288.4 244.7 288.4 244.5C288.4 244.6 288.3 244.6 288.3 244.5H287.9C287.8 244.6 287.7 244.6 287.7 244.3C287.7 244.1 287.5 244.6 287.4 244.3L286.2 244.2C285.8 243.6 285.2 243.8 284.7 243.7C284.1 243.6 283.6 243.6 283 243.6C282.8 243.6 282.5 243.6 282.3 243.6C282.3 243.7 282.2 243.7 282.2 243.6C282 243.6 281.8 243.5 281.6 243.6C281.3 243.7 281.1 243.7 280.8 243.7C280.2 243.7 279.7 243.6 279.2 243.6C279 243.6 278.8 243.7 278.7 243.8C278.5 243.9 278.5 243.7 278.6 243.3C278.7 242.6 278.7 242.2 278.3 242.2C278.1 242.2 277.8 242.2 278.1 241.2C278.2 240.9 278.1 241 278 240.9C277.8 241.1 278 240.4 278.1 239.9ZM291.3 245.1V245.3C291.3 245.2 291.3 245.1 291.3 245.1Z" fill="#FFE082"/>
<path d="M227.7 251.7C227.7 251.2 227.8 250.9 228.3 250.9C229.4 251 230.4 251.5 231.5 251.6H231.6C232.3 251.8 233 251.6 233.8 251.8C235 252.1 236.3 252 237.6 252.4C239 252.8 240.4 252.8 241.8 253.1C243.5 253.4 245.2 253.6 246.9 253.7C248.3 253.8 249.8 253.8 251.2 254C252.2 254.1 253.2 254.4 254.2 254.6C254.6 254.7 254.9 254.7 255.3 254.7C255.7 254.8 256.2 254.7 256.6 255.2C256.9 255.6 257.6 255.4 258 255.5C258.7 255.6 259.4 255.8 260 255.9C260.7 255.9 261.4 256.3 262.1 256C262.5 256.1 262.9 256.2 263.3 256.2C264.2 256.1 265.1 256.6 266 256.8C268.5 257.4 271 257.8 273.5 258C274.5 258.1 275.4 258.1 276.4 258.1C277.2 258.2 277.5 259.1 277.8 259.9C278.1 260.8 277.8 261.3 277.2 261.4C275.9 261.5 274.6 261.5 273.3 261.4C272.1 261.2 271 260.9 269.9 260.8C269.3 260.7 268.7 260.6 268.1 260.5C268.1 260.4 268.1 260.4 268 260.5C267.2 260.1 266.4 260.2 265.5 260C265.1 259.9 264.6 259.8 264.2 259.6C263.9 259.5 263.5 259.6 263.1 259.6L259.6 259.1L258.8 259C258.5 258.8 258.1 258.9 257.8 258.9C257.6 258.9 257.4 258.8 257.2 258.8C257 258.8 256.7 258.7 256.5 258.8C256 258.9 255.4 258.7 255 258.5C254.9 258.5 254.9 258.5 254.8 258.6H254.5V258.5C254.1 258.3 253.6 258.4 253.1 258.4L252.9 258.3C252.3 258.2 251.7 258.4 251.1 258.1L250 257.9C249.9 257.8 249.9 257.7 249.8 257.9L249.6 258L249.5 258.1C249.3 258.1 249 258.1 248.8 257.8C248.7 257.9 248.7 257.9 248.6 257.8H247.7C247.5 257.9 247.3 257.9 247.2 257.6C247.1 257.4 246.8 257.9 246.7 257.6C246.7 257.6 246.7 257.6 246.6 257.6L244.2 257.3C243.3 256.7 242.2 256.8 241.2 256.7C240.1 256.6 239 256.5 237.9 256.4C237.5 256.4 237 256.4 236.6 256.3C236.5 256.4 236.5 256.4 236.4 256.3C236 256.2 235.6 256.2 235.3 256.2C234.8 256.3 234.3 256.2 233.8 256.2C232.7 256.2 231.7 256 230.6 256C230.3 256 229.9 256 229.6 256.1C229.3 256.2 229.2 255.9 229.2 255.6C229.2 254.9 229.1 254.4 228.5 254.5C228.2 254.5 227.6 254.5 227.9 253.4C228 253.1 227.8 253.2 227.7 253.1C227.5 252.9 227.7 252.2 227.7 251.7ZM254.4 258.1L254.5 258.3C254.4 258.2 254.4 258.1 254.4 258.1ZM249.6 257.7H249.7H249.6ZM247.8 257.4L247.9 257.5L247.8 257.4Z" fill="#FFE082"/>
<path d="M296.6 264.8C296.6 265.3 296.5 265.6 296.4 265.6C296.2 265.6 295.9 265.2 295.7 265.2C295.6 265.1 295.4 265.3 295.2 265.2C294.9 265.1 294.6 265.2 294.4 265C294.1 264.7 293.8 264.9 293.5 264.7C293.1 264.5 292.8 264.6 292.4 264.6C292.1 264.6 291.7 264.8 291.4 264.8C291.2 264.8 291 264.6 290.8 264.5C290.7 264.5 290.6 264.5 290.6 264.5C290.5 264.5 290.4 264.6 290.3 264.1C290.2 263.8 290.1 264 290 264C289.9 263.9 289.7 263.8 289.6 263.8C289.4 263.8 289.3 263.6 289.1 263.9C289 263.9 288.9 263.8 288.8 263.8C288.6 264 288.4 263.6 288.2 263.5C287.7 263.2 287.1 263.1 286.5 263.2C286.3 263.2 286.1 263.4 285.8 263.5C285.6 263.5 285.6 262.7 285.6 261.9C285.6 261.1 285.7 260.5 285.8 260.4C286.1 260.2 286.4 259.9 286.7 260C287 260 287.2 260.2 287.5 260.2C287.6 260.2 287.8 260.3 287.9 260.3C287.9 260.4 287.9 260.4 287.9 260.3C288.1 260.6 288.3 260.4 288.4 260.5C288.5 260.5 288.6 260.6 288.7 260.8C288.8 260.9 288.9 260.7 289 260.7C289.3 260.7 289.5 260.8 289.8 260.8C289.9 260.8 289.9 260.8 290 260.8C290.1 261 290.1 260.8 290.2 260.8C290.2 260.8 290.3 260.8 290.3 260.9C290.4 260.9 290.4 260.9 290.5 260.9C290.6 260.7 290.7 260.8 290.8 261V260.9C290.8 260.9 290.9 260.9 290.9 260.8C290.9 260.8 290.9 260.8 290.9 260.9C291 261 291.1 260.9 291.2 260.8V260.9C291.3 260.9 291.5 260.7 291.6 260.9C291.7 260.9 291.8 261 291.8 261C291.8 261.1 291.8 261.2 291.8 261V260.9V260.8C291.9 260.8 291.9 260.8 291.9 261C291.9 260.9 291.9 260.9 291.9 261C292 261 292 260.9 292.1 260.9C292.2 260.8 292.2 260.7 292.2 261C292.2 261.2 292.3 260.7 292.3 260.9C292.5 260.9 292.7 260.9 292.8 260.9C293 261.4 293.2 261.2 293.5 261.2C293.7 261.2 294 261.2 294.2 261.1C294.3 261.1 294.4 261.1 294.5 261C294.5 260.9 294.5 260.9 294.5 261C294.6 261 294.7 261.1 294.7 261C294.8 260.8 294.9 260.9 295.1 260.8C295.3 260.7 295.6 260.8 295.8 260.7C295.9 260.7 296 260.6 296 260.5C296.1 260.4 296.1 260.6 296 261C295.9 261.7 295.9 262.1 296.1 262C296.2 261.9 296.3 261.9 296.2 263C296.2 263.3 296.2 263.2 296.2 263.2C296.8 263.6 296.7 264.3 296.6 264.8ZM291 261.1V261C291 261 291 261 291 261.1ZM292.1 261C292 261 292 261 292.1 261C292 261 292 261 292.1 261C292 261 292 261 292.1 261ZM292.4 261.1C292.4 261 292.4 261 292.4 261.1C292.4 261 292.4 261.1 292.4 261.1ZM294.9 261.3C294.9 261.3 294.9 261.2 294.9 261.3C294.9 261.2 294.9 261.2 294.9 261.3Z" fill="#FFE082"/>
<path d="M302.1 263.7C302.1 263.2 302.2 262.9 302.4 262.9C302.8 262.9 303.2 263.3 303.6 263.4C303.9 263.5 304.2 263.3 304.4 263.4C304.9 263.6 305.4 263.4 305.8 263.7C306.3 264 306.9 263.9 307.4 264.1C308 264.3 308.7 264.3 309.4 264.3C310 264.3 310.5 264.2 311.1 264.2C311.5 264.2 311.9 264.4 312.2 264.5C312.3 264.5 312.5 264.5 312.6 264.5C312.8 264.5 312.9 264.5 313.1 264.9C313.2 265.3 313.5 265 313.7 265.1C314 265.2 314.2 265.3 314.5 265.3C314.8 265.3 315 265.5 315.3 265.2C315.5 265.2 315.6 265.3 315.8 265.3C316.2 265.2 316.5 265.5 316.8 265.6C317.7 266 318.7 266.1 319.7 266.1C320.1 266.1 320.5 266 320.9 265.9C321.2 265.9 321.3 266.8 321.3 267.5C321.4 268.3 321.2 268.9 320.9 269C320.4 269.2 319.9 269.4 319.4 269.3C319 269.2 318.5 269 318.1 269C317.9 269 317.6 268.9 317.4 268.9C317.4 268.8 317.4 268.8 317.4 268.9C317.1 268.6 316.8 268.7 316.5 268.7C316.3 268.7 316.2 268.6 316 268.4C315.9 268.3 315.7 268.5 315.6 268.5C315.2 268.4 314.7 268.4 314.3 268.3C314.2 268.3 314.1 268.3 314 268.2C313.9 268 313.7 268.2 313.6 268.2C313.5 268.2 313.5 268.1 313.4 268.1C313.3 268.1 313.2 268.1 313.1 268.1C312.9 268.2 312.7 268.1 312.5 267.9L312.4 268C312.4 268 312.3 268 312.3 268.1C312.3 268.1 312.3 268.1 312.3 268C312.1 267.9 311.9 268 311.8 268C311.8 268 311.8 267.9 311.7 267.9C311.5 267.9 311.2 268.1 311 267.9C310.9 267.9 310.7 267.8 310.6 267.8C310.6 267.7 310.6 267.6 310.5 267.8C310.5 267.8 310.5 267.8 310.4 267.9V268C310.3 268 310.2 268 310.1 267.8C310.1 267.9 310 267.9 310 267.8C309.9 267.8 309.8 267.8 309.7 267.9C309.6 268 309.5 268.1 309.5 267.7C309.5 267.5 309.3 268 309.3 267.7C309 267.7 308.7 267.7 308.4 267.6C308.1 267.1 307.6 267.3 307.3 267.2C306.9 267.2 306.4 267.2 306 267.2C305.8 267.2 305.7 267.2 305.5 267.2C305.5 267.3 305.4 267.3 305.4 267.2C305.3 267.2 305.1 267.1 305 267.2C304.8 267.3 304.6 267.3 304.4 267.3C304 267.3 303.6 267.3 303.2 267.3C303.1 267.3 302.9 267.4 302.8 267.5C302.7 267.6 302.7 267.4 302.7 267C302.8 266.3 302.7 265.9 302.5 266C302.4 266.1 302.2 266 302.4 265C302.5 264.7 302.4 264.8 302.4 264.8C301.9 264.9 302.1 264.2 302.1 263.7ZM312.1 268.1C312.1 268.2 312.1 268.2 312.1 268.3C312.2 268.2 312.2 268.1 312.1 268.1C312.2 268.1 312.2 268.1 312.1 268.1ZM310.9 268C310.9 268.1 310.9 268.1 310.9 268C310.9 268.1 310.9 268.1 310.9 268C310.9 268.1 310.9 268.1 310.9 268ZM310.3 268.1C310.3 268.1 310.3 268 310.3 268.1C310.3 268 310.3 268 310.3 268.1ZM309.6 267.9C309.6 268 309.6 268 309.6 267.9C309.6 268 309.6 267.9 309.6 267.9ZM305.3 267.4C305.3 267.5 305.3 267.5 305.3 267.4C305.3 267.5 305.3 267.5 305.3 267.4C305.3 267.4 305.3 267.5 305.3 267.4Z" fill="#FFE082"/>
<path d="M250.8 276.2C250.7 276.7 250.7 277 250.5 277C250 276.9 249.5 276.5 249 276.4C248.7 276.2 248.3 276.4 248 276.3C247.4 276.1 246.8 276.2 246.2 275.9C245.6 275.6 244.9 275.6 244.2 275.4C243.4 275.1 242.6 275.1 241.8 275.1C241.1 275.1 240.4 275.1 239.7 275.1C239.2 275 238.8 274.8 238.3 274.7C238.1 274.7 237.9 274.7 237.8 274.6C237.6 274.5 237.4 274.6 237.2 274.2C237.1 273.8 236.7 274 236.5 274C236.2 273.9 235.9 273.7 235.5 273.7C235.2 273.7 234.8 273.4 234.5 273.7C234.3 273.7 234.1 273.5 233.9 273.6C233.4 273.7 233.1 273.4 232.6 273.2C231.4 272.8 230.2 272.6 229 272.5C228.5 272.5 228 272.6 227.6 272.6C227.2 272.6 227.2 271.7 227.1 270.9C227 270.1 227.2 269.5 227.5 269.4C228.1 269.2 228.8 269.1 229.4 269.2C230 269.3 230.5 269.5 231 269.6C231.3 269.6 231.6 269.7 231.8 269.8C231.8 269.9 231.8 269.9 231.8 269.8C232.2 270.1 232.6 270 233 270.1C233.2 270.1 233.4 270.3 233.6 270.4C233.7 270.5 234 270.3 234.1 270.4C234.7 270.5 235.2 270.6 235.8 270.7C235.9 270.7 236.1 270.8 236.2 270.8C236.3 271 236.5 270.9 236.7 270.9C236.8 270.9 236.9 271 237 271C237.1 271 237.2 271.1 237.4 271C237.7 270.9 237.9 271 238.1 271.2C238.1 271.2 238.2 271.2 238.2 271.1C238.3 271.1 238.3 271.1 238.4 271C238.4 271 238.4 271 238.4 271.1C238.6 271.2 238.8 271.1 239.1 271.1C239.1 271.1 239.1 271.2 239.2 271.2C239.5 271.2 239.8 271.1 240.1 271.3C240.3 271.3 240.4 271.4 240.6 271.4C240.6 271.5 240.6 271.6 240.7 271.4C240.7 271.4 240.8 271.4 240.8 271.3V271.2C240.9 271.2 241 271.2 241.1 271.4C241.1 271.3 241.2 271.3 241.2 271.4C241.3 271.4 241.5 271.4 241.6 271.4C241.7 271.3 241.8 271.3 241.8 271.6C241.8 271.8 242 271.3 242.1 271.6C242.5 271.6 242.9 271.7 243.2 271.7C243.6 272.3 244.1 272.1 244.6 272.1C245.1 272.2 245.7 272.2 246.2 272.2C246.4 272.2 246.6 272.2 246.8 272.2C246.8 272.1 246.9 272.1 246.9 272.2C247.1 272.2 247.3 272.3 247.4 272.2C247.7 272.1 247.9 272.1 248.1 272.1C248.6 272.1 249.1 272.2 249.6 272.2C249.8 272.2 249.9 272.1 250.1 272C250.3 271.9 250.3 272.1 250.2 272.5C250.1 273.2 250.1 273.6 250.4 273.6C250.6 273.5 250.8 273.6 250.6 274.6C250.5 274.9 250.6 274.8 250.7 274.8C251.1 275 250.9 275.7 250.8 276.2ZM238.4 271.1C238.4 271 238.4 271 238.4 270.9C238.3 271 238.3 271.1 238.4 271.1C238.4 271.1 238.3 271.1 238.4 271.1ZM239.9 271.3C239.9 271.2 240 271.2 239.9 271.3C240 271.2 239.9 271.2 239.9 271.3C239.9 271.2 239.9 271.2 239.9 271.3ZM241.6 271.4C241.5 271.4 241.5 271.4 241.6 271.4C241.5 271.4 241.5 271.4 241.6 271.4C241.5 271.5 241.5 271.5 241.6 271.4Z" fill="#FFE082"/>
<path d="M257.3 272.5C257.3 272 257.4 271.7 257.7 271.7C258.4 271.8 259.1 272.2 259.8 272.4C260.3 272.6 260.8 272.4 261.2 272.5C262 272.7 262.8 272.6 263.6 273C264.5 273.4 265.4 273.3 266.3 273.6C267.4 273.9 268.5 274 269.6 274C270.5 274 271.5 274 272.4 274.1C273.1 274.2 273.7 274.4 274.3 274.5C274.5 274.6 274.8 274.5 275 274.6C275.3 274.7 275.6 274.6 275.8 275C276 275.4 276.4 275.2 276.7 275.2C277.1 275.3 277.6 275.5 278 275.5C278.5 275.5 278.9 275.8 279.4 275.5C279.7 275.6 279.9 275.7 280.2 275.6C280.8 275.5 281.4 275.9 281.9 276C283.5 276.5 285.1 276.7 286.8 276.8C287.4 276.8 288.1 276.7 288.7 276.7C289.2 276.7 289.4 277.6 289.5 278.4C289.7 279.2 289.5 279.8 289 279.9C288.1 280 287.3 280.2 286.4 280.1C285.6 280 284.9 279.7 284.2 279.6C283.8 279.6 283.4 279.5 283 279.4C283 279.3 283 279.3 283 279.4C282.5 279.1 281.9 279.2 281.4 279.1C281.1 279 280.8 278.9 280.6 278.7C280.4 278.6 280.1 278.8 279.9 278.7C279.1 278.6 278.4 278.5 277.6 278.4C277.4 278.4 277.3 278.3 277.1 278.3C276.9 278.1 276.7 278.2 276.5 278.2C276.4 278.2 276.2 278.1 276.1 278.1C275.9 278.1 275.8 278 275.6 278.1C275.2 278.2 274.9 278.1 274.6 277.9C274.6 277.9 274.5 277.9 274.5 278C274.4 278 274.4 278 274.3 278.1C274.3 278.1 274.3 278.1 274.3 278C274 277.8 273.7 278 273.4 278L273.3 277.9C272.9 277.9 272.5 278 272.1 277.8C271.9 277.7 271.6 277.7 271.4 277.6C271.4 277.5 271.3 277.4 271.3 277.6C271.3 277.6 271.2 277.6 271.2 277.7V277.8C271 277.8 270.9 277.8 270.8 277.6C270.8 277.7 270.7 277.7 270.7 277.6C270.5 277.6 270.3 277.6 270.1 277.6C270 277.7 269.9 277.7 269.8 277.4C269.7 277.2 269.6 277.7 269.5 277.4C269 277.3 268.5 277.3 267.9 277.2C267.3 276.6 266.6 276.8 265.9 276.7C265.2 276.6 264.4 276.6 263.7 276.5C263.4 276.5 263.1 276.5 262.8 276.5C262.8 276.6 262.7 276.6 262.7 276.5C262.5 276.5 262.2 276.4 262 276.5C261.6 276.6 261.3 276.6 261 276.6C260.3 276.6 259.6 276.5 258.9 276.5C258.7 276.5 258.4 276.6 258.2 276.7C258 276.8 258 276.6 258 276.2C258 275.5 258 275 257.6 275.1C257.4 275.1 257 275.1 257.3 274.1C257.4 273.8 257.3 273.9 257.2 273.8C257 273.7 257.2 273 257.3 272.5ZM274.5 278C274.5 278.1 274.5 278.1 274.5 278.2C274.5 278.1 274.5 278.1 274.5 278ZM272.4 277.8C272.4 277.9 272.3 277.9 272.4 277.8C272.4 277.9 272.4 277.9 272.4 277.8C272.4 277.8 272.4 277.9 272.4 277.8ZM271.3 277.8C271.4 277.8 271.4 277.8 271.3 277.8C271.4 277.8 271.4 277.8 271.3 277.8C271.3 277.8 271.4 277.7 271.3 277.8ZM270.2 277.6C270.2 277.6 270.2 277.7 270.2 277.6V277.6Z" fill="#FFE082"/>
<path d="M318.1 285.4C318 285.9 318 286.2 317.8 286.2C317.3 286.2 316.9 285.7 316.4 285.6C316.1 285.5 315.8 285.6 315.4 285.5C314.9 285.3 314.3 285.4 313.8 285.1C313.2 284.8 312.6 284.9 312 284.7C311.3 284.5 310.5 284.4 309.8 284.4C309.2 284.4 308.5 284.5 307.9 284.4C307.5 284.4 307 284.2 306.6 284C306.4 284 306.3 284 306.1 283.9C305.9 283.9 305.7 283.9 305.6 283.5C305.5 283.1 305.2 283.4 305 283.3C304.7 283.2 304.4 283.1 304.1 283.1C303.8 283.1 303.5 282.9 303.1 283.1C302.9 283.1 302.8 282.9 302.6 283C302.2 283.1 301.8 282.8 301.4 282.6C300.3 282.2 299.2 282 298.1 282C297.7 282 297.2 282.1 296.8 282.2C296.5 282.2 296.4 281.3 296.3 280.6C296.2 279.8 296.4 279.2 296.7 279.1C297.3 278.9 297.9 278.7 298.4 278.8C298.9 278.9 299.4 279.1 299.9 279.1C300.2 279.1 300.4 279.2 300.7 279.3C300.7 279.4 300.7 279.4 300.7 279.3C301 279.6 301.4 279.5 301.8 279.6C302 279.6 302.2 279.8 302.4 279.9C302.5 280 302.7 279.8 302.9 279.8C303.4 279.9 303.9 279.9 304.4 280C304.5 280 304.6 280 304.8 280.1C304.9 280.3 305.1 280.1 305.2 280.2C305.3 280.2 305.4 280.3 305.5 280.3C305.6 280.3 305.7 280.3 305.8 280.3C306.1 280.2 306.3 280.3 306.5 280.5C306.5 280.5 306.6 280.5 306.6 280.4C306.7 280.4 306.7 280.4 306.8 280.3C306.8 280.3 306.8 280.3 306.8 280.4C307 280.5 307.2 280.4 307.4 280.4C307.4 280.4 307.4 280.5 307.5 280.5C307.8 280.5 308.1 280.3 308.3 280.5C308.5 280.5 308.6 280.6 308.8 280.6C308.8 280.7 308.8 280.8 308.9 280.6C308.9 280.6 309 280.6 309 280.5V280.4C309.1 280.4 309.2 280.4 309.3 280.6C309.3 280.5 309.4 280.5 309.4 280.6C309.5 280.6 309.7 280.6 309.8 280.6C309.9 280.5 310 280.5 310 280.8C310 281 310.2 280.5 310.2 280.8C310.6 280.8 310.9 280.9 311.3 280.9C311.7 281.4 312.2 281.3 312.6 281.3C313.1 281.4 313.6 281.4 314.1 281.4C314.3 281.4 314.5 281.4 314.7 281.4C314.7 281.3 314.8 281.3 314.8 281.4C315 281.4 315.1 281.5 315.3 281.4C315.5 281.3 315.8 281.3 316 281.3C316.5 281.3 316.9 281.3 317.4 281.3C317.5 281.3 317.7 281.2 317.9 281.1C318 281 318.1 281.2 318 281.6C317.9 282.3 318 282.7 318.2 282.6C318.3 282.5 318.6 282.6 318.4 283.6C318.3 283.9 318.4 283.8 318.5 283.8C318.3 284.2 318.1 284.9 318.1 285.4ZM306.6 280.7C306.6 280.6 306.6 280.6 306.6 280.5C306.5 280.6 306.5 280.7 306.6 280.7C306.5 280.7 306.5 280.7 306.6 280.7ZM308 280.8C308 280.8 308 280.7 308 280.8C308 280.7 308 280.7 308 280.8ZM309.5 280.9C309.4 280.9 309.5 280.9 309.5 280.9C309.5 281 309.5 280.9 309.5 280.9ZM314.4 281.5C314.3 281.5 314.3 281.5 314.4 281.5C314.3 281.5 314.4 281.5 314.4 281.5Z" fill="#FFE082"/>
<path d="M264.5 294.2C264.5 294.7 264.4 295 264 295C263.1 294.9 262.3 294.5 261.5 294.3C261.5 294.3 261.5 294.3 261.4 294.3C260.8 294.1 260.3 294.3 259.7 294.2C258.7 294 257.7 294.1 256.7 293.7C255.6 293.3 254.5 293.4 253.4 293.1C252.1 292.8 250.7 292.7 249.4 292.7C248.3 292.6 247.1 292.7 246 292.6C245.2 292.5 244.4 292.3 243.7 292.1C243.4 292 243.1 292.1 242.8 292C242.5 291.9 242.1 292 241.8 291.6C241.5 291.2 241 291.4 240.7 291.4C240.2 291.3 239.6 291.1 239.1 291.1C238.5 291.1 238 290.8 237.4 291.1C237.1 291 236.8 290.9 236.4 291C235.7 291.1 235 290.7 234.3 290.5C232.4 290 230.4 289.8 228.4 289.6C227.6 289.6 226.9 289.7 226.1 289.7C225.5 289.7 225.3 288.8 225 288C224.7 287.2 225 286.6 225.5 286.5C226.5 286.4 227.6 286.2 228.6 286.3C229.5 286.4 230.4 286.7 231.3 286.8C231.8 286.8 232.2 286.9 232.7 287C232.7 287.1 232.7 287.1 232.8 287C233.4 287.3 234.1 287.2 234.8 287.3C235.2 287.4 235.5 287.5 235.8 287.7C236 287.8 236.4 287.7 236.7 287.7C237.6 287.8 238.5 287.9 239.4 288C239.6 288 239.8 288.1 240 288.1C240.2 288.3 240.5 288.2 240.8 288.2C241 288.2 241.1 288.3 241.3 288.3C241.5 288.3 241.7 288.4 241.9 288.3C242.3 288.2 242.7 288.3 243.1 288.5C243.1 288.5 243.2 288.5 243.3 288.4C243.4 288.4 243.5 288.4 243.6 288.4C243.6 288.4 243.6 288.4 243.6 288.5C243.9 288.7 244.3 288.5 244.7 288.5L244.8 288.6C245.3 288.6 245.8 288.5 246.2 288.7C246.5 288.8 246.8 288.8 247 288.9C247 289 247.1 289.1 247.1 288.9C247.1 288.9 247.2 288.9 247.2 288.8V288.7C247.4 288.7 247.6 288.7 247.7 289C247.7 288.9 247.8 288.9 247.8 289C248 289 248.3 289 248.5 289C248.7 288.9 248.8 288.9 248.9 289.2C249 289.4 249.2 288.9 249.3 289.2C249.9 289.3 250.6 289.3 251.2 289.4C251.9 290 252.8 289.8 253.6 289.9C254.5 290 255.4 290 256.2 290.1C256.6 290.1 256.9 290.1 257.3 290.1C257.4 290 257.4 290 257.4 290.1C257.7 290.2 258 290.2 258.2 290.1C258.6 290 259 290.1 259.4 290.1C260.2 290.1 261.1 290.2 261.9 290.2C262.2 290.2 262.4 290.1 262.7 290C262.9 289.9 263 290.1 263 290.5C263 291.2 263.1 291.7 263.5 291.6C263.8 291.6 264.2 291.6 263.9 292.6C263.8 292.9 264 292.8 264 292.9C264.8 293 264.5 293.7 264.5 294.2ZM243.6 288.6C243.6 288.5 243.6 288.5 243.5 288.4C243.5 288.5 243.5 288.6 243.6 288.6C243.5 288.6 243.5 288.6 243.6 288.6ZM246.1 288.8C246.1 288.8 246.1 288.7 246.1 288.8C246.1 288.7 246.1 288.7 246.1 288.8ZM247.4 288.9C247.3 288.8 247.3 288.8 247.4 288.9C247.3 288.9 247.3 288.9 247.4 288.9ZM248.8 289.1L248.7 289C248.7 289 248.7 289.1 248.8 289.1ZM257.5 290C257.4 290 257.4 290 257.5 290V290Z" fill="#FFE082"/>
<path d="M271.7 291.8C271.8 291.3 271.8 291 272 291C272.3 291 272.6 291.4 273 291.5C273.2 291.6 273.5 291.4 273.7 291.5C274.1 291.7 274.5 291.5 274.8 291.8C275.2 292.1 275.7 292 276.1 292.2C276.6 292.4 277.1 292.4 277.7 292.4C278.2 292.4 278.6 292.3 279.1 292.3C279.4 292.3 279.7 292.5 280 292.6C280.1 292.6 280.2 292.6 280.3 292.6C280.4 292.6 280.6 292.6 280.7 293C280.8 293.4 281 293.1 281.1 293.2C281.3 293.3 281.5 293.4 281.7 293.4C281.9 293.4 282.1 293.6 282.4 293.3C282.5 293.3 282.6 293.4 282.8 293.4C283.1 293.3 283.3 293.6 283.6 293.7C284.3 294.1 285.1 294.2 285.9 294.2C286.2 294.2 286.5 294.1 286.8 294C287 294 287 294.9 287.1 295.6C287.1 296.4 287 297 286.7 297.1C286.3 297.3 285.8 297.5 285.5 297.4C285.1 297.3 284.8 297.1 284.5 297.1C284.3 297.1 284.1 297 284 297C284 296.9 284 296.9 284 297C283.8 296.7 283.5 296.8 283.2 296.8C283.1 296.8 282.9 296.7 282.8 296.5C282.7 296.4 282.6 296.6 282.4 296.6C282 296.6 281.7 296.5 281.3 296.4C281.2 296.4 281.1 296.4 281.1 296.3C281 296.1 280.9 296.3 280.8 296.3C280.7 296.3 280.7 296.2 280.6 296.2C280.5 296.2 280.4 296.2 280.4 296.2C280.2 296.3 280.1 296.2 279.9 296C279.9 296 279.9 296.1 279.8 296.1C279.8 296.1 279.7 296.1 279.7 296.2C279.7 296.2 279.7 296.2 279.7 296.1C279.6 296 279.4 296.1 279.3 296.1V296C279.1 296 278.9 296.2 278.7 296C278.6 296 278.5 295.9 278.4 295.9C278.4 295.8 278.4 295.7 278.3 295.9C278.3 295.9 278.3 295.9 278.2 296V296.1C278.1 296.1 278 296.1 278 295.9C278 296 277.9 296 277.9 295.9C277.8 295.9 277.7 295.9 277.6 296C277.5 296.1 277.5 296.2 277.5 295.9C277.5 295.7 277.4 296.2 277.3 295.9C277.1 295.9 276.8 295.9 276.6 295.8C276.4 295.3 276 295.5 275.7 295.4C275.4 295.4 275 295.4 274.7 295.4C274.6 295.4 274.4 295.4 274.3 295.4C274.3 295.5 274.2 295.5 274.2 295.4C274.1 295.4 274 295.3 273.9 295.4C273.7 295.5 273.6 295.5 273.4 295.5C273.1 295.5 272.7 295.5 272.4 295.5C272.3 295.5 272.2 295.6 272.1 295.7C272 295.8 272 295.6 272 295.2C272.1 294.5 272.1 294.1 271.9 294.2C271.8 294.3 271.6 294.2 271.8 293.2C271.9 292.9 271.8 293 271.8 293C271.5 293 271.6 292.3 271.7 291.8ZM279.5 296.1C279.5 296.2 279.5 296.2 279.5 296.3C279.6 296.2 279.6 296.2 279.5 296.1C279.6 296.1 279.6 296.1 279.5 296.1ZM278.5 296.1C278.5 296.2 278.5 296.1 278.5 296.1V296.1ZM278 296.1C278.1 296.1 278.1 296.1 278 296.1C278.1 296.1 278.1 296.1 278 296.1C278 296.1 278.1 296.1 278 296.1ZM277.5 296C277.5 295.9 277.5 296 277.5 296V296Z" fill="#FFE082"/>
<path d="M207.7 299.9C207.8 299.4 207.8 299.1 208.1 299.1C208.7 299.2 209.2 299.6 209.8 299.7C210.2 299.9 210.6 299.7 211 299.8C211.7 300 212.4 299.9 213 300.2C213.7 300.5 214.5 300.5 215.3 300.7C216.2 301 217.1 301 218 301C218.8 301 219.6 301 220.4 301.1C220.9 301.2 221.5 301.4 222 301.5C222.2 301.5 222.4 301.5 222.6 301.6C222.8 301.7 223.1 301.6 223.3 302C223.5 302.4 223.8 302.2 224.1 302.2C224.5 302.3 224.8 302.5 225.2 302.5C225.6 302.5 225.9 302.8 226.4 302.5C226.6 302.5 226.8 302.7 227.1 302.6C227.6 302.5 228 302.9 228.5 303C229.8 303.4 231.2 303.6 232.5 303.7C233 303.7 233.6 303.6 234.1 303.6C234.5 303.6 234.6 304.5 234.7 305.3C234.8 306.1 234.6 306.7 234.3 306.8C233.6 307 232.9 307.1 232.2 307C231.6 306.9 231 306.6 230.4 306.6C230.1 306.6 229.8 306.5 229.4 306.4C229.4 306.3 229.4 306.3 229.4 306.4C229 306.1 228.5 306.2 228.1 306.1C227.9 306.1 227.6 305.9 227.4 305.8C227.3 305.7 227 305.9 226.8 305.8C226.2 305.7 225.6 305.6 224.9 305.5C224.8 305.5 224.6 305.4 224.5 305.4C224.3 305.2 224.1 305.3 224 305.3C223.9 305.3 223.8 305.2 223.7 305.2C223.6 305.2 223.4 305.1 223.3 305.2C223 305.3 222.7 305.2 222.5 305C222.5 305 222.4 305 222.4 305.1C222.3 305.1 222.3 305.1 222.2 305.2C222.2 305.2 222.2 305.2 222.2 305.1C222 305 221.7 305.1 221.5 305.1L221.4 305C221.1 305 220.7 305.1 220.4 304.9C220.2 304.8 220 304.8 219.8 304.7C219.8 304.6 219.8 304.5 219.7 304.7C219.7 304.7 219.6 304.7 219.6 304.8V304.9C219.5 304.9 219.3 304.9 219.2 304.7C219.2 304.8 219.1 304.8 219.1 304.7C218.9 304.7 218.8 304.7 218.6 304.7C218.5 304.8 218.4 304.8 218.3 304.5C218.3 304.3 218.1 304.8 218 304.5C217.6 304.5 217.1 304.4 216.7 304.4C216.2 303.8 215.6 304 215.1 303.9C214.5 303.8 213.9 303.8 213.3 303.8C213.1 303.8 212.8 303.8 212.6 303.8C212.6 303.9 212.5 303.9 212.5 303.8C212.3 303.8 212.1 303.7 211.9 303.8C211.6 303.9 211.3 303.9 211.1 303.9C210.5 303.9 210 303.8 209.4 303.8C209.2 303.8 209 303.9 208.8 304C208.6 304.1 208.6 303.9 208.6 303.5C208.7 302.8 208.6 302.4 208.3 302.4C208.1 302.4 207.8 302.4 208.1 301.4C208.2 301.1 208.1 301.2 208 301.1C207.4 301.2 207.6 300.4 207.7 299.9ZM221.7 305.1C221.7 305.2 221.7 305.2 221.7 305.3C221.8 305.2 221.8 305.1 221.7 305.1C221.8 305.1 221.8 305 221.7 305.1ZM220 304.9C220 304.9 220 305 220 304.9C220 305 220 305 220 304.9ZM219.1 304.9C219.2 304.9 219.2 304.9 219.1 304.9C219.2 304.9 219.2 304.9 219.1 304.9C219.1 304.9 219.2 304.9 219.1 304.9ZM218.2 304.7C218.2 304.8 218.2 304.8 218.2 304.7C218.2 304.8 218.2 304.7 218.2 304.7ZM212.3 303.9C212.3 304 212.3 304 212.3 303.9C212.3 304 212.3 304 212.3 303.9C212.3 304 212.3 304 212.3 303.9Z" fill="#FFE082"/>
<path d="M242 504.2L241.9 504.3L242 504.2Z" fill="#FFE082"/>
<path d="M466.1 404.9C466.6 404.6 466.9 405.8 466.4 411.7C465.2 427.5 463.2 442.9 461 458.4L460.9 459.3C459.4 469.5 458.1 479.7 456.3 489.7C454.7 498.6 453 507.4 451.2 516.2C449.4 525 447.4 533.8 445.2 542.6C444.3 546.2 443.4 549.7 442.5 553.3C433.5 552.1 424.4 550.9 415.4 549.7C406.9 548.6 398.4 547.5 389.9 546.2C365.8 542.7 341.8 539.2 317.9 534.8C307.8 533 297.6 531 287.6 528.9C277.6 527 267.4 525.5 257.2 523.5C253.8 522.8 250.3 522.1 246.9 521.3C245.2 520.9 243.5 520.5 241.8 520.1L239.2 519.5L234.7 518.4L236.5 511.1C236.9 509.3 237.4 507.5 237.8 505.8C238.6 502.2 239.5 498.7 240.2 495.1C241.3 490 242.2 484.9 243.2 479.8C243.7 476.7 244.3 473.7 244.8 470.7C245.3 467.7 245.9 464.6 246.6 461.4C247.1 458.7 247.7 455.3 248.1 451.7C248.5 448.1 249 444.2 249.4 440.7C250.6 431 251.7 421.2 252.4 411.4C253.2 401.4 254.1 391.2 254.3 381.3V381.4C254.6 376.9 254.8 372.3 255.1 367.8C256.6 368.1 258.1 368.3 259.5 368.6C260.4 368.8 261.3 368.9 262.2 369.1C275 371.2 287.5 373.7 300.1 376C335.4 382.4 370.8 388.4 406.2 394.4C419.8 396.6 433.3 398.9 446.9 401.1H446.8C457.4 402.9 463.3 404.8 469 406.6C475.3 408.5 472.4 408.6 463 407.1C445.1 404.2 427.2 401.3 409.2 398.2C392.9 395.4 376.6 392.4 360.2 389.6C351.8 388.1 343.4 386.7 335 385.2C334.7 385.1 334.4 385 334.1 385C322.5 382.7 310.7 380.9 299 378.8C292.7 377.7 286.5 376.5 280.2 375.3C275.9 374.4 269.9 373.6 264.6 372.7L258 371.5L257.6 379.9L257 390.2C256.6 397 256.1 403.9 255.5 410.7C255.2 414.6 254.8 418.4 254.5 422.2C253.9 426.9 253.6 431.7 253.1 436.4C252.8 439.2 252.4 442.1 252.1 444.9C251.7 448.4 251.2 452 250.8 455.5C250.4 459.3 249.9 463 249.2 466.7C248.6 470.4 247.9 474 247.2 477.7C247.1 478.5 247 479.4 246.8 480.3V480.2L246 484.8C246 484.9 246 485 246 485.1L245.9 485.2C245.3 488.4 244.6 491.6 244 494.7C243.4 497.9 242.8 501 242.1 504.2L241.4 506.9V507V506.9V507V507.1C241.4 507.1 241.4 507.2 241.3 507.3L240.1 512.3L239.5 514.8L239.3 515.6C243.7 516.6 248.2 517.7 252.7 518.7C257.7 519.8 262.7 520.7 267.7 521.6C268.5 521.8 269.4 522 270.2 522C270.9 522.1 271.6 522.2 272.4 522.3H273C276.4 522.9 279.9 523.5 283 524.2H282.9C283.7 524.3 284.4 524.3 285.2 524.6H285.1H285.3C289.3 525.3 293.2 526.2 297.2 526.9C299.8 527.4 302 527.7 304.5 528.5C306.3 529.1 309 529.1 311.6 529.8C311.8 529.9 312.1 529.9 312.3 529.9C323.5 532 334.6 534 345.9 535.8H346C360 538.6 374.6 540.5 388.9 542.5C404.6 544.7 420.3 546.6 436.1 548.6L440.1 549.1L441.3 544.1C441.8 541.9 442.3 539.8 442.8 537.6C442.9 536.8 443.1 536 443.4 535.2V535.3V535.2C444 532.7 444.6 530 445.2 527.4C445.8 524.8 446.3 522.3 446.7 520.3C447.4 516.7 448.1 513.2 448.7 509.7C449.4 506.2 450 502.7 450.7 499.2C453.4 484.4 455.7 469.5 457.6 454.6C458.2 449.9 458.7 445.1 459.1 440.5C459.4 436.4 459.8 435.1 460.2 434.5C461.1 433.3 461.7 431.1 462.4 423C462.7 418.6 463.4 410.6 464.2 413.4C464.4 414.1 464.5 411.9 464.7 410.5C465 402.6 465.5 405.2 466.1 404.9ZM245.3 486.7L245.7 485.4C245.6 485.6 245.5 485.8 245.4 486C245.4 486 245.3 486.4 245.3 486.7ZM252.1 518.8H252.5L251.7 518.7L252.1 518.8ZM273.9 522.8L272.4 522.5C272.9 522.6 273.4 522.7 273.9 522.8ZM299.3 527.7L297.2 527.2L298.9 527.7H299.3ZM442.6 537.5L442.5 537.8C442.6 537.6 442.6 537.5 442.6 537.5Z" fill="#FFE082"/>
<path d="M314.4 514.6C321.7 515.9 329 517.2 336.3 518.3C357.9 521.8 379.6 525.1 401.3 527.8C405.1 528.3 408.8 528.7 412.6 529.1L422.5 530.1C425.1 515.2 427.7 500.2 430.3 485.3C433.3 468.1 436.3 450.8 439.5 433.7C440.1 430.3 440.7 426.8 441.2 423.3C441.4 421.9 441.7 420 442 419.9C442.8 419.6 443.9 418.1 444.4 419.8C444.6 420.5 444.4 422.2 444 424.5C440.6 443.4 437.3 462.2 433.9 481.1C432.4 489.7 430.6 498.4 429.2 507L427.1 519.5L424.7 533.2L412.5 531.9L401.5 530.6C376.5 527.6 351.6 524.1 326.8 519.8C310.2 516.9 293.7 513.8 277.1 510.6L258.2 507L258.9 496.8L259.6 487.8C261 469.1 262.7 450.5 264.8 431.8C265.6 424.4 266.5 417.1 267.5 409.7L269 398.7C269.6 394.5 270.3 390.3 270.9 386.1C273.7 386.8 276.6 387.4 279.4 388.1C295.8 391.9 312.5 395.5 329.1 398.4C331.1 398.7 333.1 399.3 335.1 399.5H335L336.4 399.7H336.3C342.9 401.1 349.6 402.1 356.2 403.3C370 405.8 383.8 407.9 397.8 410.3C404.6 411.5 411.9 412.6 419.3 413.6C425.2 414.4 432.3 415.6 438.1 416.1C445.3 416.7 444.9 417.3 446.1 418C446.6 418.3 446.2 418.4 445.6 418.5C444 418.8 440.9 418.7 441.5 419.5C441.9 419.9 438.1 419.4 436.2 419.1C403.1 415.1 370.2 409.5 337.4 403.3C326.4 401.2 315.4 399 304.4 396.8C298.9 395.7 293.4 394.5 288 393.3L279.8 391.5L273.5 390.1L272.4 397.6L271.2 405.8C270.4 411.3 269.7 416.8 269 422.3C267.6 433.3 266.4 444.3 265.4 455.4C264.2 468.6 263.1 481.7 262 494.8L261.2 504.6C270.4 506.4 279.7 508.2 288.9 510C297.6 511.7 306 513.3 314.4 514.6Z" fill="#FFE082"/>
<path d="M370.8 556.5C374.2 557 377.6 557.6 381 558.1C391.1 559.5 401.1 561.2 411.1 562.7C421.8 564.3 432.4 565.9 443.1 567.4C451.1 568.6 459.2 569.8 467.1 571.1C468.7 571.4 470.3 571.5 471.9 571.7C472.6 571.8 473.4 571.9 473.5 572.1C473.6 572.9 474.3 573.8 473.4 574.4C473 574.7 472.3 574.7 471.2 574.5C462.4 573.2 453.6 571.8 444.8 570.5C440.8 569.9 436.8 569.1 432.7 568.5C425.4 567.6 418.2 566.4 410.9 565.3C399.4 563.6 387.8 562.1 376.3 560.2C368.6 558.9 360.9 557.6 353.2 556.4C347.7 555.5 342.1 554.8 336.6 553.9C328 552.5 319.4 551.2 310.9 549.8C303 548.5 295.2 547.2 287.3 545.7C279.6 544.3 271.8 542.8 264 541.8C263.1 541.7 262.1 541.3 261.2 541.4H260.5C257.4 540.7 254.3 540.4 251.2 539.8C244.8 538.7 238.4 537.8 231.9 536.4C228.8 535.7 225.4 535.1 222 534.6C219.3 534.2 216 533.3 213.3 533.1C210 532.8 210.2 532.2 209.7 531.6C209.5 531.4 209.7 531.2 210 531.1C210.8 530.8 212.3 530.7 212.1 530C212 529.6 213.7 530 214.6 530.1C229.8 532.5 245 535.3 260.3 538C270.7 539.8 281.1 541.5 291.5 543.3C301.7 545 311.8 546.9 322 548.4C328.1 549.3 334.1 550.3 340.1 551.4C346.3 552.5 352.6 553.5 358.8 554.6C363 555.4 366.9 556.1 370.8 556.5Z" fill="#FFE082"/>
<path d="M472 572.1C472.2 572 472.4 572.1 472.5 572.6C472.5 572.8 472.6 573.2 472.5 573.6C472.5 574 472.4 574.6 472.2 575.2C471.2 578.7 468.9 581.7 466.3 583.8C463.7 586 460.6 587.5 457.4 588.4L457 588.5C452.8 589.6 448.5 589.9 444.4 589.5C440.8 589.2 437.2 588.6 433.8 588C430.3 587.4 426.9 586.8 423.4 586.1C415.7 584.5 407.8 583.3 400 581.8C390.6 580 381.3 578.5 371.9 576.9C363.9 575.6 356 574.4 348 573C342.5 572.1 337 571 331.5 569.9C329.5 569.6 327.5 569.2 325.5 568.9C323.1 568.5 320.8 568.2 318.3 567.3C316.2 566.6 313 566.3 310.2 565.8C306.4 565.1 302.6 564.3 298.8 563.7C294.9 563.1 291 562.2 287.1 561.8C284.8 561.4 282.6 560.9 280.4 560.6C275.4 559.9 270.5 558.8 265.6 557.8C258.7 556.5 251.8 555.2 244.9 554C238 552.7 230.9 551.8 224.2 548.9C219.1 546.7 214.3 543.2 211.4 538.2C210.3 536.2 209.9 534.4 209.8 532.9C209.7 531.4 210.1 530.1 210.4 528.9C210.9 527.6 211.2 527.4 211.5 527.8C211.6 528 211.7 528.4 211.8 528.9C211.9 529.4 212 530.1 212.1 530.9C212.7 534 214.3 536.9 216.5 539.4C217.6 540.6 218.8 541.7 220.1 542.7C221.4 543.7 222.8 544.5 224.3 545.3C229.8 548 236 549.4 242.4 550.4C245.7 551 249 551.6 252.3 552.2C252.4 552.3 252.5 552.3 252.7 552.3C257.2 553.3 261.9 554 266.4 554.8C268.9 555.2 271.3 555.8 273.7 556.3C275.4 556.7 277.8 556.9 279.8 557.2L299 560.5L303.5 561.3C305.3 561.8 307.2 561.9 309 562.3L312.3 562.9C313.7 563.1 315.1 563.4 316.4 563.6C319.3 563.9 322.2 564.5 325 565.2C325.3 565.3 325.7 565.3 326 565.3L327.8 565.5H327.9V565.6C330.4 566.1 332.9 566.4 335.4 566.8L336.5 567.1C336.5 567.1 336.5 567.1 336.6 567.1C336.6 567.1 336.6 567.1 336.7 567.1C340 567.7 343.4 568 346.7 568.8L352.6 569.9C352.9 570 353.2 570.2 353.6 570.1L354.5 570.2L354.7 570.1C356 570.3 357.4 570.5 358.6 571C358.9 571 359.2 571 359.5 571.2H359.6L364.3 571.9C365.3 572 366.2 572.1 367.1 572.5C367.8 572.8 368.9 572.5 369.9 572.9C370 572.9 370.1 572.9 370.2 573L383.4 575.2C388.8 576.6 394.5 577.4 400.1 578.3L418.5 581.4L425.8 582.6C426.1 582.6 426.5 582.6 426.8 582.8C428.8 583.2 431.1 583.6 432.7 583.8C435.5 584.1 438.3 584.6 441 585C443.9 585.4 446.7 585.6 449.5 585.5C452.3 585.4 455.1 585 457.5 584.1C459.1 583.5 460.6 582.7 461.8 581.6C462.4 581.2 462.7 580.9 463 580.8C463.3 580.7 463.5 580.7 463.7 580.7C464.1 580.8 464.5 580.8 465.1 580.5C465.4 580.3 465.7 580.1 466.1 579.7C466.4 579.3 466.9 578.9 467.2 578.2C467.7 577.5 468.2 576.5 468.6 575.8C469 575.1 469.4 574.7 469.8 575.4C469.9 575.7 470.2 574.9 470.4 574.4C470.5 574 470.6 573.7 470.7 573.4C470.8 573.1 470.8 572.9 470.9 572.7C471 572.3 471.2 572.2 471.3 572.1C471.5 571.9 471.8 572.2 472 572.1ZM328.5 566L328 565.8C328.1 565.9 328.1 565.9 328.2 566C328.3 566 328.4 566 328.5 566ZM346.4 569L346.6 568.9H346.3L346.4 569ZM355 570.4L354.4 570.3L355 570.4ZM365 572.2L364.2 572L364.9 572.3L365 572.2ZM425.8 582.7H425.7C425.7 582.7 425.7 582.7 425.8 582.7C425.8 582.7 425.7 582.7 425.8 582.7Z" fill="#FFE082"/>
<path d="M362.5 428.8C362.5 428.3 362.7 428 363.8 428C366.8 428.1 369.6 428.7 372.5 428.9H372.7C374.6 429.2 376.5 429.1 378.4 429.3C381.7 429.8 385.1 429.9 388.4 430.6C392.1 431.3 395.9 431.7 399.6 432.4C404.1 433.2 408.5 434.1 413 434.9L416.2 435.5C416.7 435.6 417.4 435.8 418.1 436.1C419 436.5 419.8 437.1 420.3 438C420.7 438.6 420.8 439.5 420.8 440.1C420.8 440.7 420.8 441.1 420.8 441.5L420.7 444C420.6 445.4 420.4 446.7 420.2 448L419.6 452C419.4 453 419.3 453.9 419.2 454.9C419 456.1 418.9 457.2 418.3 458.3C417.8 459.2 417.7 460.8 417.5 462.1C417.1 463.9 416.6 465.7 416.3 467.5C416 469.3 415.4 471.1 415.3 473C415.1 474.1 414.8 475.1 414.6 476.2C414.3 478.6 413.6 480.8 413.1 483.1C412.5 486.1 411.9 489 411.6 492C411.4 493.5 411.2 495 411.2 496.5L411.1 498.8C411.1 499.5 411 500.8 410.3 501.7C409.8 502.3 409 502.7 408.2 502.8C407.2 502.9 406.5 502.8 405.8 502.6C405.1 502.4 404.5 502.3 403.9 502.2L400.2 501.4C398.3 500.9 397.4 499.8 396.5 498.8C395.5 497.7 396.2 497.2 397.9 497.6C399.6 497.9 401.2 498.2 402.9 498.6C403.7 498.8 404.6 499 405.4 499.2L406.5 499.5C406.8 499.6 407.1 499.6 407.4 499.7C407.6 499.7 407.6 499.7 407.7 499.6L407.8 499.5V499.4V499.3L408 497.7C408.1 496.5 408.2 495.4 408.3 494.2C408.4 492.6 408.7 491 408.9 489.4C409 489.4 409 489.3 408.9 489.2C409.2 488.1 409.4 487 409.5 485.9C409.7 484.8 409.8 483.7 410 482.6C410.2 481.4 410.5 480.3 410.9 479.1C411.2 478.3 411.1 477.2 411.3 476.2L413.2 467.2L413.7 465.1C414.1 464.3 414.1 463.4 414.2 462.5L414.5 461C414.6 460.4 414.8 459.7 414.8 459.1C414.9 457.7 415.2 456.4 415.6 455.1C415.6 455 415.6 454.8 415.6 454.6L415.7 453.7C415.7 453.7 415.7 453.7 415.7 453.6H415.8C416.1 452.4 416.1 451.3 416.2 450.1L416.4 449.6C416.6 448 416.5 446.5 416.9 444.9C417 444 417.1 443 417.2 442.1C417.3 441.9 417.4 441.8 417.2 441.6L417.1 441.2L417 441.1C417 440.8 417 440.6 417 440.3C417 440.2 417.1 440.1 417.1 440H417C417 440 417 440 417 439.9C416.9 439.8 416.8 439.8 416.7 439.7C416.6 439.7 416.3 439.6 416.1 439.5C415.7 439.5 415.3 439.5 414.9 439.1C414.6 438.8 414 439.2 413.6 438.9H413.5C411.5 438.5 409.4 438 407.4 437.7C404.9 436.7 402.2 436.5 399.6 436.1C396.7 435.6 393.8 435.3 390.9 434.9C389.7 434.8 388.6 434.7 387.4 434.5C387.2 434.6 387.1 434.6 386.9 434.4C386 434.3 384.9 434.1 384.1 434.1C382.7 434.1 381.5 433.9 380.1 433.8C377.3 433.6 374.6 433.3 371.8 433.2C370.9 433.2 370 433.2 369.2 433.3C368.4 433.4 368.2 433.1 368.1 432.7C367.9 432 367.5 431.5 366 431.6C365.2 431.6 363.7 431.6 364.3 430.5C364.4 430.2 364 430.3 363.8 430.2C362 430 362.5 429.3 362.5 428.8ZM415.8 453.3L415.6 453.5C415.7 453.5 415.7 453.4 415.8 453.4C415.8 453.4 415.8 453.4 415.8 453.3ZM416.9 440.8V441.1V440.8ZM415.6 439.3L415.9 439.5C415.9 439.3 415.8 439.3 415.6 439.3Z" fill="#FFE082"/>
<path d="M369.2 496.5C369.2 497 369.1 497.3 368.4 497.3C367.6 497.3 366.8 497.2 365.9 497C365.5 496.9 365.1 496.9 364.6 496.8C364.1 496.7 363.6 496.7 363 496.5H362.9C362.5 496.4 362.1 496.2 361.6 496C361.1 495.8 360.6 495.4 360.3 494.9C360.2 494.8 360.1 494.6 360 494.5L359.9 494.3C358.2 495 362.2 493.3 361.8 493.5C361.8 493.5 361.8 493.5 361.7 493.6C361.7 493.6 361.6 493.8 361.6 493.9C361.6 494 361.5 494.1 361.5 494.2C361.4 494.4 361.4 494.5 361.3 494.7C361.2 494.9 361.2 495 361.2 495.2C361.2 495.3 361.2 495.3 361.1 495.5C361.1 495.6 361.1 495.5 361.1 495.5C361.1 495.5 361.1 495.5 361 495.5C360.8 495.5 360.6 495.5 360.3 495.4C359.4 495.3 358.5 495.3 357.5 495.2H356.8L356 495.1C355.2 495 354.2 495 353.5 494.7C352.7 494.4 352.3 493.8 352.2 493L352.1 492.4C352.1 492.2 352.1 491.9 352.1 491.7L352.2 490.3C352.3 489.2 352.3 488.1 352.5 487C352.7 485.7 352.9 484.4 353 483.1C353.2 481.8 353.3 480.5 353.5 479.2C353.8 477 354.1 474.8 354.5 472.6C354.8 471.1 355.3 469.6 355.7 468.1C355.8 467.6 355.9 467 356.1 466.5C356.3 465.8 356.3 465.2 356.9 464.6C357.4 464.1 357.3 463.2 357.5 462.4C357.8 461.4 358.1 460.4 358.3 459.4C358.5 458.3 358.9 457.3 358.8 456.2C359 455.6 359.2 455 359.2 454.4C359.3 453 359.9 451.8 360.2 450.4C361.2 446.7 361.9 443 362.2 439.2C362.3 437.7 362.3 436.3 362.3 434.8C362.3 433.7 363.2 433.1 364 432.5C364.9 431.8 365.4 432.2 365.5 433.2C365.6 434.2 365.6 435.2 365.7 436.2C365.7 437.2 365.7 438.2 365.6 439.2C365.4 441 365 442.8 364.7 444.5C364.6 445.4 364.4 446.3 364.2 447.2C364.1 447.2 364.1 447.3 364.2 447.3C363.7 448.5 363.6 449.8 363.4 451.1C363.3 451.8 363 452.4 362.7 453.1C362.5 453.5 362.6 454.2 362.5 454.8L361.3 460L361 461.2C360.7 461.6 360.8 462.2 360.7 462.7C360.6 463 360.5 463.3 360.5 463.6C360.4 464 360.3 464.3 360.3 464.7C360.3 465.5 360 466.3 359.7 467C359.7 467.1 359.7 467.2 359.7 467.3V467.8H359.6C359.3 468.4 359.3 469.1 359.2 469.8L359 470C358.8 470.9 358.8 471.8 358.5 472.7L358.1 474.3C358 474.4 357.9 474.4 358.1 474.6V474.8L358.2 474.9C358.1 475.3 358.1 475.6 357.8 475.9C357.8 476 357.9 476.1 357.8 476.1L357.7 477.4C357.7 477.7 357.8 477.9 357.4 478.2C357.1 478.4 357.6 478.7 357.3 479V479.1C357.1 480.3 356.9 481.5 356.8 482.7C356.1 484.1 356.1 485.7 356 487.2C355.9 488 355.8 488.9 355.8 489.7V490.3V490.6V490.7V491.1C355.7 491.4 356.1 491.3 356.3 491.3C356.4 491.2 356.4 491.2 356.4 491.3C356.5 491.3 356.5 491.3 356.7 491.3C357 491.3 357.2 491.3 357.5 491.3C358.3 491.2 359 491.2 359.8 491.2C360.2 491.2 360.6 491.2 361.1 491.2C361.3 491.2 361.5 491.2 361.8 491.3C361.9 491.3 362 491.3 362.2 491.4H362.3H362.5C362.6 491.4 362.6 491.4 362.8 491.5L363 491.6L363.1 491.7L363.2 491.8C363.3 491.8 363.3 491.9 363.4 492C363.5 492.1 363.6 492.2 363.7 492.4C363.7 492.5 363.8 492.5 363.8 492.6L363.9 492.7V492.8C363.7 492.9 364.3 492.6 363.5 493H363.6C363.6 493 363.7 492.9 363.8 492.8C363.8 492.7 363.9 492.7 363.9 492.6C363.9 492.5 363.9 492.6 363.9 492.6C363.9 492.6 364.1 492.7 364.4 492.7C364.7 492.7 365.1 492.6 365.6 492.5C366 492.4 366.2 492.6 366.2 493C366.3 493.7 366.5 494.2 367.4 494.1C367.9 494 368.7 494.1 368.4 495.1C368.3 495.4 368.6 495.3 368.7 495.3C369.5 495.3 369.1 496 369.2 496.5ZM359.3 467.8L359.5 467.7C359.5 467.7 359.4 467.7 359.3 467.8ZM358 475V474.8V475ZM357.5 477.7L357.6 477.5L357.5 477.7Z" fill="#FFE082"/>
<path d="M313.7 424.3C314.2 424.4 314.8 424.5 315.3 424.6C316.9 424.8 318.4 425.2 320 425.5C321.7 425.8 323.3 426.1 325 426.4C326.2 426.7 327.5 426.9 328.7 427.4C328.9 427.5 329.2 427.5 329.5 427.5C329.6 427.5 329.7 427.5 329.7 427.8C329.6 428.6 329.6 429.3 329.3 430.1C329.2 430.4 329.1 430.5 328.9 430.5C327.5 430.2 326.2 429.8 324.8 429.5C324.2 429.3 323.6 429 323 428.9C321.9 428.8 320.7 428.5 319.6 428.3C317.8 428 316 427.9 314.2 427.5C313 427.2 311.8 426.9 310.6 426.7C309.7 426.6 308.9 426.5 308 426.3C306.7 426.1 305.3 425.9 304 425.7C302.8 425.5 301.5 425.3 300.3 424.9C299.1 424.5 297.9 424.2 296.6 424.4C296.4 424.4 296.3 424.2 296.2 424.4C296.2 424.4 296.1 424.4 296.1 424.5C295.6 424.3 295.1 424.4 294.6 424.3C293.6 424.1 292.6 424.1 291.6 423.7C291.1 423.5 290.6 423.4 290.1 423.4C289.7 423.4 289.2 423.1 288.7 423.2C288.1 423.4 288.3 422.8 288.3 422.3C288.3 422.1 288.4 421.9 288.4 421.8C288.6 421.3 288.9 421 288.9 420.4C288.9 420 289.2 420.1 289.3 420.1C291.7 420.2 294.1 420.7 296.5 421.2C298.1 421.5 299.8 421.7 301.4 422C303 422.3 304.5 422.8 306.2 422.9C307.2 423 308.1 423.2 309 423.5C310 423.8 310.9 424 311.9 424.2C312.5 424.2 313.1 424.4 313.7 424.3Z" fill="#FFE082"/>
<path d="M306.6 441.2C307.2 441.3 307.9 441.3 308.5 441.5C310.8 441.9 313.2 442.4 315.5 442.8C315.6 442.8 315.7 442.8 315.9 442.8C317.3 443.1 318.7 443.4 320.1 443.6C323.4 444.2 326.7 444.8 329.9 445.6C330.4 445.7 331.3 445.9 331.1 446.7C330.9 447.6 330.3 448 329.4 447.8C327.3 447.3 325.1 446.7 323 446.5C319.8 446.2 316.7 445.5 313.6 445C310.8 444.5 308 444 305.1 443.5C302.4 443.1 299.8 442.8 297.1 442.3C294.8 441.9 292.6 441.3 290.3 440.8C289.8 440.7 289.2 440.5 288.6 440.8C288 440.3 287.2 440.9 286.7 440.2C286.5 440.1 286.3 440.1 286.1 440C285.1 440 284.9 439.6 285.4 438.7C285.5 438.5 285.5 438.2 285.7 438.1C286.5 437.6 287.2 438 287.9 438.1C291.4 438.7 294.9 439.3 298.4 439.9C300.5 440.3 302.7 440.7 304.8 441C305.4 441.1 306 441.1 306.6 441.2Z" fill="#FFE082"/>
<path d="M316.9 465.5C317.7 465.6 318.4 465.8 319.2 465.9C321.5 466.2 323.7 466.7 326 467.2C328.4 467.7 330.8 468 333.2 468.5C335 468.9 336.8 469.2 338.6 469.8C338.9 469.9 339.3 469.9 339.7 470C339.8 470 340.1 470 340 470.3C339.9 471.1 339.9 471.8 339.6 472.6C339.5 472.9 339.3 473 339 472.9C337 472.4 335.1 472 333.1 471.5C332.2 471.3 331.3 470.9 330.4 470.8C328.7 470.6 327.1 470.2 325.5 469.9C322.9 469.4 320.3 469.2 317.7 468.7C316 468.3 314.3 467.9 312.5 467.6C311.3 467.4 310 467.3 308.7 467C306.8 466.7 304.8 466.4 302.9 466.1C301.1 465.8 299.3 465.5 297.6 465C295.9 464.6 294.1 464.1 292.3 464.2C292.1 464.2 291.9 464 291.7 464.1C291.6 464.1 291.6 464.1 291.5 464.2C290.8 463.9 290.1 464 289.4 463.9C287.9 463.6 286.5 463.6 285.1 463.1C284.4 462.8 283.6 462.7 282.9 462.6C282.3 462.6 281.6 462.2 280.9 462.3C280.1 462.5 280.2 461.9 280.2 461.3C280.2 461.1 280.3 460.9 280.3 460.8C280.5 460.4 280.9 460.1 281 459.4C281 459 281.4 459.2 281.6 459.2C285.1 459.5 288.5 460.2 292 460.9C294.3 461.3 296.7 461.7 299.1 462.1C301.4 462.5 303.7 463.1 306 463.4C307.4 463.6 308.7 463.8 310.1 464.2C311.5 464.6 312.9 464.8 314.3 465.1C315.1 465.3 316 465.5 316.9 465.5Z" fill="#FFE082"/>
<path d="M322.7 488.5C322.7 489 322.5 489.3 322.2 489.3C321.3 489.2 320.5 488.7 319.6 488.6C319.6 488.6 319.6 488.6 319.5 488.6C318.9 488.4 318.3 488.6 317.8 488.4C316.8 488.2 315.8 488.2 314.8 487.9C313.7 487.5 312.5 487.5 311.4 487.3C310.1 487 308.7 486.9 307.3 486.8C306.1 486.7 305 486.7 303.8 486.6C303 486.5 302.2 486.3 301.4 486.1C301.1 486 300.8 486.1 300.5 486C300.1 485.9 299.8 486 299.5 485.5C299.2 485.1 298.7 485.3 298.3 485.2C297.8 485.1 297.2 484.9 296.7 484.9C296.1 484.9 295.6 484.6 295 484.8C294.7 484.7 294.4 484.6 294 484.6C293.2 484.7 292.6 484.3 291.9 484.1C289.9 483.6 287.9 483.3 285.9 483.1C285.1 483 284.3 483.1 283.5 483.1C282.9 483.1 282.7 482.2 282.4 481.4C282.1 480.5 282.4 480 282.9 479.9C283.9 479.8 285 479.6 286 479.8C286.9 479.9 287.8 480.2 288.8 480.3C289.3 480.3 289.8 480.5 290.2 480.5C290.2 480.6 290.2 480.6 290.3 480.5C290.9 480.8 291.6 480.8 292.3 480.9C292.7 481 293 481.1 293.3 481.3C293.5 481.4 293.9 481.3 294.2 481.3C295.1 481.4 296.1 481.5 297 481.7C297.2 481.7 297.4 481.8 297.6 481.8C297.8 482 298.1 481.9 298.4 481.9C298.6 481.9 298.7 482 298.9 482C299.1 482 299.3 482.1 299.5 482C299.9 481.9 300.4 482 300.7 482.2C300.7 482.2 300.8 482.2 300.9 482.1C301 482.1 301.1 482.1 301.2 482.1C301.2 482.1 301.2 482.1 301.2 482.2C301.5 482.4 301.9 482.3 302.3 482.2L302.4 482.3C302.9 482.3 303.4 482.2 303.9 482.4C304.2 482.5 304.5 482.5 304.8 482.6C304.8 482.7 304.9 482.8 304.9 482.6C304.9 482.6 305 482.6 305 482.5C305 482.5 305 482.4 305.1 482.4C305.3 482.4 305.5 482.4 305.6 482.7C305.7 482.6 305.7 482.6 305.7 482.7C305.9 482.7 306.2 482.7 306.4 482.7C306.6 482.6 306.7 482.6 306.8 482.9C306.9 483.1 307.1 482.6 307.2 482.9C307.8 483 308.5 483 309.1 483.1C309.8 483.7 310.7 483.5 311.5 483.6C312.4 483.7 313.3 483.8 314.2 483.8C314.6 483.8 314.9 483.8 315.3 483.8C315.4 483.7 315.4 483.7 315.4 483.8C315.7 483.9 316 483.9 316.3 483.9C316.7 483.8 317.1 483.9 317.5 483.9C318.4 483.9 319.2 484 320.1 484.1C320.4 484.1 320.7 484 320.9 484C321.1 483.9 321.2 484.1 321.2 484.5C321.2 485.2 321.3 485.7 321.7 485.6C322 485.6 322.4 485.6 322.1 486.7C322 487 322.2 486.9 322.2 487C322.9 487.3 322.7 488 322.7 488.5ZM301.4 482.6C301.4 482.5 301.4 482.5 301.3 482.4C301.3 482.5 301.3 482.5 301.4 482.6C301.3 482.6 301.3 482.6 301.4 482.6ZM304 482.8C304 482.8 304 482.7 304 482.8C304 482.7 304 482.7 304 482.8ZM305.2 482.9C305.2 482.9 305.2 482.8 305.2 482.9V482.9ZM306.7 483.1L306.6 483C306.6 483 306.6 483.1 306.7 483.1Z" fill="#FFE082"/>
<path d="M383.1 519.2C383.1 519.3 383.1 519.3 383.1 519.4C383.5 520.2 384.2 520.8 385.1 520.9C385.9 521.1 386.8 520.9 387.6 520.4C388.1 520.1 388.1 520 388.3 519.9L388.9 519.5C389.3 519.2 389.6 519 390 518.8C390.3 518.7 390.5 518.6 390.9 518.4C391.3 518.3 391.6 518.1 392 518C392.7 517.7 393.5 517.4 394.2 517L396.2 516.1C396.8 515.8 397.3 515.4 397.6 514.9C397.9 514.4 398 513.7 397.9 513.1C397.8 512.8 397.7 512.5 397.6 512.2L397.3 511.6C397.1 511.2 397 510.9 396.8 510.5C396.6 510.2 396.4 509.8 396.2 509.5L395.7 508.6C395.2 507.6 394.7 506.6 394.2 505.6C394 505.1 393.7 504.6 393.5 504.1L393 502.9C392.9 502.8 392.9 502.7 393.1 502.6C393.1 502.6 393.1 502.6 393.2 502.6L393.5 502.3C393.5 502.3 393.9 502.1 394.1 501.9L397.1 500.1C398.2 499.5 399.3 498.8 400.3 498.1L401.4 497.4C401.9 497.1 402.3 496.8 402.6 496.4C402.9 496 403 495.5 402.9 495.1C402.9 494.6 402.4 494.3 402.2 493.9L401.1 492.6C400.8 492.3 400.5 492.1 400.2 491.8L398.5 490.4C397.4 489.5 396.5 488.4 395.6 487.2C395 486.4 394.2 485.5 393.4 484.8L391.1 482.6L389.4 480.9C388.8 480.3 388.2 479.8 387.6 479.3C386.4 478.2 385.2 477.2 383.9 476.1C383.1 475.4 382.2 474.9 381.5 474.1C380.8 473.3 379.9 472.8 379 472.2C377.9 471.6 376.8 470.9 375.8 470.1C375.5 469.9 375.4 469.8 374.8 469.4C374.3 469.1 373.8 468.8 373.4 468.7C372.9 468.6 372.5 468.6 372 468.7C371.5 468.8 371.1 469.2 370.9 469.5C370.7 469.8 370.6 470 370.5 470.4C370.3 471.6 370.5 472.1 370.7 472.3C370.9 472.6 371.1 472.4 371.3 472C371.5 471.6 371.6 471.1 371.8 470.5C372 470.1 372.5 469.8 373 470C372.7 470 372.1 470.2 372.1 470.7C372 471.4 372.2 472.1 372.5 472.2C372.8 472.3 373 472.1 373.2 472.1C373.3 472.1 373.3 472.1 373.3 472.1C373.3 472.1 373.3 472 373.4 472C373.5 471.9 373.7 472.1 373.7 472.3V472.4C373.7 472.4 373.7 472.4 373.8 472.5L373.9 472.6C374.1 472.7 374.3 472.8 374.5 472.9C375.9 473.7 377.4 474.4 378.6 475.4C380 476.4 381.4 477.5 382.7 478.7C384.1 479.9 385.4 481 386.8 482.3C388.3 483.8 389.9 485.2 391.4 486.7C392.2 487.5 392.9 488.3 393.7 489.1C394.4 490 395.2 490.9 396.1 491.7C396.9 492.5 397.7 493.2 398.6 493.7L399.1 494.2C399.2 494.3 399.2 494.4 399.3 494.4C399.4 494.5 399.6 494.7 399.6 494.8C399.6 494.9 399.5 495 399.4 495.1L399.3 495.2L399 495.4L398.3 495.8C397.1 496.5 395.8 497.2 394.6 498C393.3 498.8 392.4 499.3 390.4 500.7C390.1 501 390 501.4 390 501.8C390 502.2 390.1 502.6 390.3 503.1C390.4 503.3 390.5 503.6 390.5 503.7L390.7 504.1L391 504.9C391.4 505.9 391.9 506.9 392.4 507.9C392.8 508.8 393.3 509.7 393.8 510.5C394.1 511 394.2 511.3 394.5 511.7L394.8 512.3L395 512.8C395.1 512.9 395.1 513.1 395.1 513.2C395.1 513.3 395 513.3 394.9 513.4C394.8 513.5 394.8 513.4 394.6 513.6C393.7 514 392.8 514.3 391.9 514.7L389.8 515.5C389.5 515.6 389 515.8 388.7 516C388.3 516.2 388 516.4 387.6 516.6C387 517 386.1 517.6 386.1 517.6C385.9 517.7 385.6 517.6 385.5 517.3L385 516.1C384.5 514.7 383.8 513.3 383.2 511.8C382.9 511.1 382.6 510.4 382.2 509.6C382 509.2 381.8 508.8 381.6 508.5C381.4 508.1 381.3 508 380.8 507.3C380.5 506.8 380.2 506.4 379.7 506.2C379.2 506 378.7 506 378.2 506.1C377.9 506.2 377.5 506.4 377.2 506.5L376.5 506.8L375.4 507.4L373.2 508.5C371.7 509.3 370.5 509.8 369.2 510.3L369 510.4C368.9 510.4 369 510.4 368.9 510.4C368.9 510.4 368.9 510.4 368.8 510.4C368.8 510.4 368.7 510.4 368.7 510.3C368.7 510.3 368.7 510.3 368.7 510.2V510L368.9 508.8L369.5 504.1L369.9 501.1L370.3 497.9L371 491.6C371.2 490 371.4 488.4 371.6 486.7L372.3 481.8C372.6 479.9 372.8 478 373 476.1C373.1 475.2 373.1 474.4 372.7 474.2C372.5 474.2 372.6 473.9 372.6 473.6C372.6 472.9 372.5 472.4 372.4 472.3L371.9 472.7C372 472.6 372 472.5 371.9 472.3L372.1 472.2C372 472.2 371.9 472.3 371.8 472.4C371.5 472.6 371.2 472.7 371 472.7C370.4 472.6 370 473.3 369.9 474.8C369.7 477.2 369.4 479.7 369.1 482.1C368.9 483.6 368.7 485 368.5 486.5C368.3 488 368 489.4 367.9 490.9C367.6 493 367.4 495.1 367.2 497.1C367.1 498.6 366.8 500.1 366.7 501.7C366.6 502.7 366.5 503.9 366.3 504.9C366.4 505.1 366.3 505.4 366.2 505.6C366 506.1 366.3 506.4 366.1 507C365.9 507.6 365.8 508.2 365.8 508.9L365.7 509.9L365.6 510.4V510.6V511C365.7 512 366.3 513 367.2 513.5C367.7 513.7 368.2 513.9 368.7 513.8C368.8 513.8 369 513.8 369.1 513.7L369.3 513.6L369.4 513.5C369.6 513.4 369.7 513.3 369.9 513.2C370 513.1 370.3 513.1 370.5 513C371.3 512.7 372.2 512.4 373 512.1C373.8 511.8 374.4 511.4 375 510.9C375.1 510.8 375.5 510.7 375.7 510.6C376.1 510.4 376.6 510.3 377 510V509.8C377.3 509.8 377 509.9 376.9 510C377.2 510 377.4 509.8 377.7 509.7L378.1 509.5C378.2 509.4 378.4 509.3 378.4 509.3C378.4 509.3 378.4 509.3 378.4 509.2H378.5L378.6 509.4L378.9 509.9C379.2 510.3 379.2 510.7 379.5 511.1C380 511.9 380.6 512.7 380.7 513.7C380.8 514.1 381.1 514.6 381.4 515C381.6 515.4 381.8 515.8 381.7 516.2C382 516.9 382.1 517.6 382.6 518.2C382.9 518.8 383 518.9 383.1 519.2C383.1 519.1 383.1 519.1 383.1 519.2Z" fill="#FFE082"/>
</svg>
